<svg xmlns="http://www.w3.org/2000/svg" width="239" height="190"><path fill="#ec6c22" d="M199.063-.687c.42.01.42.01 2.56.03 7.51.3 13.15 2.4 19.38 6.66.52.35.52.35 3.18 2.12 8.31 7.67 14.45 17.1 15.32 28.49.05 1.57.06 3.13.06 4.7v2.5c-.21 7.51-2.6 12.85-6.56 19.19-1.36 3.03-2.65 6.07-3.82 9.19-3.87 10.14-8.48 21.39-17.24 28.18-3.36 3-4.42 5.44-5.94 9.63-.66 1.34-1.31 2.67-2 4 .72.22 1.44.45 2.18.69 3.44 1.6 5.39 3.41 7.82 6.31.62 2.43.62 2.43 1 5 .45.88.9 1.77 1.37 2.69 1.78 3.61 2.83 7.16 3.88 11.04.75 2.27.75 2.27 2.75 5.27 1.3 10.83-.98 22.8-7 32-1.82 2.06-1.82 2.06-4 3-3.63-.13-3.63-.13-7-1l-2-3c-.43.59-.85 1.18-1.29 1.79-7.18 9.67-7.18 9.67-12.71 12.21-5.82.77-5.82.77-8.82-1.19-3.76-5.75-3.36-10.23-2.18-16.81 1.19-5.37 2.58-10.69 4-16-11.09-.94-18.87.67-28.96 5.24-8.25 3.72-16.91 5.06-25.9 5.25-.71.17-1.41.34-2.14.51-1.13 1.83-1.13 1.83-2 4-5.39 7.31-15.96 13.52-25 15-10.58.74-19.82-.06-28.31-6.77-1.76-1.28-3.44-2.06-5.44-2.92-5.85-2.82-13.52-8.03-16.02-14.2-.48-1.68-.87-3.4-1.23-5.11l-6 1 .94 3.62c1.87 8.53 3.62 18.14.06 26.38-2 2-2 2-5.75 2.37-4.5-.16-6.83-1.32-10.25-4.37-2.5-3.23-4.79-6.57-7-10-.59.64-1.18 1.29-1.79 1.96-2.21 2.04-2.21 2.04-5.65 2.66-3.81-.67-5.28-1.53-7.51-4.69-4.62-8.47-4.54-17.57-4.49-27l-.06-3.97c0-7.58.65-13.37 4.5-19.96.16-.33.16-.33 1-2h2c.25-.61.5-1.21.76-1.83 2.09-3.66 5.56-5.3 9.24-7.17 3-.81 3-.81 5-1-.36-.49-.72-.97-1.1-1.47-3.52-5.1-4.92-8.33-3.9-14.53 2.24-2.93 3.82-4.59 7.31-5.81.28-.04.28-.04 1.69-.19-.35-.68-.7-1.36-1.06-2.07-1.22-3.79-.99-6.1.06-9.93 3.06-3.23 5.6-4.5 10-5 .01-.59.03-1.19.04-1.8.26-4.22.61-6.69 3.02-10.27 3.98-2.62 6.24-2.33 10.94-1.93l.18-3.75c.43-3.17.74-4.16 2.82-6.75 4.51-2.26 9.25-2.35 14.09-.86 1.91.36 1.91.36 4.91-1.64h4c.17-.61.34-1.21.51-1.83 2.67-8.8 2.67-8.8 6.49-11.17 4.9-.63 6.96-.57 11.31 1.81 2.03 1.65 3.94 3.24 5.69 5.19.22-.6.45-1.2.68-1.81 1.75-2.92 3.15-3.97 6.32-5.19 4.22 1.43 6.65 3.22 9 7 2.23-1.04 4-2.01 5.87-3.63 2.9-1.87 4.74-1.8 8.13-1.37 2.37 1.37 2.37 1.37 4 3v2c2.71-1.62 5.37-3.25 8-5 4.62-.82 7.98-.71 11.87 2 2.55 3.6 3.78 6.81 5.13 11l2-1c1.66-.07 3.33-.09 5-.07.44.01.44.01 2.68.03.39.01.39.01 2.32.04h2c-.33-.79-.65-1.57-.98-2.38-1.3-4.6-1.35-8.81-1.34-13.56-.01-.87-.03-1.74-.04-2.63-.01-6.31.68-11.57 5.17-16.37 3.88-1.88 7.19-1.39 11.19-.06l-1-2c-.52-3.88-.4-5.47 1.95-8.66 4.11-3.16 7.06-3.15 12.11-3.03m-12.06 15.69c1.24 3.43 2.5 6.3 5 9h3v-6c-.77-.13-1.53-.25-2.32-.38-2.68-.62-2.68-.62-5.68-2.62m-14 35 1 2Zm2 5c-.13.8-.25 1.61-.38 2.43-.2.85-.41 1.7-.62 2.57-.33.16-.33.16-2 1l1 3 2.11.18c.91.08 1.82.17 2.76.25.91.09 1.81.17 2.74.25 2.39.32 2.39.32 4.39 1.32.77 4.02 1.12 7.9 1 12 1.41.34 2.83.67 4.25 1 .79.18 1.58.37 2.39.56 2.36.44 2.36.44 6.36.44 1.35-4.06.52-6.05-1-10-4.11-4-4.11-4-7-4-.21-.62-.41-1.24-.63-1.88-1.94-3.01-3.98-3.19-7.37-4.12-3.42-1.2-5.62-2.25-8-5"/><path fill="#6c2317" d="M214.695 8.34c9.61 5.56 15.21 13.22 18.64 23.74 2.06 9.1 1.32 17.76-3.34 25.92-.66.77-1.33 1.54-2.01 2.33-3.06 4.12-3.7 8.66-4.86 13.59-1.13 3.08-1.13 3.08-3.23 4.31-.62.25-1.25.51-1.9.77-.06.52-.06.52-.37 3.13-1.07 6.64-5.24 10.88-10.38 15-3.24 2.62-4.18 4.79-5.25 8.87-.51.62-1.03 1.24-1.56 1.88-2.18 3.22-2.11 6.27-2.44 10.12.91.1 1.82.21 2.75.31 3.29.7 4.86 1.39 7.25 3.69v2c.75.19 1.49.37 2.25.56 3.69 1.93 5.34 4.64 6.75 8.44 2.49 13.88 1.34 26.04-4 39l-2 2c-1.98-.06-1.98-.06-4-1-1.26-2.28-1.26-2.28-2.25-5.06-.33-.92-.67-1.84-1.01-2.79-.24-.71-.49-1.42-.74-2.15-.32.75-.65 1.5-.99 2.27-3.49 7.52-7.52 14.4-14.01 19.73h-4c-4.49-8.99 2.09-24.11 5-33l1-3c-.62.17-1.24.35-1.88.52-2.73.42-4.93.47-7.67.33-10.88-.5-18.58.18-28.17 5.4-5.76 3.08-11.55 4.53-18.04 5.05-10.26.84-10.26.84-13.36 3.58-1.09 1.55-2.14 3.13-3.14 4.73-3.86 5.32-10.13 8.26-16.05 10.83-9.68 1.47-19.03 1.65-27.69-3.44-.49-.5-.99-1-1.5-1.52-1.8-1.78-3.45-2.44-5.81-3.35-8.42-3.66-12.33-8.74-15.69-17.13v-2c-1.29.04-2.59.08-3.93.13-4.9.01-9.35-.88-14.07-2.13l.84 2.96c2.94 10.55 4.37 20.06 4.16 31.04l-5 1c-6.57-6.43-10.19-13.77-14-22-.24.7-.48 1.4-.73 2.12-.33.91-.67 1.82-1.02 2.76-.32.9-.64 1.8-.98 2.74-1.44 2.7-2.44 3.35-5.27 4.38-6.91-6.91-6.36-17.37-6.37-26.56-.02-.98-.05-1.96-.07-2.96-.04-7.87 1.43-14.01 6.66-20.04.38-.31.38-.31 2.28-1.88.76-.64 1.51-1.27 2.29-1.93 4.24-3.12 6.91-3.87 12.21-3.63-.25-4.85-.56-7.84-3.62-11.69-2.37-3.01-2.37-3.01-2.44-6.06 1.33-2.8 2.3-3.83 5.06-5.25 3.25-.19 3.25-.19 6 0-.49-1.03-.99-2.06-1.5-3.12-1.44-3.45-2.18-6.12-1.5-9.88 2.98-2.7 4.79-2.99 8.82-3.19 1.05.06 2.1.13 3.18.19-.16-.49-.33-.99-.5-1.5-.71-3.6-.67-6.83-.5-10.5 2-2 2-2 5.88-2.19 2.86.03 5.37.42 8.12 1.19-.02-.77-.04-1.54-.07-2.34-.01-1-.03-2-.05-3.03-.02-1-.05-2-.07-3.03.19-2.6.19-2.6 2.19-4.6 3.38.11 6.68.52 10.04.91l2.96.09 2-2c3.63-.12 3.63-.12 7 0l2-4h2c-.75 5.75-.75 5.75-3 8l-3.43-.06c-3.57.06-3.57.06-5.19 1.62-.45.48-.91.95-1.38 1.44-2.25-.19-2.25-.19-5-1-.62-.18-.62-.18-3.81-1.06-1.05-.31-2.1-.62-3.19-.94.02.85.03 1.71.04 2.59l.03 3.35.03 3.34c-.1 2.72-.1 2.72-1.1 3.72-2.19-.09-4.37-.25-6.56-.44-1.2-.1-2.39-.2-3.63-.31-.92-.08-1.85-.16-2.81-.25.09.37.09.37.5 2.23.67 3.69.63 7.02.5 10.77-1.66 1.66-3.78 1.36-6.06 1.56-.46.04-.46.04-2.78.26-.71.06-1.42.12-2.16.18.88 5.88.88 5.88 2 7-.08 1.53-.24 3.05-.43 4.56-.1.83-.21 1.66-.31 2.51-.04.32-.04.32-.26 1.93-1.15.33-1.15.33-7 2 1.08 2.92 1.78 4.78 4 7 .27 1.81.52 3.62.75 5.44 1.94 8.24 7.74 12.03 14.48 16.49 2.33 1.41 4.76 2.47 7.27 3.51 5.48 2.42 7.18 6.63 9.54 11.92.96 2.64.96 2.64.96 4.64 4.46-.93 7.37-2.09 10.94-4.94 3.21-2.55 6.07-4.05 9.96-5.29 2.09-.76 3.87-1.73 5.8-2.83 4.46-2.25 8.25-2.52 13.18-2.38.39.01.39.01 2.38.04 5.75.17 11.6.61 16.74 3.4 2.16 3.23 2.21 4.28 2 8 17.05-1.43 31.67-5.27 46.81-13.33 3.19-1.67 3.19-1.67 6.19-2.67v-2l3-1 2-2c.44-.28.44-.28 2.63-1.69 2.37-2.31 2.37-2.31 2.81-5.5-.32-2.83-.77-5.11-1.5-7.81-1.58-6.49-.94-13.44.06-20l2-2v-3l-8-1c-.91-5.69-.91-10.31 0-16l-14 1-1-12c-5 .62-10 1.27-15 2-2.2-3.31-2.78-5.82-3.62-9.69-.26-1.18-.52-2.36-.79-3.57-.1-.45-.1-.45-.59-2.74-1.46.96-2.91 1.91-4.37 2.88-.41.26-.41.26-2.46 1.61-2.17 1.51-2.17 1.51-4.17 3.51-1.95-.09-1.95-.09-4-1-1.48-2.07-1.48-2.07-2.75-4.56-.42-.83-.85-1.65-1.29-2.51-.32-.63-.63-1.27-.96-1.93-3.39 1.04-4.83 1.79-7.06 4.63-.64.78-1.28 1.56-1.94 2.37h-4c-1.34-1.5-1.34-1.5-2.5-3.44-1.15-1.93-1.15-1.93-2.5-3.56-.66-.16-.66-.16-4-1l-6 9c-4-1-4-1-7.06-3.56-2.94-2.44-2.94-2.44-5.94-2.44l-2 4h-2c.75-5.75.75-5.75 3-8 4.84.22 7.55 1.65 11 5v2c2.14-1.92 3.38-3.62 4.88-6.12 2.12-2.88 2.12-2.88 4.56-4.07 3.86.28 5.09 2.34 7.56 5.19.39.38.39.38 2.32 2.31.55.56 1.11 1.12 1.68 1.69.13-.3.13-.3.75-1.81 1.49-2.6 2.63-3.73 5.25-5.19 3.25-.19 3.25-.19 6 0l5 9c4-2 4-2 5.88-4.12 2.12-1.88 2.12-1.88 5.19-2.32 2.93.44 2.93.44 4.68 1.44 2.68 4.29 3.25 9.02 3.25 14 .58-.22 1.16-.43 1.76-.66 4.51-1.6 8.39-2.93 13.24-2.34 2 2 2 2 2.2 4.6-.02 1-.05 2-.07 3.03-.02 1-.04 2-.05 3.03-.03.78-.05 1.55-.08 2.34q1.125-.24 2.28-.48c4-.76 7.97-1.48 11.66.54 2.24 4.09 1.24 8.64.06 12.94.31.02.31.02 1.87.15.81.07 1.61.15 2.45.23.8.06 1.6.13 2.42.21 2.26.41 2.26.41 5.26 2.41v2c2.63-1.94 2.63-1.94 5-5 .21-3.35-.54-5.99-2-9-2.09-2.37-4.45-4.14-7-6-1.33-1.33-2.66-2.67-4-4-.94-.66-1.89-1.32-2.87-2-6.03-4.93-9.24-13.46-10.13-21-.45-6.8-.08-12.82 3-19 2.13 0 2.13 0 5 1 6 6.39 6 6.39 6 10 .59.1 1.17.2 1.77.31 2.61.81 3.97 1.93 5.98 3.75.62.55 1.23 1.1 1.86 1.66.46.42.92.85 1.39 1.28-.88-5.54-.88-5.54-1.48-7.9-.52-2.1-.52-2.1-.87-4.47-.96-6.15-2.51-9.06-6.65-13.63V6c7.77-2.59 16.48-1.25 23.7 2.34"/><path fill="#c7ebc4" d="M199.063-.687c.42.01.42.01 2.56.03 7.51.3 13.15 2.4 19.38 6.66.52.35.52.35 3.18 2.12 8.31 7.67 14.45 17.1 15.32 28.49.05 1.57.06 3.13.06 4.7v2.5c-.21 7.51-2.6 12.85-6.56 19.19-1.36 3.03-2.65 6.07-3.82 9.19-3.87 10.14-8.48 21.39-17.24 28.18-3.36 3-4.42 5.44-5.94 9.63-.66 1.34-1.31 2.67-2 4 .72.22 1.44.45 2.18.69 3.44 1.6 5.39 3.41 7.82 6.31.62 2.43.62 2.43 1 5 .45.88.9 1.77 1.37 2.69 1.78 3.61 2.83 7.16 3.88 11.04.75 2.27.75 2.27 2.75 5.27 1.3 10.83-.98 22.8-7 32-1.82 2.06-1.82 2.06-4 3-3.63-.13-3.63-.13-7-1l-2-3c-.43.59-.85 1.18-1.29 1.79-7.18 9.67-7.18 9.67-12.71 12.21-5.82.77-5.82.77-8.82-1.19-3.76-5.75-3.36-10.23-2.18-16.81 1.19-5.37 2.58-10.69 4-16-11.09-.94-18.87.67-28.96 5.24-8.25 3.72-16.91 5.06-25.9 5.25-.71.17-1.41.34-2.14.51-1.13 1.83-1.13 1.83-2 4-5.39 7.31-15.96 13.52-25 15-10.58.74-19.82-.06-28.31-6.77-1.76-1.28-3.44-2.06-5.44-2.92-5.85-2.82-13.52-8.03-16.02-14.2-.48-1.68-.87-3.4-1.23-5.11l-6 1 .94 3.62c1.87 8.53 3.62 18.14.06 26.38-2 2-2 2-5.75 2.37-4.5-.16-6.83-1.32-10.25-4.37-2.5-3.23-4.79-6.57-7-10-.59.64-1.18 1.29-1.79 1.96-2.21 2.04-2.21 2.04-5.65 2.66-3.81-.67-5.28-1.53-7.51-4.69-4.62-8.47-4.54-17.57-4.49-27l-.06-3.97c0-7.58.65-13.37 4.5-19.96.16-.33.16-.33 1-2h2c.25-.61.5-1.21.76-1.83 2.09-3.66 5.56-5.3 9.24-7.17 3-.81 3-.81 5-1-.36-.49-.72-.97-1.1-1.47-3.52-5.1-4.92-8.33-3.9-14.53 2.24-2.93 3.82-4.59 7.31-5.81.28-.04.28-.04 1.69-.19-.35-.68-.7-1.36-1.06-2.07-1.22-3.79-.99-6.1.06-9.93 3.06-3.23 5.6-4.5 10-5 .01-.59.03-1.19.04-1.8.26-4.22.61-6.69 3.02-10.27 3.98-2.62 6.24-2.33 10.94-1.93l.18-3.75c.43-3.17.74-4.16 2.82-6.75 4.51-2.26 9.25-2.35 14.09-.86 1.91.36 1.91.36 4.91-1.64h4c.17-.61.34-1.21.51-1.83 2.67-8.8 2.67-8.8 6.49-11.17 4.9-.63 6.96-.57 11.31 1.81 2.03 1.65 3.94 3.24 5.69 5.19.22-.6.45-1.2.68-1.81 1.75-2.92 3.15-3.97 6.32-5.19 4.22 1.43 6.65 3.22 9 7 2.23-1.04 4-2.01 5.87-3.63 2.9-1.87 4.74-1.8 8.13-1.37 2.37 1.37 2.37 1.37 4 3v2c2.71-1.62 5.37-3.25 8-5 4.62-.82 7.98-.71 11.87 2 2.55 3.6 3.78 6.81 5.13 11l2-1c1.66-.07 3.33-.09 5-.07.44.01.44.01 2.68.03.39.01.39.01 2.32.04h2c-.33-.79-.65-1.57-.98-2.38-1.3-4.6-1.35-8.81-1.34-13.56-.01-.87-.03-1.74-.04-2.63-.01-6.31.68-11.57 5.17-16.37 3.88-1.88 7.19-1.39 11.19-.06l-1-2c-.52-3.88-.4-5.47 1.95-8.66 4.11-3.16 7.06-3.15 12.11-3.03m-12.06 15.69c1.24 3.43 2.5 6.3 5 9h3v-6c-.77-.13-1.53-.25-2.32-.38-2.68-.62-2.68-.62-5.68-2.62m4-9c.5 5.55.5 5.55 2.94 7.75 3.22 3.51 3.31 7.65 4.06 12.25.32 1.33.66 2.67 1 4 .34 2 .68 4 1 6l-1.65-1.53c-.71-.65-1.43-1.3-2.17-1.97-.35-.33-.35-.33-2.14-1.97-2.04-1.53-2.04-1.53-5.04-1.53-.23-.52-.46-1.03-.69-1.57a79 79 0 0 0-3.69-6.18c-.4-.62-.8-1.23-1.21-1.86-1.41-1.39-1.41-1.39-5.41-1.39-4.01 6.01-3.65 14.06-2.73 21.07 2 9.33 6.23 16.18 13.73 21.93l5 5c.88.58 1.77 1.15 2.68 1.75 2.91 2.83 3.65 5.11 4.38 9.05-.06 2.2-.06 2.2-2.44 5.26-.86.64-1.73 1.28-2.62 1.94l-1-3c-2.3-1.15-4.08-1.31-6.63-1.57-.41-.04-.41-.04-2.47-.25l-1.9-.18c.16-.59.32-1.18.48-1.78.89-3.82 1.39-7.64-.54-11.16-4.34-2.38-9.33-1.05-13.94-.06.02-.77.04-1.54.07-2.34.02-1 .03-2 .05-3.04.03-1 .05-1.99.07-3.02-.19-2.6-.19-2.6-2.19-4.6-5.18-.13-10.2 1.15-15 3-.13-1.03-.25-2.07-.38-3.13-1.39-8.64-1.39-8.64-4.62-11.87-2.75-.5-2.75-.5-6 0-1.77 1.43-3.22 2.96-4.71 4.69-.42.43-.85.86-1.29 1.31h-2l-5-9c-2.94-.35-5.15-.52-7.74 1.04-1.64 1.33-1.64 1.33-4.26 3.96v2c-5-5-5-5-7-7.38-2-1.62-2-1.62-4.44-1.87-3.5 1.7-4.61 4.09-6.45 7.44-1.11 1.81-1.11 1.81-3.11 2.81-.23-.6-.46-1.2-.69-1.81-1.71-2.86-3.28-3.85-6.31-5.19-2.63 0-2.63 0-5 1-2.87 3.61-3.88 7.58-5 12-1.12-.04-2.23-.09-3.38-.13-3.62.13-3.62.13-5.62 2.13-3.38-.11-6.68-.52-10.03-.91l-2.97-.09c-2 2-2 2-2.2 4.6.03 1 .05 1.99.07 3.02l.06 3.04c.02.77.04 1.54.07 2.34-.58-.16-1.15-.32-1.74-.49-3.52-.8-6.66-.69-10.26-.51-2 2-2 2-2.19 5.87.07 2.84.28 5.41 1.19 8.13-1.05-.06-2.11-.13-3.19-.19-4.02.2-5.84.48-8.81 3.19-.91 5 .87 8.57 3 13-.89-.08-1.78-.17-2.69-.25-4 .3-5.44 1.54-8.31 4.25.39 3.33 1.03 5.04 3 7.81 2.48 3.96 2.68 6.57 3 11.19-.87-.08-1.74-.17-2.63-.25-4.31.32-5.97 1.59-9.37 4.25-.68.51-1.36 1.02-2.05 1.54-.36.28-.36.28-2.14 1.71-.33.26-.33.26-1.98 1.58-5.37 6.37-5.27 13.62-5.15 21.54v2.96c.12 17.47.12 17.47 6.32 23.67 2.82-1.04 3.83-1.68 5.26-4.39.33-.9.65-1.81.99-2.74.33-.91.67-1.82 1.01-2.76.25-.69.49-1.39.74-2.11.42.92.85 1.83 1.28 2.78 3.45 7.27 6.89 13.51 12.72 19.22l5-1c.48-11.65-1.19-22.98-5-34 .54.14 1.09.29 1.65.43 5.6 1.38 10.59 1.75 16.35 1.57.08.29.08.29.48 1.79 1.58 5.35 3.13 8.54 7.52 12.21.95.86 1.9 1.73 2.87 2.62 3.28 2.5 6.33 3.81 10.13 5.38 2.07 1.25 4.09 2.56 6.1 3.91 6.4 3.67 15.4 2.78 22.43 1.7 6.82-1.93 14.9-6.59 18.75-12.62.32-.62.64-1.23.97-1.87 1.74-2.79 2.62-3.09 5.92-3.86 2.62-.31 5.23-.58 7.85-.82 8.32-.8 15.7-3.73 22.98-7.69 8.31-4.07 16.82-3.13 25.83-2.77 2.49.02 4.76-.32 7.17-.98-.18.52-.37 1.04-.55 1.58-.85 2.46-1.65 4.94-2.45 7.42-.14.42-.14.42-.83 2.55-5.41 17.96-5.41 17.96-2.17 24.45 5.53-.64 7.51-3.14 10.99-7.24 3.33-4.59 5.7-9.6 8.01-14.76.24.71.48 1.42.73 2.15.34.92.67 1.84 1.02 2.78.32.92.65 1.84.98 2.78 1.27 2.29 1.27 2.29 3.41 3.1.61.06 1.23.13 1.86.19 7.8-9.22 7.82-22.57 7-34-.64-5.12-1.67-9.93-5-14-1.66-.69-3.33-1.36-5-2-.7-1.32-1.37-2.65-2-4-3-2-4.23-2-8-2 .4-5.9 1.05-8.46 5-13 .12-.48.12-.48.75-2.88 1.6-4.01 4-5.69 7.27-8.4 3.9-3.4 5.8-6.36 6.48-11.47.16-1.08.33-2.15.5-3.25l1.87-.72c3.38-2.04 3.69-5.48 4.63-9.09 1.4-5.35 2.75-8.96 6.5-13.19 3.92-7.85 4.33-15.96 2.08-24.45-4.26-11.85-9.82-18.73-21.08-24.55-6.39-2.63-14.43-3.19-21-1m-18 44 1 2Zm2 5c-.13.8-.25 1.61-.38 2.43-.2.85-.41 1.7-.62 2.57-.33.16-.33.16-2 1l1 3 2.11.18c.91.08 1.82.17 2.76.25.91.09 1.81.17 2.74.25 2.39.32 2.39.32 4.39 1.32.77 4.02 1.12 7.9 1 12 1.41.34 2.83.67 4.25 1 .79.18 1.58.37 2.39.56 2.36.44 2.36.44 6.36.44 1.35-4.06.52-6.05-1-10-4.11-4-4.11-4-7-4-.21-.62-.41-1.24-.63-1.88-1.94-3.01-3.98-3.19-7.37-4.12-3.42-1.2-5.62-2.25-8-5"/><path fill="#6b1a0b" d="M81 48h2c-.75 5.75-.75 5.75-3 8l-3.44-.06C73 56 73 56 71.38 57.56L70 59c-2.25-.19-2.25-.19-5-1-1.26-.35-2.52-.7-3.81-1.06-1.05-.31-2.11-.62-3.19-.94.01.85.02 1.71.04 2.59 0 1.1.01 2.21.02 3.35.01 1.1.03 2.2.04 3.34C58 68 58 68 57 69c-2.19-.09-4.38-.25-6.56-.44-1.2-.1-2.4-.2-3.63-.31-.93-.08-1.86-.16-2.81-.25.08.37.08.37.49 2.23.68 3.69.63 7.02.51 10.77-1.66 1.66-3.78 1.36-6.06 1.56-.92.09-1.84.17-2.79.26-.71.06-1.42.12-2.15.18.88 5.88.88 5.88 2 7a69 69 0 0 1-.44 4.56c-.1.83-.2 1.66-.31 2.51-.08.63-.16 1.27-.25 1.93l-7 2c1.07 2.92 1.78 4.78 4 7 .27 1.81.51 3.62.75 5.44 2.06 8.81 8.94 13 16.25 17.56 3.27 1.87 6.53 3.55 10 5-.33.16-.33.16-2 1 2.67 7.5 2.67 7.5 4.81 10.75.39.74.79 1.49 1.19 2.25-.71 2.14-1.41 3.41-3 5-.04 1.67-.04 3.33 0 5 .56-.97 1.11-1.94 1.69-2.94C64 154 64 154 69 153v16l-4 2c-6.97-4.59-11.12-9.09-14-17v-2l-3.94.12c-4.9.02-9.34-.87-14.06-2.12.28.98.55 1.96.84 2.96 2.94 10.55 4.37 20.06 4.16 31.04l-5 1c-6.57-6.43-10.2-13.77-14-22-.24.7-.48 1.4-.73 2.12-.34.91-.67 1.82-1.02 2.76-.32.9-.65 1.8-.98 2.74-1.44 2.7-2.44 3.35-5.27 4.38-6.91-6.91-6.36-17.37-6.38-26.56-.02-.98-.04-1.96-.07-2.96-.03-7.87 1.44-14.01 6.67-20.04.38-.31.38-.31 2.28-1.88.75-.64 1.51-1.27 2.28-1.93 4.25-3.12 6.91-3.87 12.22-3.63-.26-4.85-.57-7.84-3.62-11.69-2.37-3.01-2.37-3.01-2.44-6.06 1.32-2.8 2.29-3.83 5.06-5.25 3.25-.19 3.25-.19 6 0-.5-1.03-.99-2.06-1.5-3.12-1.45-3.45-2.18-6.12-1.5-9.88 2.97-2.7 4.79-2.99 8.81-3.19 1.05.06 2.11.13 3.19.19-.16-.5-.33-.99-.5-1.5-.72-3.6-.68-6.83-.5-10.5 2-2 2-2 5.88-2.19 2.86.03 5.36.42 8.12 1.19-.02-.77-.05-1.54-.07-2.34-.02-1-.04-2-.05-3.04-.03-.99-.05-1.99-.08-3.02C55 55 55 55 57 53c3.38.11 6.68.52 10.03.91L70 54l2-2c3.62-.12 3.62-.12 7 0z"/><path fill="#daead5" d="m5 123 2 1c-.14.27-.14.27-.84 1.64-.18.36-.18.36-1.1 2.17l-1.09 2.15c-1.62 3.4-2.1 6.07-2.1 9.79 0 .92-.01 1.84-.01 2.78.01.96.01 1.92.02 2.91-.01.95-.01 1.91-.02 2.89 0 .92.01 1.84.01 2.79v2.55C2 156 2 156 3 160l1-17h1c.05 1.11.1 2.22.15 3.37C6.2 168.17 6.2 168.17 11 174c.5-.16.5-.16 3-1 1.17-2.5 1.17-2.5 2.19-5.56.34-1.01.69-2.03 1.04-3.07.25-.78.51-1.56.77-2.37 2.92 2.52 4.21 5.27 5.81 8.75 2.55 5.2 5 9.24 9.19 13.25h4c.48-11.53-1.6-22.76-4-34 16.36.37 16.36.37 20.31 4.29 1.57 3.23 2.69 6.09 2.69 9.71.56.25 1.11.5 1.69.75C60 166 60 166 62.31 167.94c2.53 1.93 4.85 3.04 7.79 4.2 2.86 1.29 5.4 3.03 8.01 4.77 6.38 3.66 15.45 2.83 22.46 1.66 7.74-2.25 15.04-6.87 19.12-13.88 2.02-2.99 2.98-3.61 6.55-4.5 2.61-.3 5.2-.56 7.82-.78 6.89-.71 13.69-2.55 19.73-6 11.3-6.45 23.56-4.96 36.21-4.41-1.02 4.76-2.08 9.43-3.56 14.06-2.03 7.19-2.17 14.52-2.44 21.94 10.21-3.54 14.45-13.92 19-23 2.23 2.23 2.69 3.66 3.62 6.62.27.82.53 1.64.79 2.48.2.63.39 1.25.59 1.9 1.86-.12 1.86-.12 4-1 1.27-2.72 1.27-2.72 2.25-6.06.34-1.11.67-2.21 1.02-3.35.12-.43.12-.43.73-2.59.55 2.08 1 3.84 1 6l2-1c.91-2.73 1.18-4.62 1.32-7.45.04-.85.08-1.69.12-2.57l.12-2.67c.02-.44.02-.44.13-2.7.11-2.2.21-4.41.31-6.61 2.6 2.6 2.3 3.75 2.31 7.38-.18 10-2.34 20.96-9.12 28.68-3.34 1.43-5.74.83-9.19-.06l-2-3c-.42.59-.85 1.18-1.29 1.79-7.17 9.67-7.17 9.67-12.71 12.21-5.82.78-5.82.78-8.81-1.19-3.77-5.75-3.37-10.23-2.19-16.81 1.19-5.37 2.58-10.69 4-16-11.09-.94-18.86.67-28.96 5.25-8.25 3.71-16.9 5.05-25.9 5.25-.7.16-1.41.33-2.14.5-1.13 1.83-1.13 1.83-2 4-5.39 7.31-15.95 13.52-25 15-10.58.75-19.82-.06-28.3-6.77-1.77-1.28-3.45-2.06-5.45-2.92-5.85-2.82-13.52-8.03-16.01-14.19-.49-1.69-.87-3.4-1.24-5.12-.99.16-.99.16-6 1 .31 1.2.62 2.39.94 3.62 1.87 8.54 3.62 18.14.06 26.38-2 2-2 2-5.75 2.38-4.5-.17-6.83-1.32-10.25-4.38-2.5-3.23-4.79-6.57-7-10-.59.65-1.18 1.29-1.79 1.96C15 180 15 180 11.56 180.62c-3.81-.66-5.27-1.53-7.51-4.69-4.62-8.47-4.54-17.57-4.49-26.99l-.06-3.97c.01-7.59.65-13.38 4.5-19.97z"/><path fill="#76200e" d="M201 100h1c.38 5.51.38 5.51-1.44 7.88-2.35 3.2-2.23 6.19-2.56 10.12.91.1 1.81.21 2.75.31 3.28.7 4.86 1.39 7.25 3.69v2c.74.19 1.49.37 2.25.56 3.68 1.93 5.34 4.64 6.75 8.44 2.48 13.88 1.33 26.04-4 39l-2 2c-1.98-.06-1.98-.06-4-1-1.27-2.29-1.27-2.29-2.25-5.06-.17-.46-.17-.46-1.02-2.79-.12-.35-.12-.35-.73-2.15l-1 2.27c-3.49 7.52-7.51 14.4-14 19.73h-4c-4.5-8.99 2.08-24.11 5-33l1-3c-.62.17-1.24.35-1.88.52-2.73.42-4.94.47-7.67.33-10.98-.5-18.54.25-28.18 5.53-4.4 2.18-8.4 2.7-13.27 2.62v-3c.97-.27 1.94-.54 2.94-.81 20.05-5.77 40.33-15.46 51.21-34.17.95-2.25 1.08-3.97 1.16-6.4.44-5.02 2.26-7.02 5.69-10.62z"/><path fill="#e95c26" d="M195 8c9.82-.66 16.47.94 24.19 7.12 6.07 5.62 11.14 13.72 12.22 22.01.26 9.75-1.6 17.44-8.19 24.88-5.55 5.04-11.03 6.61-18.48 6.42-3.73-.58-5.91-1.71-8.55-4.39-2.41-4.14-2.06-8.46-1.19-13.04 1.76-3.33 3.74-5.71 6.25-8.5 2.76-5.52 2.42-11.43 1.75-17.5l-2-2c-.49-2.02-.49-2.02-.88-4.38-.8-4.04-1.89-5.93-5.12-8.62z"/><path fill="#9fd39e" d="m5 123 2 1c-.14.27-.14.27-.84 1.64-.18.36-.18.36-1.1 2.17l-1.09 2.15c-1.62 3.4-2.1 6.07-2.1 9.79 0 .92-.01 1.84-.01 2.78.01.96.01 1.92.02 2.91-.01.95-.01 1.91-.02 2.89 0 .92.01 1.84.01 2.79v2.55C2 156 2 156 3 160l1-17h1c.05 1.11.1 2.22.15 3.37C6.2 168.17 6.2 168.17 11 174c.5-.16.5-.16 3-1 1.17-2.5 1.17-2.5 2.19-5.56.34-1.01.69-2.03 1.04-3.07.25-.78.51-1.56.77-2.37 2.92 2.52 4.21 5.27 5.81 8.75 2.55 5.2 5 9.24 9.19 13.25h4c.48-11.53-1.6-22.76-4-34 16.36.37 16.36.37 20.31 4.29 1.57 3.23 2.69 6.09 2.69 9.71.56.25 1.11.5 1.69.75C60 166 60 166 62.31 167.94c2.53 1.93 4.85 3.04 7.79 4.2 2.86 1.29 5.4 3.03 8.01 4.77 4.12 2.37 8.46 2.35 13.14 2.65 1.26.09 2.53.17 3.83.26L98 180v1l-13 1c3 .11 6 .19 9 .25.42.02.42.02 2.54.1 6.3.1 9.96-1.33 15.46-4.35l2 1c-1.91.98-3.83 1.96-5.75 2.94-1.07.54-2.13 1.09-3.23 1.65-8.63 4.03-18.92 3.44-27.82.39-2.81-1.25-5.1-2.84-7.5-4.75-1.77-1.28-3.45-2.06-5.45-2.92-5.85-2.82-13.52-8.03-16.01-14.19-.49-1.69-.87-3.4-1.24-5.12-.99.16-.99.16-6 1 .31 1.2.62 2.39.94 3.62 1.87 8.54 3.62 18.14.06 26.38-2 2-2 2-5.75 2.38-4.5-.17-6.83-1.32-10.25-4.38-2.5-3.23-4.79-6.57-7-10-.59.65-1.18 1.29-1.79 1.96C15 180 15 180 11.56 180.62c-3.81-.66-5.27-1.53-7.51-4.69-4.62-8.47-4.54-17.57-4.49-26.99l-.06-3.97c.01-7.59.65-13.38 4.5-19.97z"/><path fill="#bd4831" d="m204 80 11 1c-2.91 7.27-7.67 12.39-14 17l3 2c-.16.83-.16.83-1 5l-2-2c-3.38 3.38-5.23 5.4-5.44 10.25-.57 8.36-5.69 14.22-11.56 19.81-15.94 13.71-37.39 25.24-59 23.94.01-.71.02-1.42.04-2.15 0-.92.01-1.84.02-2.79.01-.91.03-1.83.04-2.77C125 147 125 147 124 146q-.06-3 0-6l-3-1c.5-.16.5-.16 3-1 2.15 3.23 2.2 4.28 2 8 17.05-1.43 31.67-5.27 46.8-13.33C176 131 176 131 179 130v-2l3-1 2-2c.87-.56 1.73-1.11 2.62-1.69 2.38-2.31 2.38-2.31 2.82-5.5-.33-2.83-.77-5.11-1.5-7.81-1.59-6.49-.94-13.45.06-20l2-2v-3l-8-1v-2c7.43-.29 7.43-.29 11 2-.88 5.88-.88 5.88-2 7-.23 2.02-.41 4.04-.56 6.06-.04.55-.04.55-.26 3.35-.06.85-.12 1.71-.18 2.59 1.3-.12 2.6-.25 3.94-.38.36-.03.36-.03 2.21-.21.61-.13 1.22-.27 1.85-.41l1-2h-6c.47-5.18 3.18-8.67 6.06-12.81.47-.7.95-1.39 1.43-2.1 1.17-1.7 2.34-3.4 3.51-5.09"/><path fill="#702414" d="M81 48h2c-.75 5.75-.75 5.75-3 8l-3.44-.06C73 56 73 56 71.38 57.56L70 59c-2.25-.19-2.25-.19-5-1-1.26-.35-2.52-.7-3.81-1.06-1.05-.31-2.11-.62-3.19-.94.01.85.02 1.71.04 2.59 0 1.1.01 2.21.02 3.35.01 1.1.03 2.2.04 3.34C58 68 58 68 57 69c-2.19-.09-4.38-.25-6.56-.44-1.2-.1-2.4-.2-3.63-.31-.93-.08-1.86-.16-2.81-.25.08.37.08.37.49 2.23.68 3.69.63 7.02.51 10.77-1.66 1.66-3.78 1.36-6.06 1.56-.92.09-1.84.17-2.79.26-.71.06-1.42.12-2.15.18.88 5.88.88 5.88 2 7q.06 3 0 6l-10 4c1 4 1 4 3.06 6.06 2.93 4.44 2.27 8.77 1.94 13.94-1.46.34-2.92.67-4.38 1-.81.19-1.62.37-2.46.56C22 122 22 122 20 122v2c9.41 2.11 9.41 2.11 14 3l-1 4c-.55-.2-1.09-.41-1.65-.62-5.5-1.97-10.53-2.92-16.35-3.38v4l-4-1c-2.44 6.65-2.3 13.1-2.25 20.12-.01 1.17-.02 2.34-.02 3.54v3.41c.01 1.02.01 2.04.01 3.09.27 2.97 1.1 5.11 2.26 7.84v3h2c1.06-6.3 1.32-12.56 1.56-18.94.05-1.06.09-2.13.13-3.23.11-2.61.21-5.22.31-7.83h1c.04.84.07 1.69.11 2.55.07 1.1.13 2.2.2 3.33.06 1.09.12 2.18.18 3.3.17.93.34 1.86.51 2.82l3 2c1.17 2.68 2.23 5.33 3.25 8.06 2.66 6.87 5.66 12.51 10.75 17.94.25-6.57-.68-12.57-2-19h3l1-2c1.3 8.05 2.34 15.84 2 24l-5 1c-6.57-6.43-10.2-13.77-14-22-.24.7-.48 1.4-.73 2.12-.34.91-.67 1.82-1.02 2.76-.32.9-.65 1.8-.98 2.74-1.44 2.7-2.44 3.35-5.27 4.38-6.91-6.91-6.36-17.37-6.38-26.56-.02-.98-.04-1.96-.07-2.96-.03-7.87 1.44-14.01 6.67-20.04.38-.31.38-.31 2.28-1.88.75-.64 1.51-1.27 2.28-1.93 4.25-3.12 6.91-3.87 12.22-3.63-.26-4.85-.57-7.84-3.62-11.69-2.37-3.01-2.37-3.01-2.44-6.06 1.32-2.8 2.29-3.83 5.06-5.25 3.25-.19 3.25-.19 6 0-.5-1.03-.99-2.06-1.5-3.12-1.45-3.45-2.18-6.12-1.5-9.88 2.97-2.7 4.79-2.99 8.81-3.19 1.05.06 2.11.13 3.19.19-.16-.5-.33-.99-.5-1.5-.72-3.6-.68-6.83-.5-10.5 2-2 2-2 5.88-2.19 2.86.03 5.36.42 8.12 1.19-.02-.77-.05-1.54-.07-2.34-.02-1-.04-2-.05-3.04-.03-.99-.05-1.99-.08-3.02C55 55 55 55 57 53c3.38.11 6.68.52 10.03.91L70 54l2-2c3.62-.12 3.62-.12 7 0z"/><path fill="#e35a27" d="M87.637 144.473c4.26.95 6.91 4.05 9.36 7.53v2c7.19.44 12.74.32 19.16-3.13 1.84-.87 1.84-.87 4.84-.87-.67 4.22-2.71 7.44-5 11l-3 1v2c-11.86 6.16-21.89 8.93-35 5-3.03-1.46-5.45-2.91-7-6-.58-4.21-.89-6.63 1.46-10.24 4.58-5.28 7.99-8.4 15.18-8.29"/><path fill="#6c1e0f" d="M205 138c.16.33.16.33 1 2h2c-.01.66-.01 1.32-.02 2-.02 3.02-.03 6.04-.04 9.06-.01.52-.01.52-.03 3.15-.01 5.38.14 10.49 1.09 15.79h2l2-10h2c.16-.5.16-.5 1-3-.39 5.88-1.08 10.81-4 16-2.19.94-2.19.94-4 1-2.31-3.57-3.71-6.96-5-11l-1 2.27c-3.49 7.52-7.51 14.4-14 19.73h-4c-4.5-8.99 2.08-24.11 5-33l1-3c-.67.16-1.35.33-2.04.5-3.47.59-6.75.6-10.27.56-1.26-.01-2.51-.02-3.8-.02-.96-.02-1.91-.03-2.89-.04v-2c.91-.11 1.81-.22 2.75-.33 16.97-2.21 16.97-2.21 22.5-6.36 2.32-1.74 3.92-1.38 6.75-1.31z"/><path fill="#691b0d" d="M107.313 36c3.54 1.32 4.61 3.28 6.57 6.41 1.12 1.59 1.12 1.59 3.12 2.59.25-.6.49-1.2.75-1.81 1.48-2.6 2.63-3.73 5.25-5.19 3.25-.19 3.25-.19 6 0 .82 1.48.82 1.48 5 9 4-2 4-2 5.87-4.12 2.13-1.88 2.13-1.88 5.19-2.32 2.94.44 2.94.44 4.69 1.44 2.68 4.29 3.25 9.02 3.25 14 .58-.22 1.16-.43 1.76-.66 4.5-1.6 8.38-2.93 13.24-2.34 2 2 2 2 2.19 4.6-.02 1-.04 2-.07 3.02-.02 1.01-.03 2.01-.05 3.04-.03.77-.05 1.55-.07 2.34.75-.16 1.5-.32 2.27-.48 4.01-.76 7.98-1.48 11.66.54 2.24 4.09 1.24 8.64.07 12.94l1.86.15c.81.07 1.62.15 2.45.23.8.06 1.6.13 2.43.21 2.26.41 2.26.41 5.26 2.41v2c2.62-1.94 2.62-1.94 5-5-.14-3.91-1.26-7.51-3-11 .66.16.66.16 4 1v5h2l2 3c4.17.27 7.04.32 11-1 1.31 5.26 1.05 8.27-1.64 13-2.7 3.96-5.66 8.12-10.37 9.66-1.93.28-1.93.28-4.99.34l2.06-2c4.86-4.88 9.69-9.88 12.94-16-4.02-1.1-7.03-1.34-11 0-4.96 5.08-8.77 12.3-11 19l6-1v3c-3.14 1.86-5.38 2.2-9 2-1.31-4.64-.83-8.32 0-13l2-3v-4c-.71-.13-1.42-.27-2.15-.4-.92-.18-1.84-.36-2.79-.54-.92-.17-1.83-.35-2.78-.52-2.28-.54-2.28-.54-3.28-1.54.18-4.35.62-8.66 1-13l-14 1c-.17-1.98-.17-1.98-1-12-5.01.62-10.01 1.27-15 2-2.21-3.31-2.79-5.82-3.63-9.69-.26-1.18-.52-2.36-.79-3.57-.09-.45-.09-.45-.58-2.74-1.46.96-2.92 1.91-4.38 2.88l-2.46 1.61c-2.16 1.51-2.16 1.51-4.16 3.51-1.96-.09-1.96-.09-4-1-1.49-2.07-1.49-2.07-2.75-4.56l-1.3-2.51c-.31-.63-.63-1.27-.95-1.93-3.39 1.04-4.84 1.79-7.07 4.62-.31.4-.31.4-1.93 2.38h-4c-1.35-1.5-1.35-1.5-2.5-3.44-1.16-1.93-1.16-1.93-2.5-3.56l-4-1c-.99 1.48-.99 1.48-6 9-4-1-4-1-7.07-3.56-2.93-2.44-2.93-2.44-5.93-2.44l-2 4h-2c.75-5.75.75-5.75 3-8 4.84.22 7.54 1.65 11 5v2c2.11-1.9 3.47-3.72 5.06-6.12 2.61-3.88 2.61-3.88 6.25-3.88"/><path fill="#dbf5db" d="M183 12c3.06 2.47 4.97 4.96 7.12 8.25C192 23 192 23 195 24v2h-3v3h-3c-1.93-2.46-3.52-5.07-5.18-7.71C182 19 182 19 179.78 18.18L178 18c-3.36 12.44-2.54 23.14 3.38 34.61 2.3 3.39 5.15 5.46 8.47 7.79 2.94 2.19 4.88 4.73 7.15 7.6l3 2c1.28 2.92 1.88 5.81 2 9-1.75 3.06-1.75 3.06-4 5h-2c-.44-.48-.88-.96-1.33-1.46-2.14-1.97-3.49-2.02-6.36-2.23-.81-.06-1.61-.13-2.45-.2-.61-.03-1.23-.07-1.86-.11l-1-3c.16-.33.16-.33 1-2 .19-3.5.19-3.5 0-7-2-2-2-2-4.82-2.2-1.09.03-2.18.05-3.3.08-.55 0-.55 0-3.33.05-.84.02-1.68.05-2.55.07-.06-.78-.12-1.56-.18-2.37-.09-1.01-.17-2.02-.26-3.07-.08-1.01-.16-2.02-.24-3.06C169 55 169 55 168 54c-1.86.09-1.86.09-4.19.38-.75.09-1.51.18-2.29.27-2.85.4-5.68.87-8.52 1.35-.1-.42-.1-.42-.59-2.52-.26-1.09-.52-2.17-.79-3.29-.25-1.08-.51-2.16-.77-3.27C150 44 150 44 148 41l2-1v-2c-1.75.28-3.5.58-5.25.88-.97.16-1.95.32-2.95.49-2.57.58-4.52 1.34-6.8 2.63 4.45-5.79 4.45-5.79 7.99-6.27 4.2-.19 6.35-.19 9.89 2.27 2.54 3.6 3.77 6.81 5.12 11 .33-.16.33-.16 2-1 1.67-.07 3.33-.08 5-.06.44 0 .44 0 2.69.02.38.01.38.01 2.31.04h2c-.32-.79-.65-1.57-.98-2.38-1.3-4.6-1.35-8.8-1.33-13.56-.02-.87-.03-1.73-.05-2.63-.01-6.31.68-11.57 5.17-16.37 3.03-1.47 4.86-1.6 8.19-1.06m-10 38 1 2Zm2 5c-.12.8-.25 1.61-.38 2.44-.2.84-.41 1.69-.62 2.56-.33.16-.33.16-2 1l1 3 2.12.18c.91.09 1.82.17 2.76.26.9.08 1.8.16 2.74.24C183 65 183 65 185 66c.77 4.03 1.12 7.9 1 12 1.42.34 2.83.67 4.25 1 .79.19 1.58.37 2.39.56C195 80 195 80 199 80c1.35-4.06.52-6.05-1-10-4.1-4-4.1-4-7-4-.21-.62-.41-1.24-.62-1.88-1.95-3-3.99-3.19-7.38-4.12-3.42-1.19-5.62-2.24-8-5"/><path fill="#b5462f" d="M35 97v2l-7 2c1.07 2.92 1.78 4.78 4 7 .27 1.81.51 3.62.75 5.44 2.06 8.81 8.94 13 16.25 17.56 3.27 1.87 6.53 3.55 10 5-.33.16-.33.16-2 1 2.67 7.5 2.67 7.5 4.81 10.75.2.37.2.37 1.19 2.25-.71 2.14-1.41 3.41-3 5-.04 1.67-.04 3.33 0 5 .56-.97 1.11-1.94 1.69-2.94C64 154 64 154 69 153v16l-4 2c-8.24-5.12-8.24-5.12-9.97-9.41-.47-2.53-.76-5.04-1.03-7.59-.35-1.34-.73-2.67-1.12-4-1.22-4.64-1.06-9.24-.88-14l-4 3c-.46-.43-.92-.87-1.39-1.31-.61-.56-1.23-1.12-1.86-1.69-.6-.56-1.21-1.11-1.83-1.69C41 133 41 133 37 133l1 2H18c-3-6-3-6-3-8 7.11-.45 11.72.67 18 4v-3c-.69-.2-1.37-.41-2.08-.62l-2.73-.82c-.9-.26-1.79-.53-2.71-.81-1.83-.55-3.66-1.14-5.48-1.75v-2c2.96-1.48 5.74-1.06 9-1 1.86-3.72 1.59-7.96 1-12-1.43-2.3-3.14-4-5-6-.12-2.25-.12-2.25 1-4 3.3-1.78 5.18-2 9-2"/><path fill="#e8eadf" d="M230 56h2c.19 2.81.19 2.81 0 6l-1.5 1.41c-2.03 2.15-1.71 3.31-1.62 6.21-.61 10.09-7.27 20.93-13.88 28.38-1.01.78-2.02 1.57-3.06 2.38-3.36 2.99-4.42 5.43-5.94 9.62-.65 1.34-1.31 2.68-2 4 .36.11.36.11 2.19.69 3.43 1.6 5.38 3.41 7.81 6.31.62 2.44.62 2.44 1 5 .23.44.23.44 1.38 2.69 3.89 7.93 4.9 14.9 4.93 23.69.01.88.01 1.76.02 2.66-.08 7.53-.08 7.53-2.33 10.96-.5.16-.5.16-3 1 .07-.61.14-1.22.22-1.84 1.2-11.34 2.04-23.12-1.22-34.16-.27-.97-.54-1.94-.81-2.94-1.6-2.77-3.22-3-6.19-4.06l-1.94-2c-2.5-2.42-4.74-3.09-8.06-4-.5-7.31-.5-7.31 1.88-10.62.7-.79 1.4-1.57 2.12-2.38.23-.93.45-1.86.69-2.81 1.46-3.55 2.78-4.64 5.69-7.07 4.74-3.98 7.84-8.06 9.03-14.23C218 79 218 79 221 77c1.17-3.3 2.11-6.59 3.02-9.97 1.27-4.45 2.64-7.65 5.98-11.03"/><path fill="#aedfab" d="M221 143c2.6 2.6 2.3 3.75 2.31 7.38-.18 10-2.34 20.96-9.12 28.68-3.34 1.43-5.74.83-9.19-.06l-2-3c-.42.59-.85 1.18-1.29 1.79-7.17 9.67-7.17 9.67-12.71 12.21-5.82.78-5.82.78-8.81-1.19-3.77-5.75-3.37-10.23-2.19-16.81 1.19-5.37 2.58-10.69 4-16q-3.78-.075-7.56-.12l-2.14-.06c-4.82-.04-8.72.65-13.3 2.18 2.47-2.7 4.31-3.91 8.08-4.11.79 0 1.57.01 2.37.01.85.01 1.69.01 2.57.01l2.67.03a1445.593 1445.593 0 0 1 9.31.06c-.15 1.2-.31 2.39-.46 3.62-.44 3.46-.8 6.91-1.1 10.38-.09.95-.17 1.9-.26 2.88L182 173h1l1 12c10.21-4.08 14.28-13.6 19-23 2.23 2.23 2.69 3.66 3.62 6.62.27.82.53 1.64.79 2.48.2.63.39 1.25.59 1.9 1.86-.12 1.86-.12 4-1 1.27-2.72 1.27-2.72 2.25-6.06.34-1.11.67-2.21 1.02-3.35.24-.85.48-1.71.73-2.59.55 2.08 1 3.84 1 6l2-1c.91-2.73 1.18-4.62 1.32-7.45l.12-2.57.12-2.67c.02-.44.02-.44.13-2.7.11-2.2.21-4.41.31-6.61"/><path fill="#741907" d="M104.875 134.438c.78.01 1.57.01 2.37.02 6.44.2 11.44 1.8 16.75 5.54-.32 1.98-.65 3.96-1 6l-6-1c1.32-.33 2.65-.66 4-1-3.14-3.77-6.21-5.28-11-6-6.73-.56-12.06-.35-18 3-.32.66-.65 1.32-1 2 .56.21 1.12.41 1.69.63 2.29 1.36 3.31 2.45 4.94 4.5.78.95 1.57 1.9 2.37 2.87 2 0 2 0 3.63-1.5.23-.25.23-.25 1.37-1.5 1 .33 1.98.66 3 1-.65.33-1.31.66-2 1v2c1 .33 1.98.66 3 1v2c-8.99.79-8.99.79-12.87-2.25-1.3-1.68-2.59-3.37-3.87-5.06-3-2.25-5.17-2.43-8.87-2.28-5.55 1.38-9.32 6-12.39 10.59-.75 4.61-.43 8.15 1.69 12.32 4.72 5.48 8.36 7.27 15.31 8.68v1l9 1v1c-8.4.48-15.56.3-23-4q-1.515-1.47-3-3c-2.68-1.18-2.68-1.18-5-2 .33-.52.66-1.04 1-1.58 1.32-3.16 1.2-5.75 1.13-9.17-.01-.58-.01-.58-.05-3.54-.03-.9-.05-1.79-.08-2.71-1.89.28-1.89.28-4 1-1.74 3.56-1.74 3.56-3 7-2-2-2-2-2.31-4.44.36-2.95 1.03-3.75 3.31-5.56-1.14-2.91-2.34-5.77-3.62-8.62-1.38-3.38-1.38-3.38-1.38-6.38h2c1.01 1.79 2.01 3.58 3 5.38l1.69 3.02c1.31 2.6 1.31 2.6 1.31 4.6 4.46-.93 7.37-2.08 10.94-4.94 3.21-2.55 6.07-4.05 9.96-5.29 2.09-.76 3.87-1.72 5.8-2.82 4.44-2.24 8.26-2.6 13.18-2.51"/><path fill="#bf432e" d="M195 8c9.82-.66 16.47.94 24.19 7.12 6.07 5.62 11.14 13.72 12.22 22.01.26 9.75-1.6 17.44-8.19 24.88-4.81 4.36-9.36 6.28-15.91 6.24-.47 0-.47 0-2.88.02C202 68 202 68 200 66c.66-.01 1.33-.03 2.01-.04 7.31-.4 7.31-.4 10.87-3.34.7-.86 1.4-1.73 2.12-2.62.7-.45 1.4-.91 2.12-1.38 4.18-3.61 5.05-8.62 5.69-13.87.57-8.55-.64-17.68-5.81-24.75-9.35-9.7-9.35-9.7-15.36-10.2-.79.03-1.58.05-2.39.08-.4 0-.4 0-2.42.05-.3.01-.3.01-1.83.07z"/><path fill="#c8e3c4" d="m5 123 2 1c-.14.27-.14.27-.84 1.64-.18.36-.18.36-1.1 2.17l-1.09 2.15c-1.62 3.4-2.1 6.07-2.1 9.79 0 .92-.01 1.84-.01 2.78.01.96.01 1.92.02 2.91-.01.95-.01 1.91-.02 2.89 0 .92.01 1.84.01 2.79v2.55C2 156 2 156 3 160l1-17h1c.05 1.11.1 2.22.15 3.37C6.2 168.17 6.2 168.17 11 174c.5-.16.5-.16 3-1 1.17-2.5 1.17-2.5 2.19-5.56.34-1.01.69-2.03 1.04-3.07.25-.78.51-1.56.77-2.37 2.92 2.52 4.21 5.27 5.81 8.75 4.81 9.79 4.81 9.79 9.19 13.25 3.38.94 3.38.94 6 1v-12c2 2 2 2 2.27 4.75-.01 1.07-.01 2.15-.02 3.25 0 .54 0 .54.02 3.25C41 187 41 187 39 189c-3.06.57-5.94.51-9 0-2.69-2-2.69-2-5-5-.54-.7-1.08-1.39-1.63-2.11-1.49-1.95-2.94-3.91-4.37-5.89-.52.66-1.03 1.32-1.56 2-2.44 2-2.44 2-5.88 2.62-3.81-.66-5.27-1.53-7.51-4.69-4.62-8.47-4.54-17.57-4.49-26.99l-.06-3.97c.01-7.59.65-13.38 4.5-19.97z"/><path fill="#d0482b" d="M204 80c1.81.17 1.81.17 11 1-2.91 7.27-7.67 12.39-14 17l3 2-1 5-2-2c-3.56 3.56-5.24 5.59-5.5 10.69l.03 2.26c-.53 2.05-.53 2.05-3.06 3.82-.82.41-1.63.81-2.47 1.23-2.44-10.49-3.91-20.27-2-31l2-2v-3l-8-1v-2c7.43-.29 7.43-.29 11 2-.88 5.88-.88 5.88-2 7-.23 2.02-.41 4.04-.56 6.06-.09 1.11-.17 2.21-.26 3.35-.06.85-.12 1.71-.18 2.59 1.3-.12 2.6-.25 3.94-.38.36-.03.36-.03 2.21-.21.61-.13 1.22-.27 1.85-.41l1-2h-6c.47-5.18 3.18-8.67 6.06-12.81.47-.7.95-1.39 1.43-2.1 1.17-1.7 2.34-3.4 3.51-5.09"/><path fill="#631c12" d="M214.695 8.34c9.61 5.56 15.21 13.22 18.64 23.74 2.08 9.19 1.24 17.66-3.34 25.92-1.31 1.68-2.63 3.36-4 5-.75 2.81-.75 2.81-1 5-2.07-3.43-2.07-3.43-1.75-5.8.94-2.76 2.36-5.06 3.82-7.57 3.49-7 4.31-12.93 2.93-20.63-3.36-9.89-8.71-17.89-17.96-23.11-5.4-2.34-11.22-2.58-17.04-2.89.43.5.85.99 1.28 1.5 3.66 4.54 5.25 7.54 5.72 13.5l2 2c.62 4.4-.88 7.2-3 11l-2-2v-7l-2-3c-.1-1.26-.2-2.52-.31-3.81-.31-3.32-1.01-4.97-3.25-7.44-2.44-2.75-2.44-2.75-2.44-6.75 7.77-2.59 16.48-1.25 23.7 2.34"/><path fill="#e05627" d="M179 22c3.52 1.17 3.67 1.76 5.38 4.88 2.12 3.57 3.85 5.23 7.62 7.12 1.67 1.32 3.34 2.66 5 4l2 1c-1.33 2.79-2.84 5.31-4.56 7.88-2.14 3.35-3.14 6.09-3.44 10.12-5.5-2.36-8.43-6.85-11.05-12.11-2.75-7.16-3.12-15.51-.95-22.89"/><path fill="#b7ebb4" d="M90 34c3.49 1.91 6.34 4.04 9 7 .11-.3.11-.3.69-1.81 1.74-2.91 3.14-3.97 6.31-5.19 4.22 1.43 6.65 3.22 9 7 2.23-1.04 4.01-2.01 5.88-3.62 2.89-1.88 4.73-1.8 8.12-1.38 2.38 1.38 2.38 1.38 4 3v2c4.6-.77 4.6-.77 6.81-2.06 3.39-1.46 6.52-1.06 10.19-.94.16.66.16.66 1 4-.58-.07-1.16-.14-1.76-.21-6.3-.44-6.3-.44-9.17 1.55C138.44 45 138.44 45 136 48c-3-1-3-1-4.17-2.85-.33-.73-.67-1.46-1.02-2.21-.34-.74-.69-1.47-1.04-2.23-.25-.56-.51-1.13-.77-1.71-3.83-.36-5.55-.3-8.81 1.88C118 43 118 43 117 45c-3-1-3-1-4.88-4-2.12-3-2.12-3-4.62-4.12-2.5.12-2.5.12-4.62 1.74C101 41 101 41 99.38 43.75c-.46.74-.91 1.48-1.38 2.25h-2l-2.25-2.44C90.69 40.71 89.09 40.29 85 40c-1.96 2.95-3.08 5.29-4 8.75-.33 1.07-.66 2.14-1 3.25-3.48 1.16-5.46.71-9 0v-4c.63-.08 1.26-.15 1.91-.23 2.09-.77 2.09-.77 3-2.7.19-.78.39-1.57.59-2.38C78.7 35.37 82.05 32.45 90 34"/><path fill="#f3fbf1" d="M21 96h2c-.1 1.01-.21 2.02-.31 3.06.31 3.98.48 4.53 2.81 7.38 3.14 3.89 2.93 6.68 2.5 11.56-.56.08-.56.08-3.38.5-6.61 1.68-12.43 6.08-16.11 11.82-3.22 6.92-3.68 14.03-4.07 21.56-.05.78-.09 1.56-.13 2.37-.11 1.92-.21 3.83-.31 5.75-.33.16-.33.16-2 1C.87 155.88.74 150.98.69 145.75c-.02-.45-.02-.45-.09-2.74C.54 136.41 2 131.83 5 126c.39-1.05.78-2.1 1.19-3.19 3.09-4.8 8.03-8.14 13.6-9.48.73-.11 1.46-.22 2.21-.33-.5-.99-.99-1.98-1.5-3-1.8-4.13-1.74-7.53-1.5-12h2z"/><path fill="#bc4631" d="M123 148c-.66 9.3-3.75 15.75-10.62 22.17-8.8 6.77-18.52 8.18-29.38 6.83-5.47-1.64-8.71-5.55-12-10-1.2-2.41-1.1-3.95-1.06-6.62.01-.82.02-1.64.02-2.48.02-.63.03-1.25.04-1.9h1l1 9c10.31 4.37 20.15 6.42 31 3 2.44-1.2 4.68-2.58 7-4h3v-2c.76-.72 1.53-1.44 2.31-2.19 3.09-3.22 4.15-5.68 5.69-9.81l-2-1c2-1 2-1 4-1"/><path fill="#c24c2f" d="M205 142c.58 12.91-6.52 27.76-15.09 37.33C188 181 188 181 186 181c-1.29-4.12-2.26-7.67-2-12l3 4c.28-1.14.55-2.29.84-3.46.37-1.5.73-2.99 1.1-4.48.18-.75.36-1.51.55-2.28 1.4-5.67 1.4-5.67 2.51-6.78.19-1.42.38-2.83.56-4.25.61-2.94 1.05-4.38 3.24-6.46 3.25-2.06 5.3-3.29 9.2-3.29"/><path fill="#c74f2f" d="M18 142c4.06.89 6.74 2.36 10 5 2.67 5.29 4 10.6 5.19 16.38.17.79.35 1.59.53 2.42 1.16 5.5 1.44 10.58 1.28 16.2-8.75-8.25-16.58-20.95-17.1-33.36.01-.79.03-1.58.04-2.39.01-.8.02-1.6.02-2.42.02-.61.03-1.21.04-1.83"/><path fill="#59160a" d="M95 84.813c3.91 1.55 6.26 3.38 8 7.19.87 5.16.81 9.44-1.62 14.12-2.98 2.35-4.58 3.03-8.38 2.88-2.81-2.38-2.81-2.38-5-5l-1-1c-1.11-11.24-1.11-11.24 2.12-16.38 2.88-1.62 2.88-1.62 5.88-1.81"/><path fill="#e4efdd" d="M175 19h1c-.02 1.21-.05 2.41-.07 3.66-.02 1.61-.04 3.23-.05 4.84l-.06 2.4c-.07 9.1 2.01 17.49 7.18 25.1 2.18 2.01 4.43 3.7 6.85 5.4 2.94 2.19 4.88 4.73 7.15 7.6l3 2c1.28 2.92 1.88 5.81 2 9-1.75 3.06-1.75 3.06-4 5h-2c-.44-.48-.88-.96-1.33-1.46-2.14-1.97-3.49-2.02-6.36-2.23-.81-.06-1.61-.13-2.45-.2-.61-.03-1.23-.07-1.86-.11-.16-.5-.16-.5-1-3l1-2c.19-3.5.19-3.5 0-7-2.59-2.59-4.03-2.37-7.62-2.62-1.01-.08-2.01-.15-3.04-.23L171 65V55l2 1v7c.69.05 1.37.1 2.08.15.9.07 1.8.15 2.73.23.9.06 1.79.13 2.71.21C183 64 183 64 186 66c.97 4.3 1.16 7.74 0 12l1.86.18c.81.09 1.62.17 2.45.26.8.08 1.6.16 2.43.24C195 79 195 79 198 80c1.26-3.78.91-6.14 0-10-1.75-1.12-1.75-1.12-4-2-.78-.83-1.57-1.65-2.38-2.5-3.17-3.02-6.19-4.5-10.62-4.5-2.33-3.13-4.15-6.57-6-10-.42-.78-.85-1.56-1.28-2.36-3.4-7.22-3.69-14.78-2.72-22.64 2.28-5.28 2.28-5.28 4-7"/><path fill="#c84e2b" d="M11 130h2c.7 1.26 1.38 2.54 2.06 3.81.19.36.19.36 1.16 2.15C17 138 17 138 16 141c-.13 1.69-.2 3.38-.25 5.08-.03.99-.06 1.99-.1 3.02-.06 2.08-.11 4.17-.17 6.26-.19 5.56-.64 10.38-2.48 15.64h-2c-3.28-7.07-3.45-13.34-3.38-21.06l-.03-3.47c.02-6.26.38-10.95 3.41-16.47"/><path fill="#8fca8e" d="M169.45 153.902c.85 0 1.7.01 2.57.01.44 0 .44 0 2.67.03.44 0 .44 0 2.7.01 2.21.01 4.41.03 6.61.05-.15 1.19-.31 2.39-.46 3.62-.44 3.46-.8 6.91-1.1 10.38-.09.95-.17 1.9-.26 2.87l-.18 2.13h1l1 12c4.45-1.78 5.98-2.65 9-6l2 1-2 2 3 1c.25-.54.5-1.07.75-1.63 1.55-2.94 3.38-5.63 5.25-8.37l2 1c-3.17 6.35-8.43 12.99-15 16-5.82.77-5.82.77-8.81-1.19-3.77-5.75-3.37-10.23-2.19-16.81 1.19-5.37 2.58-10.69 4-16-2.52-.06-5.04-.1-7.56-.13-.71-.01-1.41-.03-2.14-.05-4.82-.04-8.72.65-13.3 2.18 3.18-3.49 5.82-4.13 10.45-4.1"/><path fill="#e3692a" d="M119 140c1.25 2.11 1.25 2.11 2 4-.65.11-1.3.22-1.98.33-5.17.94-9.37 2.11-14.02 4.67h-2l-1 3c-3.02-1.12-4.65-2.61-6.62-5.06C93 144 93 144 91 143c.96-2.89 1.69-3.84 4.44-5.25 7.69-1.62 16.56-1.87 23.56 2.25"/><path fill="#c9512e" d="m210 130 3 1c4.39 12.26 2.27 26.98-2 39h-2c-2.5-6.77-2.33-13.41-2.31-20.56-.02-1.21-.03-2.41-.05-3.66v-3.53c-.01-1.06-.01-2.11-.01-3.2.43-3.53 1.63-5.97 3.37-9.05"/><path fill="#6a1809" d="M222 62c2 2 2 2 2.31 5.19-.36 4.45-1.14 6.93-3.31 10.81-2.19.94-2.19.94-4 1l-1-2c-.33.16-.33.16-2 1-2.67.13-5.32.04-8 0l-2-4h-2l-2-7c.42.02.42.02 2.56.14 7.41.24 12.15-.15 18.44-4.14z"/><path fill="#bb492c" d="M35.059 137.531c1.8.65 3.59 1.3 5.38 1.97.46.17.46.17 2.79 1.01 2.26.82 4.52 1.65 6.77 2.49v6c-1.56.34-3.12.67-4.69 1-.43.09-.43.09-2.63.56-2.62.43-5.04.51-7.68.44l4-2c-1.11-.35-2.23-.7-3.37-1.06-5.42-2.02-10.23-5.2-14.63-8.94v-2c4.67-2.33 9.36-1.04 14.06.53"/><path fill="#c4eac3" d="M183 12c3.06 2.47 4.97 4.96 7.12 8.25C192 23 192 23 195 24v2h-3v3h-3c-1.93-2.46-3.52-5.07-5.18-7.71C182 19 182 19 179.78 18.18L178 18l-1 3h-3c-3.38 7.15-3.18 15.89-1.02 23.4 2.23 5.44 4.95 10.59 8.02 15.6-3.88-1.75-3.88-1.75-5-4l-2 4c-.04-.63-.07-1.26-.11-1.91-.07-.85-.13-1.71-.2-2.59-.06-.84-.12-1.67-.18-2.53-.44-2.56-1.03-4.33-2.03-6.68-1.88-4.79-1.92-9.26-1.86-14.35l-.03-2.61c.03-6.25.78-11.52 5.22-16.27 3.03-1.47 4.86-1.6 8.19-1.06"/><path fill="#53160b" d="M134 81c2 2 2 2 2 6l7 1 3-4v3h2c.77 8.81.77 8.81-2.06 13.19-2.94 1.81-2.94 1.81-6.56 1.87-3.64-1.14-4.63-1.76-6.38-5.06-.98-2.93-1.16-4.95-1.19-8-.01-.87-.03-1.73-.04-2.62C132 84 132 84 134 81"/><path fill="#762a16" d="M81 48h2c-.75 5.75-.75 5.75-3 8l-3.44-.06C73 56 73 56 71.38 57.56L70 59c-2.25-.19-2.25-.19-5-1-1.26-.35-2.52-.7-3.81-1.06-1.05-.31-2.11-.62-3.19-.94.01.85.02 1.71.04 2.59 0 1.1.01 2.21.02 3.35.01 1.1.03 2.2.04 3.34C58 68 58 68 57 69c-2.19-.09-4.38-.25-6.56-.44-1.2-.1-2.4-.2-3.63-.31-.93-.08-1.86-.16-2.81-.25.16.74.33 1.47.5 2.23.66 3.66.56 7.05.5 10.77l-10-1v-1h7c-.08-.25-.08-.25-.5-1.5-.72-3.6-.68-6.83-.5-10.5 2-2 2-2 5.88-2.19 2.86.03 5.36.42 8.12 1.19-.02-.77-.05-1.54-.07-2.34-.02-1-.04-2-.05-3.04-.03-.99-.05-1.99-.08-3.02C55 55 55 55 57 53c3.38.11 6.68.52 10.03.91L70 54l2-2c3.62-.12 3.62-.12 7 0z"/><path fill="#9ceaa0" d="m39 61 2 1-2 2c-.41 2.82-.41 2.82-.62 6.12-.08 1.1-.15 2.2-.23 3.33-.05.84-.1 1.68-.15 2.55l-6 1 3 3-4 2c-.18 4.03.06 6.48 2 10v3l-3.88.94c-2.22.54-4.07 1.03-6.12 2.06v-2h-2v2h-2l1 10c-3-3-3-3-3.5-6.88.13-3.46.5-4.13 2.75-7.06 2.43-1.82 3.78-2.73 6.75-3.06l-1.06-2.06c-1.21-3.8-.99-6.1.06-9.94 3.06-3.23 5.6-4.5 10-5 .04-.6.07-1.21.11-1.83.66-7.94.66-7.94 3.89-11.17"/><path fill="#eef2e9" d="M131.824 159.965c2.73-.02 5.45-.01 8.18.04l-1 3-14 1-2 5c-4.99 6.26-11.11 12.01-19 14-6.33.54-12.67.29-19 0l-1-2h14v-2c.53-.14 1.06-.28 1.61-.42 8.43-2.43 15.61-6.65 20.64-13.96 2.44-3.51 2.44-3.51 5.43-4.62 2.05 0 4.09-.01 6.14-.04"/><path fill="#751f0d" d="m31 118 2 3c.5.71 1 1.42 1.51 2.16.26.38.26.38 1.61 2.34.54.77 1.08 1.55 1.64 2.34C39 130 39 130 39 133c-2.3 2.3-5.85 2.02-8.89 2.1-1.45-.01-2.91-.02-4.36-.04-.75 0-1.49-.01-2.26-.01-1.83-.01-3.66-.03-5.49-.05-3-5.75-3-5.75-3-8 7.11-.45 11.72.67 18 4v-3c-.69-.2-1.37-.41-2.08-.62l-2.73-.82c-.9-.26-1.79-.53-2.71-.81-1.83-.55-3.66-1.14-5.48-1.75v-2c2.96-1.48 5.74-1.06 9-1l1-2z"/><path fill="#efe9e3" d="M209 2v2h3v2h-21c3.02 7.04 3.02 7.04 6 10 .7 2.34.7 2.34 1.12 4.94.87 5.01.87 5.01 1.43 7.17.63 2.64.51 5.19.45 7.89-3.37-1.44-5.67-3.16-8-6v-4h3l-1-7h-2c-4.1-4.83-4.42-7.95-4-14 6.75-3.86 13.39-3.29 21-3"/><path fill="#ca4d2d" d="M194.5 135.75c.39-.01.39-.01 2.34-.08 2.65.4 3.49 1.3 5.16 3.33-10.59 7.8-19.27 8.3-32 8 3.14-3.55 6.25-5.28 10.56-7.19 1.14-.51 2.27-1.02 3.44-1.54 3.66-1.55 6.55-2.44 10.5-2.52"/><path fill="#742816" d="M107.313 36c3.54 1.32 4.61 3.28 6.57 6.41 1.12 1.59 1.12 1.59 3.12 2.59.25-.6.49-1.2.75-1.81 1.48-2.6 2.63-3.73 5.25-5.19 3.25-.19 3.25-.19 6 0 .16.83.16.83 1 5h-2c-.17-.33-.17-.33-1-2-3.39 1.04-4.84 1.79-7.07 4.62-.31.4-.31.4-1.93 2.38h-4c-1.35-1.5-1.35-1.5-2.5-3.44-1.16-1.93-1.16-1.93-2.5-3.56l-4-1c-.99 1.48-.99 1.48-6 9-4-1-4-1-7.07-3.56-2.93-2.44-2.93-2.44-5.93-2.44l-2 4h-2c.75-5.75.75-5.75 3-8 4.84.22 7.54 1.65 11 5v2c2.11-1.9 3.47-3.72 5.06-6.12 2.61-3.88 2.61-3.88 6.25-3.88"/><path fill="#bf4831" d="M119 135v2q-.96-.24-1.95-.48c-3.97-.68-7.84-.78-11.86-.83l-2.33-.09c-5.95-.07-9.74 1.53-14.86 4.4-1.68.65-3.36 1.28-5.06 1.88-4.26 1.62-7.06 3.64-10.17 6.95C71 150 71 150 65 150l-6-12c1.3.47 2.6.95 3.94 1.44 7.72 2.51 13.11 3.56 20.53-.19 3.03-1.5 6.12-2.72 9.28-3.94 1.07-.41 2.13-.83 3.23-1.26 7.64-2.66 15.65-2.74 23.02.95"/><path fill="#dd5d2e" d="M182 82c7.43-.29 7.43-.29 11 2-.88 5.88-.88 5.88-2 7-.23 2.02-.41 4.04-.56 6.06-.09 1.11-.17 2.21-.26 3.35-.06.85-.12 1.71-.18 2.59l10-1c-1.07 2.92-1.78 4.78-4 7-.26 2.28-.31 4.52-.36 6.81-.64 2.19-.64 2.19-3.18 3.98-.81.4-1.62.8-2.46 1.21-2.44-10.49-3.91-20.27-2-31l2-2v-3l-8-1z"/><path fill="#5cc15e" d="M158 156c.16.5.16.5 1 3-10.26 4.56-20.6 7.25-31.86 7.5-.7.16-1.41.33-2.14.5-1.07 1.8-1.07 1.8-2 4-1.73 1.92-1.73 1.92-3.62 3.75l-1.92 1.86c-.48.46-.96.92-1.46 1.39l-2-1c.63-.6 1.25-1.21 1.9-1.83.82-.8 1.63-1.6 2.48-2.42l2.46-2.39c2.16-2.36 2.16-2.36 3.28-4.61.29-.58.58-1.16.88-1.75 4.59-1.31 9.26-1.08 14-1l-1-4c13.63-4.78 13.63-4.78 20-3"/><path fill="#e98f28" d="M105 39c4.41 1.35 6.43 3.19 9 7v2l6-1c-1.25 1.56-1.25 1.56-3 3-2.63-.26-3.78-.79-5.7-2.63-.51-.64-1.02-1.28-1.55-1.93l-1.58-1.94c-.38-.5-.77-.99-1.17-1.5-.36.57-.73 1.13-1.1 1.71-4.05 5.91-4.05 5.91-7.96 7.67C95 51 95 51 92.31 48.06c-.76-1.01-1.52-2.02-2.31-3.06h-3c-.22.77-.44 1.54-.66 2.34-2.62 8.26-2.62 8.26-6.28 10.28-.5.07-.5.07-3.06.38-4.9.93-4.9.93-6.81 2.25-3.74 1.28-6.67-.72-10.19-2.25l-1 11-2-1 1-12c6.71.92 6.71.92 9.75 1.75.74.08 1.48.16 2.25.25l1.38-1.44C73 55 73 55 76.69 54.81c1.09.06 2.18.13 3.31.19l3-7h-2l1-3v2h2l2-5c3.74.32 4.87.87 7.56 3.62L96 48c1.98-.1 1.98-.1 4-1 1.48-1.85 1.48-1.85 2.75-4.06.43-.74.86-1.47 1.3-2.23.15-.28.15-.28.95-1.71"/><path fill="#781e08" d="M202 31c1.57 2.4 2 3.86 2 6.75-1.2 3.89-3.1 6.38-5.62 9.52-3.43 4.31-2.98 9.44-2.38 14.73 2 2.56 2 2.56 4 4v2c-.5.16-.5.16-3 1-.4-.47-.8-.94-1.21-1.43-.53-.62-1.06-1.24-1.6-1.88-.52-.62-1.05-1.23-1.58-1.87A91 91 0 0 0 188 59l1-2h2c-.1-.83-.21-1.65-.31-2.5.54-6.1 4.58-10.79 8.31-15.5-.82-.33-.82-.33-5-2 3-1 3-1 7-1z"/><path fill="#ef7f54" d="M158 102.625c.85-.01 1.69-.02 2.56-.02 2.87.47 4.27 1.5 6.44 3.4-.26 3.25-.57 4.61-3.06 6.81-4.03 1.62-6.6 1.6-10.94 1.19-2.5-1.19-2.5-1.19-4-3-.5-2.5-.5-2.5 0-5 2.93-2.79 5-3.42 9-3.38"/><path fill="#f28358" d="M77 113c3 1.19 3 1.19 5 3 .62 2.5.62 2.5 0 5-3.4 3.08-6.66 3.45-11.06 3.3-2.78-.43-4.72-1.63-6.94-3.3.31-2.89.64-4.59 2.56-6.81 3.47-1.69 6.69-1.73 10.44-1.19"/><path fill="#d0efcc" d="M230 56h2c.19 2.81.19 2.81 0 6l-1.5 1.41c-2.03 2.15-1.71 3.31-1.62 6.21-.35 5.95-2.54 10.35-5.32 15.5-.41.76-.81 1.52-1.23 2.3-3.03 5.43-3.03 5.43-5.33 6.58l2-9h2v-3l-3 1v-4l3-2c1.17-3.3 2.11-6.59 3.02-9.97 1.27-4.45 2.64-7.65 5.98-11.03"/><path fill="#9ee69f" d="M234 22c2.61 1.3 2.67 2.26 3.59 4.98 1.51 4.82 1.99 9.3 1.97 14.33v2.51c-.21 7.51-2.61 12.83-6.56 19.18a95 95 0 0 0-1.75 4c-1 2.4-2.07 4.69-3.25 7-.08-1.44-.14-2.87-.19-4.31-.03-.8-.07-1.6-.1-2.43.36-2.79 1.32-3.35 3.29-5.26.03-1.99.06-3.98-.02-5.97.03-2.89 1.11-5.3 2.02-8.03.46-3.66.75-7.32 1-11h1l1 9c.26-8.24-.39-15.91-2-24"/><path fill="#8bd28a" d="m39 155 9 1-1 3v-2l-6 1c.31 1.2.62 2.39.94 3.62 1.87 8.54 3.62 18.14.06 26.38-2 2-2 2-3.95 2.2-2.01-.07-4.03-.13-6.05-.2v-1c1.13-.14 2.27-.29 3.44-.44C39 188 39 188 40 187c.07-2.02.08-4.04.06-6.06-.01-1.11-.02-2.21-.02-3.35-.02-.85-.03-1.71-.04-2.59l-1 10-2-1v-22h2z"/><path fill="#f8f8f2" d="M54 56v9c-.78.06-1.56.12-2.37.18-1.01.09-2.02.17-3.07.26-1.01.08-2.02.16-3.06.24C43 66 43 66 42 67c-.07 2.02-.08 4.04-.06 6.06.01 1.11.02 2.21.02 3.35.02.85.03 1.71.04 2.59H32v-3h6c-.03-.83-.07-1.66-.11-2.52-.02-1.09-.05-2.17-.08-3.29-.03-1.08-.07-2.16-.1-3.27C38 64 38 64 39.19 62.12c2.44-1.51 4.14-1.42 7-1.31.45.02.45.02 2.73.08.69.04 1.37.07 2.08.11v-4c2-1 2-1 3-1"/><path fill="#72291d" d="m65 153 4 1v15l-4 2c-1.51-1.04-3.01-2.11-4.5-3.19-.84-.59-1.67-1.18-2.53-1.79C56 164 56 164 55.53 161.39c.16-.79.31-1.58.47-2.39l3-2 1 3 1.94-2.94C64 154 64 154 65 153"/><path fill="#7fca7d" d="M77 177c.43.15.43.15 2.62.94 5.95 1.73 12.23 1.74 18.38 2.06v1c-2.14.16-2.14.16-13 1 3 .11 6 .19 9 .25.42.02.42.02 2.54.1 6.3.1 9.96-1.33 15.46-4.35l2 1c-1.91.98-3.83 1.96-5.75 2.94l-3.23 1.65c-8.82 4.12-18.89 3.22-28 .36-2.17-1.02-3.45-2.16-5.02-3.95l5-1z"/><path fill="#7b200c" d="M120.082 144.773c1.92.23 1.92.23 3.92-.77 2.3 3.45 2.34 4.94 2 9l-2 2c-1-1-1-1-1.06-4.07l.06-2.93c-.49.35-.97.7-1.47 1.06-4.96 3.36-8.55 4.62-14.53 4.94-.69-2.49-1-4.38-1-7 5.16-2.75 8.32-3.24 14.08-2.23"/><path fill="#e7d8d1" d="M126.125 35.5c3.14.55 4.63 1.26 6.88 3.5v2c4.6-.77 4.6-.77 6.81-2.06 3.39-1.46 6.52-1.06 10.19-.94.16.66.16.66 1 4l-1.76-.21c-6.31-.44-6.31-.44-9.18 1.55-1.63 1.66-1.63 1.66-4.06 4.66-3-1-3-1-4.17-2.85-.34-.73-.68-1.46-1.02-2.21-.35-.74-.69-1.47-1.05-2.23-.25-.56-.5-1.13-.76-1.71-3.84-.36-5.56-.3-8.82 1.88-2.18 2.12-2.18 2.12-3.18 4.12-3.74-1.25-4.19-2.63-6-6 .86.43 1.73.87 2.62 1.31 1.11.23 2.23.46 3.38.69 6.39-5.06 6.39-5.06 9.12-5.5"/><path fill="#eef1e7" d="M21 96h2c-.1 1.01-.21 2.02-.31 3.06.31 3.98.48 4.53 2.81 7.38 3.14 3.89 2.93 6.68 2.5 11.56-1.99.49-3.97.98-5.96 1.46-1.7.45-3.37.98-5.04 1.54 0-3 0-3 1.81-5.19C21 114 21 114 24 114c-1.61-2.71-3.25-5.37-5-8-.26-2.69-.09-5.29 0-8h2z"/><path fill="#de7b2a" d="m147 43 5 15c7-1 7-1 9.4-1.35 1.86-.26 3.73-.46 5.6-.65 1 1 1 1 1.1 3.72-.03 3.1-.07 6.19-.1 9.28l14-1v8h-1v-6c-1 .01-2 .02-3.03.04-1.29 0-2.58.01-3.91.02-1.29.01-2.57.03-3.9.04C167 70 167 70 166 69c-.23-1.68-.41-3.37-.56-5.06-.04-.46-.04-.46-.26-2.79-.06-.71-.12-1.42-.18-2.15-.85.14-1.69.29-2.56.44-3.48.57-6.95 1.07-10.44 1.56-2.47-2.96-3.66-5.54-4.69-9.25l-.76-2.7c-.18-.68-.36-1.35-.55-2.05h-4l1-3c2-1 2-1 4-1"/><path fill="#b9412c" d="M221 68c-.48 4.32-1.7 6.2-5 9-3.19 1.59-6.54 1.52-10 1-2-1.81-2-1.81-3-4v-3c.48.03.48.03 2.94.19 4.04.02 7.38-1.14 11.14-2.53C219 68 219 68 221 68"/><path fill="#e77b2e" d="M204 25h1c.25 2.37.48 4.75.69 7.12.07.67.14 1.34.22 2.02.4 4.85-.41 7.72-2.91 11.86-.54.91-1.07 1.81-1.62 2.75-.46.74-.91 1.48-1.38 2.25-1.24 2.49-1.13 4.23-1.12 7-.01.89-.01 1.77-.01 2.69C199 63 199 63 200 65c-3.88-1.88-3.88-1.88-5-3-.54-5.22-.73-9.62 1.75-14.31.74-.89 1.49-1.78 2.25-2.69 3.64-4.55 4.35-7.25 4.07-12.88-.08-2.49.31-4.71.93-7.12"/><path fill="#dff4db" d="m33 150 18 2v5c-1.63-.14-3.25-.29-4.88-.44-.9-.08-1.8-.16-2.74-.24C41 156 41 156 39 155v7h-2l-1 3z"/><path fill="#4edc5b" d="m5 123 2 1c-.14.27-.14.27-.84 1.64-.18.36-.18.36-1.1 2.17l-1.09 2.15c-2.41 5.06-2.15 9.67-2.16 15.16l-.03 2.77c-.02 5.9.44 11.45 2.22 17.11l1 1c.24 2.26.38 4.51.52 6.77.58 2.68 1.31 3.59 3.48 5.23 3.19.69 3.19.69 6 1v1c-3.19.38-3.19.38-7 0-5.85-5.05-7.65-11.93-8.3-19.48-.14-3.86-.16-7.71-.14-11.58l-.06-3.97c.01-7.59.65-13.38 4.5-19.97z"/><path fill="#bf4b30" d="m208 126 1 2c-.78 1.73-.78 1.73-1.94 3.62-.68 1.12-1.36 2.23-2.06 3.38-.52-.16-1.04-.33-1.58-.5-3.1-.64-6.01-.59-9.17-.56-.59 0-.59 0-3.55.02-.89.02-1.78.03-2.7.04 5.56-5.98 11.86-8.69 20-8"/><path fill="#ecf8eb" d="M175 19h1v26l-4-1c-1.19-3.57-1.21-6.55-1.25-10.31-.03-1.3-.05-2.59-.08-3.93.36-4.12 1.32-7.75 4.33-10.76"/><path fill="#5f1605" d="m96 72 3 1c-.97 3.5-1.86 4.89-4.75 7.19C88.26 83.53 83.73 84.23 77 84l-1-4 2.41-.3C85.99 78.63 90.54 77.46 96 72"/><path fill="#722e22" d="M213 128c4.22 3.76 4.79 8.48 5.11 13.92.08 2.13.12 4.26.14 6.39l.03 2.1c-.02 3.69-.25 6.46-2.28 9.59h-2c.01-.62.01-1.23.02-1.86.02-2.8.03-5.59.04-8.39l.03-2.93c0-.94 0-1.87.01-2.84 0-.85.01-1.71.01-2.6-.11-2.28-.54-4.18-1.11-6.38-.04-2.33-.04-4.67 0-7"/><path fill="#5b1f11" d="M137 78c3.08 0 5.15.25 7.5 2.34 3.5 4.07 3.5 4.07 3.5 6.66-1.33.34-2.66.68-4 1-.42.11-.42.11-2.56.69C139 89 139 89 136 87c-.81-3.5-.81-3.5-1-7z"/><path fill="#eafbea" d="m218 136 2 1c1.53 4.82 1.18 10.05 1.19 15.06l.03 2.72c.01.87.01 1.74.01 2.63 0 .79.01 1.57.01 2.38-.27 2.52-.84 4.1-2.24 6.21l-3 1z"/><path fill="#d66833" d="M202 142h3c.54 11.72-5.08 23.62-12 33-.33.16-.33.16-2 1 1.31-4.21 2.95-8.01 4.94-11.94 3.41-7.21 4.82-14.22 6.06-22.06"/><path fill="#681d13" d="m164 146 1 2c2.06.62 2.06.62 4 1-1.26.39-2.52.78-3.81 1.19-3.71 1.21-7.13 2.71-10.63 4.43-5.18 2.44-9.86 3.24-15.56 3.38v-3c1.05-.31 2.1-.63 3.18-.95 7.51-2.28 14.74-4.64 21.82-8.05"/><path fill="#d85326" d="m204 80 6 2c-.55 3.74-1.96 5.22-4.81 7.62-.69.6-1.38 1.19-2.08 1.79-1.98 1.49-3.87 2.57-6.11 3.59-.46-4.58.79-6.68 3.5-10.31.65-.89 1.3-1.77 1.97-2.68q.75-.99 1.53-2.01"/><path fill="#d97135" d="M117.223 138.953c2.25 1.32 2.83 2.66 3.78 5.05-.34.06-.34.06-2.05.4-.89.18-1.78.35-2.7.53-.88.18-1.77.35-2.67.53-2.22.46-4.4.97-6.58 1.54v-2c3.26-1.89 6.28-2.5 10-3-4.77-1.24-9.43-1.12-14.32-1.07-.41.01-.41.01-2.53.02-2.05.01-4.1.03-6.15.05 6.22-6.51 15.27-4.64 23.22-2.05"/><path fill="#bf4c30" d="M15 127c7.7-.62 12.37 1.13 19 5v1l-2.48.18c-.54.05-.54.05-3.27.26-1.07.08-2.13.16-3.23.24-2.46.26-4.66.64-7.02 1.32-3-5.75-3-5.75-3-8"/><path fill="#651604" d="M147 67v3c-.93-.1-1.86-.19-2.82-.29-12.27-1.1-12.27-1.1-18.18 1.29v-4c7.79-3.81 13.21-3.81 21 0"/><path fill="#b5e8b3" d="M150 36c5.49 3.58 6.55 8.94 8 15h-2l-1-3-3 4c-.2-.63-.41-1.25-.62-1.9-.27-.82-.54-1.63-.82-2.48-.26-.81-.53-1.62-.81-2.46C149 43 149 43 148 41l2-1v-2c-1.75.28-3.5.58-5.25.88-.97.16-1.95.32-2.95.49-2.57.58-4.52 1.34-6.8 2.63 4.53-5.89 7.63-7.07 15-6"/><path fill="#5f160e" d="M69 167h3c1.22 1.48 2.43 2.96 3.61 4.47 3.27 3.61 7.71 4.84 12.39 5.53v1l9 1v1c-8.4.47-15.56.29-23-4-1.01-.99-2.02-1.98-3-3-2.69-1.19-2.69-1.19-5-2 1.31-2 1.31-2 3-4"/><path fill="#d3652f" d="M18 142h3c.18 1.05.36 2.1.55 3.18 1.22 6.85 2.43 13.5 4.82 20.05.79 2.22 1.26 4.45 1.63 6.77h-2c-1.15-2.75-2.29-5.5-3.44-8.25-.32-.78-.65-1.55-.98-2.36-.16-.37-.16-.37-.95-2.28-.29-.69-.58-1.38-.87-2.1-1.38-3.67-1.88-6.84-1.82-10.76.01-.8.02-1.6.02-2.42.02-.61.03-1.21.04-1.83"/><path fill="#e5812c" d="m81 45 1 2h2l1-2c.21 3.58.18 6.45-.94 9.88-2.8 2.88-5 2.72-8.9 2.78C73 58 73 58 70 61l-10-3-1 11-2-1 1-12c6.71.92 6.71.92 9.75 1.75.74.08 1.48.16 2.25.25l1.38-1.44C73 55 73 55 76.69 54.81c1.09.06 2.18.13 3.31.19l3-7h-2z"/><path fill="#cb5229" d="M119 135v2q-.96-.24-1.95-.48c-3.97-.68-7.84-.78-11.86-.83l-2.33-.09c-5.93-.07-9.77 1.48-14.86 4.4-10.08 4.62-10.08 4.62-16 4v-1c.82-.23 1.64-.46 2.49-.7 5.5-1.6 10.69-3.23 15.76-5.92 9.1-4.76 19.25-6.13 28.75-1.38"/><path fill="#590d04" d="m126 113 3 2-1 3c-.33-.05-.33-.05-2.01-.32-5.44-.74-8.42-1.07-12.99 2.32-2.81.69-2.81.69-5 1 .22-3.13 1.06-4.06 3.38-6.25 4.4-2.72 9.64-2.42 14.62-1.75"/><path fill="#68190e" d="M34.313 79.734c.44 0 .44 0 2.69.02.88-.01 1.77-.01 2.69-.02 2.31.27 2.31.27 4.31 2.27l-10 1c.87 5.87.87 5.87 2 7 .12 3 .12 3 0 6-1 1-1 1-3.57 1.06l-2.43-.06v-2h3c-.5-1.04-.99-2.07-1.5-3.13-1.46-3.41-1.94-6.13-1.5-9.87 2-2 2-2 4.31-2.27"/><path fill="#f0f4ea" d="M83 38c-.59 4.83-1.35 9.41-3 14-3.48 1.16-5.46.71-9 0l1-3h4c.06-.36.06-.36.38-2.19.62-2.79 1.4-5.22 2.62-7.81 2-1 2-1 4-1"/><path fill="#6f2410" d="M85 39c4.84.22 7.54 1.65 11 5v2l5-4 1 3c-1.44 2.19-1.44 2.19-3 4-3.3-.38-4.42-1.35-7.06-3.56C89 43 89 43 86 43l-2 4h-2c.75-5.75.75-5.75 3-8"/><path fill="#57da5f" d="m39 61 2 1-2 2c-.41 2.82-.41 2.82-.62 6.12-.08 1.1-.15 2.2-.23 3.33-.05.84-.1 1.68-.15 2.55l-3.25.88C31 78 31 78 27 80v12l-5 1 4-2-1.06-2.06c-1.21-3.8-.99-6.1.06-9.94 3.06-3.23 5.6-4.5 10-5 .04-.6.07-1.21.11-1.83.66-7.94.66-7.94 3.89-11.17"/><path fill="#31cb3d" d="M172 17h1c-.16 1.18-.33 2.35-.5 3.56-1.6 15.45.39 26.22 8.5 39.44-3.88-1.75-3.88-1.75-5-4l-2 4c-.04-.63-.07-1.26-.11-1.91-.07-.85-.13-1.71-.2-2.59-.06-.84-.12-1.67-.18-2.53-.44-2.56-1.03-4.32-2.03-6.68-1.9-4.82-1.89-9.35-1.79-14.48-.01-.87-.01-1.75-.01-2.65.04-4.48.21-8.1 2.32-12.16"/><path fill="#eb7523" d="M180 32c2.01 3.02 2.79 5.36 3.81 8.81 1.21 3.79 2.26 6.74 4.94 9.69C191 53 191 53 191 57c-4.1-1.52-6.84-4.27-9-8-1.8-5.59-2.25-11.16-2-17"/><path fill="#671e11" d="M215 157h1c-.39 5.88-1.08 10.81-4 16-2.19.94-2.19.94-4 1-1.62-2.12-1.62-2.12-3-5 .81-3.31.81-3.31 2-6h1l1 7h2l2-10h2z"/><path fill="#d56832" d="M11 130h2c-.13.8-.27 1.6-.4 2.43-1.53 9.85-2.17 19.62-2.6 29.57-2.95-4.42-2.33-8.55-2.31-13.75-.02-.98-.03-1.95-.05-2.96-.01-5.89.6-10.07 3.36-15.29"/><path fill="#8be48d" d="M20 108c2 1.31 2 1.31 4 3v3c-.78.25-1.57.5-2.38.75-3.03 1.45-3.45 2.19-4.62 5.25-1.11 2.69-1.58 3.75-4.12 5.25-.62.25-1.24.5-1.88.75l1-5-5 2c2.02-4.85 5.45-6.69 10-9 3-.81 3-.81 5-1z"/><path fill="#be482f" d="M67.188 153.313c.6.23 1.2.45 1.81.69l-1 2c-.23 1.87-.41 3.74-.56 5.62-.08 1.01-.17 2.01-.25 3.04-.06.77-.13 1.54-.19 2.34-2.47-1.15-4.05-2.05-6-4 .19-3.46.39-6.07 2.31-9 1.69-1 1.69-1 3.88-.69"/><path fill="#88eb8e" d="M199.25.938c.75 0 1.49.01 2.26.01 1.83.02 3.66.03 5.49.05v1l-2.48.15c-1.08.08-2.16.15-3.27.23-.53.03-.53.03-3.23.21-2.86.39-4.52 1.08-7.02 2.41h-3c.28 1.61.58 3.21.87 4.82.17.89.33 1.78.5 2.7.63 2.48.63 2.48 2.63 5.48-3.84-1.45-5.31-3.28-7-7-.41-4.13-.34-5.49 2-9 3.96-1.43 8.1-1.11 12.25-1.06"/><path fill="#e8e2da" d="M186 154h1c.22 5.52-.1 9.75-2 15-.44 2.66-.72 5.31-1 8l-3-1c-.21-5.79.41-10.43 2-16h2l-.06-2.44C185 155 185 155 186 154"/><path fill="#772812" d="M191 51h1l1 6 2-3c.04.62.04.62.25 3.75.47 4 1.63 5.63 4.75 8.25v2l-3 1c-.2-.24-.2-.24-1.21-1.43-.53-.62-1.06-1.24-1.6-1.88-.52-.62-1.05-1.23-1.58-1.87A91 91 0 0 0 188 59l1-2h2z"/><path fill="#74210d" d="M151 44c1.14 4.27 2 7.56 2 12 1.11-.35 2.23-.7 3.38-1.06C160 54 160 54 162 55v2c-3.46 1.58-6.18 2.52-10 2-2.1-3.15-2.52-5.01-3.12-8.69-.17-.99-.34-1.99-.51-3.01-.12-.76-.25-1.52-.37-2.3 2-1 2-1 3-1"/><path fill="#34d63b" d="M169.45 153.902c.85 0 1.7.01 2.57.01.44 0 .44 0 2.67.03.44 0 .44 0 2.7.01 2.21.01 4.41.03 6.61.05-.99 8.71-.99 8.71-3 13-1.6-4.01-.22-7.02 1-11-2.52-.06-5.04-.1-7.56-.13-.71-.01-1.41-.03-2.14-.05-4.82-.04-8.72.65-13.3 2.18 3.18-3.49 5.82-4.13 10.45-4.1"/><path fill="#e9fceb" d="M230 56h2c.19 2.81.19 2.81 0 6-.49.47-.97.93-1.48 1.41-1.99 2.08-1.94 3.38-2.08 6.21-.13 2.42-.13 2.42-.44 4.38l-2 1c-1.3-3.9-1.69-7.96-1-12 1.4-2.77 2.92-4.63 5-7"/><path fill="#d6f4d5" d="m10 120 3 1c-2 4.67-4 9.33-6 14l-2-3-1 2H2c1.25-6.1 3.7-9.55 8-14"/><path fill="#64db6c" d="M68 49h3c-2 2-2 2-4.9 2.12l-6.94-.24c-3.1.12-4.7.26-7.16 2.12-.83 1.95-.83 1.95-1.25 4.12-.12.64-.12.64-.75 3.88h-9v-1h8c.06-1.24.12-2.48.19-3.75.42-3.17.74-4.16 2.81-6.75 5.3-2.65 10.4-1.91 16-.5"/><path fill="#e0692c" d="M56 141c2.94 2.74 5.34 5.31 7 9-.81 2.31-.81 2.31-2 4-1.88-.19-1.88-.19-4-1-2.08-3.64-2.28-6.86-2-11z"/><path fill="#7d3324" d="m43 65 1 2h5v1h-5c.16.66.33 1.32.5 2 .62 3.73.56 7.22.5 11l-10-1v-1h7c-.16-.5-.33-.99-.5-1.5-.72-3.6-.68-6.83-.5-10.5z"/><path fill="#6d2117" d="M193 148c.41 2.71.13 5.24 0 8h-1v-6h-21v-2c2.23-.34 4.46-.67 6.69-1 .62-.09.62-.09 3.76-.56 7.77-.96 7.77-.96 11.55 1.56"/><path fill="#691e11" d="M165 52.75c3 .25 3 .25 5 2.25.2 2.6.2 2.6.12 5.63-.01 1-.03 2-.05 3.03-.02.77-.05 1.55-.07 2.34h7v1c-1.49.16-1.49.16-9 1l-1-11-7-2c2-2 2-2 5-2.25"/><path fill="#d36830" d="m179 22 3 1c1 3 1 3 .06 5.75-1.98 6.08-.93 12.04-.06 18.25-4.45-6.68-4.47-13.19-4-21 .29-1.34.61-2.68 1-4"/><path fill="#91e697" d="M183 12c2.38 1.5 2.38 1.5 4 3l-1 2-1-1q-3-.06-6 0l-2 5h-4c-.25-2.81-.25-2.81 0-6 2.91-3.36 5.72-3.54 10-3"/><path fill="#d2542d" d="m51 133 8 3c-.33.16-.33.16-2 1l1 5h-2c.14 1.44.29 2.88.44 4.31.08.8.16 1.6.24 2.43C57 151 57 151 58 154l-3-1c-2.09-6.04-2.23-11.65-2-18h-2z"/><path fill="#e68132" d="M90 145c3.06 2.5 3.06 2.5 5 5l-1 2c-.56-.48-1.12-.97-1.7-1.47-3.87-2.58-7.81-2.3-12.3-1.53-2.75 1.4-4.64 2.95-7 5 2.84-7.68 9.25-10.85 17-9"/><path fill="#5f1c14" d="M200 16h1c.12 1.11.25 2.23.38 3.38C202 23 202 23 204 25c.61 4.4-.88 7.2-3 11l-2-2v-7c-1-2.44-1-2.44-2-4h2z"/><path fill="#792715" d="M15 141h1c.04.84.07 1.69.11 2.55.07 1.1.13 2.2.2 3.33.06 1.09.12 2.18.18 3.3.17.93.34 1.86.51 2.82l3 2c-.16.76-.33 1.53-.5 2.31C19 160 19 160 19 163l-3 1-1 3c-1.05-3.14-1.04-5.05-.88-8.32l.15-3.12c.05-1.07.11-2.14.17-3.25.05-1.08.1-2.16.16-3.28.13-2.68.26-5.35.4-8.03"/><path fill="#d56834" d="m210 130 3 1c2.32 6.47 3.99 15.75.98 22.17-.32.6-.65 1.21-.98 1.83-.13-1.3-.27-2.6-.4-3.95l-.54-5.17c-.04-.43-.04-.43-.26-2.6-.46-4.46-1-8.87-1.8-13.28"/><path fill="#651c10" d="m13 124 2 1-1 2c.44 2.12.44 2.12 1 4l-4-1-3 12c-2-2-2-2-2.19-3.92.53-6.36 2.6-9.71 7.19-14.08"/><path fill="#e0efda" d="M68 172c3.87.41 6.2 2.43 9 5l1 3c-5.58.37-5.58.37-7.5-1.31-.5-.56-.99-1.12-1.5-1.69-1.98-1.05-3.97-2.05-6-3 .64-.14 1.28-.29 1.94-.44C67 173 67 173 68 172"/><path fill="#cd5830" d="M35 97v2l-7 2c1.07 2.92 1.78 4.78 4 7 1.3 3.89 2 6.88 2 11l-3-1c-.01-.58-.03-1.16-.04-1.76-.27-4.36-.54-7.27-3.58-10.55C25 103 25 103 24.88 100.75 27.28 97.01 30.85 97 35 97"/><path fill="#f6f1eb" d="M171 55c.33.16.33.16 2 1v7c.69.05 1.37.1 2.08.15.9.07 1.8.15 2.73.23.45.03.45.03 2.71.21C183 64 183 64 186 66c.97 4.3 1.16 7.74 0 12l3 1h-4c-.05-.77-.1-1.54-.15-2.34-.07-1-.15-2-.23-3.04-.06-.99-.13-1.99-.21-3.02C184 68 184 68 182 66c-2.6-.41-2.6-.41-5.62-.62-1.01-.08-2.01-.15-3.04-.23L171 65z"/><path fill="#76d47c" d="M1 156h1c.13.64.27 1.28.4 1.93.18.83.36 1.66.54 2.51.17.82.35 1.64.52 2.49C4 165 4 165 5 166c.24 2.26.38 4.51.52 6.77.58 2.68 1.31 3.59 3.48 5.23 3.19.69 3.19.69 6 1v1c-3.19.38-3.19.38-7 0-2.67-2.19-4.46-4.91-6-8-.23-2.71-.42-5.41-.56-8.12-.05-.76-.09-1.51-.13-2.29-.11-1.86-.21-3.73-.31-5.59"/><path fill="#8d321c" d="M117 144c-.06 2.31-.06 2.31-1 5-3.5 1.88-6.01 3-10 3v-4c6-4 6-4 11-4"/><path fill="#e3d5cf" d="M4 143h1c.05 1.11.1 2.22.15 3.37.36 7.37.73 14.54 2.45 21.75C8 170 8 170 8 173c-2.76-2.38-3.86-4.56-5-8-.14-2.59-.14-2.59.02-5.3.06-.98.11-1.95.16-2.96.03-.5.03-.5.2-3.05.05-1.03.11-2.06.17-3.11.14-2.53.29-5.06.45-7.58"/><path fill="#7b2e1f" d="M122 153c.5.33.5.33 3 2v2l15-1 1 3c-5.37 1.17-9.43.72-14.77-.53C124 158 124 158 121 158z"/><path fill="#702518" d="M218 14c2.3-.26 2.3-.26 5 0 4.08 4.06 6.7 9.22 7 15h-2c-1.37-2.01-1.37-2.01-2.88-4.69-2.13-3.69-4.31-7.07-7.12-10.31"/><path fill="#dbc6bf" d="M199 70c1.65 2.98 2.83 5.57 3 9-1.81 2.81-1.81 2.81-4 5h-2c-.44-.48-.88-.96-1.33-1.46-2.14-1.97-3.49-2.02-6.36-2.23-.81-.06-1.61-.13-2.45-.2-.61-.03-1.23-.07-1.86-.11l-1-3 2-2v4c.34-.01.34-.01 2.08-.04.9 0 1.8-.01 2.73-.02.9-.01 1.79-.03 2.71-.04C195 79 195 79 198 80c1.16-3.47 1.07-6.36 1-10"/><path fill="#e5ebdd" d="m190 7 2 3c.87.93 1.73 1.86 2.62 2.81 2.62 3.51 2.89 4.94 2.38 9.19l-1-4-4 1c-2.99-4.49-2.99-4.49-4-7 .75-2.94.75-2.94 2-5"/><path fill="#b54c2f" d="M29 121c2.44 2.38 2.44 2.38 4 5v2l-4.81-1.44c-.9-.26-1.79-.53-2.71-.81-1.83-.55-3.66-1.14-5.48-1.75v-2c3.13-1.56 5.56-1.36 9-1"/><path fill="#e4d8d3" d="m190 149-2 9c-.64-.8-1.28-1.61-1.94-2.44C184 153 184 153 183 152c-2.18-.23-4.37-.41-6.56-.56-.6-.04-.6-.04-3.63-.26L170 151v-1c2.4-.17 4.79-.34 7.19-.5.67-.05 1.34-.1 2.04-.14 3.6-.25 7.16-.42 10.77-.36"/><path fill="#671a0d" d="M29 117c.33.17.33.17 2 1l-1 2zm-4.31 1.88c.4 0 .4 0 2.45.05.3.01.3.01 1.86.07v2c-1.48.17-1.48.17-9 1l1 4h-5c.31-2.38.31-2.38 1-5 3.2-2.14 4.02-2.23 7.69-2.12"/><path fill="#e5dad5" d="M94 88c1.68.29 3.34.62 5 1 .62 2.38.62 2.38 1 5l-2 2c-3.54-.54-3.54-.54-5-2-.12-2.5-.12-2.5 0-5z"/><path fill="#7c2815" d="m172 141 1 4c-.33.16-.33.16-2 1l10 1v1h-10v2c-2.17-.51-4-1-6-2 1.45-3.83 3.43-5.12 7-7"/><path fill="#7d270d" d="m89 140 3 1-1 2 4 2v3h-3l-2-2c-2.38-.63-2.38-.63-5.12-1.12-.46-.09-.46-.09-2.76-.51-.7-.12-1.4-.25-2.12-.37v-2l6-1-3 1v2l6-1z"/><path fill="#55e35b" d="m208 101 2 1-6 12q1.14.375 2.31.75c2.93 1.36 3.99 2.57 5.69 5.25-3.33-1.67-6.67-3.33-10-5 .88-4.88.88-4.88 2-6 .37-2.33.7-4.66 1-7z"/><path fill="#eef0e6" d="m150 38 1 4c-.31-.01-.31-.01-1.86-.07-.81-.02-1.62-.04-2.45-.05-.4-.02-.4-.02-2.43-.08C142 42 142 42 139 44l-4-2c5.39-3.59 8.54-4.45 15-4"/><path fill="#c8e2c2" d="m148 158-6 2c.99.16.99.16 6 1v1c-7.78 1.86-14.98 3.41-23 3v-1c4.76-.95 9.17-1.08 14-1l-1-4c6.29-2.43 6.29-2.43 10-1"/><path fill="#8be996" d="M162.277 47.734c.88.01 1.76.01 2.66.02.88-.01 1.75-.01 2.65-.02 2.41.27 2.41.27 5.41 2.27 1.44 3.52 1.07 7.25 1 11h-1c-.49-1.82-.49-1.82-3-11h-12c2-2 2-2 4.28-2.27"/><path fill="#fbf7f5" d="M218 136c.33.16.33.16 2 1 1.12 4.51 1.01 8.7.69 13.31-.08 1.24-.16 2.47-.24 3.74-.15.97-.3 1.95-.45 2.95l-2 1z"/><path fill="#d1602a" d="M182 82c7.43-.29 7.43-.29 11 2-.88 5.88-.88 5.88-2 7-.23 1.35-.41 2.7-.56 4.06-.15 1.3-.29 2.6-.44 3.94h-1c-.22-1.46-.43-2.92-.62-4.38-.12-.81-.24-1.62-.36-2.46 0-.71-.01-1.42-.02-2.16l2-2v-3l-8-1z"/><path fill="#efe4e1" d="M139 81h4l1 7c-1.66.38-3.32.71-5 1-1-1-1-1-1.12-4 .12-3 .12-3 1.12-4"/><path fill="#692418" d="m229 50 1 3 2 1-6 9c-.38 1.66-.73 3.32-1 5-2.09-3.44-2.09-3.44-1.72-5.81.86-2.63 2.02-4.98 3.28-7.44l1.38-2.7c.35-.68.7-1.35 1.06-2.05"/><path fill="#fbfcfa" d="M166 149c.26.08.26.08 1.58.47 4.15.91 8.39.93 12.62 1.15.92.13 1.85.25 2.8.38l1 2h-19z"/><path fill="#cf632d" d="M34 137v2c-2.88.96-4.7 1.11-7.69 1.06-.4 0-.4 0-2.45-.02-.3-.01-.3-.01-1.86-.04l-1-3c3.97-1.98 8.86-1.33 13 0"/><path fill="#73220f" d="M55 57h1l1 12c-4.38-.52-8.69-1.06-13-2v-2c3.96-.08 7.13.03 11 1z"/><path fill="#5d1a0f" d="M16 164c.69 1.62.69 1.62 1 4-1.44 3.25-1.44 3.25-3 6h-4l-2-3 1-3 4 3c.12-.78.25-1.57.38-2.38C14 166 14 166 16 164"/><path fill="#fbfcf7" d="M54 56v9l-11-1 1-2c3.06-.62 3.06-.62 6-1 .06-.32.06-.32.38-1.94.2-.68.41-1.36.62-2.06 2-1 2-1 3-1"/><path fill="#92c68e" d="m77 177 7 2-4 1v2l4 2c-4.99.29-7.96.06-12-3v-1l5-1z"/><path fill="#f3f5ed" d="M38 152h13v5c-.99-.16-.99-.16-6-1v-2h-7z"/><path fill="#67160a" d="M201 100h1c.32 4.65-.19 6.4-3 10-.69 3.25-.69 3.25-1 6h-3c-.6-6.05-.6-6.05 1.08-8.7 1.28-1.46 2.6-2.88 3.92-4.3z"/><path fill="#d3602c" d="m203 71 9 1-2 5c-2.38.19-2.38.19-5 0-2-3-2-3-2-6"/><path fill="#f5fdf4" d="M39 173c2 2 2 2 2.23 4.79-.01 1.08-.03 2.16-.04 3.27-.01 1.09-.02 2.17-.02 3.29C41 187 41 187 40 188c-1.67.04-3.33.04-5 0l-1-2 5-1z"/><path fill="#dc6f2b" d="m204 80 6 2c-.38.3-.38.3-2.31 1.81C205 86 205 86 203.31 87.75 202 89 202 89 200 89c.53-3.82 1.5-6.06 4-9"/><path fill="#bf4a2c" d="M209 131c2.57 2.57 2.54 4.48 3 8h-2l-1 11h-1c-.22-2.23-.43-4.46-.62-6.69-.12-1.24-.24-2.48-.36-3.76-.02-3.48.44-5.47 1.98-8.55"/><path fill="#6e2214" d="m123 156 1 2c2.29.41 2.29.41 5.06.62.46.04.46.04 2.79.23l2.15.15v1c-.39.07-.39.07-2.34.4-1 .18-2 .36-3.04.54-.49.08-.49.08-3.02.52-2.6.54-2.6.54-4.6 1.54-.69-1.81-.69-1.81-1-4 1.44-1.75 1.44-1.75 3-3"/><path fill="#cbd5bd" d="M52 52h3v14l-4-1h3l-1-8h-2c-.16.66-.16.66-1 4 .88-7.88.88-7.88 2-9"/><path fill="#e7dbd5" d="M29 82h1c1.1 4.32 2.18 8.62 3 13h-5z"/><path fill="#d77e29" d="m81 45 1 2h2l1-2c.29 4.92.28 8.16-3 12-2.5.94-2.5.94-5 1l-3-2c1.11-.21 2.23-.41 3.38-.62C81 54 81 54 82.44 50.88c.18-.95.37-1.9.56-2.88h-2z"/><path fill="#7cec81" d="m150 36 3 2-1 2-1-1c-5.57-.6-9.31-.27-14 3l-2-1c4.68-4.8 8.28-6.22 15-5"/><path fill="#f9fcf6" d="M235 29h1c.9 3.84 1.11 7.38 1.06 11.31-.01 1.07-.02 2.14-.02 3.24-.02.81-.03 1.62-.04 2.45l-2 1c-.19-2.44-.38-4.87-.56-7.31-.03-.35-.03-.35-.17-2.09-.24-3.23-.3-5.5.73-8.6"/><path fill="#611107" d="M194 10c2.47 1.15 4.05 2.05 6 4 .2 2.38.2 2.38.12 5.12-.01.92-.03 1.83-.05 2.76-.02.7-.05 1.4-.07 2.12l-3-1c.03-.6.07-1.21.11-1.83.22-6.61.22-6.61-1.61-9.73z"/><path fill="#681f15" d="M114 172c-1.43 1.03-2.87 2.05-4.31 3.06-.4.29-.4.29-2.43 1.73-.74.4-1.49.8-2.26 1.21l-3-1c3.9-4.18 6.28-6.66 12-5"/><path fill="#75291d" d="M35 160h1c.22 1.44.43 2.87.62 4.31.12.8.24 1.6.36 2.43C37 169 37 169 35 172c-2.3-3.44-2.54-5.94-3-10h3z"/><path fill="#d35631" d="m93 135 3 1c-16.88 8.75-16.88 8.75-24 8v-1c.85-.24 1.69-.48 2.56-.73 10.4-3.08 10.4-3.08 15.06-5.58 1.12-.56 2.23-1.12 3.38-1.69"/><path fill="#9c412e" d="m194 95 1 2c.93-.06 1.86-.12 2.81-.19 3.19.19 3.19.19 5.13 1.38 1.06 1.81 1.06 1.81.75 4.5-.23.76-.46 1.52-.69 2.31-.6-.64-1.2-1.28-1.81-1.94-2.77-2.61-4.41-3.06-8.19-3.06z"/><path fill="#d77029" d="m92 83 2.07.43c.34.07.34.07 2.05.45.69.14 1.37.28 2.08.42 1.8.7 1.8.7 3.8 3.7-3 0-3 0-6-2-3.69.38-3.69.38-7 1v-3l-4-1c3.23-1.08 3.89-.93 7 0"/><path fill="#631f14" d="M189 29c2.38.18 3.7.7 5.38 2.4 1.24 1.51 2.43 3.05 3.62 4.6-.33.16-.33.16-2 1-3.14-1.61-5.63-3.38-8-6z"/><path fill="#eaf2e6" d="M179 15h6l2 4-3 3-2-3c-2.12-.69-2.12-.69-4-1z"/><path fill="#ed8b32" d="M99.848 137.637c1.06.02 2.12.03 3.21.05 1.07 0 2.13.01 3.23.01 2.71.3 2.71.3 4.71 2.3-2.8.17-2.8.17-17 1 3-3 3-3 5.85-3.36"/><path fill="#def0d8" d="M43.066 60.902c.41.01.41.01 2.5.04.82 0 1.65.01 2.5.02.64.01 1.28.03 1.93.04v1l-6 1 7 1v1c-2.14.16-2.14.16-13 1 2.49-4.98 2.49-4.98 5.07-5.1"/><path fill="#742e1d" d="m110 37 1 2c-.95.1-1.9.21-2.88.31C105 40 105 40 103 43l-3-1c2.91-5.16 4.06-6.68 10-5"/><path fill="#ebe0da" d="m33 150 9 1-4 1-2 8c-2.3-3.44-2.54-5.94-3-10"/><path fill="#d66632" d="M190 136c1.44-.08 2.87-.14 4.31-.19.4-.01.4-.01 2.43-.1C199 136 199 136 202 139h-11z"/><path fill="#6b1305" d="M22 134c1.94-.05 3.87-.09 5.81-.12 1.08-.03 2.16-.05 3.27-.08C34 134 34 134 37 136c-4.95.91-9.07 1.09-14 0z"/><path fill="#741c0c" d="M23 140c1.16.66 1.16.66 7 4v3c-3.91 0-5.12-1.51-8-4z"/><path fill="#6f2815" d="M182 65v3l-14 1 4-2c3.64-2.43 5.71-2.16 10-2"/><path fill="#e5d6d0" d="m125.313 36.75 2.69.25v1c-1.08.23-2.15.45-3.25.69-4.12 1.44-5.4 2.73-7.75 6.31-3.74-1.25-4.19-2.63-6-6 .88.41 1.77.83 2.69 1.25 1.09.25 2.18.49 3.31.75 5.37-4.03 5.37-4.03 8.31-4.25"/><path fill="#4fdf5c" d="M172 17h1c-.14 1.24-.29 2.48-.44 3.75-.64 5.74-1.1 11.49-1.56 17.25h-1c-.05-2.56-.09-5.12-.12-7.69l-.06-2.18c-.03-4.18.3-7.38 2.18-11.13"/><path fill="#eee7e3" d="M175 19h1l-1 18h-1c-.22-2.62-.43-5.25-.62-7.88-.04-.37-.04-.37-.2-2.26-.14-1.95-.17-3.9-.18-5.86z"/><path fill="#f6fdf4" d="M186 154h1c-1.15 9.88-1.15 9.88-2 12l-3 1 1-7h2l-.06-2.44C185 155 185 155 186 154"/><path fill="#bc4b32" d="M209 81h6c-1.49 4.59-3.85 7.44-7 11 0-3.58 1.09-5.05 3-8z"/><path fill="#cf5b2b" d="M33 83c3.64 2.42 3.81 3.92 5 8l1 2c-.44 2.12-.44 2.12-1 4l-3-1 .12-2.81C35 90 35 90 33 87z"/><path fill="#eee5e1" d="M185 60c3.19.08 5.31.34 7.66 2.59 1.04 1.25 2.06 2.52 3.04 3.82C197 68 197 68 199 69l-1 4v-3c-.56-.23-1.11-.45-1.69-.69-2.95-1.67-4.95-3.89-7.31-6.31a97 97 0 0 0-4-3"/><path fill="#d8c6bd" d="M169 50c2 2 2 2 2.2 5.04-.03 1.18-.05 2.37-.08 3.58-.01 1.19-.03 2.38-.05 3.61-.02.91-.05 1.83-.07 2.77l4 1h-5l-1-11c-.82-.33-.82-.33-5-2v-1h5z"/><path fill="#62281e" d="M184 174c1.96 2.94 2.56 4.57 3 8l-1 2 2 1h-4c-1.26-2.52-.92-3.85-.56-6.62.1-.82.2-1.64.31-2.48.08-.63.16-1.25.25-1.9"/><path fill="#6b1504" d="M207 150q.075 3.405.12 6.81c.03 1.27.05 2.53.08 3.83C207 164 207 164 205 167v-12l-2 2c.38-2.94.38-2.94 1-6 2-1 2-1 3-1"/><path fill="#a7d4a4" d="M224 68c1.84 2.77 3.16 4.8 4 8-1.38 2.81-1.38 2.81-3 5-1-2-1-2-1-6-.33.17-.33.17-2 1z"/><path fill="#5b140d" d="M36 169h1c1.32 4.96 1.09 9.91 1 15h-3l1-1c.31-4.46-.41-7.84-2-12z"/><path fill="#7f2b1b" d="M67 156h1l1 13-4 2-2-3 4-1z"/><path fill="#d8dbcb" d="M216 160c.55 2.08 1 3.84 1 6h2l-2 7c-1.56-1.06-1.56-1.06-3-3 .26-3.57.87-6.6 2-10"/><path fill="#b6472f" d="M13 132c3.55 4.73 3.55 4.73 4 8l-1 1c-.23 1.35-.41 2.7-.56 4.06-.07.65-.07.65-.44 3.94h-1z"/><path fill="#f2ece9" d="M153 49h2v3h4v3l-6 1z"/><path fill="#792e17" d="M151 44c.42 1.43.81 2.87 1.19 4.31.22.8.44 1.6.67 2.43.04.74.09 1.49.14 2.26l-3 3-2-11c2-1 2-1 3-1"/><path fill="#e7eddf" d="M8 126c1.26 3.77.37 5.37-1 9l-2-3-1 2H2c1.27-3.91 2.51-5.79 6-8"/><path fill="#ebf2e6" d="M221 82v3h-2v6c-.33.16-.33.16-2 1-1.12-5.62-1.12-5.62 0-9 2-1 2-1 4-1"/><path fill="#edeee4" d="M28 78c2.34.29 4.67.62 7 1-3.75 3-3.75 3-6 3v6h-1c-.19-1.48-.38-2.96-.56-4.44-.11-.82-.21-1.64-.32-2.49L27 79z"/><path fill="#e27233" d="M44 68h8v1l-5 1v11h-1c-2.29-8.43-2.29-8.43-2-13"/><path fill="#771e0d" d="M217 66v4c-4.52 1.46-7.52.27-12-1v-1c1.62-.34 3.25-.67 4.88-1 .9-.19 1.8-.37 2.74-.56C215 66 215 66 217 66"/><path fill="#dd7731" d="m182 47 3 1v3h2l2 2h2v4c-4.29-1.59-6.32-4.43-9-8z"/><path fill="#eb8e22" d="m125 40 3 1 1 6-2-4-4 3-2-1c1.75-3.88 1.75-3.88 4-5"/><path fill="#7b2713" d="M181 21h2l2 6h4l-1 5c-2.96-2.75-5.12-5.42-7-9z"/><path fill="#db6d2f" d="M196 9c2.32.93 3.73 1.62 5.19 3.69C202.6 16.71 203 20.76 203 25c-2.7-2.7-2.72-5.13-3.34-8.81-.75-2.5-1.78-3.44-3.66-5.19z"/><path fill="#c95832" d="M13 161h1l-1 10h-2l-1-8 3 1z"/><path fill="#ebf8e9" d="M198 175c.69 1.75.69 1.75 1 4-1.44 2.25-1.44 2.25-3 4l-4-1c1.39-3.37 2.98-4.99 6-7"/><path fill="#6e1e13" d="M52 152h2c1.6 3.51 2.22 6.14 2 10-2.8-2.07-3.03-3.14-3.69-6.69-.1-1.09-.2-2.18-.31-3.31"/><path fill="#de7135" d="M65 153c2.06.44 2.06.44 4 1l-2 5-4-1c.88-3.88.88-3.88 2-5"/><path fill="#5c150a" d="m13 124 2 1-1 2c.44 2.12.44 2.12 1 4h-5c0-4 0-4 1.5-5.75.5-.41.99-.83 1.5-1.25"/><path fill="#df7235" d="M201 126h7v3h-8z"/><path fill="#6b1908" d="M204 122c1.16.5 1.16.5 7 3v1h-11l1-2h3z"/><path fill="#b64d31" d="m196 121 8 1v2c-1.49.17-1.49.17-9 1z"/><path fill="#651806" d="m129 115-1 3-4-1v-2h-7v-1c8.57-1.43 8.57-1.43 12 1"/><path fill="#762c1d" d="m195 81 1 2c-3.4 1.14-5.77.84-9.25.06-.89-.19-1.78-.39-2.7-.59-.68-.15-1.35-.31-2.05-.47v-1c8.92-1.36 8.92-1.36 13 0"/><path fill="#7c290d" d="M200 16h1c.12 1.11.25 2.23.38 3.38C202 23 202 23 204 25c.12 2.62.12 2.62 0 5-3-2-3-2-4-5-.07-1.56-.09-3.13-.06-4.69.01-.81.02-1.61.02-2.45.02-.61.03-1.23.04-1.86"/><path fill="#f9f9f4" d="M21 96h2l-1 9-3-2c-.19-2.62-.19-2.62 0-5h2z"/><path fill="#520702" d="M169 56h1v10h7v1c-1.49.16-1.49.16-9 1z"/><path fill="#eee2dd" d="M230 56h2c-.49 4.58-.49 4.58-2.94 6.62-.68.46-1.36.91-2.06 1.38l-2 3c.45-4.84 1.6-7.5 5-11"/><path fill="#bf4e38" d="m54 151 2 2c1.32.7 2.65 1.37 4 2l-2 5c-2.52-1.97-2.99-2.97-3.69-6.19-.1-.93-.2-1.85-.31-2.81"/><path fill="#661105" d="m91 140-2 4h-6v-2c4.39-3.2 4.39-3.2 8-2"/><path fill="#edfaec" d="m209 97 1 4c-.6.27-1.2.54-1.81.81-2.16 1.17-3.55 2.38-5.19 4.19 1.16-4.36 2.08-6.65 6-9"/><path fill="#49df56" d="M232 61c0 3.1-.58 5.24-1.5 8.19-.28.9-.56 1.8-.84 2.73-.22.69-.44 1.37-.66 2.08h-1c-.63-8.19-.63-8.19 2-11.56.66-.48 1.32-.95 2-1.44"/><path fill="#f6f1eb" d="M123 36c3.37-.23 5.41-.34 8.38 1.38L133 39v2l2 1-4 1c-.39-.8-.78-1.61-1.19-2.44C128 38 128 38 125.31 37.19c-.38-.03-.38-.03-2.31-.19z"/><path fill="#9a3724" d="M38 134c-3.55 1.16-6.56.92-10.25.56-1.08-.1-2.16-.2-3.27-.31-.82-.08-1.64-.16-2.48-.25v-1c1.92-.22 3.83-.43 5.75-.62 1.07-.12 2.13-.24 3.23-.36 3.06-.02 4.48.37 7.02 1.98"/><path fill="#dc7239" d="M15 127h9v2l-8 1z"/><path fill="#5c231d" d="M139 80c2.25-.31 2.25-.31 5 0 4 4.11 4 4.11 4 7h-4l-1-6z"/><path fill="#6e2317" d="m220 72 2 4c-.33.5-.33.5-2 3h-3v-4h2z"/><path fill="#bce9bd" d="M231 54h4v6l-3 1z"/><path fill="#c8492b" d="M51 133c.83.33.83.33 5 2l-2 10h-1v-10h-2z"/><path fill="#e0e6d6" d="M182 56c2.47 1.15 4.05 2.05 6 4l-7 1-1-3h2z"/><path fill="#ebe0d8" d="M84 37h8l1 4c-2.02-.29-4.04-.59-6.05-.88C85 40 85 40 83 41z"/><path fill="#59170b" d="M189 179c2.06.44 2.06.44 4 1-1.81 2-1.81 2-4 4h-3c1.88-3.88 1.88-3.88 3-5"/><path fill="#f8fdf4" d="M150 158c-.33.5-.33.5-2 3-3.62.19-3.62.19-7 0 1-2 1-2 3.94-3.19C148 157 148 157 150 158"/><path fill="#64251e" d="M51 150v1c-1.46.22-2.92.43-4.38.62-.81.12-1.62.24-2.46.36-.71 0-1.42.01-2.16.02l-2-2c4.05-1.35 6.79-.62 11 0"/><path fill="#7eea86" d="M216 94v3c-3 2.19-3 2.19-6 4v-5c.4-.07.4-.07 2.44-.44C215 95 215 95 216 94"/><path fill="#4e1208" d="M89 87h2v2h2v6c-.45-.66-.91-1.32-1.38-2-.53-.66-1.07-1.32-1.62-2h-2z"/><path fill="#68e46f" d="M219 85h3c-.48 4.31-1.75 6.17-5 9z"/><path fill="#540a03" d="m134 81 2 3-2 2c-.41 1.95-.41 1.95-.62 4.12-.13 1.28-.25 2.56-.38 3.88h-1c-.05-1.6-.09-3.21-.12-4.81-.03-.9-.05-1.79-.08-2.71C132 84 132 84 134 81"/><path fill="#520703" d="M55 57h1l1 11c-.99-.16-.99-.16-6-1l4-1z"/><path fill="#fcfdfa" d="M162 50c3.62-.19 3.62-.19 7 0v2c-1.49.16-1.49.16-9 1z"/><path fill="#fdfcf9" d="m201 3 3.81-.06c.71-.01 1.42-.03 2.15-.04C209 3 209 3 212 4v2c-4.06-.47-7.47-.88-11-3"/><path fill="#f1efe6" d="M62 170c.99.16.99.16 6 1v2l2 1-8-1z"/><path fill="#63150a" d="m32 147 9 1-2 2c-3.62-.38-3.62-.38-7-1z"/><path fill="#88e790" d="m208 101 2 1c-.81 2.44-.81 2.44-2 5l-3 1v-6z"/><path fill="#dcf4da" d="m22 93 3 1-1 4-1-2h-2v2h-2c1.88-3.88 1.88-3.88 3-5"/><path fill="#c24731" d="m203 92 4 1c-2.31 2.06-2.31 2.06-5 4l-3-1h2z"/><path fill="#d3edd0" d="M33 185c2.06.44 2.06.44 4 1-.33.16-.33.16-2 1l4 2h-7c0-3 0-3 1-4"/><path fill="#5d1209" d="m139 155 8 1c-3.23 2.15-4.28 2.2-8 2z"/><path fill="#be4e31" d="m174 143 3 1v3h-7z"/></svg>