<svg xmlns="http://www.w3.org/2000/svg" width="260" height="152"><path fill="#ee6e20" d="M123.313-.375c1.22.12 2.43.25 3.69.38.16.66.16.66 1 4 2.56 2.74 2.56 2.74 5 5 4-2 4-2 9-5 7.33.32 7.33.32 10 3 .4 1.98.74 3.98 1 6 .5-.41.5-.41 3.06-2.44 4.03-2.62 6.24-3.21 10.94-3.56 1.32-.34 2.64-.67 4-1 2.56 3.67 4.31 6.78 6 11 1.65-.33 3.3-.67 5-1 3.5-.38 3.5-.38 7 0 2.87 2.43 2.87 2.43 5 5 .33.32.66.66 1 1 .04 2.33.04 4.66 0 7 1.38-.09 2.76-.17 4.19-.26 4.81.26 4.81.26 7.74 1.69 2.92 3.62 3.42 7.02 4.07 11.57-.33.65-.66 1.32-1 2 .72.22.72.22 4.37 1.37 4.63 1.63 4.63 1.63 6.63 3.63.8 4.5 1.11 7.53 0 12 .95.61 1.9 1.23 2.87 1.87 3.13 2.12 3.13 2.12 5.13 4.13-.02 1.36-.04 2.72-.07 4.12 1.57 7.2 6.14 9.03 12.07 12.88 2.69 2.43 2.69 2.43 5 5l3.93 4.12c5.25 5.98 9.59 12.19 10.63 20.25-.56 3.63-.56 3.63-3.56 8.63h-5c.89 3.03 1.9 6.03 3 9 .99.33 1.98.65 3 1 .3 5.28.31 6.57-3 11-4.03 1.5-5.79 1.08-9.81-.5-4.73-2.82-8.96-6.02-13.19-9.5l-3.21-2.61c-8.65-7.1-8.65-7.1-9.79-9.39-10.25 3.26-16.09 6.87-24 14-1.65.99-3.3 1.97-5 3l-2.44 3.24c-7.9 8.32-16.08 11.12-27.39 11.43-.58 0-.58 0-3.48.01-1.11.01-2.22.02-3.37.02-6.99-.15-12.01-1.43-18.32-4.7-.99-.34-1.98-.66-3-1-1.46.79-2.91 1.58-4.41 2.4-6.07 3.18-11.35 3.31-18.09 3.16l-3.23.03c-11.04-.1-19.44-4.01-28.27-10.59-.81-1.02-1.61-2.03-2.44-3.07-3.52-4.03-7.79-5.61-12.56-7.93-.33-1-.66-1.98-1-3-3.3-1.11-6.65-2.09-10-3q-4.515-1.485-9-3l-2.39 2.3c-19.99 18.95-19.99 18.95-28.92 20.13-3.69-.43-3.69-.43-6.63-2.87-3.24-5.6-2.59-10.44-1.06-16.56h-3c-2.15-4.29-1.57-9.37-1-14 5.49-15.47 16.89-24.97 30-34l2-2c-.06-1.26-.13-2.52-.19-3.82.19-4.18.19-4.18 2.56-7.12 2.63-2.06 2.63-2.06 4.63-3.06-.09-1.74-.17-3.47-.25-5.26.25-5.74.25-5.74 4.25-9.74 4.25-1.26 4.25-1.26 8-2-.05-.78-.05-.78-.31-4.69.31-5.31.31-5.31 2.31-8.38 3.7-2.39 6.64-2.71 11-2.93.12-.63.12-.63.75-3.82 1.25-4.18 1.25-4.18 5.25-7.18 3.2-.23 3.2-.23 6.81-.07 10.25.16 10.25.16 14.19-1.93 1.68-3.88 1.68-3.88 3-8 4.5-4.51 5.83-4.91 12-5 3.37 1.37 3.37 1.37 6 3 .33.16.33.16 2 1 .66-1 1.32-1.99 2-3 3-3.01 3-3.01 7.31-3.38"/><path fill="#6d1e0f" d="M123.313-.375c1.22.12 2.43.25 3.69.38.16.66.16.66 1 4 2.56 2.74 2.56 2.74 5 5 4-2 4-2 9-5 7.33.32 7.33.32 10 3 .4 1.98.74 3.98 1 6 .5-.41.5-.41 3.06-2.44 4.03-2.62 6.24-3.21 10.94-3.56 1.32-.34 2.64-.67 4-1 2.56 3.67 4.31 6.78 6 11 1.65-.33 3.3-.67 5-1 3.5-.38 3.5-.38 7 0 2.87 2.43 2.87 2.43 5 5 .33.32.66.66 1 1 .04 2.33.04 4.66 0 7 1.38-.09 2.76-.17 4.19-.26 4.81.26 4.81.26 7.74 1.69 2.92 3.62 3.42 7.02 4.07 11.57-.33.65-.66 1.32-1 2 .72.22.72.22 4.37 1.37 4.63 1.63 4.63 1.63 6.63 3.63.8 4.5 1.11 7.53 0 12 .95.61 1.9 1.23 2.87 1.87 3.13 2.12 3.13 2.12 5.13 4.13-.02 1.36-.04 2.72-.07 4.12 1.57 7.2 6.14 9.03 12.07 12.88 2.69 2.43 2.69 2.43 5 5l3.93 4.12c5.25 5.98 9.59 12.19 10.63 20.25-.56 3.63-.56 3.63-3.56 8.63h-5c.89 3.03 1.9 6.03 3 9 .99.33 1.98.65 3 1 .3 5.28.31 6.57-3 11-4.03 1.5-5.79 1.08-9.81-.5-4.73-2.82-8.96-6.02-13.19-9.5l-3.21-2.61c-8.65-7.1-8.65-7.1-9.79-9.39-10.25 3.26-16.09 6.87-24 14-1.65.99-3.3 1.97-5 3l-2.44 3.24c-7.9 8.32-16.08 11.12-27.39 11.43-.58 0-.58 0-3.48.01-1.11.01-2.22.02-3.37.02-6.99-.15-12.01-1.43-18.32-4.7-.99-.34-1.98-.66-3-1-1.46.79-2.91 1.58-4.41 2.4-6.07 3.18-11.35 3.31-18.09 3.16l-3.23.03c-11.04-.1-19.44-4.01-28.27-10.59-.81-1.02-1.61-2.03-2.44-3.07-3.52-4.03-7.79-5.61-12.56-7.93-.33-1-.66-1.98-1-3-3.3-1.11-6.65-2.09-10-3q-4.515-1.485-9-3l-2.39 2.3c-19.99 18.95-19.99 18.95-28.92 20.13-3.69-.43-3.69-.43-6.63-2.87-3.24-5.6-2.59-10.44-1.06-16.56h-3c-2.15-4.29-1.57-9.37-1-14 5.49-15.47 16.89-24.97 30-34l2-2c-.06-1.26-.13-2.52-.19-3.82.19-4.18.19-4.18 2.56-7.12 2.63-2.06 2.63-2.06 4.63-3.06-.09-1.74-.17-3.47-.25-5.26.25-5.74.25-5.74 4.25-9.74 4.25-1.26 4.25-1.26 8-2-.05-.78-.05-.78-.31-4.69.31-5.31.31-5.31 2.31-8.38 3.7-2.39 6.64-2.71 11-2.93.12-.63.12-.63.75-3.82 1.25-4.18 1.25-4.18 5.25-7.18 3.2-.23 3.2-.23 6.81-.07 10.25.16 10.25.16 14.19-1.93 1.68-3.88 1.68-3.88 3-8 4.5-4.51 5.83-4.91 12-5 3.37 1.37 3.37 1.37 6 3 .33.16.33.16 2 1 .66-1 1.32-1.99 2-3 3-3.01 3-3.01 7.31-3.38m-1.31 5.38c-6 6.11-6 6.11-6 9-5-3.01-5-3.01-9-6h-6c-3.66 4.04-4.57 7.63-5 13-1.45-.05-2.89-.09-4.38-.13-4.62.13-4.62.13-6.62 2.13-3.38-.11-6.68-.53-10.03-.91l-2.97-.09c-2 1.99-2 1.99-2.13 7.62.04 1.77.09 3.55.13 5.38l-5-1c-3.69-.19-3.69-.19-7 0-2 2-2 2-2.25 5.24.24 3.62.94 6.39 2.25 9.76-1.57-.07-3.14-.13-4.75-.19-5.25.19-5.25.19-9.25 3.19.6 4.19 1.57 8 3 12-.64.22-.64.22-3.88 1.37-4.12 1.63-4.12 1.63-6.12 3.63.3 4.64 1.09 6.12 4 10-.83.16-.83.16-5 1v1c1.98.32 3.96.65 6 1-.99.16-.99.16-6 1 .33.98.66 1.98 1 3 3.06 1.18 3.06 1.18 6 2 .66-2.65 1.32-5.29 2-8l.06 4.87c.71 8.2 5.21 13.39 10.94 19.13h2c.33-2.65.66-5.29 1-8h2c-.02.49-.02.49-.11 3-.15 7.33-.19 13.25 3.11 20h2c4.39-9.94 4.39-9.94 2.06-16.26-.68-1.56-1.36-3.13-2.06-4.74 3.38 3.38 4.96 6.7 7 11 5.77-1.16 8.37-3.48 13-7 5.06-1.27 9.79-1.07 15-1 .33.98.66 1.98 1 3 3.31.99 3.31.99 7.56 1.87 10.67 2.52 16.62 6.43 23.44 15.13 1.94 3.5 1.94 3.5 3 6l2-2c2.65-.41 5.32-.75 8-1-1 1-1 1-4 1.87-.99.37-1.98.74-3 1.13-.17.49-.17.49-1 3 8.75-.76 8.75-.76 11-3l5-2c3-4 3-4 4.43-9.5 1.57-5.5 1.57-5.5 5.57-9.5 7.45-.9 10.39-1.12 16.62 3.18 3.64 4.11 5.2 7.03 5.75 12.5.21 1.1.41 2.19.63 3.32 1.32.65 2.64 1.31 4 2 2.04-1.62 4.04-3.29 6-5v-2c1.65.32 3.3.65 5 1 4.66-1.66 9.07-3.54 13.5-5.76 2.5-1.24 2.5-1.24 4.5-1.24.46.54.46.54 2.81 3.31 6.84 8.04 15.72 15.95 25.19 20.69 1.65-.34 3.3-.66 5-1-.35-8.06-2.16-13.1-6-20 .93.49 1.85.98 2.81 1.5 3.19 1.5 3.19 1.5 6.19 1.5-.17-11.76-6.05-19.49-13.75-27.86-6.37-6.05-13.4-12.14-22.25-12.14.68-1.06 1.36-2.11 2.06-3.19 1.94-3.82 1.94-3.82.94-8.81-3.45-2.3-5.94-2.55-10-3l1.5-3.13c1.5-3.88 1.5-3.88 1.5-9.87-2.99-2.99-5.64-3-9.75-3.07-1.07.02-2.15.04-3.25.07l2-5c.25-3.69.25-3.69 0-7-2-2-2-2-5.04-2.2-1.18.02-2.37.05-3.59.07-.59.01-.59.01-3.6.05-.46.02-.46.02-2.77.08l.12-4.82c-.12-5.18-.12-5.18-2.12-8.18-5.83-.6-9.8.39-15 3-.09-.46-.09-.46-.55-2.74-.13-.59-.13-.59-.76-3.58-.25-1.17-.49-2.34-.74-3.55-.95-3.14-.95-3.14-3.95-6.13-6.28 0-7.49 1.9-12 6l-3 1c-.27-.91-.54-1.82-.81-2.76-1.19-3.25-1.19-3.25-4.19-7.24-6 0-6 0-9.38 3-.86.99-1.73 1.98-2.62 3-3-1-3-1-5.38-4.07-.86-.97-1.73-1.94-2.62-2.93z"/><path fill="#6e1b0a" d="M122 5h5c3.31 3.5 3.31 3.5 6 7 4-2 4-2 8-6 6 0 6 0 8.31 2.19C151 11 151 11 152 16c5-3 5-3 7.5-5.19C162 9 162 9 167 9c5 4.14 5.11 9.88 6 16 .99-.5 1.98-.99 3-1.5 4.35-1.63 7.39-1.97 12-1.5 2.86 4.29 2.13 7.96 2 13 .46-.01.46-.01 2.77-.07 1.19-.02 2.38-.04 3.61-.05.59-.02.59-.02 3.58-.08C203 35 203 35 205 37c.37 4.91-.12 7.3-2 12 1.05-.04 2.1-.08 3.19-.12 3.68.12 7.01.32 9.81 3.12 0 5.67-.64 8.07-3 13 .72.14.72.14 4.38.88C222 67 222 67 224 69c-.32 4.77-1.42 6.71-4 11h6c3.99 2.22 7.45 5.14 11 8 1.4 1.11 2.81 2.23 4.25 3.38 8.43 8.15 13.96 16.79 14.75 28.62-3.12-.49-6-1-9-2 .4.64.4.64 2.44 3.88 2.66 5.33 3.31 9.21 3.56 15.12-5 1-5 1-8.88-1.12-8.66-6.22-17.75-13.27-24.12-21.88-.82.33-.82.33-5 2-2.04.7-4.08 1.39-6.12 2.06-1.04.34-2.07.69-3.14 1.04-.9.3-1.81.59-2.74.9l-3 1-3-1v2c-1.96 1.71-3.96 3.38-6 5l-4-2c-.74-2.98-1.4-5.99-2-9-2.89-4.81-4.3-7.12-9-10-4.28-.66-7.6-.42-12 0-4.02 4.02-4.69 5.34-6.06 10.56-1.18 4.44-1.62 6.12-4.94 9.44-10 4-10 4-15 4l2-4c3.62-.75 3.62-.75 7-1l-1-1c-7.6.6-7.6.6-10 3-.82-1.51-1.65-3.01-2.5-4.56-5.31-8.77-11.79-13.24-21.5-16.44-3.32-.74-6.65-1.43-10-2l-1-3c-8.76-.32-14.44-.14-21.12 5.75-.95.74-1.9 1.48-2.88 2.25l-5-1c-1.44-2.95-2.77-5.95-4-9l-2-1c.68 1.57 1.36 3.14 2.06 4.75 2.54 6.87.78 9.83-2.06 16.25h-2c-3.71-7.58-3.29-14.77-3-23h-2l-1 8c-5.78-2.89-8.48-7.71-12-13-.4-3.66-.74-7.33-1-11l-2 8c-2.94-.81-2.94-.81-6-2l-1-3c.99-.16.99-.16 6-1l-6-1v-1c.83-.16.83-.16 5-1-.34-.44-.34-.44-2.06-2.69C37 73 37 73 38 68c5-3 5-3 9-4-.31-.87-.62-1.73-.94-2.62-.98-3.14-1.6-6.13-2.06-9.38 5.02-3.77 7.87-3.24 14-3-.33-.85-.66-1.69-1-2.56-1.07-3.69-1.29-6.62-1-10.44 2-2 2-2 5.31-2.19C65 34 65 34 70 35l-.12-5.38C70 24 70 24 72 22c3.6-.21 6.77-.04 10.31.62.89.13 1.78.25 2.69.38l2-2c3-.08 6-.09 9 0 .27-1.4.54-2.8.81-4.25C98 12 98 12 101 8c6.73 0 7.32.74 12 5l3 1 2-5zm1 3c-2 2.25-2 2.25-4 5l-3 4c-4.93-1.23-7.28-3.64-11-7-4 2-4 2-5.27 4.6-.32 1-.65 2-.98 3.02-.58 1.78-1.16 3.55-1.75 5.38-1.26.1-2.52.21-3.81.31C89 24 89 24 86 27c-5-1-5-1-7-2h-6l-1 12H59l1 13c-3.42 1.71-7.23 1.62-11 2-1 5-1 5 1 9v5c-1.46.41-2.93.83-4.44 1.25-1.5.58-3.01 1.16-4.56 1.75-.16.66-.16.66-1 4 2 3 2 3 6 4l1 4c.66-.16.66-.16 4-1l1-4 1 2c-.68 1.44-1.36 2.89-2.06 4.38C50.3 83.9 49.66 85.43 49 87l2 4h2l1 4 3 1c.16-.5.16-.5 1-3l2.12 2.06C63 97 63 97 66.31 96.75c.89-.25 1.78-.5 2.69-.75.23.95.45 1.9.69 2.88.43 1.03.86 2.06 1.31 3.12 5 2 5 2 10 1l4-3 3-1c-3.69-3.69-7.06-4.5-12-6l1-2 3 3c9.68.44 9.68.44 14-1l1 5c1.3.14 2.6.29 3.94.44C103 99 103 99 104 100l4.44-.06C113 100 113 100 115 102h5v-8c1.13-.06 2.26-.12 3.43-.18 1.47-.09 2.93-.17 4.45-.26 1.46-.08 2.92-.16 4.42-.24C136 93 136 93 138 92c2.01.28 4.01.61 6 1v6c-2.39 2.39-7.78 2.39-11 3l1 4c5.51-1.07 9.12-2.07 14-5v-2l2 1q4.5.06 9 0h2c1.03-.02 2.06-.05 3.12-.07 1.24-.02 2.48-.04 3.76-.05 1.23-.03 2.46-.05 3.74-.08 3.38.2 3.38.2 7.38 2.2h3v2c2.75.69 2.75.69 6 1 4-3 4-3 5.56-6.12C195 96 195 96 198 95c-1.07 2.7-2.15 5.4-3.22 8.11C194 106 194 106 195 111h4c1.61-3.21 1.36-6.57 1.56-10.12.09-1.47.17-2.94.26-4.45.06-1.13.12-2.26.18-3.43l4-1v2l4-1v-2l4-1V80l4-1c2.31-2.81 2.31-2.81 4-6l-1-4-9-2c.55-4.57 1.42-8.67 3-13-3.47-3.47-8.3-2.67-13-3l1-13h-15V25c-5.03.53-10.02 1.11-15 2-.43-1.36-.87-2.72-1.31-4.12-1.34-3.86-2.76-7.3-4.69-10.88-5 1-5 1-7.5 3.56C156 18 156 18 151 18c-.56-1.3-1.11-2.6-1.69-3.94-.76-1.34-1.52-2.68-2.31-4.06l-5-1-3 3-3 3c-5.86-1.17-6.41-2.56-10-7z"/><path fill="#dbe7d4" d="M123.313-.375c1.22.12 2.43.25 3.69.38.16.66.16.66 1 4 2.56 2.74 2.56 2.74 5 5 4-2 4-2 9-5 7.33.32 7.33.32 10 3 .4 1.98.74 3.98 1 6 .5-.41.5-.41 3.06-2.44 4.03-2.62 6.24-3.21 10.94-3.56 1.32-.34 2.64-.67 4-1 2.56 3.67 4.31 6.78 6 11 1.65-.33 3.3-.67 5-1 3.5-.38 3.5-.38 7 0 2.87 2.43 2.87 2.43 5 5 .33.32.66.66 1 1 .04 2.33.04 4.66 0 7 1.38-.09 2.76-.17 4.19-.26 4.81.26 4.81.26 7.74 1.69 2.92 3.62 3.42 7.02 4.07 11.57-.33.65-.66 1.32-1 2 .72.22.72.22 4.37 1.37 4.63 1.63 4.63 1.63 6.63 3.63.8 4.5 1.11 7.53 0 12 .95.61 1.9 1.23 2.87 1.87 3.13 2.12 3.13 2.12 5.13 4.13-.02 1.36-.04 2.72-.07 4.12 1.57 7.2 6.14 9.03 12.07 12.88 2.69 2.43 2.69 2.43 5 5l3.93 4.12c5.25 5.98 9.59 12.19 10.63 20.25-.56 3.63-.56 3.63-3.56 8.63h-5c.89 3.03 1.9 6.03 3 9 .99.33 1.98.65 3 1 .3 5.28.31 6.57-3 11-4.03 1.5-5.79 1.08-9.81-.5-4.73-2.82-8.96-6.02-13.19-9.5l-3.21-2.61c-8.65-7.1-8.65-7.1-9.79-9.39-10.25 3.26-16.09 6.87-24 14-1.65.99-3.3 1.97-5 3l-2.44 3.24c-7.9 8.32-16.08 11.12-27.39 11.43-.58 0-.58 0-3.48.01-1.11.01-2.22.02-3.37.02-6.99-.15-12.01-1.43-18.32-4.7-.99-.34-1.98-.66-3-1-1.46.79-2.91 1.58-4.41 2.4-6.07 3.18-11.35 3.31-18.09 3.16l-3.23.03c-11.04-.1-19.44-4.01-28.27-10.59-.81-1.02-1.61-2.03-2.44-3.07-3.52-4.03-7.79-5.61-12.56-7.93-.33-1-.66-1.98-1-3-3.3-1.11-6.65-2.09-10-3q-4.515-1.485-9-3l-2.39 2.3c-19.99 18.95-19.99 18.95-28.92 20.13-3.69-.43-3.69-.43-6.63-2.87-3.24-5.6-2.59-10.44-1.06-16.56h-3c-2.15-4.29-1.57-9.37-1-14 5.49-15.47 16.89-24.97 30-34l2-2c-.06-1.26-.13-2.52-.19-3.82.19-4.18.19-4.18 2.56-7.12 2.63-2.06 2.63-2.06 4.63-3.06-.09-1.74-.17-3.47-.25-5.26.25-5.74.25-5.74 4.25-9.74 4.25-1.26 4.25-1.26 8-2-.05-.78-.05-.78-.31-4.69.31-5.31.31-5.31 2.31-8.38 3.7-2.39 6.64-2.71 11-2.93.12-.63.12-.63.75-3.82 1.25-4.18 1.25-4.18 5.25-7.18 3.2-.23 3.2-.23 6.81-.07 10.25.16 10.25.16 14.19-1.93 1.68-3.88 1.68-3.88 3-8 4.5-4.51 5.83-4.91 12-5 3.37 1.37 3.37 1.37 6 3 .33.16.33.16 2 1 .66-1 1.32-1.99 2-3 3-3.01 3-3.01 7.31-3.38m-1.31 5.38c-6 6.11-6 6.11-6 9-5-3.01-5-3.01-9-6h-6c-3.66 4.04-4.57 7.63-5 13-1.45-.05-2.89-.09-4.38-.13-4.62.13-4.62.13-6.62 2.13-3.38-.11-6.68-.53-10.03-.91l-2.97-.09c-2 1.99-2 1.99-2.13 7.62.04 1.77.08 3.55.13 5.38l-5-1c-3.69-.19-3.69-.19-7 0-2 2-2 2-2.25 5.24.24 3.62.94 6.39 2.25 9.76-1.57-.07-3.14-.13-4.75-.19-5.25.19-5.25.19-9.25 3.19.6 4.19 1.57 8 3 12-1.28.45-2.56.9-3.88 1.37-4.12 1.63-4.12 1.63-6.12 3.63.3 4.64 1.09 6.12 4 10-1.03.24-2.07.48-3.13.73-13.23 4.31-23.2 16.58-29.87 28.27-2.35 4.69-3 6.67-3 12 3.91-.54 6.39-1.2 10-3-.81 1.4-1.61 2.8-2.44 4.24-3.23 6-3.67 10.05-3.56 16.76 4 1 4 1 7.87-1.19 8.84-6.27 17.39-13.3 24.13-21.81 3.75.93 7.29 2.09 10.93 3.37l3.66 1.27c4.69 1.86 8.44 4.38 12.41 7.48 4 2.88 4 2.88 9 3.88.88 1.21 1.77 2.43 2.69 3.68 5.28 6.88 11.96 10.38 20.31 12.32 11.33.94 21.31.45 31-6 5 1 5 1 10 4 10.69 3.79 23.59 3.39 34-1 5.39-3.55 10.07-7.15 13-13 1.05-.44 2.1-.87 3.19-1.32 5.12-2.27 8.69-5.01 11.81-9.68 2.64-1.1 2.64-1.1 5.81-2.07 3.83-1.18 7.45-2.44 11.19-3.93.88 1.09 1.77 2.18 2.69 3.31 6.98 7.98 15.8 15.93 25.31 20.69 1.65-.34 3.3-.66 5-1-.35-8.06-2.16-13.1-6-20 .93.49 1.85.98 2.81 1.5 3.19 1.5 3.19 1.5 6.19 1.5-.17-11.76-6.05-19.49-13.75-27.86-6.37-6.05-13.4-12.14-22.25-12.14.68-1.06 1.36-2.11 2.06-3.19 1.94-3.82 1.94-3.82.94-8.81-3.45-2.3-5.94-2.55-10-3l1.5-3.13c1.5-3.88 1.5-3.88 1.5-9.87-2.99-2.99-5.64-3-9.75-3.07-1.07.02-2.15.04-3.25.07l2-5c.25-3.69.25-3.69 0-7-2-2-2-2-5.04-2.2-1.18.02-2.37.05-3.59.07-.59.01-.59.01-3.6.05-.46.02-.46.02-2.77.08l.12-4.82c-.12-5.18-.12-5.18-2.12-8.18-5.83-.6-9.8.39-15 3-.09-.46-.09-.46-.55-2.74-.13-.59-.13-.59-.76-3.58-.25-1.17-.49-2.34-.74-3.55-.95-3.14-.95-3.14-3.95-6.13-6.28 0-7.49 1.9-12 6l-3 1c-.27-.91-.54-1.82-.81-2.76-1.19-3.24-1.19-3.24-4.19-7.24-6 0-6 0-9.38 3-.86.99-1.73 1.98-2.62 3-3-1-3-1-5.38-4.07-.86-.97-1.73-1.94-2.62-2.93z"/><path fill="#e55d25" d="M176 105c4.78 3.36 7.39 5.78 10 11 .54 7.53.28 12.68-4 19-9.26 8.18-17.62 9.55-29.62 9.36-6.81-.56-11.68-2.56-17.38-6.36-1.19-3.12-1.19-3.12-2-6-1.34-.1-2.68-.21-4.06-.31-4.56-.64-7.84-1.68-11.94-3.69v-1c1.42-.14 2.85-.29 4.31-.44C126 126 126 126 129 125c-6.07-2.21-11.58-3.4-18-4-1.95-1.95-1.71-5.45-2.06-8.06-.18-1.29-.36-2.58-.54-3.91-.06-.5-.06-.5-.4-3.03 8.64-.35 14.38 2.71 20.88 8.38 2.92 3.39 5.09 6.63 7.12 10.62l10-2c.16.33.16.33 1 2-1.3.45-2.6.91-3.94 1.38C139 128 139 128 138 130c8.75-1.75 8.75-1.75 11-4l5-2c2-3 2-3 3.31-8.38 3.06-10.18 8.08-12.82 18.69-10.62"/><path fill="#f29117" d="M123 8c4.89 1.22 6.01 3.09 9 7 5-1 5-1 7.5-3.62.41-.4.41-.4 2.5-2.38l5 1c2.31 4.06 2.31 4.06 4 8 5 0 5 0 8.56-3.06 1.14-.97 2.27-1.94 3.44-2.94l4 1c1.27 2.94 1.27 2.94 2.25 6.56.17.6.17.6 1.02 3.63L171 26c5.12 1.02 8.87.6 14 0 2.44 2.44 1.5 6.9 1.72 10.21C187 39 187 39 188 41c-6.35 0-7.14-.65-12-4-.5.16-.5.16-3 1l-3-4c-.5-.16-.5-.16-3-1v-2l-5-1c-10.35-2.67-10.35-2.67-15-5l-2 1v-2c-9.5-.25-9.5-.25-14 2v-3l-4.06 1c-4.2.85-7.7 1.09-11.94 1l-1 1c-1.01.1-2.02.21-3.06.31-3.94.69-3.94.69-7.75 2.63C99 31 99 31 94.25 31.75 86.21 33.66 79.82 38.18 74 44h-2v-3l-3-2h3l1-14c6 0 6 0 10 2 4-1 4-1 6-3 2.66-.4 5.33-.74 8-1 .58-1.77 1.16-3.55 1.75-5.38.98-3.02.98-3.02 2.25-5.62l4-2c1.24 1.18 2.47 2.35 3.75 3.56 1.4 1.14 2.81 2.27 4.25 3.44 5.51-1.38 6.83-4.46 10-9"/><path fill="#94e494" d="M123.313-.375c1.22.12 2.43.25 3.69.38.16.66.16.66 1 4 2.56 2.74 2.56 2.74 5 5 4-2.01 4-2.01 9-5 7.33.32 7.33.32 10 3 .4 1.98.74 3.98 1 6 .5-.41.5-.41 3.06-2.44 4.03-2.62 6.24-3.21 10.94-3.56 1.32-.34 2.64-.67 4-1 2.56 3.67 4.31 6.78 6 11 .46.02.46.02 2.77.14.6.04.6.04 3.6.23.59.03.59.03 3.59.21 3.04.42 3.04.42 5.04 2.42.45 2.19.82 4.4 1.12 6.62.17 1.19.34 2.38.51 3.6.12.92.24 1.83.37 2.78h8v1h-11c-.31-1.45-.62-2.89-.94-4.38-1.06-4.63-1.06-4.63-2.06-6.62-4.89-.17-7.56-.23-12 2h-3c-2-5-2-5-3-9.19-1-3.81-1-3.81-3-5.81-6.28 0-7.46 1.96-12 6h-3l-1.94-3.94c-2.06-4.06-2.06-4.06-3.06-5.06-6 0-6 0-9.38 3-.86.99-1.73 1.98-2.62 3-4-2-4-2-5.94-4.63-.68-.78-1.36-1.57-2.06-2.37h-5c-3.31 3.99-3.31 3.99-6 8-4-1.01-4-1.01-6.38-3.07-2.62-1.93-2.62-1.93-8.62-1.93-2.55 4.24-3.81 7.3-5 12-1.45.12-2.89.24-4.38.37-4.62.63-4.62.63-6.62 2.63-3.01-.06-3.01-.06-6.57-.44-2.14-.23-4.28-.42-6.43-.56-2.41 2.4-1.74 8.75-2 12-1.55-.02-1.55-.02-9.28-.1-2.72.1-2.72.1-3.72 1.1-.18 4.47.14 8.6 1 13-1.59.12-3.18.24-4.81.37-5.19.63-5.19.63-8.19 2.63.6 4.19 1.57 8 3 12-1.47.55-2.93 1.11-4.44 1.68-.75.38-.75.38-4.56 2.32-1.19 5.91-.16 7.12 3 12-.54.07-.54.07-3.25.43-13.2 4.34-23.42 15.7-29.82 27.69-2.43 5.15-3.74 9.09-2.93 14.88l-3-1c-.34-13.43 2.35-20.66 11.4-30.66 4.83-5.06 9.07-8.58 15.6-11.34 1.65-.99 3.3-1.99 5-3 .19-4.88.19-4.88 0-10 2-5 2-5 4-6-.09-1.74-.17-3.47-.25-5.26.25-5.74.25-5.74 4.25-9.74 4.25-1.26 4.25-1.26 8-2-.05-.78-.05-.78-.31-4.69.31-5.31.31-5.31 2.31-8.38 3.7-2.39 6.64-2.71 11-2.93.25-1.26.49-2.52.75-3.82 1.25-4.19 1.25-4.19 5.25-7.18 3.2-.23 3.2-.23 6.81-.07 10.25.16 10.25.16 14.19-1.93 1.69-3.88 1.69-3.88 3-8 4.5-4.51 5.83-4.91 12-5 3.37 1.37 3.37 1.37 6 3 .33.16.33.16 2 1 .66-1 1.32-1.99 2-3 3-3.01 3-3.01 7.31-3.38"/><path fill="#72210e" d="M122 5h5c3.31 3.5 3.31 3.5 6 7 4-2 4-2 8-6 6 0 6 0 8.31 2.19C151 11 151 11 152 16c5-3 5-3 7.5-5.19C162 9 162 9 167 9c5 4.14 5.11 9.88 6 16 .99-.5 1.98-.99 3-1.5 4.35-1.63 7.39-1.97 12-1.5 2.86 4.29 2.13 7.96 2 13 .46-.01.46-.01 2.77-.07 1.19-.02 2.38-.04 3.61-.05.59-.02.59-.02 3.58-.08C203 35 203 35 205 37c.37 4.91-.12 7.3-2 12 1.05-.04 2.1-.08 3.19-.12 3.68.12 7.01.32 9.81 3.12 0 5.67-.64 8.07-3 13 .72.14.72.14 4.38.88C222 67 222 67 224 69c-.32 4.77-1.42 6.71-4 11h6c3.99 2.22 7.45 5.14 11 8 1.4 1.11 2.81 2.23 4.25 3.38 8.43 8.15 13.96 16.79 14.75 28.62-3.12-.49-6-1-9-2 .4.64.4.64 2.44 3.88 2.66 5.33 3.31 9.21 3.56 15.12-5 1-5 1-8.31-.94-.89-.68-1.78-1.36-2.69-2.06 2-1 2-1 5.12-.06L250 135c-1.35-4.94-2.63-9.36-5.19-13.81C243 118 243 118 243 113c7.62 1.75 7.62 1.75 11 4-5.29-11.2-12.31-19.31-21-28l-3-1v10l-2-1c-.13-7.75-.13-7.75 1-10l-4-1 1-3h-9l1-4c.67-3 1.34-6 2-9l-4.44-.94C211 68 211 68 210 67c.45-4.58 1.42-8.68 3-13-2.41-2.41-8.75-1.74-12-2-1.09-5.45-.35-8.68 1-14h-15V25l-4.12.94L178 27c-1.13.25-2.27.5-3.44.75-.84.08-1.69.16-2.56.25-2.64-2.64-3.08-5.06-4.12-8.62l-1.08-3.61c-.26-.91-.53-1.83-.8-2.77-5 1-5 1-7.5 3.56C156 19 156 19 151 19l-5-9c-5 1-5 1-7.5 3.62-.82.79-1.65 1.57-2.5 2.38-5.77-1.15-6.62-2.45-10-7-5.51 1.38-6.83 4.46-10 9-4-1-4-1-7.56-4.12-1.14-.95-2.27-1.9-3.44-2.88-3 1-3 1-4.39 3.72-.43 1.1-.86 2.21-1.3 3.34-.43 1.11-.87 2.21-1.32 3.35-.33.85-.65 1.71-.99 2.59-1.26.1-2.52.21-3.81.31C89 25 89 25 86 28c-4.38-.88-8.68-1.9-13-3l.06 5.94c.02 2.02.01 4.04-.06 6.06l-1 1c-2.19-.09-4.38-.25-6.56-.44-1.2-.1-2.4-.2-3.63-.31-.93-.08-1.86-.16-2.81-.25.35 1.38.7 2.76 1.06 4.19C61 46 61 46 60 51c-3.42 1.71-7.23 1.62-11 2 .14.85.29 1.69.44 2.56.57 3.48 1.07 6.95 1.56 10.44l-10 4c.16 1.09.33 2.19.5 3.31C42 77 42 77 42 80c-2.56-3.19-2.56-3.19-5-7l1-5c5-3 5-3 9-4-.31-.87-.62-1.73-.94-2.62-.98-3.14-1.6-6.13-2.06-9.38 5.02-3.77 7.87-3.24 14-3-.33-.85-.66-1.69-1-2.56-1.07-3.69-1.29-6.62-1-10.44 2-2 2-2 5.31-2.19C65 34 65 34 70 35l-.12-5.38C70 24 70 24 72 22c3.6-.21 6.77-.04 10.31.62.89.13 1.78.25 2.69.38l2-2c3-.08 6-.09 9 0 .27-1.4.54-2.8.81-4.25C98 12 98 12 101 8c6.73 0 7.32.74 12 5l3 1 2-5z"/><path fill="#e65f28" d="M98 103c5 3 5 3 8 6 .66 3.03.66 3.03 1.06 6.5.73 6.19.73 6.19 2.94 9.5.83.33.83.33 5 2l2 2c2.35.77 4.73 1.47 7.12 2.12 1.29.36 2.57.71 3.89 1.08.99.26 1.97.53 2.99.8-1.18 4.71-2.07 5.35-6 8-9.16 4.59-18.65 3.89-28.5 1.88-6.8-2.84-12.38-6.7-16.5-12.88-2.32-5.79-2.93-10.87-2-17 5.1-7.9 10.65-10.89 20-10"/><path fill="#e15d2b" d="m52 74 2 4c-1.3 3.02-2.63 6.02-4 9l1 4h2l1 4h2l2-3 2.12 2C63 96 63 96 69 96l1.06 2.94C72 102 72 102 75.44 103c3.56 0 3.56 0 7.56-2l2-2 2-1c-.72-.32-.72-.32-4.38-1.94C78 94 78 94 76 93v-6l2 4c2 2 2 2 7.38 2.25C91 93 91 93 95 91v7h9v2c1.44-.21 2.89-.41 4.38-.62 1.52-.13 3.05-.25 4.62-.38l2 2 5 1v-8c4.29-1.43 8.57-1.44 13.07-1.72C136 92 136 92 138 91c2.02.61 4.02 1.27 6 2 .62 2.87.62 2.87 1 6-3.31 3.31-7.51 2.65-12 3 .16.5.16.5 1 3 8.75-1.75 8.75-1.75 11-4h3v-2l5.38.06C159 99 159 99 161 98v2l5-1c6.22-.36 10.43.16 16 3v2c6 0 6 0 10-2l1-5 2-2h3l-1 4v-2h-2c-.47 1.44-.95 2.89-1.44 4.38C192 106 192 106 191 108c-6.3.49-6.3.49-9.75-1.94-.74-.68-1.49-1.36-2.25-2.06-5.16-1.72-10.61-1.12-16-1l-3.84.09c-11.06.47-19.31 2.98-28.16 9.91-1.2-.93-2.39-1.86-3.62-2.81-7.17-5.22-11.67-6.55-20.45-6.88C104 103 104 103 101 101c-8.71-.52-14.49-.09-21.12 5.75-.95.74-1.9 1.48-2.88 2.25l-5-1c-1.44-2.95-2.77-5.95-4-9l-2-1c.68 1.57 1.36 3.14 2.06 4.75 2.54 6.87.78 9.83-2.06 16.25h-2c-3.71-7.58-3.29-14.77-3-23h-2l-1 8c-5.78-2.89-8.48-7.71-12-13-.4-3.66-.74-7.33-1-11l-2 8c-2.94-.81-2.94-.81-6-2l-1-3 6-1c-.99-.17-.99-.17-6-1v-1h7l-2-4h6v5l4-1z"/><path fill="#7a240f" d="M230 88c8.38 2.1 14.49 10.8 19.06 17.81 2.22 3.91 3.66 6.99 4.94 11.19-8.75-2.88-8.75-2.88-11-4 1.62 5.16 3.2 9.33 6 14 .69 4.31.69 4.31 1 8-9.49-.95-13.55-4.59-20-11-1.49-1.28-2.97-2.56-4.5-3.88C222 117 222 117 220 114l-5 2c-2.18.75-4.37 1.48-6.56 2.19-1.12.36-2.23.73-3.38 1.1C202 120 202 120 198 119l1-4 1 2c2.06-5.08 2.21-9.43 2.12-14.88-.01-1.52-.03-3.04-.05-4.61-.02-1.16-.05-2.32-.07-3.51h2c1 2 1 2 1 8l3-1c2.01.28 4.01.6 6 1-2.69 2.25-4.65 3.88-8 5l-1 8c1.75-.64 3.51-1.28 5.31-1.94 2.89-1.05 5.77-2.09 8.69-3.06l1-5 3-5 4-1-9-1v-1h9v-8h1l1 8z"/><path fill="#6d2014" d="m66 98 3 1c1.42 2.96 2.76 5.96 4 9 5.77-1.15 8.38-3.48 13-7 5.1-1.28 9.76-1.18 15-1l2 2-1 2 10 1-4 1 2 5c.39 2.99.73 5.99 1 9 1.3.1 2.6.21 3.94.31 12 1.63 12 1.63 16.06 5.69-3.33.67-6.67 1.33-10 2 3.84 2.05 6.65 3.13 11 4 .16-.33.16-.33 1-2 2 3 2 3 2 8l5 2c1.24.53 2.48 1.05 3.76 1.6 9.08 3 18.91 2.38 27.99-.29 6.89-3.74 10.84-6.69 13.25-14.31.42-2.99.77-5.99 1-9h1c.16 1.16.16 1.16 1 7l5 1 2-4h2v-2l4 1c-2.35 4.69-4.62 6.21-9 9l-4 1c-1.34 1.99-2.68 3.99-4 6-9.38 9.2-19.24 10.3-31.85 10.22-6-.32-10.2-2.17-15.4-4.97C134 141 134 141 130 142c-1.49.66-2.97 1.32-4.5 2-9.61 4.27-21.45 4.77-31.5 1.44-7.45-3.63-12.64-7.18-17-14.44-2.33-.68-4.66-1.34-7-2-2.44-2.62-2.44-2.62-4-5l2-1-2-4c.43-5.43.43-5.43 3-8-1-5-1-5-3-10zm14.06 11.5c-2.99 5.08-2.84 9.83-2.06 15.5 2.8 8.05 8.14 13.04 15.69 16.88 9.33 3.17 21.07 4.25 30.12-.19C128 139 128 139 131 136v-3c-.98-.25-1.95-.51-2.96-.77-1.27-.34-2.54-.69-3.85-1.04-.63-.17-.63-.17-3.83-1.02C117 129 117 129 114 126l-4-1c-2.27-3.41-2.39-5.35-2.81-9.38-.62-4.37-.93-6.27-3.63-9.87-8.55-5.84-16.32-2.36-23.5 3.75"/><path fill="#edf4e9" d="M189 16c2.88 2.44 2.88 2.44 5 5l1 1c.04 2.33.04 4.67 0 7 1.38-.08 2.76-.16 4.19-.25 4.81.25 4.81.25 7.75 1.69 2.91 3.62 3.41 7.02 4.06 11.56l-1 2c1.44.45 2.89.91 4.38 1.38C219 47 219 47 221 49c.8 4.51 1.12 7.53 0 12l2.88 1.88C227 65 227 65 229 67l-.06 4.12c1.57 7.21 6.14 9.04 12.06 12.88 2.69 2.44 2.69 2.44 5 5l3.94 4.12c5.24 5.98 9.59 12.2 10.62 20.26C260 117 260 117 257 122h-5l3 9h2c.25 6.62.25 6.62-2 10h-6l-1-2h5c-1.05-8.29-2.66-13.73-7-21l1-2 9 4c-1.65-12.64-8.79-23.3-18.78-31.2-10.85-7.95-10.85-7.95-17.22-8.8l2-5c.38-1.99.72-3.99 1-6-3.28-2.19-6.21-3-10-4 1-5 1-5 2-7v-6c-4.26-1.71-7.51-2.47-12-3l1-5c.08-2.33.09-4.67 0-7-1.88-1.88-5.04-1.39-7.56-1.56-1.2-.09-2.4-.17-3.63-.26L190 35v-8h1v7l3-1c-.47-2.15-.95-4.29-1.44-6.44-.26-1.19-.53-2.39-.81-3.62C191 20 191 20 190 19c-3.66-.37-7.33-.7-11-1 3.75-2.5 5.56-2.54 10-2"/><path fill="#91d291" d="m35 63 2 1-1 3c-.04 3.67-.04 7.33 0 11l-5 2-2 2c-1.07.42-2.14.84-3.24 1.27C16.95 87.32 9.29 96.43 5 105c-1.59 5.51-1.07 11.3-1 17l2 1v-3c2.63-1.4 5.3-2.73 8-4l2 1c-.8 1.4-1.61 2.81-2.44 4.25C10.33 127.24 9.89 131.3 10 138c11.6-2.32 23.96-14.62 31-24 3.75.94 7.29 2.09 10.94 3.38 1.2.42 2.41.84 3.65 1.27 4.66 1.84 8.4 4.34 12.35 7.41C72 129 72 129 75.31 130c2.69 1 2.69 1 4.57 3.88C81 137 81 137 81 141h2l1 3 3 3c-6.38-2.55-9.89-5.52-14-11-1.69-.85-3.38-1.69-5.12-2.56-1.61-.81-3.22-1.61-4.88-2.44l-1-3c-3.3-1.1-6.64-2.08-10-3q-4.5-1.485-9-3c-.79.76-1.58 1.52-2.39 2.31-19.99 18.95-19.99 18.95-28.92 20.13C8 144 8 144 5.06 141.56 1.82 135.96 2.47 131.12 4 125H1c-2.14-4.29-1.56-9.36-1-14 5.49-15.47 16.9-24.97 30-34l2-2-.06-3.88C32 67 32 67 35 63"/><path fill="#ba442f" d="M108 106c8.64-.35 14.38 2.71 20.88 8.38 2.92 3.39 5.09 6.63 7.12 10.62l10-2c.16.33.16.33 1 2-1.3.45-2.6.91-3.94 1.38C139 128 139 128 138 130c8.75-1.75 8.75-1.75 11-4l5-1c-.16.5-.16.5-1 3h-4v2l-8 3c.16.82.16.82 1 5 13.58.4 23.61.11 35-8 4.75-5 6.21-10.25 7-17 3.09 4.63 2.35 8.54 2 14-2.4 6.91-5.86 10.12-12 14-9.2 4.07-19.5 4.65-29.29 2.17-3.49-1.38-6.59-3.09-9.71-5.17-1.19-3.12-1.19-3.12-2-6-1.34-.1-2.68-.21-4.06-.31-4.56-.64-7.84-1.68-11.94-3.69v-1c1.42-.14 2.85-.29 4.31-.44C126 126 126 126 129 125c-6.07-2.21-11.58-3.4-18-4-1.95-1.95-1.71-5.45-2.06-8.06-.18-1.29-.36-2.58-.54-3.91-.06-.5-.06-.5-.4-3.03"/><path fill="#6f1807" d="M102 102c9.3.13 16.1.61 24 6 .59.38.59.38 3.56 2.31.81.56 1.61 1.12 2.44 1.69 1.16-.93 2.31-1.86 3.5-2.81 8.89-6.3 16.89-6.84 27.5-7.19 1.2-.05 2.41-.11 3.65-.16 10.84-.29 10.84-.29 15.35 3.16l3 5 3 3c1.96 3.91 1.05 8.72 1 13l-2-1c-.31-1.4-.62-2.81-.94-4.25-1.16-5.21-3.01-8.54-6.5-12.56-5.44-3.34-9.23-2.8-15.56-2.19-4.02 4.02-4.69 5.34-6.06 10.56-1.18 4.44-1.62 6.12-4.94 9.44-10 4-10 4-15 4l2-4c3.62-.75 3.62-.75 7-1l-1-1c-7.6.6-7.6.6-10 3-.82-1.51-1.65-3.01-2.5-4.56-5.31-8.77-11.79-13.24-21.5-16.44-3.32-.74-6.65-1.43-10-2z"/><path fill="#f3eae6" d="M123.313-.375c.61.06.61.06 3.69.38l1 4c2.56 2.75 2.56 2.75 5 5 4-2.01 4-2.01 9-5 7.33.32 7.33.32 10 3 .4 1.98.74 3.98 1 6 1.01-.81 2.02-1.61 3.06-2.44 4.03-2.62 6.24-3.21 10.94-3.56 1.32-.34 2.64-.67 4-1 2.56 3.67 4.31 6.78 6 11 .91.04 1.83.09 2.77.14.6.04.6.04 3.6.23.59.03.59.03 3.59.21 3.04.41 3.04.41 5.04 2.42.45 2.19.82 4.4 1.12 6.62.17 1.19.34 2.38.51 3.6.12.92.24 1.83.37 2.78h8v1h-11c-.16-.73-.16-.73-.94-4.38-1.06-4.62-1.06-4.62-2.06-6.62-4.89-.17-7.56-.23-12 2h-3c-2-5-2-5-3-9.19-1-3.81-1-3.81-3-5.81-6.28 0-7.46 1.96-12 6h-3l-1.94-3.94c-2.06-4.07-2.06-4.07-3.06-5.06-6 0-6 0-9.38 3-.43.49-.43.49-2.62 3-4-2.01-4-2.01-5.94-4.63l-2.06-2.37h-5c-3.31 3.99-3.31 3.99-6 8-4-1-4-1-6.38-3.07-2.62-1.93-2.62-1.93-8.62-1.93l-3 3c-.33-1.33-.66-2.65-1-4 9.5-2.13 9.5-2.13 14-1 3-1 3-1 5.19-4.07 2.81-2.94 2.81-2.94 7.12-3.31"/><path fill="#7b210b" d="m66 98 3 1c1.42 2.96 2.76 5.96 4 9 5.77-1.15 8.38-3.48 13-7 5.1-1.28 9.76-1.18 15-1l2 2-1 2 10 1-4 1 2 5c.39 2.99.73 5.99 1 9 1.3.1 2.6.21 3.94.31 12 1.63 12 1.63 16.06 5.69-3.33.67-6.67 1.33-10 2l6 3c-4.91 1.23-6.57.22-11-2l-2-2c-.83-.33-.83-.33-5-2-2.74-4.12-2.72-8.02-3.24-12.87C105 109 105 109 101 105c-5.35-1.78-9.6-1.63-14.75.69C78.83 110.97 77.9 116.34 76 125h-1c-.12-11.75-.12-11.75 1-14-3.72 2.11-5.68 3.24-7.38 7.25-.1.45-.1.45-.62 2.75l-2-2c.45-5.45.45-5.45 3-8-1-5-1-5-3-10z"/><path fill="#ce5231" d="M37 103c1.81 2.81 1.81 2.81 3 6-2.62 10.5-16.35 19.24-25 25-.66.16-.66.16-4 1 3.3-13.21 9.73-23.05 20-32 2-1 2-1 6 0"/><path fill="#cc4f2d" d="M225 102c5 0 5 0 7.36 1.66 8.73 8.78 16.73 18.64 17.64 31.34-10.7-5.35-19.61-14.61-28-23 .26-4.01 1.18-6.35 3-10"/><path fill="#b8412d" d="M80 110h1c.21 1.81.41 3.63.62 5.5 1.35 7.96 4.68 12.51 11.19 17.31 9.91 5.18 19.08 6.33 30.19 5.19.83-.5.83-.5 5-3l-4-3 7 1c-1.18 4.71-2.07 5.35-6 8-9.16 4.59-18.65 3.89-28.5 1.88-6.8-2.84-12.38-6.7-16.5-12.88-2.5-6.25-2.29-10.29-2-17z"/><path fill="#f2f0ea" d="M42 50c2 1 2 1 3.56 5.31.88 2.88 1.71 5.77 2.44 8.69-1.46.56-2.93 1.11-4.44 1.69-1.5.76-3.01 1.52-4.56 2.31-1.18 5.92-.16 7.12 3 12-1.07.14-2.15.29-3.25.44-13.2 4.34-23.42 15.7-29.81 27.68C6.5 113.27 5.19 117.21 6 123l-3-1c-.34-13.43 2.35-20.66 11.4-30.65C19.23 86.28 23.47 82.77 30 80c.82-.5.82-.5 5-3 .19-4.94.19-4.94 0-10l2-4 4-1-.06-5.44C41 51 41 51 42 50"/><path fill="#f2871d" d="M103 10c5 2 5 2 7 5l-3 1v-2l-5 2c-1.31 5.13-1.31 5.13-2 10h7c-1.67 3.34-4.59 3.74-8 5-1.55.23-3.09.45-4.69.69C86.26 33.68 79.84 38.16 74 44h-2v-3l-3-2h3l1-14c6 0 6 0 10 2 4-1 4-1 6-3 2.66-.4 5.33-.74 8-1 .62-1.77 1.24-3.55 1.88-5.38 1.87-5.37 1.87-5.37 4.12-7.62"/><path fill="#661808" d="m222 72 1 3-3 5h6c3.99 2.22 7.45 5.14 11 8 1.4 1.11 2.81 2.23 4.25 3.38 8.43 8.15 13.96 16.79 14.75 28.62-3.12-.49-6-1-9-2 .8 1.28 1.61 2.56 2.44 3.88 2.66 5.33 3.31 9.21 3.56 15.12-5 1-5 1-8.31-.94-.89-.68-1.78-1.36-2.69-2.06 2-1 2-1 5.12-.06L250 135c-1.35-4.94-2.63-9.36-5.19-13.81C243 118 243 118 243 113c7.62 1.75 7.62 1.75 11 4-5.29-11.2-12.31-19.31-21-28l-3-1v10l-2-1c-.12-7.75-.12-7.75 1-10l-4-1 1-3h-9c1-4 1-4 3-9h2z"/><path fill="#df612d" d="M59 37h7v1h-6c.52 1.38 1.03 2.76 1.56 4.19C63 47 63 47 62 52h-2v4h2l1 3c-1.7 2.51-3.41 5.01-5.24 7.43C56 69 56 69 54 74h-2c-.16.99-.16.99-1 6-.66.16-.66.16-4 1l-2-4-3-1-2-3 1-4c4.56-1.75 4.56-1.75 9-3-.49-3.47-.99-6.93-1.62-10.38-.13-.86-.25-1.73-.38-2.62 2.17-2.17 7.08-1.68 10-2l2-1c-.16-2.14-.16-2.14-1-13"/><path fill="#e9692b" d="M108 106c8.69-.35 14.45 2.74 20.94 8.5 6.06 6.93 6.06 6.93 6.06 11.5-3.67-.47-6.79-1.28-10.31-2.5-4.63-1.48-8.87-2.05-13.69-2.5-1.95-1.95-1.71-5.45-2.06-8.06-.18-1.29-.36-2.58-.54-3.91-.06-.5-.06-.5-.4-3.03"/><path fill="#7be37f" d="M189 16c2.88 2.44 2.88 2.44 5 5l1 1c.04 2.33.04 4.67 0 7 1.38-.08 2.76-.16 4.19-.25 4.81.25 4.81.25 7.75 1.69 2.91 3.62 3.41 7.02 4.06 11.56l-1 2c1.44.45 2.89.91 4.38 1.38C219 47 219 47 221 49c1.08 5.48 1.13 7.68-1 13-1.35-4.04-1.06-7.77-1-12-.33-.16-.33-.16-2-1v8h-1l-2-6-11-2 1-5c.08-2.33.09-4.67 0-7-1.88-1.88-5.04-1.39-7.56-1.56-1.2-.09-2.4-.17-3.63-.26L190 35v-8h1v7l3-1c-.47-2.15-.95-4.29-1.44-6.44-.26-1.19-.53-2.39-.81-3.62C191 20 191 20 190 19c-3.66-.37-7.33-.7-11-1 3.75-2.5 5.56-2.54 10-2"/><path fill="#c14b30" d="m52 74 2 4c-1.3 3.02-2.63 6.02-4 9l1 4h2l1 4h2l2-3c4.77 3.58 4.7 4.71 5.62 10.38C64.4 107 65.24 110.6 67 115l-1 4h-2c-3.71-7.58-3.29-14.77-3-23h-2l-1 8c-5.78-2.89-8.48-7.71-12-13-.4-3.66-.74-7.33-1-11l-2 8c-2.94-.81-2.94-.81-6-2l-1-3 6-1c-.99-.17-.99-.17-6-1v-1h7l-2-4h6v5l4-1z"/><path fill="#d85f2c" d="m158 106-2 5c-.7 2.99-1.37 5.99-2 9-4.21.84-7.57 1.11-11.81 1.06-1.16-.01-2.33-.02-3.52-.02-.88-.02-1.76-.03-2.67-.04l-2-6c7.35-7.77 13.53-9.16 24-9"/><path fill="#d8e7d0" d="m35 63 2 1-1 3c-.04 3.67-.04 7.33 0 11l-5 2-2 2c-1.07.42-2.14.84-3.24 1.27C16.95 87.32 9.29 96.43 5 105c-1.59 5.51-1.07 11.3-1 17l2 1v-3c2.63-1.4 5.3-2.73 8-4l2 1c-.82 1.48-.82 1.48-5 9l-3-2-1 6H5l1 11c-3-3-3-3-3.25-7.44C3 129 3 129 4 125H1c-2.14-4.29-1.56-9.36-1-14 5.49-15.47 16.9-24.97 30-34l2-2-.06-3.88C32 67 32 67 35 63"/><path fill="#ca552e" d="M230 88c8.38 2.1 14.49 10.8 19.06 17.81 2.22 3.91 3.66 6.99 4.94 11.19-8.98-3.59-18.83-10.73-24-19-.38-5.44-.38-5.44 0-10"/><path fill="#d15633" d="M32 89c.33 5.54.01 6.98-3 12-5.87 6.33-11.74 11.33-19 16H8c1.92-9.8 13.1-28 24-28"/><path fill="#7ac57b" d="m221 120 1 2h6c2.68 1.76 2.68 1.76 5.31 4.12C245.94 137 245.94 137 253 137v2l-4 1h6l2-8h1c.3 5.28.32 6.58-3 11-4.03 1.5-5.79 1.08-9.81-.5-4.72-2.82-8.96-6.01-13.19-9.5-1.06-.86-2.11-1.72-3.2-2.61-8.65-7.1-8.65-7.1-9.8-9.39-5.23 1.66-10.16 3.4-15 6-.33.16-.33.16-2 1 2.3-4.6 3.23-4.94 7.81-6.81 1.04-.44 2.08-.88 3.15-1.33C216 119 216 119 221 120"/><path fill="#662218" d="M76 111v12l1-7h1c.25 1.86.5 3.71.75 5.62 1.29 7.51 3.37 10.87 9.37 15.69C92 140 92 140 94 141v2c-.5.16-.5.16-3 1-4.88-2.79-8.38-5.12-11.62-9.75-2.91-3.98-4.74-4.07-9.38-5.25-2.44-2.62-2.44-2.62-4-5l2-1v-6c4-6 4-6 8-6"/><path fill="#5f1607" d="M143 72c4 2 4 2 9 5 5.41.61 7.97.75 12.44-2.5.84-.83 1.69-1.65 2.56-2.5h2c0 6 0 6-1.69 8.75-3.4 3.31-6.59 4.19-11.25 4.56-4.29-.33-6.52-.9-10.06-3.31-2.44-2.94-2.44-2.94-4-6z"/><path fill="#701b08" d="M195 97h2c-.48 3.46-.96 6.85-1.75 10.25-.08.91-.16 1.81-.25 2.75l3 3v6h4v2l-5-1v2c-5.48 5-5.48 5-8 5-.23-2.99-.46-5.99-.68-8.98C188 115 188 115 187 111l-3-1v-2h7c.47-1.44.95-2.89 1.44-4.38C194 99 194 99 195 97"/><path fill="#711906" d="m66 98 3 1c1.42 2.96 2.76 5.96 4 9 5.77-1.15 8.38-3.48 13-7 5.06-1.27 9.8-1.06 15-1l-1 3c-.86.07-1.71.15-2.6.23-7.52.86-12.17 1.85-17.4 7.77-1.87 4.68-2.97 9.08-4 14h-1c-.12-11.75-.12-11.75 1-14-3.72 2.11-5.68 3.24-7.38 7.25-.1.45-.1.45-.62 2.75l-2-2c.45-5.45.45-5.45 3-8-1-5-1-5-3-10z"/><path fill="#591306" d="M92 73c5 1 5 1 7.88 2.56 3.77 1.74 6 1.95 10.12 1.44 3.81-2 3.81-2 7-4h2c-.37 6.37-.37 6.37-3.38 9.38-4.6 2.85-8.26 2.94-13.62 2.62-4.66-1.7-7.34-3.8-10-8z"/><path fill="#76e27b" d="m109 3 3 2-1 3-4-1c-3.34.28-6.67.61-10 1 .21.85.41 1.69.62 2.56.44 3.98-.34 6.69-1.62 10.44-1.65.16-1.65.16-10 1v-2l-16-2v-1c.46.01.46.01 2.82.07 13.92.2 13.92.2 18.18-2.07 1.69-3.87 1.69-3.87 3-8 5.46-5.46 7.63-5.27 15-4"/><path fill="#e4f3e1" d="M218 113c4.6 1.53 6.25 5.15 9 9l-5 1-2-3c-8.41.89-15.27 3.83-21 10-2.97 2.04-5.97 4.05-9 6l-2-3 4-2v-2c2.66-2.01 5.33-4.01 8-6l3-4c2.81-1.2 2.81-1.2 6-2.12 3.5-1.04 5.94-1.84 9-3.88"/><path fill="#c05325" d="m137 91 7 2 1 6c-4.93 2.46-7.79 2.01-13.25 1.62-1.63-.11-3.27-.22-4.95-.33-.63-.05-.63-.05-3.8-.29l-2-4 2-3c3-.48 3-.48 6.56-.62 6.36-.3 6.36-.3 7.44-1.38"/><path fill="#5dc264" d="M200 128c.33.16.33.16 2 1-3.91 3.45-7.51 6.31-12 9-.4.54-.4.54-2.44 3.25-7.9 8.32-16.08 11.11-27.39 11.42-.58 0-.58 0-3.48.02-1.11 0-2.22.01-3.36.02-6.98-.16-12.05-1.39-18.33-4.71l2-1c.82.33.82.33 5 2 5.59 1.32 11.16 1.1 16.88 1.06 1.89-.01 3.78-.02 5.74-.02.72-.01.72-.01 4.38-.04.16-.5.16-.5 1-3h5v-2c1.46-.45 2.93-.91 4.44-1.38C184 142 184 142 185 140l-2-1 5-9 4 1-3 3c3.82 0 6.9-2.98 10-5z"/><path fill="#c94f2f" d="M213 80h2c.45 7.11-.63 11.72-4 18l-4 4h-2l-1-8h-2c.16.76.33 1.53.5 2.31.94 6.96 1.57 14.2-1.5 20.69-.33.16-.33.16-2 1-1.12-2.81-1.12-2.81-2-6 .33-.5.33-.5 2-3 .38-4.14.51-8.26.66-12.41C200 93 200 93 202 91l3 1v2c3-1 3-1 6-4h2z"/><path fill="#c64c2b" d="M39 101c7.24.16 13.43 3.56 19 8 1.25 3.94 1.25 3.94 1 7-6.2-.44-10.76-1.59-16-5-4-6.6-4-6.6-4-10"/><path fill="#e46a28" d="M59 37h7v1h-6c.52 1.38 1.03 2.76 1.56 4.19C63 47 63 47 62 52h-2v4h2l1 3c-1.36 2.48-1.36 2.48-3.31 5.19-.64.9-1.27 1.8-1.93 2.73-.58.69-1.16 1.37-1.76 2.08h-2c-1.53-4.99-2.97-9.87-4-15 .91-.1 1.81-.21 2.75-.31C56 53 56 53 60 50c.17-3.14.17-3.14-.25-6.69-.13-1.18-.26-2.36-.39-3.57-.12-.91-.24-1.81-.36-2.74"/><path fill="#6f2517" d="M36 115h3c-2.32 9.29-14.07 16.03-21.53 21.54C15 138 15 138 10 139c-1-1-1-1-1.06-5.06L9 130h2l1-2c1 2 1 2 0 6 5.06-2.72 9.34-5.75 13.69-9.5 1.09-.94 2.19-1.88 3.32-2.84 2.41-2.14 4.72-4.39 6.99-6.66"/><path fill="#f0825b" d="M89 84c5 3 5 3 6 7-5.27 3.95-8.54 3.45-15 3l-3-3c1.71-6.86 5.56-7.68 12-7"/><path fill="#cc5331" d="M223 100c-4.39 10.96-4.39 10.96-11 14-3.94.75-3.94.75-7 1-.12-3.62-.12-3.62 1-8 5.43-3.88 10.18-7 17-7"/><path fill="#e2dad2" d="m183 137 2 3-2 4c-4.12.75-4.12.75-8 1v2l-5 1-1 2c-4.05 1.35-7.73 1.21-12 1.25-.8.01-.8.01-4.88.08C148 151 148 151 145 148c3.3-1.65 6.85-1.25 10.5-1.38 11.18-.59 18.75-2.33 27.5-9.62"/><path fill="#f28458" d="M180 84c5 3 5 3 6 7-5.06 3.79-7.81 3.39-14 3l-3-2v-5c4.45-3.34 5.65-3.56 11-3"/><path fill="#d6fada" d="M172 16h3v4l4-2c5.62-.25 5.62-.25 11 0 2.72 2.72 2.61 4.85 3.12 8.62.17 1.19.34 2.38.51 3.61.12.91.25 1.83.37 2.77h8v1h-11c-.15-.72-.15-.72-.94-4.38C189 25 189 25 188 23c-4.89-.16-7.55-.22-12 2h-3c-1.48-2.96-1.06-5.74-1-9"/><path fill="#601b0f" d="M254 112c2 2 2 2 2 8-3.12-.49-6-1-9-2 .8 1.28 1.61 2.56 2.44 3.88 2.66 5.33 3.31 9.21 3.56 15.12-5 1-5 1-8.31-.94-.89-.68-1.78-1.36-2.69-2.06 2-1 2-1 5.12-.06L250 135c-1.35-4.94-2.63-9.36-5.19-13.81C243 118 243 118 243 113c7.62 1.75 7.62 1.75 11 4z"/><path fill="#dccac0" d="M256 111h3c.69 2.69.69 2.69 1 6l-3 5h-5l3 9h2c.25 6.62.25 6.62-2 10h-6l-1-2h5c-1.05-8.29-2.66-13.73-7-21l1-2c1.49.66 1.49.66 9 4z"/><path fill="#b9e6b5" d="M189 16c4 3 4 3 5 7 .04 2.33.04 4.67 0 7 1.4-.06 2.81-.12 4.25-.19C203 30 203 30 207 33c1.46 9.08 1.46 9.08 0 12h-2c-.14-1.3-.29-2.6-.44-3.94C204 37 204 37 203 36c-2.18-.23-4.37-.41-6.56-.56-1.2-.09-2.4-.17-3.63-.26L190 35v-8h1v7l3-1c-.47-2.15-.95-4.29-1.44-6.44-.26-1.19-.53-2.39-.81-3.62C191 20 191 20 190 19c-3.66-.37-7.33-.7-11-1 3.71-2.47 5.61-2.39 10-2"/><path fill="#d2f3d2" d="M74.688 17.813c4.41.16 7.31.5 11.31 2.19l-1 4-13-1c-2.46 3.69-2.57 6.63-3 11l-9-1c3-2 3-2 6-2-.06-1.05-.12-2.11-.19-3.19.35-6.99 2.31-9.74 8.88-10"/><path fill="#76200e" d="M34 90h1v7h7l-4 2 2 2c-4 2-4 2-9 3-2.39 2-2.39 2-4.69 4.44-.76.8-1.53 1.6-2.32 2.43-.66.7-1.31 1.41-1.99 2.13l-2 2v-3l-5 3-2-1 4.56-3.56c5.38-4.3 10.59-8.67 14.44-14.44l1 1z"/><path fill="#25d132" d="m35 63 2 1-1 3c-.04 3.67-.04 7.33 0 11l-5 2-2 2c-1.07.43-2.15.85-3.25 1.29C14.26 88.53 7.46 100.14 2 111c-1-3-1-3 .29-5.74.63-1.04 1.25-2.07 1.9-3.14.61-1.02 1.22-2.05 1.85-3.11C12.23 89.5 20.78 83.35 30 77l2-2-.06-3.88C32 67 32 67 35 63"/><path fill="#681e10" d="M71 25h1c.88 9.28.88 9.28 1 12l-1 1c-2.19-.09-4.38-.25-6.56-.44-1.2-.1-2.4-.2-3.63-.31-.93-.08-1.86-.16-2.81-.25.35 1.38.7 2.76 1.06 4.19C61 46 61 46 60 51l-10-1v-1h8c-.33-.85-.66-1.69-1-2.56-1.07-3.69-1.29-6.62-1-10.44 2-2 2-2 5.31-2.19C65 34 65 34 70 35l-.06-3.31C70 28 70 28 71 25"/><path fill="#6c2213" d="M218 111h3v2l4 1c1.83 1.83 3.65 3.66 5.43 5.52 5.13 4.95 10.91 9.16 16.57 13.48-3 1-3 1-8-1-2.58-2.03-5.09-4.15-7.56-6.31-1.3-1.13-2.6-2.26-3.94-3.43-3.5-3.26-3.5-3.26-5.71-6.12C220 114 220 114 216 113z"/><path fill="#d9612e" d="M208 62h2l1 5c1.49.33 1.49.33 9 2 1 4 1 4-.69 7.19C217 79 217 79 213 80v10c-3.29-3.61-4.55-6.13-5-11l4-2a130 130 0 0 0 5-6l-3.38-.88C210 69 210 69 208 67z"/><path fill="#eae2db" d="M123.313-.375c.61.06.61.06 3.69.38v1c-1.14.12-2.27.24-3.44.37-.59.1-.59.1-3.56.63l-1 2h2c-1.04 4.13-2.57 6.55-5 10-4-1-4-1-6.38-3.07-2.62-1.93-2.62-1.93-8.62-1.93l-3 3c-.33-1.33-.66-2.65-1-4 9.5-2.13 9.5-2.13 14-1 3-1 3-1 5.19-4.07 2.81-2.94 2.81-2.94 7.12-3.31"/><path fill="#dd512c" d="M183 112h1c.47 6.52-.51 10.45-4 16-8.1 8.1-16.31 11.13-27.62 11.19-.66 0-.66 0-3.98.04C145 139 145 139 142 137h3l1-2v3h5l1-2v2c2.66-.71 5.32-1.42 7.97-2.16 2.65-.73 5.31-1.42 7.97-2.09 4.95-2.13 5.73-4.02 8.06-8.75.87-.62 1.73-1.24 2.62-1.88 3.53-3.15 3.65-6.58 4.38-11.12"/><path fill="#b84631" d="m124 132 7 1c-1.18 4.71-2.07 5.35-6 8-5.37 2.74-9.43 3.34-15.44 3.19-1.42-.03-2.84-.06-4.31-.08-1.07-.04-2.14-.07-3.25-.11l-1-2h8v-2c3.44-1.72 7.18-1.35 10.96-1.52C123 138 123 138 128 135z"/><path fill="#dd522e" d="M81 117c.33.17.33.17 2 1v3h2l3 5c3.51 4.07 4.53 4.91 10 6l1 2 5 1v2h18l1-5 6 2c-5.23 5.23-6.7 5.19-13.94 5.31-12.1-.1-19.85-3.09-29.06-11.31-3.19-3.99-3.98-5.89-5-11"/><path fill="#75ca75" d="m221 120 1 2h6c2.99 1.97 2.99 1.97 5.88 4.5.96.84 1.93 1.67 2.92 2.53.73.65 1.45 1.3 2.2 1.97l-1 2c-7.09-2.19-12.47-4.99-18-10l-1-2c-5.23 1.66-10.16 3.4-15 6-.33.16-.33.16-2 1 2.3-4.6 3.23-4.94 7.81-6.81 1.04-.44 2.08-.88 3.15-1.33C216 119 216 119 221 120"/><path fill="#dce5d2" d="M46 117c4.46.65 8.68 1.7 13 3v2h2l1 3c-2.04-.12-4.08-.24-6.12-.38-1.14-.06-2.28-.13-3.45-.21-3.38-.4-6.25-1.22-9.43-2.41l-5 5-2-1 2-2 1-5h7z"/><path fill="#d1f2d1" d="M245 89c7.17 5.08 11.54 12.02 15 20l-1 4v-2h-3l-1 3c-.43-1.05-.87-2.1-1.31-3.19C252 107 252 107 249 102c-.7-2.99-1.36-5.99-2-9z"/><path fill="#742010" d="m146 123 1 2c-.65.23-.65.23-3.94 1.38C139 128 139 128 138 130h-6v2c-5.57-.49-9.95-1.58-15-4v-1c5-.57 9.99-1.09 15-1.5 5-.5 5-.5 6-1.5 2.66-.37 5.33-.7 8-1"/><path fill="#c9502d" d="M195 95h3l-1 4v-2h-2c-.47 1.44-.95 2.89-1.44 4.38C192 106 192 106 191 108c-6.3.49-6.3.49-9.75-1.94-.74-.68-1.49-1.36-2.25-2.06-3.3-1.1-5.73-1.11-9.2-1.1-.6 0-.6 0-3.66.01l-3.83.03c-1.27 0-2.55.01-3.86.01-3.15.01-6.3.03-9.45.05v-1c6.66-.86 13.16-1.13 19.88-1.12.91-.01.91-.01 5.55-.01C179 101 179 101 182 102v2c6 0 6 0 10-2l1-5z"/><path fill="#c85231" d="m230 88 3 1h-2v3c.82.33.82.33 5 2 4.04 4.04 4.67 4.69 5 10l-1 4-5-5c-.46-.36-.46-.36-2.81-2.19-3.23-4.15-2.53-7.72-2.19-12.81"/><path fill="#682314" d="M236 89c9.21 3.68 14.59 12.41 19 21l-1 5c-2.29-3.05-4.23-6-6.19-9.25-2.43-3.89-4.93-7.08-8.25-10.25-1.17-1.16-2.35-2.31-3.56-3.5z"/><path fill="#7a2a16" d="M162 11c3.38-.19 3.38-.19 7 0 2.9 4.35 3.16 8.89 4 14 1.01-.52 2.02-1.03 3.06-1.56 4.3-1.57 6.55-1.58 10.94-.44l1 2c-3.33.68-6.67 1.34-10 2-1.16.25-2.31.5-3.5.75L172 28c-2.64-2.64-3.08-5.06-4.12-8.62-.36-1.19-.71-2.38-1.08-3.61-.26-.91-.53-1.83-.8-2.77h-4z"/><path fill="#bd462c" d="M188 111c5 1 5 1 8 5 0 6 0 6-2.38 8.88C191 127 191 127 189 127z"/><path fill="#e86621" d="m155 109-1 5h-2l-2 4c-1.26-.16-2.52-.33-3.81-.5-6.4-.76-6.4-.76-10.19.5v-2c11-7 11-7 19-7"/><path fill="#e28232" d="M98 103c5 3 5 3 8 6 .19 4.69.19 4.69 0 9h-1v-2.75c-1-3.25-1-3.25-4.38-5.56-5.42-1.98-9.87-2.4-15.62-2.69 3.34-5.01 7.32-4.34 13-4"/><path fill="#eee8e1" d="M41 114c4 1 4 1 6 3l-1 2h-7v5c-2.19 2.46-2.19 2.46-5 4.81-.93.79-1.86 1.58-2.81 2.4-.72.59-1.45 1.18-2.19 1.79l-3-1c4.62-6.39 9.66-12.21 15-18"/><path fill="#81341d" d="m91.125 20.875 3.88.12c-3.69 3.69-6.93 5.74-12 7-1.32-.66-2.65-1.32-4-2-2-.38-4-.72-6-1v9h-1c-.15-.9-.29-1.81-.44-2.74-.42-2.44-.97-4.86-1.56-7.26 2-2 2-2 5.24-2.18 3.76.18 3.76.18 7.07.81.88.12 1.77.25 2.69.37 2-2 2-2 6.12-2.12"/><path fill="#df7433" d="M36 102c-2 4-2 4-5 6.44-4.66 4.15-8.14 8.74-11.86 13.73C17 125 17 125 15 127c1.16-10.14 8.84-17.32 16-24 2-1 2-1 5-1"/><path fill="#691c0c" d="M101 8c7.39 0 8.85 2.03 14 7l-1 2c-4-2-4-2-6.56-4.19-.81-.6-1.61-1.19-2.44-1.81-3 1-3 1-4.39 3.72-.43 1.1-.86 2.21-1.3 3.34-.43 1.11-.87 2.21-1.32 3.35-.33.85-.65 1.71-.99 2.59h-5c.6-.64 1.2-1.28 1.81-1.94C96.52 18.27 97.59 14.42 99 10z"/><path fill="#6b1707" d="M44 79h1v16c-1.26-.97-2.52-1.94-3.81-2.94C37 89 37 89 34 88v9l-2 1c-1-8.62-1-8.62-1-12l4-2c4.25 1.88 4.25 1.88 8 4z"/><path fill="#6b2010" d="M142 6c5 0 5 0 7.25 2.19C151 11 151 11 152 16c5-3 5-3 7.5-5.19C162 9 162 9 167 9l1 2h-6l-2 4-4 4h-5c-5-8.75-5-8.75-5-11l-4-1z"/><path fill="#ecede4" d="m136 141 2 2c-1.4.62-2.81 1.24-4.25 1.88-2.94 1.31-5.87 2.68-8.75 4.12-2.24.29-4.49.49-6.75.62-1.17.08-2.34.15-3.55.23-.89.05-1.78.1-2.7.15 2.76-2.76 5.21-2.58 9-3v-2c9.38-5.12 9.38-5.12 15-4"/><path fill="#e8652e" d="M182 81c4 4 4 4 4 6l2 1-1 5c-4.06 2.5-4.06 2.5-9 4-4.33-1.11-7.3-2.53-11-5 .5-4.47.69-5.69 4-9 3.89-1.54 6.85-2 11-2m-13 6v5c4.37 2.91 7.86 2.32 13 2l4-3-1-4c-6.56-3.94-9.78-4.67-16 0"/><path fill="#d7e4d1" d="M172 7c1.75 3.29 3.42 6.63 5 10l2 2-4 1v-4h-3l-1 4-.88-3.88C169 12 169 12 167 10c-5 0-5 0-10 3v-3c9.75-4.31 9.75-4.31 15-3"/><path fill="#4f0c04" d="M122 95h20l-1 4h-19z"/><path fill="#e17e32" d="m158 106-1 3c-1.65.23-3.3.45-5 .69-5.54.98-9.35 3.1-14 6.31h-2l-1 2-1-3c7.35-7.77 13.53-9.16 24-9"/><path fill="#eff3ea" d="M232 83c5.94.36 8.84 1.75 13 6 2.44 3.56 2.44 3.56 4 7l-1 4c-1.18-1.38-2.35-2.76-3.56-4.19C240.97 91.88 237.32 89 233 86z"/><path fill="#661c12" d="M94 142c4.04.13 7.98.38 12 .75 1.12.09 2.24.18 3.39.27 8.35.72 8.35.72 10.61 2.98-7.71 2.57-17.4 1.77-25.06-.5-.97-.5-1.94-.99-2.94-1.5z"/><path fill="#e66132" d="m76 87 2 4c2 2 2 2 7.38 2.25C91 93 91 93 95 91v7l4 1c-1.98.16-1.98.16-12 1l-1-3c-2.31-.73-4.65-1.39-7-2l-3-2z"/><path fill="#f2ede7" d="M80 137c5 2 5 2 8.62 4.44 5.14 3 9.61 4.19 15.38 5.56-4.46 2.23-5.74 2.08-10.5 1.31-1.12-.17-2.25-.34-3.41-.51C87 147 87 147 83 144v-3h-2z"/><path fill="#bb4832" d="m76 111-1 16c-4-2-4-2-6-4-.44-3.88-.44-3.88 0-8 3.8-4 3.8-4 7-4"/><path fill="#e8852c" d="M173.004 104.496c4.55.76 6.95 3.19 10 6.5l-1 2-1.88-2c-4.53-2.9-7.85-2.52-13.12-2-3.5 1.94-3.5 1.94-6 4-.33.17-.33.17-2 1 .25-2.81.25-2.81 1-6 4.55-3.41 7.4-3.6 13-3.5"/><path fill="#e57435" d="M226 102c7.48 1.5 11.64 6.71 15.95 12.71 1.67 2.67 1.67 2.67 4.05 7.29l-1 3c-.8-1.11-1.61-2.23-2.44-3.38-4.99-6.47-10-12.7-16.56-17.62z"/><path fill="#71e07b" d="M223 63c4 2 4 2 6 4l-.06 4.12c1.39 6.38 4.01 7.72 9.3 11.15L241 84l4 3-1 2-2.12-1.94C237.95 84.25 234.74 84 230 84c-1-3-1-3-1-6l-2-1c.08-1.38.16-2.76.25-4.19-.26-5-.75-6.42-4.25-9.81"/><path fill="#d55d31" d="M110 110h1l1 9c1.3.14 2.6.29 3.94.44L130 121l1-4c4 5.62 4 5.62 4 9-3.67-.47-6.79-1.28-10.31-2.5-4.63-1.48-8.87-2.05-13.69-2.5-1-1-1-1-1.06-6.06z"/><path fill="#e28130" d="M108 106c6.81-.74 11.17 1.63 17 5 3.12 2.81 3.12 2.81 5 5l-1 3-1-3-4-1c-1.05-.62-2.1-1.24-3.19-1.88-4.15-2.31-8.27-3.72-12.81-5.12z"/><path fill="#d35f29" d="M90 72h5l-3 1c1.85 4.89 2.7 6.77 7 10 5.41 1.8 10.48 1.1 16 0l-1 3c-4.9 1.63-9.86 1.06-15 1v-2l-4-1v-2l-4-1z"/><path fill="#b9492a" d="M31 89h1c.33 5.54.01 6.98-3 12l-4 3-3-6c1.3-1.11 2.6-2.23 3.94-3.38C30 91 30 91 31 89"/><path fill="#ba4a31" d="m225 88 3 1-1 8c-1.98.16-1.98.16-12 1 3.01-5.02 5.09-7.02 10-10"/><path fill="#b2d8b0" d="m148 146-2 4c-3.48-.52-6.63-1.2-10-2.25-4.64-.87-6.06-.1-10 2.25l-2-1c9.5-5.7 13.48-6.03 24-3"/><path fill="#d4552f" d="M153 125v3h-4v2l-8 3 1 4c-2.81-.25-2.81-.25-6-1-3-4-3-4-3-6 .99-.12 1.97-.24 2.99-.37.64-.08.64-.08 3.89-.51 1.27-.16 2.55-.32 3.86-.49C147 128 147 128 149 126z"/><path fill="#be482c" d="M34 88c4.99 1.25 7.29 3.49 11 7l2 4-12-2z"/><path fill="#eef0e8" d="m8 123 2 1c-.03.99-.07 1.97-.11 2.99-.02 1.28-.05 2.56-.08 3.89-.01.63-.01.63-.1 3.86.09 1.08.19 2.15.29 3.26l3 2-7 1c-1.72-3.44-1.05-7.22-1-11h2v-6z"/><path fill="#cdf3cf" d="m49 46 1 3a96 96 0 0 1-6 3l-2-1v11l-5 1 2-2-.12-5.38C39 50 39 50 43 46c2-1 2-1 6 0"/><path fill="#f4f3ec" d="M36 65h1c.13.77.13.77.81 4.69C39 75 39 75 42 80c-1.63.12-3.26.25-4.94.38-.83.1-.83.1-5.06.62l-1 2-5 1c2.96-3.13 5.1-5.05 9-7l-.06-4.88C35 67 35 67 36 65"/><path fill="#e36731" d="M64 98c2.9 3.39 4.29 5.73 6 10-1 4-1 4-4 6-3.07-5.77-3.08-9.6-2-16"/><path fill="#e56a2e" d="M198 96h2c.05 2.1.09 4.21.12 6.31.03 1.17.05 2.35.08 3.55C200 109 200 109 198 112l-4-2c.62-4.99 2.15-9.33 4-14"/><path fill="#76210d" d="M218 83h8v3l3 1-1 2-5 1-3 2v-2h-2l-1 2z"/><path fill="#dfe9d7" d="m226 67 2 1c.12 6.75.12 6.75-1 9l3 1-1 4c-1.49-.33-1.49-.33-9-2 2-5 2-5 4-7l1 1z"/><path fill="#9ccf99" d="m200 128 2 1c-4.44 3.99-8.75 7.17-14 10l-3 2-2-2 5-9 4 1-3 3c3.82 0 6.9-2.98 10-5z"/><path fill="#e4eedb" d="m32 80 4 1-14 10-1-2-4 1c3.3-4.33 4.78-5.91 10-8l4 1z"/><path fill="#e78c29" d="m142 9 5 1c3 4.86 3 4.86 3 8h-2l-1 3c-2-5-2-5-2-10-4 2-4 2-8 6-3.25.75-3.25.75-6 1l-2-5c.5.33.5.33 3 2 5-1 5-1 7.5-3.62.82-.79 1.65-1.57 2.5-2.38"/><path fill="#712416" d="M77 116h1l1 11-3-1-1 4c-5.46-1.09-6.01-1.69-9-6l2-1v-6h1c.25 1.09.5 2.19.75 3.31C71 124 71 124 75 127z"/><path fill="#d86f32" d="M31 89c-2.49 4.98-5.81 7.36-10 11-2.04 2.3-4.06 4.62-6 7l-1-3c1.7-2.56 1.7-2.56 4.12-5.44.79-.94 1.58-1.89 2.39-2.87C26.7 89 26.7 89 31 89"/><path fill="#f5f6ef" d="M172 16h3v4h15v1l-4.75.88C180 23 180 23 176 25h-3c-1.48-2.96-1.06-5.74-1-9"/><path fill="#d1572a" d="m103 98 1 2c1.42-.25 2.85-.5 4.31-.75 1.55-.08 3.1-.17 4.69-.25l3 4c-11.62.25-11.62.25-15-2-3.66-.4-7.33-.74-11-1v-1c2.14-.17 2.14-.17 13-1"/><path fill="#e8822c" d="m89 24 3 1c-2.88 2.69-2.88 2.69-7 5-5.44-1.19-5.44-1.19-10-3v10h-3l1-12c6 0 6 0 10 2 4-1 4-1 6-3"/><path fill="#81d885" d="m22 137 2 1c-7.92 5.85-7.92 5.85-12.94 6.56-1.01-.18-2.02-.37-3.06-.56l-2-3c1.16-.16 1.16-.16 7-1v-2h4l1 2z"/><path fill="#d6592a" d="M24 115c0 4.52-2.76 6.97-5.32 10.48C17 128 17 128 15.81 131.56c-.13.4-.13.4-.81 2.44l-4 1 3-10h2c2.38-2.96 4.71-5.96 7-9z"/><path fill="#76f082" d="m35 63 2 1-1 3c-.04 3.67-.04 7.33 0 11l-5 2-4 2c3-5 3-5 5-7l-.06-3.88C32 67 32 67 35 63"/><path fill="#eafae5" d="M102.813 3.75c4.19.25 4.19.25 9.19 2.25l-1 2-4-1c-3.34.28-6.68.61-10 1 .1.47.1.47.62 2.87.13 1.04.25 2.07.38 3.13l-2 2c-1.11-4.44-.7-5.88 1-10 2-2 2-2 5.81-2.25"/><path fill="#f17c50" d="M85.313 83.688c3.69.31 3.69.31 8.69 3.31l1 4c-.83.5-.83.5-5 3l-1-6c-1.49-.33-1.49-.33-9-2 2-2 2-2 5.31-2.31"/><path fill="#e55e26" d="m215 73 2 1-2 6h-2v10c-3.29-3.61-4.55-6.13-5-11l4-2z"/><path fill="#e78b1e" d="M103 10c5 2 5 2 7 5l-3 1v-2l-5 2c-1.31 3.62-1.31 3.62-2 7h-3c3.75-10.75 3.75-10.75 6-13"/><path fill="#f6fcf4" d="m155.125 147.438 4.45.31 3.43.25c-3 3-3 3-5.82 3.4-1.05-.01-2.1-.01-3.18-.02-1.06.01-2.11.01-3.19.02-2.81-.4-2.81-.4-5.81-3.4 3.26-1.63 6.53-.82 10.12-.56"/><path fill="#3bcd45" d="M0 111h1c.08 1.75.17 3.51.25 5.31.25 1.88.5 3.76.75 5.69l4 3c.39 3.79.39 3.79.25 8.19-.04 1.46-.07 2.91-.11 4.42-.05 1.12-.09 2.24-.14 3.39-3-3-3-3-3.25-7.44C3 129 3 129 4 125H1c-2.03-4.06-1.05-9.6-1-14"/><path fill="#e67d26" d="m187 25 1 13c.99.16.99.16 6 1v1h-5v6l-5-5 3-1-1-1c-.46-3.99-.7-7.99-1-12h-7c3-2 3-2 9-2"/><path fill="#5b1f17" d="M67 119c1 4 1 4 0 6l-4-2c-1.16-.5-2.31-.99-3.5-1.5A146 146 0 0 1 52 118c5.51-1.18 9.68-.77 15 1"/><path fill="#751d07" d="M235 104c4.31 3.16 8.21 6.21 12 10l-4-1-1 4c-3.01-3.93-5.78-7.57-8-12z"/><path fill="#7a2109" d="M124 109c5 1 5 1 8 3l4-3 2 3-3 1-1 3c-5 0-5 0-7.81-2.38C124 111 124 111 124 109"/><path fill="#e37638" d="M231 89c4.6 1.15 5.87 2.53 9.12 5.88.44.44.44.44 2.64 2.67C245 100 245 100 247 103l-1 3c-.29-.34-.29-.34-1.76-2.05-4.15-4.74-7.91-8.53-13.24-11.95z"/><path fill="#9dde9b" d="m123.063-.062 3.94.06v1c-1.14.13-2.27.25-3.44.38-.59.1-.59.1-3.56.62l-1 2h2c-1 4-1 4-4 7l-1-2-4-1c1.44-2.88 3.7-4.76 6-7 1-1 1-1 5.06-1.06"/><path fill="#46b94b" d="M87 147h6l1 2c3.65.91 6.36 1.12 10.08 1.1.58 0 .58 0 3.51-.01l3.66-.03c1.22 0 2.44-.01 3.7-.01 3.02-.01 6.03-.03 9.05-.05-3.57 3.57-9.18 2.37-14 2.38-.55.01-.55.01-3.33.07-7.52.03-12.86-1.24-19.67-4.45z"/><path fill="#671405" d="M182 106c.33.17.33.17 2 1l1 3 3 3c1.96 3.91 1.05 8.72 1 13l-2-1c-.31-1.4-.62-2.81-.94-4.25C185 116 185 116 182 111z"/><path fill="#88c685" d="M59 121c4 1 4 1 8 5-.33.17-.33.17-2 1v4l-3-1v-2l-10-3v-1h9v-2z"/><path fill="#effcef" d="m253 127 2 4h2c.25 6.62.25 6.62-2 10h-6l-1-2h5z"/><path fill="#7e2513" d="M45 80h1c.08 1.67.16 3.34.25 5.06.7 5.57 1.63 8.41 4.75 12.94h-2l-1 3c-3.03-3.03-3.25-5.8-4-10 .12-3.72.54-7.3 1-11"/><path fill="#7e3826" d="m41 76 3 1c.08 3.96-.03 7.13-1 11-2.94-.81-2.94-.81-6-2l-1-3 6-1c-.99-.17-.99-.17-6-1v-1h7z"/><path fill="#743125" d="M52.688 49.188c1.42.27 2.85.54 4.31.81l1 2-11 1v5h-2l-1-6c4-3 4-3 8.69-2.81"/><path fill="#ecece1" d="M71 19c10.5-.12 10.5-.12 15 1l-1 4c-4.99-.62-9.33-2.15-14-4z"/><path fill="#712611" d="M183 22h5c2.86 4.29 2.13 7.96 2 13l2 1h-3l-2 2V24z"/><path fill="#ee7e27" d="M99 105v3l4 2c-3 0-3 0-7-2-3.66-.4-7.33-.74-11-1l1-2c4.88-.98 8.15-.74 13 0"/><path fill="#6c1807" d="M37 101c3.41 2.88 4.87 4.37 5.81 8.81.03.53.03.53.19 3.19h-2l-1 3-3-2 2-2c-.16-.83-.16-.83-1-5-.34-2-.67-4-1-6"/><path fill="#722716" d="m16 96 4 1-9 12c-.16-.83-.16-.83-1-5 2.94-4.31 2.94-4.31 6-8"/><path fill="#f38611" d="m131.375 21.938 4.9.03 3.72.03c-.32.66-.65 1.32-1 2-1.99.38-3.99.72-6 1-.32.17-.32.17-2 1v-3l-4.12 1.06c-4.29.83-6.74 1-10.88-.06v-1c5.17-1.06 10.12-1.1 15.38-1.06"/><path fill="#ecdfd9" d="M143 5c3.38-.12 3.38-.12 7 0 2.57 2.57 2.54 4.48 3 8l4-1-2 4h-3c-.28-.64-.28-.64-1.69-3.88C148 8 148 8 143 6z"/><path fill="#62190d" d="M185 129h6l-4 4a816 816 0 0 0-6 7l-2-1c3.43-6.86 3.43-6.86 6-10"/><path fill="#dce8d3" d="M77 131c3.47 3.8 4 4.56 4 10h2l-1 2c-3.95-2.93-6.94-6.16-10-10h5z"/><path fill="#54c558" d="M39 119c5.72-.46 8.49.48 13 4-3.77 1.26-5.37.37-9-1l-5 5-2-1 2-2z"/><path fill="#ac4231" d="m212 91 2 1c-2.1 3.85-3.88 6.88-7 10h-2v-5c3.5-3.31 3.5-3.31 7-6"/><path fill="#d44f25" d="M238 116c3.91 2.85 5.39 4.65 8 9v4h-2v-2l-4-1c-.14-1.09-.29-2.19-.44-3.31C239 119 239 119 238 116"/><path fill="#ca4d31" d="m124 132 7 1c-1 4-1 4-3 6-3.84.96-6.82 1.1-10.75 1.06-1.17-.01-2.34-.02-3.55-.02-.89-.02-1.78-.03-2.7-.04v-1c2.96-.16 5.92-.33 8.89-.49C123 138 123 138 128 135z"/><path fill="#e0f6e2" d="m36 122 3 1-10 10-3-1c4.38-5.88 4.38-5.88 10-7z"/><path fill="#762a1b" d="M39 115c-1.3 5.21-3.89 6.71-8 10l-1-4c5.08-6 5.08-6 9-6"/><path fill="#e8f2e4" d="M217 115c5.77 1.15 6.62 2.45 10 7l-5 1c-.16-.83-.16-.83-1-5l-5-1z"/><path fill="#7b210c" d="M66 98c3 1 3 1 5.25 5.38C73 108 73 108 72 111h-2c-4-9.62-4-9.62-4-13"/><path fill="#f1fdf0" d="M53 35c2 2 2 2 2.19 7.06C55 47 55 47 54 48c-2.34-.29-4.67-.62-7-1l2-2h4z"/><path fill="#fafcf7" d="M191 21c2.1 4.19 2.54 7.38 3 12h8v1h-11c-1.12-10.75-1.12-10.75 0-13"/><path fill="#da6735" d="M130 117c4 4 4 4 5 9-5.75-.88-5.75-.88-8-2v-2l3-2z"/><path fill="#d0672f" d="M76 111q-1.35 4.545-3 9l-3 1c-.25-3.31-.25-3.31 0-7 4-3 4-3 6-3"/><path fill="#cd5732" d="m15 108 4 2c-8.75 7-8.75 7-11 7l2-7 1 2h3z"/><path fill="#811f0a" d="M195 97h2c-.55 4.57-1.42 8.67-3 13l-1-2h-2c2.88-8.75 2.88-8.75 4-11"/><path fill="#76301f" d="M236 89c4.94 1.98 6.08 2.89 9 7l-3 2c-2.06-1.93-4.06-3.94-6-6z"/><path fill="#5d1407" d="m222 72 1 3-3 5 4 1 1 2h-8c1-4 1-4 3-9h2z"/><path fill="#dc6c30" d="M237 111c5.15 1.72 6.55 6.43 9 11l-1 3c-8-10.61-8-10.61-8-14"/><path fill="#dee7d4" d="m221 114-1 2-3 1 4 1-1 2c-1.99.4-3.99.72-6 1l-4 1v-2h3l-1-4c5.62-3.12 5.62-3.12 9-2"/><path fill="#781e07" d="m223 101 2 1c-.33.89-.66 1.77-1 2.69-1 3.31-1 3.31-1 8.31h-2v-2l-3-1c3.88-7.88 3.88-7.88 5-9"/><path fill="#6e1405" d="m101 100-1 3c-3.33.09-6.67.08-10 0l-2-2c3.91-1.96 8.72-1.05 13-1"/><path fill="#c84e2d" d="m25 95 3 1v6l-3 2-3-6z"/><path fill="#732816" d="m223 68 1 5-4 1v-4c-1.49-.33-1.49-.33-9-2v-1c5.18-1.02 6.88-1.05 12 1"/><path fill="#7b2916" d="M87 21h8c-3 3-3 3-8 6l-4-2h2z"/><path fill="#e9f0e3" d="M22 132c2 3 2 3 2 5l-7 4v-3l-2-1z"/><path fill="#f3f0ec" d="m214 118-1 2h-3v2h-6l-1-3c6.5-2.12 6.5-2.12 11-1"/><path fill="#f9faf5" d="M4 107h2v16l-3-1c-.12-10.5-.12-10.5 1-15"/><path fill="#42ea4c" d="m41 47 2 1-1 1c-.07 2.19-.08 4.38-.06 6.56.01 1.2.02 2.4.02 3.63.02.93.03 1.86.04 2.81l-5 1 2-2v-5.44C39 50 39 50 41 47"/><path fill="#e77122" d="M60 38h12v1c-.56.1-.56.1-3.38.62C65 41 65 41 63.56 44.12c-.18.95-.37 1.9-.56 2.88-2-4-2-4-3-9"/><path fill="#fdfefc" d="M69 23c1.31 3.93.6 6.95 0 11l-9-1c3-2 3-2 6-3 1.69-3.56 1.69-3.56 3-7"/><path fill="#e4f0dd" d="M80 137c6.16 2.46 6.16 4.31 9 10-.83-.33-.83-.33-5-2l-1-4h-2z"/><path fill="#67c16c" d="m229 129 4 2c2.32.39 4.66.73 7 1v6c-5.51-2.2-7.37-4.45-11-9"/><path fill="#d0612d" d="M188 111c.82.17.82.17 5 1l1 4-5 2z"/><path fill="#5e1710" d="m42 81 1 2h-7l-1 2c-3.06.62-3.06.62-6 1 4.05-5.06 6.62-5.54 13-5"/><path fill="#672115" d="M39 67h1c2 9.62 2 9.62 2 13-2.56-3.19-2.56-3.19-5-7 1-5 1-5 2-6"/><path fill="#762310" d="M216 52v6l-3-1-1-4-11-1v-1c11.62-1.25 11.62-1.25 15 1"/><path fill="#d7652d" d="M204 52h8l2 4c-1.38 3.25-1.38 3.25-3 6-1-3-1-3-1-7l-6-2z"/><path fill="#de7b37" d="M164 105c10.95-.74 10.95-.74 16.25 3 .91.99 1.81 1.98 2.75 3l-1 2c-.74-.78-1.49-1.57-2.25-2.38-5.19-3.63-9.49-3.86-15.75-4.62z"/><path fill="#d46431" d="m223 100-2 5-7-1v-2c5.62-2 5.62-2 9-2"/><path fill="#b44833" d="M40 91c3.51 2.59 5 3.99 7 8l-12-2v-1l5-1z"/><path fill="#74240b" d="M71 25h1c.88 9.28.88 9.28 1 12l-1 1h-6l4-1-.06-4.31C70 28 70 28 71 25"/><path fill="#7c321f" d="M162 11c3.38-.19 3.38-.19 7 0 2.57 3.85 1.83 5.59 1 10-2-3-2-3-4-8h-4z"/><path fill="#a25f4e" d="m135 125 1 2c-4 1-4 1-6 0v4h-2v-2l-5-1-1-2c2.14-.17 2.14-.17 13-1"/><path fill="#ba492e" d="M57 109h1l1 7-8-1v-2l3-1z"/><path fill="#d45829" d="M247 104c2 2 2 2 2 8-.82-.33-.82-.33-5-2l-1-3h2l1-2z"/><path fill="#d6e4cd" d="M7 101c0 3 0 3-1 5h3l-3 9H5c0-6 0-6 1-8H4c2-5 2-5 3-6"/><path fill="#d16030" d="M66 101c2 2 2 2 4 7-1 4-1 4-4 6l-1-3h3v-3l-3-1z"/><path fill="#f4efea" d="M21 89c-1.13 4.53-2.95 6.55-6 10l-2-3c4.47-7 4.47-7 8-7"/><path fill="#ed9228" d="m123 8 4 1 2 4-6-2-2 4h-2c2-5 2-5 4-7"/><path fill="#f4f8f0" d="M256 111h3c.69 2.75.69 2.75 1 6l-3 4z"/><path fill="#ea6f1d" d="m177 108 2 2h-3l-4 2-2-2-3 1-2-2c3.75-1.87 7.91-1.15 12-1"/><path fill="#6b1504" d="m142 105 4 1c-3.15 2.72-4.87 3.97-9 5v-3z"/><path fill="#b85230" d="M218 83h8v2c-2.67 1.33-5.33 2.67-8 4z"/><path fill="#d5652c" d="M164 75c-3 3-3 3-7.56 3.31C152 78 152 78 150 76c4.72-.56 9.24-1 14-1"/><path fill="#f0fcf0" d="m42 50 2 1-1 11c-2-2-2-2-2.19-6.56C41 51 41 51 42 50"/><path fill="#e5f3e1" d="m239 133 4 1c1.25 3.06 1.25 3.06 2 6-.82-.33-.82-.33-5-2-.16-.82-.16-.82-1-5"/><path fill="#d25e35" d="M14 125c2 4 2 4 1 9l-4 1z"/><path fill="#f0f2e7" d="M230 127c5 1 5 1 9 5l-3 1-4-2v-3z"/><path fill="#ec8938" d="M122 111c4 1 4 1 8 5l-1 3-1-3-4-1-3-3z"/><path fill="#b2452b" d="M36 103c3 4 3 4 4 9l-3 2c-.72-3.32-1.38-6.66-2-10z"/><path fill="#d65d2e" d="m17 103 1 3-3 3-1 3h-3c1.13-5.66 1.45-5.97 6-9"/><path fill="#db682d" d="m147 83 13 2v2c-8.5.25-8.5.25-13-2z"/><path fill="#dcc6bf" d="M55 37h1l2 12h-8l4-2c.75-5.12.75-5.12 1-10"/><path fill="#e88b18" d="M147 11c2 3 2 3 3 7h-2l-1 3c-2-5-2-5 0-10"/><path fill="#eaf8e9" d="M120 1h8c-2 3-2 3-7 5V4h-2z"/><path fill="#62170c" d="m76 126 4 2 1 4-2 2-4-4z"/><path fill="#f7f4f1" d="m39 117 2 1-2 5-3-1v3l-4 1c1.95-3.9 3.87-6.04 7-9"/><path fill="#e36a21" d="M109 109c5.53.47 8.1 1.06 13 4-.33.17-.33.17-2 1-2.69-.94-5.36-1.93-8-3l-1 2z"/><path fill="#a5e1a7" d="M256 104c2.06 2.25 2.06 2.25 4 5l-1 4v-2h-3l-1 3z"/><path fill="#da5b2b" d="M117 103c6.62-.25 6.62-.25 10 2l-1 3c-1.48-.66-1.48-.66-9-4z"/><path fill="#cf622c" d="m39 101 7 1 1 3h-7z"/><path fill="#e6eede" d="m183 137 2 3-2 4h-4c2-5 2-5 4-7"/><path fill="#731909" d="M121 123c6 0 6 0 10 3-5 1-5 1-10-2z"/><path fill="#741c09" d="m20 109 3 1-2 5-1-3c-.82.5-.82.5-5 3l-2-1c3.31-2.56 3.31-2.56 7-5"/><path fill="#ce572a" d="m148 103-4 2c-1.2.7-2.39 1.4-3.62 2.12C137 109 137 109 135 109v-3c4.72-1.92 7.84-3 13-3"/><path fill="#79240c" d="M173 104v1c-10.75 1.12-10.75 1.12-13 0v-2c4.57-1.52 8.39-.02 13 1"/><path fill="#5be765" d="M245 89c4.55 3.63 6.8 5.49 9 11h-3c-.43-.93-.87-1.86-1.31-2.81C248 94 248 94 245 91z"/><path fill="#f2f3eb" d="m223 65 3 1v8c-.33.16-.33.16-2 1-.72-2.99-1.38-5.99-2-9z"/><path fill="#fafef9" d="M124 147v2c-1.98.16-1.98.16-12 1 3.37-3.37 7.49-4.5 12-3"/><path fill="#681707" d="M35 98c8.75-.12 8.75-.12 11 1v2c-6 0-6 0-11-2z"/><path fill="#ce5f2b" d="M169 73h1c.94 2.62.94 2.62 1 6-3.19 3.44-3.19 3.44-7 6l-4-1c.95-.43 1.9-.87 2.88-1.31C166 81 166 81 168 78z"/><path fill="#681105" d="m59 45 2 1-1 5-10-1v-1h8z"/><path fill="#f5fdf3" d="M51 121c3.81-.19 3.81-.19 8 0l3 3c-2 1-2 1-6.62-.44-1.45-.51-2.89-1.03-4.38-1.56z"/><path fill="#68261d" d="M41 111c.83.17.83.17 5 1v2l4 2c-3 1-3 1-6.19-.44-.93-.51-1.85-1.03-2.81-1.56z"/><path fill="#b54633" d="m71 104 8 2c-.33.5-.33.5-2 3l-5-1z"/><path fill="#e75c26" d="M94 91c1 3 1 3 1 7h-5v-3h2z"/><path fill="#e35b27" d="m61 57 2 2c-1.16 1.65-1.16 1.65-7 10l-1-2c1.93-3.37 3.93-6.71 6-10"/><path fill="#782811" d="M48 49c3.01.25 6.01.59 9 1l1 2H48z"/><path fill="#fafdf9" d="M71 19c4.38-.19 4.38-.19 9 0l2 3c-8.75-.75-8.75-.75-11-3"/><path fill="#772514" d="M186 118h1c.12 1.09.25 2.19.38 3.31C188 125 188 125 190 128l-5 1z"/><path fill="#d0fad4" d="m16 90 1 2c-1.28 1.71-2.62 3.37-4 5h-2v2H9c1.95-3.9 3.87-6.04 7-9"/><path fill="#612319" d="M229 82c.33.5.33.5 2 3h-5l-1-2-4-2c3-1 3-1 8 1"/><path fill="#c6ddbf" d="M218 61c.82.33.82.33 5 2v3c-3 1-3 1-8 0v-1l5-1-2-1z"/><path fill="#c4452a" d="M80 110h1l2 14-3-1z"/><path fill="#dd4e2b" d="m52 74 2 4c-1.88 4.25-1.88 4.25-4 8-1.26-5.02.05-7.32 2-12"/><path fill="#d0f2d0" d="m77 136 4 1v4h2l-1 2c-2.5-1.81-2.5-1.81-5-4z"/><path fill="#4e170f" d="M251 133h2l-1 5c-2.94-.38-2.94-.38-6-1l-1-2c.99.16.99.16 6 1z"/><path fill="#eefbee" d="m194 130-1 4-4 2-1-3c4-3 4-3 6-3"/><path fill="#c0562e" d="M248 127c2 4 2 4 2 8-4-2-4-2-6-4h4z"/><path fill="#c0978d" d="m146 123 1 2-9 2v-3z"/><path fill="#d85336" d="m57 92 5 3-3 1v2l-4-1z"/><path fill="#d36232" d="m225 88 3 1c-2 3-2 3-5.12 3.69-.95.1-1.9.2-2.88.31z"/><path fill="#c46033" d="M36 84h7v4a98 98 0 0 1-6-2z"/><path fill="#8a2811" d="m132 130 3 3-1 4v-3h-2l-1 2v-3l-4-1h5z"/><path fill="#a53d28" d="M189 118c2 4 2 4 2 6h2v2l-4 1z"/><path fill="#cc4f24" d="m34 105 2 1v2c-.83.5-.83.5-5 3l-3-1z"/><path fill="#631508" d="m22 90 2 1-4 6-3-2z"/><path fill="#dde4d3" d="m37 63 6 2-5 4-2-4z"/><path fill="#d87a22" d="M100 14h1c.25 6.62.25 6.62-2 10l-2-1z"/><path fill="#faf7f3" d="m94 17 1 4c-5.75-.75-5.75-.75-8-3 1.16-.16 1.16-.16 7-1"/><path fill="#43d252" d="M173 10c2 2 2 2 4 7l2 2-4 1c-1.32-3.62-2-6.1-2-10"/><path fill="#e5d9d5" d="M123 4c6.75.75 6.75.75 9 3l-1 4c-.29-.39-.29-.39-1.75-2.38C127 6 127 6 123 4"/><path fill="#e5ded5" d="m197 125 2 1-2 2-2 5-1-3-2-1z"/><path fill="#a13a25" d="M74 116h1v11l-3-1z"/><path fill="#601b0f" d="M64 119h3c1 4 1 4 0 6l-3-1z"/><path fill="#cb512d" d="M71 113c2 4 2 4 1 8h-2c-.04-2.33-.04-4.67 0-7z"/><path fill="#fafaf6" d="m217 115 5 1 1 2-2 2v-2l-5-1z"/><path fill="#bd5330" d="m10 110 1 3h2v2l-5 2z"/><path fill="#dd5f31" d="M131 108h4l-2 4h-3l-2-3h3z"/><path fill="#d56530" d="m195 104 2 4-1 2h2v2l-4-2z"/><path fill="#d56b2f" d="m36 102-2 4h-3v-3c2-1 2-1 5-1"/><path fill="#eeeae4" d="m252 102 1 3 3 1-1 4-3-3z"/><path fill="#851c07" d="m66 98 3 1 1 5c-.33.17-.33.17-2 1-2-4-2-4-2-7"/><path fill="#d26633" d="M34 88c4 1 4 1 6 2v2h-5z"/><path fill="#dd5328" d="M209 81c4 4 4 4 4 9-4-4.5-4-4.5-4-9"/><path fill="#e75e20" d="m68 49 2 1c-.83 1.16-.83 1.16-5 7l-2-2z"/><path fill="#bfcfb2" d="M215 46h2c1.31 3.93.6 6.95 0 11h-1c-2.12-6.5-2.12-6.5-1-11"/><path fill="#7d2714" d="m201 43 3 3c-2 4-2 4-4 5z"/><path fill="#dbdacc" d="m190 19 2 2-3 4-1-2c-3.06-.62-3.06-.62-6-1v-1h8z"/></svg>