<svg xmlns="http://www.w3.org/2000/svg" width="276" height="204"><path fill="#6c2013" d="M224 0c4.99 2.31 4.99 2.31 9.88 5.44.81.5.81.5 4.92 3.06 4.67 3.9 6.03 6.9 8.2 12.5 3.66 3.66 7.06 6.18 11.38 9l3.89 2.56c2.32 1.52 4.65 3 7.02 4.44 3.97 2.93 5.53 5.97 6.36 10.78.05.68.05.68.29 4.16.11 1.37.22 2.74.34 4.15-.41 5.74-3.07 8.54-6.78 12.72-.5 1.05-.99 2.11-1.5 3.19 1.26 3.03 2.61 6.03 4 9 2.12 11.64.45 20.96-6 31-4.8 5.87-9.33 8.2-16.22 10.83-3.56 1.5-5.93 3.57-8.78 6.17a271 271 0 0 1-5.5 4.12c-.9.67-1.79 1.33-2.72 2.01-2.83 1.9-5.7 3.41-8.78 4.87l2.19 2.19L229 145c.87.78 1.73 1.57 2.62 2.38 4.08 4.5 5.49 9.95 7.38 15.62l1 1c.62 10.29.41 19.98-5 29-3 3-3 3-6.44 3.38C225 196 225 196 221 193l-2 5c-3.92 4.24-5.96 5.86-11.75 6.62C203 204 203 204 200 200c-1.19-9.03.47-17.36 3-26-8.8.13-15.9.94-23.9 4.66-23.28 10.06-51.87 8.42-75.1-.66-1.14-.54-2.29-1.09-3.46-1.65-3.93-1.5-6.8-1.66-10.98-1.54-1.23.03-2.47.06-3.74.08-.93.04-1.86.07-2.82.11.22.88.43 1.77.66 2.68 1.77 7.63 2.94 14.49 2.34 22.32-3 4-3 4-7.19 4.69-6.17-.88-8.5-3.3-12.81-7.69l-3-3-3 2c-3.37.5-3.37.5-7 0-7.16-6.5-8.68-15.35-9.2-24.61-.12-9.36.96-16.9 5.2-25.39h2l1-3 4-4c-.88-.25-1.75-.5-2.66-.76-3.47-1.29-5.89-2.83-8.84-5.05-.96-.72-1.92-1.43-2.9-2.16-1.95-1.52-3.83-3.13-5.66-4.78C33 124 33 124 28.12 122.19 18.46 118.06 14.02 111.27 10 102c-2.16-8.65-2.5-18.11 1.62-26.06C13 71 13 71 11.14 66.98 7.7 61.43 3.92 56.22 0 51c-.91-4.79-.93-9.21 0-14 3.18-3.29 5.18-4.83 9-7 .88-.65 1.76-1.3 2.66-1.97 4.88-3.54 7.21-5.09 13.4-4.78 10.49-.44 18.84-7.59 27.19-13.58 5.84-3.55 12.25-1.77 18.63-.48 9.85 3.48 12.5 13.21 16.81 22.12l2.09 4.21c.65 1.35 1.31 2.7 1.98 4.09.6 1.23 1.2 2.45 1.81 3.72C95.14 47.36 95.88 50.67 96 55c-5.04 8.4-13.84 13.01-21.88 18.38-.94.64-1.89 1.28-2.87 1.94C64.24 80 64.24 80 62 80c.16.74.16.74 1 4.5 1.27 7.01 1.19 12.68-.12 19.62-1.11 7.42-1.11 7.42 1.12 11.88h2c-.08-1.24-.17-2.47-.25-3.75C66 108 66 108 70 104l5-1c.1-1.42.21-2.85.31-4.31C76 94 76 94 79 91c4.19-.69 4.19-.69 8-1v-5c1.75-2.81 1.75-2.81 5-5 3.03-.13 6.07-.24 9.11-.11 3.08.12 5.88-.22 8.89-.89.12-.44.12-.44.75-2.69 1.32-3.51 2.56-5.7 5.25-8.31h5l1 3 5 2 3 2 2.12-3 2.88-3c6 0 6 0 9.38 3 .86.99 1.73 1.98 2.62 3 .89-.83 1.77-1.65 2.69-2.5C153 70 153 70 158 70c2.81 3.5 2.81 3.5 5 7l4-2v-4c2-1 2-1 8-1 3.78 2.4 4.96 3.92 7 8v3c1.38-.23 2.76-.45 4.19-.69C191 80 191 80 196 83c2 2 2 2 2.12 7.12L198 95l4-1 4 2v2l4 2-1 3h-2v2c1.11.45 2.23.91 3.38 1.38C214 108 214 108 216 110c0 6 0 6-2 9l4 1c4.1-2.73 4.02-5.32 5-10h-2c-3.03-9.09-3.59-17.44-3-27l1-2-5-2c-2.34-1.48-4.65-3-6.94-4.56-6.28-4.28-12.68-8.29-19.23-12.14-3.49-2.83-4.58-5.01-5.83-9.3-.04-5.92 3.29-10.27 6.31-15.19.53-.87 1.06-1.73 1.61-2.63 1.68-2.73 3.38-5.46 5.08-8.18.28-.44.28-.44 1.68-2.69 3.41-5.46 6.84-10.9 10.32-16.31.71-1.13 1.42-2.25 2.16-3.41C213.22-1.11 217.39-.57 224 0m-2 186-2 4c.33.16.33.16 2 1l1-5z"/><path fill="#ed6a21" d="M137 73c4.6 1.15 5.41 2.21 8 6v2c5-3 5-3 9-7 3 1 3 1 5.19 5.06.6 1.3 1.19 2.6 1.81 3.94 4-1 4-1 6.5-3.06C170 78 170 78 174 78c3 9.62 3 9.62 3 13 1.57-.52 3.13-1.03 4.75-1.56C187 88 187 88 191 89v10h12l-1 10 3.88.94C210 111 210 111 212 112l-3 11 7 1-1 3h-2l.18 2.67c.37 9.54.37 9.54-2.18 13.21l-3 2.12c-.65.59-.65.59-3.94 3.56-8.34 7.06-8.34 7.06-14.87 8.5-1.38.31-2.77.62-4.19.94-.16.5-.16.5-1 3a97 97 0 0 1-11 4c-1.01.3-2.01.61-3.05.92-8.86 2.21-17.62 2.36-26.7 2.39-.62.01-.62.01-3.73.02-8.86-.07-16.91-1.18-25.52-3.33v-2l-4.81-1.12c-5.36-1.46-9.79-3.64-14.57-6.42C92 154 92 154 87.44 152.12c-6.29-3-12.8-6.3-15.67-12.98-.7-2.69-1.24-5.41-1.77-8.14l-2-3v-3l8-3c-.6-3.69-1.27-7.34-2-11 2.22-2.22 7.01-1.71 10-2-.09-.81-.09-.81-.56-4.94-.15-1.67-.29-3.34-.44-5.06 1-1 1-1 6.06-1.06L94 98l1-10c3.06.33 6.12.65 9.18.98.47 0 .47 0 2.82.02l2-2c2.32-.4 4.66-.74 7-1 .21-.81.21-.81 1.25-4.94.29-.83.29-.83 1.75-5.06l4-1 2.44 2.5L128 80c5-1 5-1 7.31-4.06.56-.97 1.12-1.94 1.69-2.94"/><path fill="#83de83" d="M224 0c4.99 2.31 4.99 2.31 9.88 5.44.81.5.81.5 4.92 3.06 4.67 3.9 6.03 6.9 8.2 12.5 3.66 3.66 7.06 6.18 11.38 9l3.89 2.56c2.32 1.52 4.65 3 7.02 4.44 3.97 2.93 5.53 5.97 6.36 10.78.05.68.05.68.29 4.16.11 1.37.22 2.74.34 4.15-.41 5.74-3.07 8.54-6.78 12.72-.5 1.05-.99 2.11-1.5 3.19 1.26 3.03 2.61 6.03 4 9 2.12 11.64.45 20.96-6 31-4.8 5.87-9.33 8.2-16.22 10.83-3.56 1.5-5.93 3.57-8.78 6.17a271 271 0 0 1-5.5 4.12c-.9.67-1.79 1.33-2.72 2.01-2.83 1.9-5.7 3.41-8.78 4.87l2.19 2.19L229 145c.87.78 1.73 1.57 2.62 2.38 4.08 4.5 5.49 9.95 7.38 15.62l1 1c.62 10.29.41 19.98-5 29-3 3-3 3-6.44 3.38C225 196 225 196 221 193l-2 5c-3.92 4.24-5.96 5.86-11.75 6.62C203 204 203 204 200 200c-1.19-9.03.47-17.36 3-26-8.8.13-15.9.94-23.9 4.66-23.28 10.06-51.87 8.42-75.1-.66-1.14-.54-2.29-1.09-3.46-1.65-3.93-1.5-6.8-1.66-10.98-1.54-1.23.03-2.47.06-3.74.08-.93.04-1.86.07-2.82.11.22.88.43 1.77.66 2.68 1.77 7.63 2.94 14.49 2.34 22.32-3 4-3 4-7.19 4.69-6.17-.88-8.5-3.3-12.81-7.69l-3-3-3 2c-3.37.5-3.37.5-7 0-7.16-6.5-8.68-15.35-9.2-24.61-.12-9.36.96-16.9 5.2-25.39h2l1-3 4-4c-.88-.25-1.75-.5-2.66-.76-3.47-1.29-5.89-2.83-8.84-5.05-.96-.72-1.92-1.43-2.9-2.16-1.95-1.52-3.83-3.13-5.66-4.78C33 124 33 124 28.12 122.19 18.46 118.06 14.02 111.27 10 102c-2.16-8.65-2.5-18.11 1.62-26.06C13 71 13 71 11.14 66.98 7.7 61.43 3.92 56.22 0 51c-.91-4.79-.93-9.21 0-14 3.18-3.29 5.18-4.83 9-7 .88-.65 1.76-1.3 2.66-1.97 4.88-3.54 7.21-5.09 13.4-4.78 10.49-.44 18.84-7.59 27.19-13.58 5.84-3.55 12.25-1.77 18.63-.48 9.85 3.48 12.5 13.21 16.81 22.12l2.09 4.21c.65 1.35 1.31 2.7 1.98 4.09.6 1.23 1.2 2.45 1.81 3.72C95.14 47.36 95.88 50.67 96 55c-5.04 8.4-13.84 13.01-21.88 18.38-.94.64-1.89 1.28-2.87 1.94C64.24 80 64.24 80 62 80c.16.74.16.74 1 4.5 1.27 7.01 1.19 12.68-.12 19.62-1.11 7.42-1.11 7.42 1.12 11.88h2c-.08-1.24-.17-2.47-.25-3.75C66 108 66 108 70 104l5-1c.1-1.42.21-2.85.31-4.31C76 94 76 94 79 91c4.19-.69 4.19-.69 8-1v-5c1.75-2.81 1.75-2.81 5-5 3.03-.13 6.07-.24 9.11-.11 3.08.12 5.88-.22 8.89-.89.12-.44.12-.44.75-2.69 1.32-3.51 2.56-5.7 5.25-8.31h5l1 3 5 2 3 2 2.12-3 2.88-3c6 0 6 0 9.38 3 .86.99 1.73 1.98 2.62 3 .89-.83 1.77-1.65 2.69-2.5C153 70 153 70 158 70c2.81 3.5 2.81 3.5 5 7l4-2v-4c2-1 2-1 8-1 3.78 2.4 4.96 3.92 7 8v3c1.38-.23 2.76-.45 4.19-.69C191 80 191 80 196 83c2 2 2 2 2.12 7.12L198 95l4-1 4 2v2l4 2-1 3h-2v2c1.11.45 2.23.91 3.38 1.38C214 108 214 108 216 110c0 6 0 6-2 9l4 1c4.1-2.73 4.02-5.32 5-10h-2c-3.03-9.09-3.59-17.44-3-27l1-2-5-2c-2.34-1.48-4.65-3-6.94-4.56-6.28-4.28-12.68-8.29-19.23-12.14-3.49-2.83-4.58-5.01-5.83-9.3-.04-5.92 3.29-10.27 6.31-15.19.53-.87 1.06-1.73 1.61-2.63 1.68-2.73 3.38-5.46 5.08-8.18.28-.44.28-.44 1.68-2.69 3.41-5.46 6.84-10.9 10.32-16.31.71-1.13 1.42-2.25 2.16-3.41C213.22-1.11 217.39-.57 224 0m-8 6c-2.03 2.22-2.03 2.22-3.94 5.5-.75 1.26-1.51 2.51-2.28 3.81-.92 1.55-1.84 3.09-2.78 4.69-1.93 3.12-3.89 6.22-5.84 9.32-1.97 3.14-3.94 6.29-5.9 9.43-.28.45-.28.45-1.69 2.7C189 48.86 189 48.86 189 55c7.21 6.01 15.25 10.73 23.23 15.66 4.32 2.68 8.56 5.48 12.77 8.34-.33 1.11-.66 2.23-1 3.38-1.87 8.64-.83 16.06 1 24.62v5l-1 1v6c-4.69 1.87-7.11 2.19-12 2l2-5v-6c-2-2-2-2-6.12-2.12L204 108l1-3c.19-3.56.19-3.56 0-7l-2-2c-3.34.24-6.68.57-10 1l.12-4.38C193 88 193 88 191 86c-9.14.57-9.14.57-12 2-.27-1.59-.54-3.18-.81-4.81C177 78 177 78 174 75c-4.54.19-5.7.7-9 4h-3a141 141 0 0 1-5-8c-5.32 1.06-7.09 2.45-11 6l-6-7c-5 1-5 1-7.31 4.06-.56.97-1.12 1.94-1.69 2.94-4-2-4-2-7-4h-5c-3 5-3 5-5 10-6.88 2.6-12.78 2.96-20 2-1 1-1 1-1.06 6.56L93 97l-2-1q-4.5-.12-9 0c-1 1-1 1-1.12 4.31C81 104 81 104 82 108l-4.38-.12C73 108 73 108 71 110c.37 4.15 1.42 7.06 3 11-.46.07-.46.07-2.81.44C68 122 68 122 65 123c-3.76-1.84-5.62-3.2-7.44-7-.61-4.35-.31-8.32.14-12.68.32-3.53.45-7.02.49-10.57.01-1.1.03-2.2.04-3.33-.27-3.98-1.17-7.58-2.23-11.42 1.05-.68 2.11-1.36 3.19-2.05C86.99 58.01 86.99 58.01 90 55c-.29-5.41-1.93-9.55-4.27-14.39-.33-.69-.33-.69-2-4.15-.7-1.41-1.39-2.82-2.11-4.27-.68-1.43-1.37-2.86-2.07-4.34C74.39 17.26 74.39 17.26 71 15h-6l-3-2c-5.64 1.13-8.67 3.15-13.44 6.31-1.46.97-2.92 1.93-4.43 2.93-2.47 1.65-4.92 3.35-7.31 5.13-3.9 2.26-7.27 1.49-11.65 1.33-5.73.55-9.72 3.87-14.17 7.3-1.22.85-2.43 1.69-3.69 2.56C5 41 5 41 5 47c1.27 2.64 1.27 2.64 3.03 5.26.62.95 1.25 1.91 1.9 2.89.66.98 1.32 1.96 2.01 2.97C18.89 68.54 18.89 68.54 20 73a391 391 0 0 1-4 6c-2.23 10.34-1.95 19.14 3.29 28.46 3.8 5.64 8.4 8.28 14.71 10.54h3l2 4c3.18 2.83 6.31 4.79 10 7 .72.64 1.44 1.28 2.19 1.94C57.1 135.28 62.73 137 70 137v4c-1.05.08-2.1.16-3.19.25-4.21.83-5.73 1.84-8.81 4.75l-2.62 2.38c-6.3 6.95-5.88 13.72-5.74 22.74.5 6.72 1.4 14.92 6.36 19.88l4-1c1.75-4.56 1.75-4.56 3-9 .42.84.42.84 2.56 5.06 2.84 5.18 5.82 9.16 10.44 12.94h5c-.32-10.39-1.28-21.56-6-31l2 1c5.27-.05 10.53-.2 15.79-.36 5.45.38 7.74 1.42 12.21 4.36 24.9 9.35 54.76 8.88 79-2l4-2c2.81-.11 5.63-.12 8.44-.06 4.84.09 8.79.01 13.56-.94-.28.81-.55 1.63-.84 2.46-3.02 9.54-3.92 18.56-4.16 28.54l4 1c5.2-3.43 7.92-7.67 11-13l3-5c.21.65.21.65 1.25 3.94.58 1.34 1.16 2.68 1.75 4.06l4 1c4.29-8.03 5.15-13.89 5.19-22.94.01-1.53.03-3.07.04-4.65-.47-8.95-3.28-13.57-9.61-19.72-3.21-2.07-5.85-2.39-9.62-2.69v-5l2.81-.06c6.68-1.5 13.34-5.17 17.19-10.94q2.985-1.53 6-3l3-3c2.27-1.13 4.57-2.21 6.88-3.25 7.92-3.91 10.84-7.31 13.93-15.63 2.11-9.1 2.01-17.48-2.93-25.62-.62-.83-1.24-1.65-1.88-2.5 2-4 2-4 5.62-8.38C270 59 270 59 270 53l-1-3v-6c-3.62-3-3.62-3-8.44-6-1.56-.99-3.13-1.98-4.74-3L251 32c-1.66-1.12-3.32-2.25-4.97-3.38C242 26 242 26 240 26c.19-1.18.37-2.35.56-3.56-.56-4.44-.56-4.44-4.5-8.13-1.66-1.14-3.35-2.24-5.06-3.31-1.55-.97-3.09-1.94-4.69-2.94C222 6 222 6 216 6m6 180-2 4c.33.16.33.16 2 1l1-5z"/><path fill="#671f12" d="M216 6c6.51 0 8.32.97 13.69 4.31l3.95 2.43C237 15 237 15 240 18c.19 4.19.19 4.19 0 8 .82.33.82.33 5 2 4.21 2.38 8.25 5.01 12.31 7.62 1.12.69 2.25 1.38 3.4 2.09 3.01 1.95 5.73 3.78 8.29 6.29.67 4.46.67 4.46 0 8l1 1c0 6.56-.43 7.24-4.5 11.88-.42.48-.42.48-2.53 2.92-.65.73-1.3 1.45-1.97 2.2 1.15 2.31 2.33 4.61 3.56 6.88 3.43 7.45 3.07 15.29 1.32 23.18-3.25 8.54-6.81 12.68-14.94 16.69-.6.27-.6.27-3.6 1.61-3.22 1.58-5.6 3.36-8.34 5.64l-4 2-1 2h-5l-3.88 1.94c-3.92 1.96-6.79 2.7-11.12 3.06 1.15-4.61 2.63-5.79 6-9l3-4h3l-1-2 .06-5c.07-5.55-.96-10.56-2.06-16-.32-6.49.34-11.75 2-18-1.27-.82-2.54-1.64-3.85-2.49C190.88 56.88 190.88 56.88 189 55c0-5.93.17-7.02 3.11-11.68.67-1.06 1.34-2.13 2.02-3.23.72-1.12 1.44-2.25 2.18-3.4.73-1.15 1.46-2.3 2.21-3.49 1.46-2.32 2.94-4.63 4.42-6.94 1.83-2.89 3.61-5.81 5.36-8.75.47-.76.47-.76 2.82-4.63.81-1.35 1.62-2.69 2.45-4.08z"/><path fill="#eef3ef" d="M224 0c4.99 2.31 4.99 2.31 9.88 5.44.81.5.81.5 4.92 3.06 4.67 3.9 6.03 6.9 8.2 12.5 3.66 3.66 7.06 6.18 11.38 9 1.28.85 2.57 1.69 3.89 2.56 2.32 1.52 4.65 3 7.02 4.44 3.97 2.93 5.53 5.97 6.36 10.78.1 1.37.19 2.74.29 4.16.05.68.05.68.34 4.15-.41 5.74-3.07 8.54-6.78 12.72-.5 1.05-.99 2.11-1.5 3.19 1.26 3.03 2.61 6.03 4 9 2.12 11.64.45 20.96-6 31-4.8 5.87-9.33 8.2-16.22 10.83-3.56 1.5-5.93 3.57-8.78 6.17a271 271 0 0 1-5.5 4.12c-.9.67-1.79 1.33-2.72 2.01-2.83 1.9-5.7 3.41-8.78 4.87l2.19 2.19L229 145c.87.78 1.73 1.57 2.62 2.38 4.08 4.5 5.49 9.95 7.38 15.62l1 1c.62 10.29.41 19.98-5 29-3 3-3 3-6.44 3.38C225 196 225 196 221 193l-2 4c-3.9 3.44-6.64 5.76-11.81 6.69-.53-.12-.53-.12-3.19-.69-4.11-6.85-3.88-12.27-2.1-19.83.97-3.41 2-6.8 3.1-10.17-2.92.11-5.83.24-8.75.38-1.62.06-3.25.13-4.92.21C187 174 187 174 183 176c-3.25-.38-3.25-.38-6-1l3-1v-2c6.7-4.05 11.74-4.43 19.5-4.25 1.97.04 3.94.07 5.97.11 1.49.05 2.99.09 4.53.14-.44 3.58-.98 6.92-2.02 10.38-1.15 4.23-1.4 8.18-1.6 12.56-.08 1.51-.15 3.03-.23 4.59-.05 1.14-.1 2.29-.15 3.47 6.58-1.64 9.57-6.4 13-12 1.03-1.99 2.04-3.98 3-6 3.46 1.73 3.78 5.52 5 9h3c3.46-7.52 4.15-13.68 4.19-21.94.01-1.53.03-3.07.04-4.65-.43-8.26-2.61-12.98-8.54-18.6-3.13-2.11-6.03-2.95-9.69-3.81v-5c1.13-.39 2.27-.78 3.44-1.19 6.68-2.65 12.19-4.99 16.56-10.81q2.97-1.545 6-3l3-3c3.51-1.76 7.07-3.37 10.65-4.99 5.39-3.23 6.99-7.02 9.1-12.82 2.2-9.11 2.08-17.53-2.87-25.69-.62-.83-1.24-1.65-1.88-2.5 2-4 2-4 5.62-8.38C269 59 269 59 269 53l-1-3v-6c-3.33-2.75-3.33-2.75-7.81-5.44-1.55-.95-3.09-1.91-4.68-2.89-2.67-1.58-5.35-3.14-8.05-4.65-2.96-1.71-2.96-1.71-7.46-5.02-.37-2.66-.71-5.33-1-8-3.36-2.72-6.33-4.85-10-7-.62-.4-.62-.4-3.75-2.44C222 7 222 7 216 7c-1.99 2.13-1.99 2.13-3.73 5.12-.66 1.1-1.31 2.19-1.98 3.31-.67 1.18-1.35 2.36-2.04 3.57l-4.23 7.17c-.69 1.17-1.37 2.34-2.07 3.55-3.26 5.49-6.8 10.79-10.33 16.11C190 49 190 49 190 55c2.54 2.28 2.54 2.28 6.19 4.5 1.34.84 2.69 1.69 4.08 2.55 1.56.98 3.12 1.95 4.73 2.95 3.83 2.52 7.63 5.07 11.44 7.62 1.83 1.23 3.66 2.45 5.49 3.67 1.35.89 2.69 1.79 4.07 2.71-.32 1.22-.65 2.44-.98 3.7-2 8.47-.81 15.9.98 24.3 0 4.68-.32 7.69-2 12-5.37 3.22-6.26 3.24-12 2 .09-.9.09-.9.56-5.44.15-1.83.29-3.67.44-5.56-2.1-2.1-6.17-1.69-9-2l.06-4.94C204 98 204 98 203 97c-3.33-.04-6.67-.04-10 0-.14-1.46-.29-2.93-.44-4.44C192 88 192 88 191 87c-2.02.09-4.05.25-6.06.44-1.96.18-3.92.37-5.94.56-.23-.8-.23-.8-1.38-4.88C176 78 176 78 174 76c-4.51.29-5.71.71-9 4l-4-1a602 602 0 0 1-4-7l-4-2h5c2.81 3.5 2.81 3.5 5 7l4-2v-4c2-1 2-1 8-1 3.78 2.4 4.96 3.92 7 8v3c1.38-.23 2.76-.45 4.19-.69C191 80 191 80 196 83c2 2 2 2 2.12 7.12L198 95c.66-.16.66-.16 4-1l4 2v2l4 2c-.16.5-.16.5-1 3h-2v2c1.11.45 2.23.91 3.38 1.38C214 108 214 108 216 110c0 6 0 6-2 9l4 1c4.1-2.73 4.02-5.32 5-10h-2c-3.03-9.09-3.59-17.44-3-27l1-2-5-2c-2.34-1.48-4.65-3-6.94-4.56-6.28-4.28-12.68-8.29-19.23-12.14-3.49-2.83-4.58-5.01-5.83-9.3-.04-5.92 3.29-10.27 6.31-15.19.53-.87 1.06-1.73 1.61-2.63 1.68-2.73 3.38-5.46 5.08-8.18.55-.89 1.11-1.77 1.68-2.69 3.41-5.46 6.84-10.9 10.32-16.31.71-1.13 1.42-2.25 2.16-3.41C213.22-1.11 217.39-.57 224 0m-2 186-2 4c.33.16.33.16 2 1l1-5z"/><path fill="#e5c391" d="M219.88 23.172c5.09 1.35 9.21 4.4 13.56 7.27.97.63 1.95 1.26 2.95 1.91 2.88 1.87 5.74 3.76 8.61 5.65 1.48.97 2.97 1.94 4.5 2.94 3.52 2.32 7.02 4.68 10.5 7.06 1.63 1.09 3.26 2.18 4.94 3.31 1.01.89 2.02 1.77 3.06 2.69 0 5.97-1.7 7.28-5.65 11.47-2.43 2.61-4.67 5.32-6.91 8.09-3.71 4.58-7.53 9.03-11.44 13.44-5.23-1.31-9.21-4.11-13.69-7l-2.88-1.85c-7.8-5.03-15.5-10.19-23.18-15.4l-3.3-2.24c-7.69-5.25-7.69-5.25-9.95-7.51 1.22-4.88 3.02-6.3 6.63-9.75 5.82-5.67 11.14-11.65 16.43-17.81 2.94-2.44 2.94-2.44 5.82-2.27"/><path fill="#e5c28f" d="M72 18c2.03 2.89 2.03 2.89 3.94 6.69.34.67.34.67 2.06 4.08 2.43 5.14 4.71 10.33 6.87 15.6C86 47 86 47 87 48v6c-3.49 3.03-3.49 3.03-8 6-1.33.9-2.66 1.8-4.03 2.73-.69.45-.69.45-4.2 2.75-1.52 1-3.05 2-4.62 3.03-1.58 1.03-3.15 2.06-4.77 3.11-3.14 2.06-6.28 4.11-9.42 6.17-1.38.9-2.77 1.81-4.19 2.74a207 207 0 0 0-7.02 4.8C38 87 38 87 34 87c-1.95-4.59-3.89-9.19-5.82-13.79-1.35-3.22-2.7-6.43-4.08-9.64-.55-1.3-1.1-2.6-1.66-3.95-.5-1.16-1-2.32-1.51-3.52C20 53 20 53 21 48c3.61-2.88 7.16-5.45 11-8 1.16-.78 2.33-1.56 3.53-2.36 3.75-2.48 7.51-4.94 11.28-7.39l7.65-4.98c1.11-.73 2.22-1.45 3.37-2.2 2.14-1.4 4.23-2.87 6.27-4.4C67 17 67 17 72 18"/><path fill="#751e0b" d="M73 142c4 2 4 2 8.38 5.5 3.95 3 6.05 4.21 10.62 5.5 1.24.72 2.47 1.44 3.75 2.19 1.07.6 2.14 1.19 3.25 1.81l2-1v3l3.69.88C109 161 109 161 114 163v2c2.33.34 4.67.67 7 1 1.12.17 2.23.34 3.38.52 20.24 2.12 40.66 1.36 59.62-6.52l1-2c1.46-.56 2.93-1.11 4.44-1.69 7.3-2.8 13.08-7.23 19.06-12.25C211 142 211 142 213 142l1 5c3.44-.81 3.44-.81 7-2l1-3c11.36 8.14 11.36 8.14 12.59 13.6.5 4.11.58 8.13.6 12.28.01 1.52.03 3.04.04 4.61-.35 6.86-1.93 12.5-5.23 18.51l-4-1c-1.75-4.06-1.75-4.06-3-8l-3 5c-6.58 10.44-6.58 10.44-11 13l-4-1c.26-10.92 1.47-20.64 5-31l-5 1c-2.1.09-4.21.13-6.31.12h-3.49c-3.2-.12-3.2-.12-7.14-.93-5.4-.25-9.31 1.57-14.33 3.46-20.72 7.49-46.64 6.93-66.96-1.38C94.14 164.3 78.59 155.47 73 142"/><path fill="#5c5952" d="M61.063 13.25c2.94.75 2.94.75 5.94 1.75.82.16.82.16 5 1 5.1 5.11 7.57 11.92 10.68 18.37a887 887 0 0 1 2.13 4.32l2.01 4.15 1.85 3.79c1.33 3.37 1.33 3.37 1.33 8.37-6.96 6.44-15.34 11.07-23.38 16.04-4.38 2.8-8.51 5.79-12.62 8.96.33.93.66 1.86 1 2.81 1.23 5.15 1.13 9.92 1 15.19h-2l-4-4c-4.75-1.25-4.75-1.25-9-2 .16-.66.16-.66 1-4l-3 2h-3c2 3 2 3 6.25 3.94 4.59 1.03 7.12 2.16 10.75 5.06 1 2 1 2 1 8-2.33 4.33-3.54 5.77-8 8-6.49.82-11.63.66-17.56-2.19-5.7-4.65-8.5-8.64-10.44-15.81-.65-8.05-.67-14.67 3-22-1.07-5.35-2.68-7.87-5.75-12.31-.9-1.33-1.8-2.65-2.73-4.02-.83-1.21-1.66-2.42-2.52-3.67-5-7.3-5-7.3-5-14a82 82 0 0 1 9-7c1.26-.97 2.51-1.94 3.81-2.94 4.19-2.06 4.19-2.06 9.44-1.56 13.49.78 22.14-17.2 33.81-16.25m-1.25 8.28c-1.42.96-2.84 1.91-4.31 2.9-1.48 1.01-2.97 2.03-4.5 3.07-1.46.98-2.91 1.96-4.41 2.98-2.86 1.93-5.72 3.86-8.58 5.81-4.57 3.09-9.18 6.14-13.79 9.17-2.22 1.54-2.22 1.54-4.22 3.54.31 5.58 2.66 10.5 4.75 15.63.71 1.76 1.43 3.52 2.17 5.33 2.34 5.69 4.69 11.37 7.08 17.04 12.19-2.44 23.21-12.42 33.5-19.25l3.07-2.04c1.93-1.29 3.86-2.59 5.78-3.9 2.43-1.66 4.9-3.29 7.37-4.92 1.08-.95 2.16-1.91 3.28-2.89 0-6.16-1.33-9.09-4.14-14.42-2.91-5.6-5.49-11.35-8.13-17.09-1.73-3.49-1.73-3.49-3.73-5.49-5.14 0-6.96 1.66-11.19 4.53"/><path fill="#5d5c54" d="M216 6c6.51 0 8.32.97 13.69 4.31l3.95 2.43C237 15 237 15 240 18c.19 4.19.19 4.19 0 8 .82.33.82.33 5 2 4.21 2.38 8.25 5.01 12.31 7.62 1.12.69 2.25 1.38 3.4 2.09 3.01 1.95 5.73 3.78 8.29 6.29.67 4.46.67 4.46 0 8l1 1c0 6.62-.59 7.49-4.56 12.38-.46.56-.46.56-2.78 3.44-3.16 3.78-6.4 7.49-9.66 11.18l-3.5 4.94C246 89 246 89 242.38 90.38c-4.47-.5-5.43-2.07-8.38-5.38-2.65-1.7-5.32-3.36-8-5-3.36-2.22-6.72-4.45-10.06-6.69-1.85-1.23-3.7-2.47-5.55-3.71-.91-.61-1.82-1.21-2.75-1.84-4.99-3.33-10-6.65-15-9.97C190 56 190 56 189 55c0-5.93.17-7.02 3.11-11.68.67-1.06 1.34-2.13 2.02-3.23.72-1.12 1.44-2.25 2.18-3.4.73-1.15 1.46-2.3 2.21-3.49 1.46-2.32 2.94-4.63 4.42-6.94 1.83-2.89 3.61-5.81 5.36-8.75.47-.76.47-.76 2.82-4.63.81-1.35 1.62-2.69 2.45-4.08zm-4.94 22.44c-1.04 1.1-2.09 2.21-3.16 3.35-3.34 3.7-6.64 7.44-9.9 11.21-1.32 1.24-2.64 2.48-4 3.75-.99 1.07-1.98 2.14-3 3.25 1.17 4.67 1.94 5.07 5.75 7.72 1 .69 2 1.39 3.03 2.11 5.35 3.61 10.74 7.16 16.16 10.67 2.19 1.43 4.39 2.85 6.59 4.28 1.07.69 2.13 1.38 3.24 2.09 2.21 1.46 4.41 2.95 6.58 4.48 1.06.74 2.12 1.48 3.22 2.24.95.68 1.9 1.36 2.87 2.06C241 87 241 87 245 86c6.4-6.6 12.01-13.72 17.62-21 2.38-3 2.38-3 5.38-6v-5c-6.19-5.63-13.33-9.8-20.45-14.16-3.31-2.07-6.57-4.17-9.82-6.34l-2.7-1.79c-2.55-1.7-5.09-3.41-7.63-5.12-7.7-4.53-10.15-4.79-16.34 1.85"/><path fill="#78220f" d="m56 147 2 2 1-1c7.75.25 13.26 2.38 20 6l1 4 3 1 3 2c2.33 1.34 4.66 2.68 7 4v3c-2.62.19-5.25.38-7.88.56-1.46.11-2.92.21-4.42.32C77 169 77 169 75 168c.43 1.18.87 2.35 1.31 3.56 2.79 9 4.95 17.98 4.69 27.44-5 0-5 0-8.44-2.81-4.11-4.84-6.7-9.54-9.56-15.19l-4 10c-4-1-4-1-5.62-3.56-2.8-6.98-3.69-13.44-3.76-20.94-.02-1.6-.05-3.2-.08-4.84.58-5.83 2.27-10.47 6.46-14.66"/><path fill="#e0eedb" d="m85 35 1 2c.5.16.5.16 3 1 6.47 12.2 6.47 12.2 5 19-3.56 3.62-3.56 3.62-8 7-1.01.93-2.02 1.86-3.06 2.81C66.65 80 66.65 80 62 80c.33 1.48.66 2.97 1 4.5 1.27 7.01 1.19 12.68-.12 19.62-1.11 7.42-1.11 7.42 1.12 11.88h2c-.04-.62-.04-.62-.25-3.75C66 108 66 108 70 104c.83-.16.83-.16 5-1 .1-1.42.21-2.85.31-4.31C76 94 76 94 79 91c4.19-.69 4.19-.69 8-1v-5c1.75-2.81 1.75-2.81 5-5 3.03-.13 6.07-.24 9.11-.11 3.08.12 5.88-.22 8.89-.89.25-.89.5-1.77.75-2.69 1.32-3.51 2.56-5.7 5.25-8.31h5l1 3 5 2c.5.33.5.33 3 2l2.12-3 2.88-3c6 0 6 0 9.38 3 .86.99 1.73 1.98 2.62 3l4-4 2 1-7 6-6-7c-5 1-5 1-7.31 4.06-.56.97-1.12 1.94-1.69 2.94-4-2-4-2-7-4h-5l-2.06 4.88C114 84 114 84 110.5 85.56c-1.16.15-2.31.29-3.5.44-.83.16-.83.16-5 1-2.67-.27-5.34-.59-8-1l-1 11H82v11c-1.48.16-1.48.16-9 1-1 5-1 5 1 9v3c-4.06 1.81-4.06 1.81-9 3-4.36-2.08-6.37-3.72-8.5-8.06-.55-4.31-.25-8.3.2-12.62.32-3.53.45-7.02.49-10.57.01-1.1.03-2.2.04-3.33-.27-3.98-1.17-7.58-2.23-11.42 2.69-1.79 5.38-3.58 8.06-5.38 1.63-1.08 3.26-2.17 4.94-3.29 3.16-2.11 6.33-4.21 9.5-6.32 1.34-.89 2.68-1.78 4.06-2.7 1.22-.81 2.44-1.61 3.69-2.45C88 56 88 56 89 55c-.3-3.8-.79-6.6-2.56-10-1.7-3.55-1.67-6.11-1.44-10"/><path fill="#82e58a" d="M70.875 9.188c9.85 3.48 12.5 13.21 16.81 22.12l2.09 4.21c.66 1.35 1.31 2.7 1.99 4.1.59 1.22 1.19 2.45 1.81 3.71 1.57 4.03 2.3 7.34 2.42 11.67-3.14 5.25-6.06 7.52-11 11-.65-.33-1.31-.66-2-1 1.47-1.13 2.93-2.27 4.44-3.43 4.57-3.57 4.57-3.57 5.56-4.57.85-7.58-1.57-12.4-5-19-.65-.33-1.31-.66-2-1-.32.5-.32.5-2 3-1.67-3.45-3.33-6.91-5-10.37-.47-.99-.95-1.97-1.44-2.99-3.56-7.41-3.56-7.41-3.56-9.64l-4.31-.37c-4.69-.63-4.69-.63-7.69-2.63-5.63 1.13-8.66 3.15-13.43 6.31-1.47.97-2.93 1.94-4.44 2.93-2.47 1.66-4.92 3.35-7.3 5.13-3.91 2.26-7.28 1.49-11.65 1.32-5.7.56-9.76 3.88-14.18 7.31-.92.62-1.85 1.23-2.81 1.86-.72.71-1.44 1.41-2.19 2.14 0 5.87.03 6.79 3.03 11.26.63.96 1.26 1.91 1.9 2.89.67.99 1.33 1.97 2.01 2.98 6.95 10.42 6.95 10.42 8.06 14.87-.32.17-.32.17-2 1v-3h-2v2h-3c-3.51 10.5-4.24 23.63.5 33.81 5.06 8.41 11.62 12.46 20.5 16.19 2.69 2 2.69 2 5 4 5.17 3.61 10.6 6.77 16 10 1 .66 1.98 1.32 3 2v2c-2.62 1.73-5.29 3.4-8 5 1-3 1-3 5-7-.87-.25-1.75-.5-2.65-.76-3.48-1.29-5.89-2.83-8.85-5.05-.95-.71-1.91-1.43-2.9-2.16-1.94-1.52-3.82-3.13-5.66-4.78-2.94-2.25-2.94-2.25-7.81-4.06-9.67-4.13-14.1-10.92-18.13-20.19-2.16-8.65-2.49-18.11 1.63-26.06 1.37-4.94 1.37-4.94-.48-8.96-3.45-5.55-7.23-10.75-11.15-15.98-.9-4.79-.92-9.21 0-14 3.19-3.29 5.19-4.82 9-7 .88-.65 1.76-1.3 2.67-1.97 4.88-3.54 7.21-5.08 13.4-4.78 10.49-.44 18.83-7.59 27.19-13.58 5.84-3.54 12.25-1.77 18.62-.48"/><path fill="#d6f1d4" d="M267 79c4 4 4 4 4.57 8.45-.01 12.09-.89 18.82-8.63 28.3-4.26 3.51-8.06 5.13-13.16 7.08-3.56 1.5-5.93 3.57-8.78 6.17a271 271 0 0 1-5.5 4.12c-.9.67-1.79 1.33-2.72 2.01-2.83 1.9-5.7 3.41-8.78 4.87l2.19 2.19L229 145c.87.78 1.73 1.57 2.62 2.38 4.08 4.5 5.49 9.95 7.38 15.62l1 1c.62 10.29.41 19.98-5 29-3 3-3 3-6.44 3.38C225 196 225 196 221 193l-2 4c-3.9 3.44-6.64 5.76-11.81 6.69-1.05-.23-2.11-.46-3.19-.69-4.11-6.85-3.88-12.27-2.1-19.83.97-3.41 2-6.8 3.1-10.17-2.92.11-5.83.24-8.75.38-1.62.06-3.25.13-4.92.21C187 174 187 174 183 176c-3.25-.38-3.25-.38-6-1 .5-.16.5-.16 3-1v-2c6.7-4.05 11.74-4.43 19.5-4.25.98.02.98.02 5.97.11 1.49.05 2.99.09 4.53.14-.44 3.58-.98 6.92-2.02 10.38-1.15 4.23-1.4 8.18-1.6 12.56-.08 1.51-.15 3.03-.23 4.59-.03.57-.03.57-.15 3.47 6.58-1.64 9.57-6.4 13-12 1.03-1.99 2.04-3.98 3-6 3.46 1.73 3.78 5.52 5 9h3c3.46-7.52 4.15-13.68 4.19-21.94.01-1.53.03-3.07.04-4.65-.43-8.26-2.61-12.98-8.54-18.6-3.13-2.11-6.03-2.95-9.69-3.81v-5c1.13-.39 2.27-.78 3.44-1.19 6.68-2.65 12.19-4.99 16.56-10.81q2.97-1.545 6-3l3-3c3.51-1.76 7.07-3.37 10.65-4.99 6.95-4.17 8.32-10.48 10.35-18.01h2zm-45 107-2 4c.33.17.33.17 2 1l1-5z"/><path fill="#f29119" d="M137 73c4.6 1.15 5.41 2.21 8 6v2c5-3 5-3 9-7 3 1 3 1 5.19 5.06.6 1.3 1.19 2.6 1.81 3.94 4-1 4-1 6.5-3.06C170 78 170 78 174 78c3 9.63 3 9.63 3 13l5-1c2.33-.04 4.67-.05 7 0 .16 1.81.16 1.81 1 11h2c-.16.5-.16.5-1 3-5.05 0-8.76-3.44-13-6l-4-1-3-3c-5.76-3.37-10.38-4.53-17-5-3.7-.57-7.33-1.27-11-2l-4 1h-3l-4 2v-2c-18.95 5.04-18.95 5.04-27 11-2.33 1.01-4.66 2.01-7 3l-3 3-5 2c-.38-1.99-.71-3.99-1-6l1-1h5V88c3.06.33 6.12.65 9.18.98.47 0 .47 0 2.82.02l2-2c2.32-.4 4.66-.74 7-1 .41-1.63.83-3.26 1.25-4.94.29-.83.29-.83 1.75-5.06l4-1 2.44 2.5L128 80c5-1 5-1 7.31-4.06.56-.97 1.12-1.94 1.69-2.94"/><path fill="#b94731" d="M73 142c4 2 4 2 8.38 5.5 3.95 3 6.05 4.21 10.62 5.5 1.24.72 2.47 1.44 3.75 2.19 1.07.6 2.14 1.19 3.25 1.81l2-1v3l3.69.88C109 161 109 161 114 163v2c2.33.34 4.67.67 7 1 1.12.17 2.23.34 3.38.52 20.24 2.12 40.66 1.36 59.62-6.52l1-2c1.46-.56 2.93-1.11 4.44-1.69 8.24-3.16 14.92-8.55 21.56-14.31 0 5.79-5.15 10.02-9 14-21.56 17.64-45.85 21.44-73 20-20.46-2.44-39.31-12.56-53-28-1.94-3.44-1.94-3.44-3-6"/><path fill="#e65e28" d="M21 75c4 1 4 1 6.04 3.91.66 1.18 1.33 2.37 2.02 3.59 3.62 6.39 3.62 6.39 6.94 7.5.33.5.33.5 2 3l4.25.94C46.84 94.97 49.37 96.1 53 99c1 2 1 2 1 8-2.33 4.33-3.53 5.77-8 8-6.49.82-11.63.66-17.56-2.19-5.69-4.65-8.5-8.64-10.44-15.81-.62-7.76-1.05-15.08 3-22"/><path fill="#88e68f" d="M224 0c4.99 2.31 4.99 2.31 9.88 5.44 1.62 1.01 3.25 2.02 4.92 3.06 4.67 3.9 6.03 6.9 8.2 12.5 3.66 3.66 7.06 6.18 11.38 9 1.28.85 2.57 1.69 3.89 2.56 2.32 1.52 4.65 3 7.02 4.44 3.97 2.93 5.53 5.97 6.36 10.78.1 1.37.19 2.74.29 4.16.05.68.05.68.34 4.15-.41 5.74-3.07 8.54-6.78 12.72-.5 1.05-.99 2.11-1.5 3.19 1.26 3.03 2.61 6.03 4 9 1.07 6.49 1.27 12.54 0 19h-1c-.02-.6-.02-.6-.15-3.65-.04-.78-.04-.78-.23-4.73-.06-1.55-.13-3.1-.21-4.71C270 83 270 83 268 81v14h-1c-.09-.99-.17-1.98-.26-3-.86-8.07-2.11-13.18-6.74-20 2-4 2-4 5.62-8.38C269 59 269 59 269 53l-1-3v-6c-3.33-2.75-3.33-2.75-7.81-5.44-1.55-.95-3.09-1.91-4.68-2.89-2.67-1.58-5.35-3.14-8.05-4.65-2.96-1.71-2.96-1.71-7.46-5.02-1-4.19-1-4.19-1-8l-3-4 2-2c-1.36-.91-2.72-1.81-4.12-2.75-2.7-1.8-5.38-3.64-7.94-5.63C222.1 1.5 219.32 1.65 215 2c-3 1-3 1-5 5-5.33 9.74-11.17 19.12-17.17 28.46C184.45 48.9 184.45 48.9 184 56c-2-3-2-3-1.96-5.61 1.34-4.73 3.7-8.4 6.27-12.58.53-.87 1.06-1.73 1.61-2.63 1.68-2.73 3.38-5.46 5.08-8.18.28-.44.28-.44 1.68-2.69 3.41-5.46 6.84-10.9 10.32-16.31.71-1.13 1.42-2.25 2.16-3.41C213.22-1.11 217.39-.57 224 0"/><path fill="#e85927" d="M257 74c3 1 3 1 6 6 .33 3.7.33 3.7.25 7.69-.02 1.32-.03 2.65-.05 4.01C263 95 263 95 262 97h-2v2h-3c-.33.83-.33.83-2 5-5.52 5.52-11.04 7.69-18.75 8.5-4.25-.5-4.25-.5-6.81-2.56-1.86-3.79-2.24-5.77-1.44-9.94 3.77-4.25 6.17-5.82 11.75-7 1.4-.33 2.81-.66 4.25-1 1.06-1.97 2.05-3.97 3-6 1.67-2.17 3.41-4.29 5.19-6.38.45-.52.45-.52 2.73-3.21.69-.79 1.37-1.59 2.08-2.41"/><path fill="#f0eee7" d="M17 71h2c-.49 3.29-1.11 6.37-2.06 9.56-2.14 10.12-1.57 17.68 3.26 26.88 4.21 5.98 10.04 8.31 16.8 10.56.56.74 1.11 1.48 1.69 2.25 2.96 3.53 6.37 5.39 10.31 7.75.78.68 1.57 1.36 2.38 2.06 5.41 4 11.95 6.24 18.62 6.94v4c-1.18.39-2.35.78-3.56 1.19-6.35 2.59-10.31 4.88-13.82 10.87-2.09 5.08-2.8 9.44-3.12 14.88-.25 4.18-.67 7.93-1.5 12.06h-2c-.08-4.54-.14-9.08-.19-13.62-.02-1.29-.05-2.58-.07-3.9l-.03-3.77c-.02-1.14-.03-2.28-.05-3.46.39-3.73 1.36-6.07 3.34-9.25 3.3-2.18 6.26-3.75 10-5v-2l-5-2-4-3-5-3-9-6c-5-3-5-3-8.88-4.75-7.2-3.93-12.03-9.12-15.24-16.75C9.39 93.57 9.32 82.21 14 73h3z"/><path fill="#b9a386" d="M217 8c5.51.45 8.81 1.77 13.31 4.94l3.12 2.15C236 17 236 17 238 19c.08 2.67.09 5.33 0 8l4 2c5.38 3.27 10.68 6.64 16 10 .5.31.5.31 3.05 1.85 2.45 1.53 2.45 1.53 5.95 4.15v4c-5.68-1.14-8.83-3.18-13.69-6.31-.82-.53-1.65-1.06-2.5-1.61C242.14 35.5 233.56 29.76 225 24c-3-2-3-2-9-2-3.25 2.67-3.25 2.67-6.56 6.19-1.1 1.15-2.19 2.29-3.32 3.48-.51.55-.51.55-3.12 3.33-1.66 1.67-3.32 3.34-5 5 1.63-4.07 3.27-7.26 5.56-10.94.71-1.12 1.41-2.25 2.13-3.41C209.43 19.74 213.2 13.86 217 8"/><path fill="#baa489" d="M58 15c.83.16.83.16 5 1-2.45 4.91-4.74 6.05-9.38 8.94a654 654 0 0 1-4.6 2.9A780 780 0 0 1 44 31c-3.59 2.3-7.17 4.62-10.75 6.94-1.64 1.06-3.29 2.12-4.98 3.21-1.41.94-2.82 1.88-4.27 2.85l-3.08 2C19 48 19 48 19 54c1.24 3.04 2.59 6.03 4 9 1.77 3.97 3.41 7.95 5 12l-1 2c-3.35-4.88-6.68-9.78-10-14.69-.95-1.39-1.91-2.78-2.89-4.21-.9-1.33-1.81-2.67-2.73-4.05-.84-1.23-1.68-2.46-2.54-3.73C7 47 7 47 7 42c2.01-2.13 2.01-2.13 4.69-4.12.43-.34.43-.34 2.63-2.01 7.05-4.92 7.05-4.92 12.99-4.43 10.66.33 19.4-7.85 27.38-14.13 1.09-.76 2.18-1.52 3.31-2.31"/><path fill="#e5ebe0" d="m85 35 1 2c.5.16.5.16 3 1 6.47 12.2 6.47 12.2 5 19-3.56 3.62-3.56 3.62-8 7-1.01.93-2.02 1.86-3.06 2.81C66.65 80 66.65 80 62 80c.33 1.48.66 2.97 1 4.5 1.27 7.01 1.19 12.68-.12 19.62-1.11 7.42-1.11 7.42 1.12 11.88h2v-8c.33-.16.33-.16 2-1v12c-3.06.54-5.89 1-9 1-2.84-5.91-3.07-10.24-2.34-16.71.36-3.53.49-6.99.53-10.54.01-1.1.03-2.2.04-3.33-.27-3.98-1.17-7.58-2.23-11.42 2.69-1.79 5.38-3.58 8.06-5.38 1.63-1.08 3.26-2.17 4.94-3.29 3.16-2.11 6.33-4.21 9.5-6.32 1.34-.89 2.68-1.78 4.06-2.7 1.22-.81 2.44-1.61 3.69-2.45C88 56 88 56 89 55c-.3-3.8-.79-6.6-2.56-10-1.7-3.55-1.67-6.11-1.44-10"/><path fill="#e8dcd6" d="M202 67c.82.33.82.33 5 2l2 5c.82.33.82.33 5 2 3.29 1.48 3.29 1.48 6 4 .59 4.77.59 4.77.38 10.25-.03.91-.03.91-.17 5.52-.07 1.39-.14 2.79-.21 4.23h3l1-3c1.68 7.88 2.99 14.32 0 22-5.37 3.22-6.26 3.24-12 2 .09-.9.09-.9.56-5.44.15-1.83.29-3.67.44-5.56-2.1-2.1-6.17-1.69-9-2l.06-4.94C204 98 204 98 203 97c-3.33-.04-6.67-.04-10 0-.14-1.46-.29-2.93-.44-4.44C192 88 192 88 191 87c-2.02.09-4.05.25-6.06.44-1.96.18-3.92.37-5.94.56-.23-.8-.23-.8-1.38-4.88C176 78 176 78 174 76c-4.51.29-5.71.71-9 4l-4-1a602 602 0 0 1-4-7l-4-2h5c2.81 3.5 2.81 3.5 5 7l4-2v-4c2-1 2-1 8-1 3.78 2.4 4.96 3.92 7 8v3c.69-.11.69-.11 4.19-.69C191 80 191 80 196 83c2 2 2 2 2.12 7.12L198 95l4-1 4 2v2l4 2-1 3h-2v2c1.11.45 2.23.91 3.38 1.38C214 108 214 108 216 110c0 6 0 6-2 9l4 1c4.1-2.73 4.02-5.32 5-10h-2c-3.03-9.09-3.59-17.44-3-27l1-2-5-2c-2.3-1.49-4.57-3.04-6.81-4.62-1.16-.82-2.33-1.64-3.52-2.48-.88-.63-1.76-1.25-2.67-1.9z"/><path fill="#6a1f15" d="m62 143 2 1v3l3.38-.06C71 147 71 147 73 148l-1-4c4 2 4 2 7 5.56 13.6 15.09 32.84 24.32 53.09 25.64 17.33.72 32.66-.8 48.89-7.21C184 167 184 167 189 167c-10.48 10.48-29.98 12.13-44 12.19-14.04-.1-31.09-.44-43.28-8.31-4.79-2.42-8.33-2.28-13.66-2.13-.85.02-.85.02-5.15.11-.65.02-.65.02-3.91.14v-1h14v-3c-.83-.33-.83-.33-5-2-4.5-1.98-5.94-2.92-9-7v-2c-.83-.27-1.65-.54-2.5-.81-2.52-.86-5.02-1.78-7.5-2.75-3.41-1.23-6.43-1.99-10-2.44v6l-1-3-2-1c2-4 2-4 6-7"/><path fill="#6c1b0b" d="m212 142 2 4c2 0 2 0 7-1l1-3 6 4c-1.07 4.26-1.8 6.05-5 9-4.25.31-4.25.31-8 0l6 3v2c-9.38 5-9.38 5-15 5l-1 4c-13.63.37-13.63.37-20-2 2.26-1.69 4.54-3.35 6.92-4.88 8.11-5.27 15.65-11.27 20.08-20.12"/><path fill="#c4eec7" d="M17 31c-1.61 4.84-5.84 6.34-10 9l-1 1c0 5.87.03 6.79 3.03 11.26.62.95 1.25 1.91 1.9 2.89.66.98 1.32 1.96 2.01 2.97C19.89 68.54 19.89 68.54 21 73c-.33.16-.33.16-2 1v-3h-2v2h-3c-3.51 10.5-4.25 23.62.5 33.81 5.06 8.4 11.62 12.46 20.5 16.19 2.69 2 2.69 2 5 4 5.17 3.61 10.59 6.77 16 10l3 2v2c-2.63 1.73-5.3 3.39-8 5 1-3 1-3 5-7-.88-.25-1.75-.5-2.66-.76-3.47-1.29-5.89-2.83-8.84-5.05-.96-.72-1.92-1.43-2.9-2.16-1.95-1.52-3.83-3.13-5.66-4.78C33 124 33 124 28.12 122.19 18.46 118.06 14.02 111.27 10 102c-2.16-8.65-2.5-18.11 1.62-26.06C13 71 13 71 11.14 66.98 7.7 61.43 3.92 56.22 0 51c-.77-9.6-.77-9.6 1.62-13.94C10.93 28.98 10.93 28.98 17 31"/><path fill="#976a5f" d="M224 163c-.37 4.94-1.32 9.1-3.12 13.69C219 182 219 182 220 187c-2.94 5.11-5.8 9.99-11 13l-4-1c.11-2.69.24-5.38.38-8.06.03-.75.03-.75.21-4.54.38-4.11.89-7.56 2.41-11.4l4-2c.45-1.3.91-2.6 1.38-3.94C215 165 215 165 218 162.94c3-.94 3-.94 6 .06"/><path fill="#e4f0dd" d="M75 168c3.69-.11 7.37-.19 11.06-.25 1.04-.03 2.08-.07 3.15-.1 6.54-.08 10.39.73 15.79 4.35 19.49 7.32 40.76 7 61.19 5.02.93 0 1.86-.01 2.81-.02l2 2c-10.81 3.01-20.81 3.42-32 3.31-1.66.01-3.33.01-5.04.01-12.29-.05-12.29-.05-17.96-2.32l-3.69-.88C108 178 108 178 103.56 175.94c-7.49-2.61-14.68-2.76-22.56-2.94l1 9h-2v-2h-2z"/><path fill="#76d079" d="M81 173c9.69-.52 17.53-.54 26.34 3.76 3.75 1.75 7.61 2.46 11.66 3.24l2 1c5.97.28 11.96.23 17.94.25l5.04.06c8.92.03 16.56-.4 25.02-3.31h-7c5.28-3.52 11.8-4.05 18-5l-1 2c5.75-.88 5.75-.88 8-2 3.04-.07 6.08-.08 9.12-.06.83 0 .83 0 5.01.02.64.01.64.01 3.87.04-1.88 11.75-1.88 11.75-3 14-.36 10.28-.36 10.28 2 15 4.73.47 6.51.35 10.44-2.5L217 197l2 1c-3.95 4.04-6.06 5.88-11.75 6.62C203 204 203 204 200 200c-1.19-9.03.47-17.36 3-26-8.8.13-15.9.94-23.9 4.66-23.28 10.06-51.87 8.42-75.1-.66-1.14-.54-2.29-1.09-3.46-1.65-3.93-1.5-6.8-1.66-10.98-1.54-1.23.03-2.47.06-3.74.08-.93.04-1.86.07-2.82.11v3h-2z"/><path fill="#71210f" d="M76 118c.16.66.16.66 1 4-6.75 3-6.75 3-9 3 .62 1.09 1.24 2.19 1.88 3.31 2.42 5.35 3.25 9.9 4.12 15.69h-2l1 4-9-1-1-5c1.16-.16 1.16-.16 7-1v-4c-.73-.03-.73-.03-4.44-.19-8-1.17-12.88-4.13-18.56-9.81l-3-2c.89-.12 1.77-.25 2.69-.38C53.7 123.3 53.7 123.3 56 121c6 0 6 0 10 2l5-2h3l1-2z"/><path fill="#725a50" d="M84 40c3.96 5.28 6 8.31 6 15-6.96 6.44-15.34 11.07-23.38 16.04-4.37 2.8-8.51 5.79-12.62 8.96.16.46.16.46 1 2.81 1.23 5.15 1.13 9.92 1 15.19h-2l-4-4c-4.75-1.25-4.75-1.25-9-2l1-4c-.49.16-.49.16-3 1v-4c2.66-2.02 2.66-2.02 6.5-4.25 7.49-4.49 14.8-9.2 22.06-14.06l3.1-2.07c1.93-1.29 3.85-2.59 5.77-3.89 2.23-1.5 4.5-2.92 6.78-4.34.92-.79 1.84-1.58 2.79-2.39 0-6 0-6-3-11z"/><path fill="#5f1509" d="M153 130c.38 7.56.29 12.45-4 19-4.58 2.29-6.14 2.3-11 1-3.86-3.86-4.96-6.67-5.12-12.12C133 134 133 134 134 133c3.04-.52 6.07-1.03 9.12-1.5 8.65-1.5 8.65-1.5 9.88-1.5"/><path fill="#59584f" d="M216 6c6.17 0 7.37.47 12 4l-2 1-4-2h-5c-2.14 2.79-2.14 2.79-4.25 6.62-3.14 5.55-6.35 10.97-9.81 16.32-.76 1.16-1.51 2.33-2.29 3.52-.27.42-.27.42-1.65 2.54 2.69-2.66 5.32-5.35 7.9-8.11 1-1.06 2.01-2.11 3.04-3.2 1-1.07 2-2.14 3.02-3.24C216 21 216 21 222 21c3.27 1.8 3.27 1.8 6.81 4.31.66.46.66.46 3.98 2.76.69.49.69.49 4.21 2.93 2.89 1.89 5.78 3.76 8.69 5.62Q255.905 43.22 266 50c-.5.16-.5.16-3 1-2.7-1.53-2.7-1.53-6.12-3.94-7.26-4.97-14.57-9.84-21.94-14.62-1.08-.72-2.17-1.43-3.28-2.17-1.04-.67-2.07-1.34-3.13-2.02-.92-.61-1.84-1.21-2.79-1.83-3.01-1.56-5.35-2.22-8.74-2.42-2.75 2.03-2.75 2.03-5.44 4.94-.95 1.01-1.91 2.03-2.89 3.08-3.25 3.63-6.47 7.3-9.67 10.98a350 350 0 0 1-4.31 4.31C191 51 191 51 189 54c.37-6.44 2.73-10.29 6.25-15.62l3.25-5 1.73-2.64c3.06-4.74 6-9.55 8.96-14.36C214.86 7.14 214.86 7.14 216 6"/><path fill="#e1e7d8" d="M199.5 167.75c1.97.04 3.94.07 5.97.11.75.02.75.02 4.53.14-.44 3.58-.98 6.92-2.02 10.38-1.15 4.23-1.4 8.18-1.6 12.56-.08 1.51-.15 3.03-.23 4.59-.05 1.14-.1 2.29-.15 3.47 4.16-1.04 5.76-2.36 9-5h2c-1 5-1 5-3.12 7.31-3.64 2.14-5.73 2.38-9.88 1.69-4.11-6.85-3.88-12.27-2.1-19.83.97-3.41 2-6.8 3.1-10.17-2.92.11-5.83.24-8.75.37-1.62.07-3.25.14-4.92.22C187 174 187 174 183 176c-3.25-.37-3.25-.37-6-1l3-1v-2c6.7-4.05 11.74-4.43 19.5-4.25"/><path fill="#68df71" d="M121 68c.16.5.16.5 1 3 .83.33.83.33 5 2l3 2c.35-.5.35-.5 2.12-3l2.88-3c6 0 6 0 9.38 3 .86.99 1.73 1.98 2.62 3l4-4c.33.17.33.17 2 1-1.16.99-1.16.99-7 6l-6-7c-5 1-5 1-7.31 4.06-.56.97-1.12 1.94-1.69 2.94-4-2-4-2-7-4h-5l-4 9-2-2c-3.75.18-7.4.47-11.12.88-1.05.1-2.09.2-3.16.31-2.57.26-5.15.53-7.72.81l-1 9c-4 1.18-7.9 2.18-12 3l-1 9-9 3v-2c4-2 4-2 7-2 .1-1.42.21-2.85.31-4.31C76 94 76 94 79 91c4.19-.69 4.19-.69 8-1v-5c1.75-2.81 1.75-2.81 5-5 3.03-.13 6.07-.24 9.11-.11 3.08.12 5.88-.22 8.89-.89.25-.89.5-1.77.75-2.69 2.3-6.09 3.51-8.31 10.25-8.31"/><path fill="#ee7926" d="m187 88 4 1v10h12l-1 10 3.88.94C210 111 210 111 212 112l-2 6h-3l1 6c-.5.16-.5.16-3 1-.5-.77-.99-1.55-1.5-2.34-4.13-6.33-8.38-12.11-13.5-17.66l2-4h-2c-1.72-3.44-1.05-7.22-1-11h-5z"/><path fill="#c84e2e" d="M62 163c4.62.52 6.1 1.07 10 4 1.26 3.6 2.31 7.06 3.25 10.75.27.98.54 1.95.81 2.96 1.38 5.2 2.27 9.91 1.94 15.29-5.15-1.72-7.41-6.48-10-11-3.31-7.42-6-13.82-6-22"/><path fill="#e1f5e2" d="m64 9 2 2c.57.07.57.07 3.44.44C73 12 73 12 76 15l-1 4c-.16-.33-.16-.33-1-2-3-.34-6-.68-9-1l-3-2c-5.64 1.13-8.67 3.15-13.44 6.31-1.46.97-2.92 1.93-4.43 2.93-2.47 1.65-4.91 3.34-7.29 5.12C34 30 34 30 28 30v-2h-5l-1-2 4.38-.06C33.03 24.83 36.8 21.98 42 18c2.35-1.68 4.73-3.32 7.12-4.94 1.12-.77 2.24-1.54 3.39-2.34C56.66 8.68 59.43 8.53 64 9"/><path fill="#631b10" d="M54 79c3.41 3.41 3.93 5.3 4.13 10.03-.01 5.82-.14 11.5-.82 17.28-.32 5.79.48 9.39 2.69 14.69-10.63 4.25-10.63 4.25-17 4 3.08-3.08 6.91-3.71 11-5v-6c-.58.34-.58.34-3.5 2.06-4.93 2.12-7.34 2.05-12.5.94v-1c1.57-.41 3.13-.83 4.75-1.25C48 113 48 113 52 109c1-2 1-2 1-8-3.99-3.99-6.03-5.8-11.62-6.38-1.12-.2-2.23-.41-3.38-.62l-2-4 6-2-1 4c.7.05.7.05 4.25.31C50 93 50 93 54 96v2h2c-.46-6.25-1.01-12.04-3-18z"/><path fill="#be4631" d="m21 75 4 1 1 4h-3c-.73 15.55-.73 15.55 4 23l1 3 4 2 5 3c3.33.51 3.33.51 6.81.69 1.16.06 2.33.13 3.52.2.88.03 1.76.07 2.67.11-5.57 4.18-10.22 3.87-17 3-6.75-3.24-10.36-6.83-13.75-13.38-2.16-7.99-2.41-16.18.25-24.06.5-.84.99-1.69 1.5-2.56"/><path fill="#e8eee1" d="M234 155c2.84 4.26 2.19 7.61 2.12 12.69-.01 1.73-.03 3.47-.05 5.26-.02 1.34-.05 2.67-.07 4.05h2l1-13h1c.51 19.81.51 19.81-5 29-3 3-3 3-6.44 3.38C225 196 225 196 221 193l-2 4h-2v-3l-2-1c.6-.87 1.2-1.73 1.81-2.62 1.98-3.06 3.63-6.1 5.19-9.38 3.46 1.73 3.78 5.52 5 9h3c3.86-8.38 4.12-15.14 4.06-24.38 0-1.02-.01-2.04-.01-3.09-.01-2.51-.03-5.02-.05-7.53m-12 31-2 4c.33.16.33.16 2 1l1-5z"/><path fill="#e7f9e7" d="M196 59c2.15 1.24 4.24 2.57 6.29 3.96 1.19.8 2.38 1.6 3.6 2.43.62.42.62.42 3.73 2.55.63.42.63.42 3.76 2.53 2.3 1.55 4.59 3.11 6.88 4.67 1.91 1.29 3.82 2.58 5.74 3.86-.31 1.05-.62 2.1-.94 3.19-1.31 5.93-1.71 11.76-2.06 17.81h-3c-1.38-6.91-1.15-13.07 0-20l-5-2c-4.72-2.73-6.07-4.12-9-9h-3c-5.8-2.32-9.94-5.36-15-9 3-2 3-2 8-1"/><path fill="#65d96b" d="M273 42c2.96 2.96 2.57 5.63 2.88 9.75.12 1.4.24 2.79.36 4.23-.35 5.84-2.97 8.59-6.74 12.83-.5 1.05-.99 2.11-1.5 3.19 1.26 3.03 2.61 6.03 4 9 1.07 6.49 1.27 12.54 0 19h-1l-.15-3.65c-.04-.78-.04-.78-.23-4.73-.06-1.55-.13-3.1-.21-4.71C270 83 270 83 268 81v14h-1c-.09-.99-.17-1.98-.26-3-.86-8.07-2.11-13.18-6.74-20 2-4 2-4 5.56-8.44C269 59 269 59 270 54l2 4z"/><path fill="#5b1b0f" d="M159 109c3.44-.56 3.44-.56 7 0 4 4 4 4 4.5 9.44-.5 5.56-.5 5.56-2.06 8.81-2.44 1.75-2.44 1.75-6 1.87C159 128 159 128 156 123c-.52-6.27-.31-8.49 3-14"/><path fill="#e9dab9" d="M71 17v3l-9 3-2 4c-1.96 1.4-3.97 2.72-6 4l-3.94 3.12C46.21 36.85 43.55 38.02 39 39c-3 1-3 1-5 5-3 3-3 3-7 4-3 4-3 4-2.64 7.45.32 1.26.63 2.51.95 3.8.31 1.26.61 2.53.93 3.83.25.96.5 1.93.76 2.92-2.99-1.5-3.4-3.71-4.69-6.75-.46-1.05-.91-2.09-1.38-3.17C20 53 20 53 21 48c3.61-2.88 7.16-5.45 11-8 1.16-.78 2.33-1.56 3.53-2.36 3.75-2.48 7.51-4.94 11.28-7.39l7.65-4.98c1.11-.73 2.22-1.45 3.37-2.2 2.14-1.4 4.25-2.85 6.33-4.34C67 17 67 17 71 17"/><path fill="#ee841f" d="M118 79c1 4 1 4-1 9-1.97 1.97-5.35 1.66-8 2l-1 3 4-2h5c-4.2 4.2-10.08 6.55-15.38 9.12C98 102 98 102 95 105l-5 2c-.38-1.99-.71-3.99-1-6l1-1h5V88c3.06.33 6.12.65 9.18.98.47 0 .47 0 2.82.02l2-2c2.32-.4 4.66-.74 7-1z"/><path fill="#f7eee9" d="M235 125h5c-3.79 7.58-8.23 11.65-16 15l2.19 2.19L229 145c.87.78 1.73 1.57 2.62 2.38 2.76 3.04 3.96 5.78 5.38 9.62.39.93.78 1.86 1.19 2.81 1.47 5.79 1.25 11.43-.19 17.19h-2c-.03-1.28-.05-2.56-.08-3.88-.05-1.69-.11-3.38-.17-5.12-.05-1.67-.09-3.34-.14-5.06-.91-7.34-3.27-11.58-8.42-16.82-3.9-2.9-6.47-4.24-11.19-5.12v-5c1.13-.39 2.27-.78 3.44-1.19 12.27-4.87 12.27-4.87 15.56-9.81"/><path fill="#ea6825" d="M255 77c0 12.76 0 12.76-4.69 18.56-3.63 2.9-5.83 4.54-10.31 5.44v-2c-8.62 2.62-8.62 2.62-12 6 0-5 0-5 2.94-8.19C235 94 235 94 239.75 93c1.4-.33 2.81-.66 4.25-1 1.56-2.56 1.56-2.56 3-6 2.54-3.13 5.26-6.04 8-9"/><path fill="#6f1c0c" d="m62 143 2 1v3l3.38-.06C71 147 71 147 73 148l-1-4c4 2 4 2 7 5.56 6.1 6.77 13.21 11.76 21 16.44v2c-4.42 1.11-8.2 1.1-12.75 1.06-1.54-.01-3.08-.02-4.67-.02-1.18-.02-2.36-.03-3.58-.04v-1h14v-3c-.83-.33-.83-.33-5-2-4.5-1.98-5.94-2.92-9-7v-2c-.83-.27-1.65-.54-2.5-.81-2.52-.86-5.02-1.78-7.5-2.75-3.41-1.23-6.43-1.99-10-2.44v6l-1-3-2-1c2-4 2-4 6-7"/><path fill="#bb412e" d="M259 72c4.61 2.3 5.29 3.27 7 8-.01 11.01-2.06 22.06-10 30-6.63 4.97-10.74 5.47-19 5l-3-3c1.65-.23 3.3-.45 5-.69 6.97-1.28 12.16-3.67 16.31-9.62.56-.89 1.12-1.78 1.69-2.69h3v-2h2c.08-2.73.14-5.46.19-8.19.03-1.52.07-3.04.1-4.6C262 80 262 80 259 75z"/><path fill="#6ce175" d="M75 13c5.34 3.2 6.14 4.42 8.73 9.79.66 1.36 1.32 2.71 1.99 4.1l2.03 4.3c.68 1.4 1.37 2.79 2.07 4.23C95.79 47.89 95.79 47.89 96 55c-3.15 5.25-6.07 7.52-11 11l-2-1c.73-.57.73-.57 4.44-3.44C92 58 92 58 93 57c.84-7.59-1.58-12.4-5-19l-2-1-2 3c-1.52-2.99-3.01-5.99-4.5-9l-2.53-5.06C75.05 21.14 74.58 18.09 75 13"/><path fill="#d76432" d="M56 152c3 2 3 2 3.71 4.86.39 5.5.18 10.95-.09 16.45-.04 1.1-.08 2.2-.13 3.32-.36 8.11-.36 8.11-1.49 10.37h-2c-2.62-6.79-3.41-12.48-3.38-19.75 0-1.81-.01-3.62-.02-5.48C53 157 53 157 56 152"/><path fill="#ebf6ed" d="m85 35 1 2 3 1c6.47 12.2 6.47 12.2 5 19-4.94 5.3-10.48 8.89-17 12l-3-1v2h-4c1.53-4.58 4.87-5.62 8.94-8.06C86.83 57.17 86.83 57.17 89 55c-.22-3.84-.78-6.58-2.56-10-1.7-3.55-1.67-6.11-1.44-10"/><path fill="#2cce39" d="M8 61h2c5.02 6.78 5.02 6.78 4.94 11.19-.88 2.64-1.91 5.23-2.94 7.81-1.07 11.68-1.3 22.36 6 32 5.18 5.43 10.14 8.12 17 11 2.69 2 2.69 2 5 4 5.17 3.61 10.59 6.77 16 10l3 2v2c-2.63 1.73-5.3 3.39-8 5 1-3 1-3 5-7-.88-.25-1.75-.5-2.66-.76-3.47-1.29-5.89-2.83-8.84-5.05-.96-.72-1.92-1.43-2.9-2.16-1.95-1.52-3.83-3.13-5.66-4.78C33 124 33 124 28.12 122.19 18.46 118.06 14.02 111.27 10 102c-2.12-8.47-2.63-18.61 1.31-26.56.56-1.47 1.12-2.93 1.69-4.44-2.25-4.5-2.25-4.5-5-8z"/><path fill="#cf5830" d="M228 152h2c2.57 5.14 2.3 8.95 2.31 14.69.02 1.9.04 3.8.05 5.76-.35 5.39-1.41 9.54-3.36 14.55-4.52-4.52-3.47-11.36-3.75-17.38-.07-1.13-.14-2.27-.21-3.44-.28-6.09-.25-8.82 2.96-14.18"/><path fill="#eadbb8" d="M217 23c6.51.78 11.06 3.89 16.44 7.44.97.63 1.94 1.26 2.95 1.91 2.88 1.87 5.74 3.76 8.61 5.65 1.48.97 2.97 1.94 4.5 2.94 3.52 2.32 7.01 4.68 10.5 7.06 1.63 1.09 3.26 2.19 4.94 3.31 1.01.89 2.02 1.78 3.06 2.69v5c-3 2.81-3 2.81-6 5l2-4v-5c-2.77-2.2-2.77-2.2-6.38-4.25-1.18-.69-2.36-1.37-3.58-2.08-1.67-.91-3.34-1.82-5.04-2.67v-2h-2c-.7-.76-1.4-1.53-2.12-2.31C242 39 242 39 238 37.5c-4.26-1.6-5.92-3.26-9-6.5-3.31-1.81-3.31-1.81-6-3v-2c-6 0-6 0-8 1z"/><path fill="#98c28f" d="m82 178 2 1c1.82 7.08 2.45 13.7 2 21-3 4-3 4-7.19 4.69-6.12-.88-8.55-3.35-12.81-7.69l1-2 4 4h1l1-4 3 3 5 1c-.14-.95-.29-1.91-.44-2.89-.18-1.25-.37-2.51-.56-3.8-.19-1.24-.37-2.48-.56-3.76C79 185 79 185 79 180l1 2h2z"/><path fill="#c65433" d="M224 163c-.47 7.85-3.23 14.72-6 22l-1-2h-2l-2-5-3 1-1-4 3-2c.43-1.3.87-2.6 1.31-3.94C215 165 215 165 218 162.94c3-.94 3-.94 6 .06"/><path fill="#7a2917" d="M232 160h2c.22 2.67.43 5.33.62 8l.36 4.5c.03 6.93-1.66 12.46-4.98 18.5l-4-1c-1.75-4.06-1.75-4.06-3-8l-4 4c-1.48-5.91.79-9.38 3-15h4c.06.87.06.87.38 5.25C227 182 227 182 229 186c1.66-5.89 2.36-11.39 2.62-17.5.08-1.6.15-3.2.23-4.84.03-.61.03-.61.15-3.66"/><path fill="#e1662d" d="M207 118h2v5l7 1-1 3h-2c.06.88.12 1.76.18 2.67.37 9.54.37 9.54-2.18 13.21l-3 2.12c-1.3 1.18-2.6 2.35-3.94 3.56-3.26 2.76-6.44 5.18-10.06 7.44l-2-1 4-2v-4l4-1c3.87-2.86 5.83-4.65 8-9l-1-4c-1.27-6.46-1.27-6.46 1-11l-1-1z"/><path fill="#702519" d="M265 83c2.81 4.21 2.32 6.98 2 12-1.96 8.82-5.03 15.11-12.44 20.5-6.47 2.13-12.81 2.34-19.56 1.5l-5-3v-2l-2-1 2-2c.93.83 1.86 1.65 2.81 2.5 5.5 3.28 8.87 3.21 15.19 2.5 6.71-3.31 10.5-6.77 13.62-13.5 1.77-5.77 2.61-11.53 3.38-17.5"/><path fill="#e5602a" d="m83 118 3 1-3 3c-1.38 3.31-2.72 6.65-4 10l-2 4c.06 3.56.06 3.56 1 7l5 3c1.72 1.95 3.4 3.94 5 6-6.59-2.64-13.29-6.06-16.24-12.87-.69-2.68-1.24-5.41-1.76-8.13l-2-3v-3l8-2-2 5h4z"/><path fill="#c35031" d="M221 158v2c-9.38 5-9.38 5-15 5l-1 4h-5v-3h-7c6.56-6.56 18.76-12.62 28-8"/><path fill="#e5ded8" d="M171 178v1c-9.47 2.51-17.98 3.44-27.75 3.31-1.25.01-2.5.01-3.79.01-6.77-.04-12.88-.53-19.46-2.32v-2c.97.01 1.93.01 2.93.02 4.44.02 8.88.03 13.32.04.76.01.76.01 4.61.03 6.68.01 13.28-.02 19.94-.66 5.2-.43 5.2-.43 10.2.57"/><path fill="#def3e0" d="M215 1c7.36-.74 11 1.37 17 5.5 1.51 1.02 3.01 2.04 4.56 3.09 1.14.8 2.27 1.59 3.44 2.41l-4 3c-.94-.58-1.88-1.15-2.85-1.75-1.25-.74-2.49-1.48-3.77-2.25-.62-.37-.62-.37-3.73-2.25C222 7 222 7 216 7c-2.19 3-2.19 3-4 6h-3c1-5 1-5 4-7z"/><path fill="#eaf6e8" d="M206 175h1l-1 24c4.16-1.04 5.76-2.36 9-5h2c-1 5-1 5-3.12 7.31-3.64 2.14-5.73 2.38-9.88 1.69-3.66-6.1-3.59-8.96-3-16 1.39-4.19 3.11-7.99 5-12"/><path fill="#682112" d="M60 163c2.39 3.58 3.41 7.03 4.75 11.12 2.36 6.84 4.97 12.1 9.25 17.88l1 3h2v2h2l-1-15c2.42 3.64 2.39 5.86 2.62 10.19.08 1.27.15 2.54.23 3.85.05.98.1 1.95.15 2.96-5 0-5 0-8.44-2.81C63 184.95 63 184.95 63 179h-2c-1.5-3-1.09-5.79-1.06-9.12.01-1.29.02-2.57.02-3.89.02-.99.03-1.97.04-2.99"/><path fill="#ce5630" d="M77.5 157.977c6.11 2.08 9.85 3.37 14.5 8.02-11.2.77-18.32-.19-28-6v-2c4.41-2.2 8.9-1.3 13.5-.02"/><path fill="#d75e32" d="m51 81 3 1c2.27 5.68 2.15 9.93 2 16h-2l-4-4c-4.75-1.25-4.75-1.25-9-2 .56-2.75.56-2.75 2-6 3.56-2.31 3.56-2.31 7-4z"/><path fill="#6ae176" d="M153 70h5c2.81 3.5 2.81 3.5 5 7l4-2v-4c2-1 2-1 8-1 3.78 2.4 4.96 3.92 7 8v3c.69-.11.69-.11 4.19-.69C191 80 191 80 196 83c2 2 2 2 2.12 5.62L198 92h-1l-.88-3.38C195 85 195 85 193 83c-1.79.06-3.59.12-5.44.19-1.83-.06-3.67-.13-5.56-.19l-3-5c-2.98-.75-5.99-1.4-9-2-1.68 1.31-3.35 2.65-5 4l-4-1a602 602 0 0 1-4-7z"/><path fill="#cfb088" d="m82 55 3 1c-5.21 3.48-10.42 6.96-15.62 10.44-1.46.97-2.92 1.95-4.42 2.95C60.65 72.27 56.32 75.13 52 78c-1.34.9-2.69 1.8-4.07 2.73-1.24.82-2.49 1.65-3.77 2.49-1.09.73-2.19 1.46-3.32 2.22C38 87 38 87 34 87l-3-9 4 2v5h3v-2c6.62-4 6.62-4 10-4l2-5h3l2-2 3-1 2-3c3.12-.69 3.12-.69 6-1v-2c2.23-1.62 2.23-1.62 5.19-3.44.48-.3.48-.3 2.92-1.81 2.62-1.59 5.26-3.17 7.89-4.75"/><path fill="#f38419" d="M182 90h7l1 11h2l-1 3c-5.05 0-8.76-3.44-13-6l-4-1-6-6c1.16.33 2.31.66 3.5 1 4.34.96 8.08 1.16 12.5 1v-2z"/><path fill="#dd542e" d="M184 159v2c-13.62 5.41-26.13 7.26-40.75 7.31-.62.01-.62.01-3.73.02-8.84-.07-17.48-.31-25.52-4.33 5-2 5-2 7-2v2l12 1v2c1.01-.16 2.02-.33 3.06-.5 5.54-.56 10.9-.44 16.45-.24C156 166 156 166 161 163l3-1v2c7.21-1.12 13.2-5 20-5"/><path fill="#7b2f1b" d="M153 71c.82.17.82.17 5 1 2.31 3.56 2.31 3.56 4 7 4-1 4-1 8-4 5 1 5 1 7 3 .73 3.32 1.4 6.65 2 10l5-1 2 2c-4 2-4 2-9 2l-3-13c-5 2-5 2-7.56 4.19-.4.3-.4.3-2.44 1.81-4-1-4-1-5.75-3.81C157 77 157 77 157 73h-4z"/><path fill="#57180c" d="M123 110c-.33.17-.33.17-2 1v2l-4 1v5l3.44-.06C124 119 124 119 125 120c-.72 7.72-.72 7.72-2 9-3.38.38-3.38.38-7 0-3.47-5.79-3.34-7.57-2-14 2.77-4.84 3.17-5 9-5"/><path fill="#ddf5df" d="M17 31c-1.61 4.84-5.84 6.34-10 9l-1 1c0 6 0 6 1 9l-2 2-3-1c-2.15-4.31-2.5-6.28-2-11 3.49-5.78 10.01-11.33 17-9"/><path fill="#e8f9e8" d="M17 71h2c-.42 3.41-.98 5.97-2.53 9.06-1.86 4.98-1.76 9.08-1.66 14.38.03 1.79.06 3.58.08 5.43.04 1.36.07 2.73.11 4.13h2v3h-3c-2.99-5.81-3.4-10.5-3.38-17 0-1.71-.01-3.42-.02-5.19.39-4.64 1.29-7.7 3.4-11.81h3z"/><path fill="#f1e5e0" d="M116 68h5l1 3c.83.33.83.33 5 2l3 2 2.12-3 2.88-3c6 0 6 0 9.38 3 .86.99 1.73 1.98 2.62 3l4-4 2 1c-1.16.99-1.16.99-7 6l-6-7c-5 1-5 1-7.31 4.06-.56.97-1.12 1.94-1.69 2.94-4-2-4-2-7-4h-5l-2 4-4 1c-.19-3.81-.19-3.81 0-8z"/><path fill="#621a0a" d="M123 110c3.62 2.9 4.9 4.25 5.5 8.94-.5 4.1-1.28 6.6-3.5 10.06-3 2-3 2-8 1v-1l6-1 1-8-3.44.06C117 120 117 120 116 119v-5l5-1v-2z"/><path fill="#d6e4cc" d="M177 77c3 1 3 1 5 5 .87-.04.87-.04 5.25-.25C193 82 193 82 197 86c.75 3.75.75 3.75 1 7l-2 1-1-5-1 7 4 1h-5c-.14-1.46-.29-2.93-.44-4.44C192 88 192 88 191 87c-2.02.09-4.05.25-6.06.44-.98.09-.98.09-5.94.56-1.51-4.06-2-6.55-2-11"/><path fill="#702011" d="M93 87h1l1 11c-3.87.97-7.04 1.08-11 1 .19 1.63.37 3.26.56 4.94.15 1.67.29 3.34.44 5.06-2.22 2.22-7.01 1.71-10 2l1 10c-3.25-3.57-4.78-6.12-5-11 2-2 2-2 6.62-2.12L82 108l-1-4a96 96 0 0 1 0-7c1-1 1-1 5.44-1.12C91 96 91 96 93 97z"/><path fill="#d96136" d="M228 82c4.64 1.16 7.28 3.05 11 6l1 3c-1.42.43-2.85.87-4.31 1.31C231 94 231 94 228 97h-2c-.25-11.62-.25-11.62 2-15"/><path fill="#ce5531" d="M224 121c4 1 4 1 8 3-1 3-1 3-5.62 5.62-4.45 1.97-7.6 3.07-12.38 3.38 1.5-5.99 5.15-8.36 10-12"/><path fill="#dbf3d9" d="M15 81c.95 3.8.93 6.16.69 10-.07 7.36 2.09 13 6.31 19 2.58 2.21 2.58 2.21 5 4l2 2c-.33.16-.33.16-2 1l8 4-1 2c-8.03-2.68-12.46-5.56-18-12l-1-4h2v-3h-2c-.89-4.43-1.13-8.13-1.12-12.62-.01-1.32-.01-2.63-.01-3.98C14 84 14 84 15 81"/><path fill="#fafdf8" d="m113 80 1 4c-7.11 2.09-12.61 3.13-20 2-2.13 3.19-2.5 5.27-3 9l-8-1v-1l6-1 .88-4.44c.37-1.5.74-3.01 1.12-4.56 3.7-1.85 8.06-1.68 12.12-2.06l5.58-.54c1.42-.13 2.84-.26 4.3-.4"/><path fill="#ce512b" d="M60 123c4.52 3.19 5.89 4.72 8 10-6.09.51-9.79-.87-15-4l-3-4c5-3 5-3 10-2"/><path fill="#80e285" d="M62 86c3.1 6.2 2.14 11.51.88 18.12-1.11 7.42-1.11 7.42 1.12 11.88h2v-8l2-1v12c-3.06.54-5.89 1-9 1-3.12-7.5-3.12-7.5-2-12l3 5-.06-3.75C60 105 60 105 61 101c.22-2.58.41-5.16.56-7.75.04-.68.04-.68.26-4.11.06-1.04.12-2.07.18-3.14"/><path fill="#f1885b" d="m110 131 3 3-1 4c-3.75 1.87-7.91 1.15-12 1l-2-2 1-5c3.55-1.77 7.13-1.21 11-1"/><path fill="#daf6dd" d="M188 42c1 2 1 2 1.38 7.44C190 55 190 55 193 58l-4 2 12 8-2 1c-2.41-1.35-4.75-2.8-7.06-4.31-1.27-.82-2.54-1.64-3.85-2.49C185 60 185 60 184 58c-.5-6.67.23-10.46 4-16"/><path fill="#f1f3eb" d="M75 168c.83.16.83.16 5 1 3.27.22 6.54.41 9.81.56 1.72.09 3.44.17 5.21.26 1.31.06 2.63.12 3.98.18l-1 3H81l1 9h-2v-2h-2z"/><path fill="#6e1907" d="M227 147c4 2 4 2 7 6 1.14 4.62 1.1 9.13 1.06 13.88-.01 1.33-.02 2.67-.02 4.05-.02 1.01-.03 2.03-.04 3.07h-1v-14h-2l-2-8-3 3-3 3c-4.57-.25-7.7-1.28-12-3v-1c.87.06.87.06 5.25.38 5.75-.38 5.75-.38 8.44-3.32C227 148 227 148 227 147"/><path fill="#f38555" d="m182 131 3 2c-1 5-1 5-2 6-4.94.19-4.94.19-10 0l-2-2 1-5c3.27-1.63 6.42-1.17 10-1"/><path fill="#e1542c" d="m28 104 9 5 1-2 3 2 1-4 1 2c1.11-.33 2.23-.66 3.38-1 3.62-1 3.62-1 5.62-1l1 4c-.33.5-.33.5-2 3-6.91 1.18-13.42 1.01-19.38-2.88-1.19-1.03-2.39-2.06-3.62-3.12z"/><path fill="#e7722a" d="M155 114h1c.12 1.4.25 2.81.38 4.25C157 123 157 123 159 127c3.62 1.25 3.62 1.25 7 2l-1 2h-7c-1.61 4.68-3.03 9.14-4 14h-3l2-15-3-1h3c1.05-3.16 1.31-5.87 1.56-9.19.15-1.92.29-3.83.44-5.81"/><path fill="#d15d31" d="M62 163h3c.09.45.09.45.52 2.71 1.5 7.52 3.47 14.24 6.48 21.29v2l4-2 2 9c-5.15-1.72-7.41-6.48-10-11-3.31-7.42-6-13.82-6-22"/><path fill="#4ce056" d="M202 67c.82.33.82.33 5 2l2 5c.82.33.82.33 5 2 3.3 1.67 3.3 1.67 6 4 .52 3.43.52 3.43.25 7.31-.33 5.47.13 9.47 1.75 14.69.08 2.67.09 5.33 0 8-4.89-4.89-4.15-12.94-4.19-19.44.04-7.25.04-7.25 1.19-9.56l-5-2c-2.3-1.49-4.57-3.04-6.81-4.62-1.16-.82-2.33-1.64-3.52-2.48-.44-.31-.44-.31-2.67-1.9z"/><path fill="#d77234" d="M255 77c0 3 0 3-2.44 5.81-2.76 3.43-2.93 4.98-3.56 9.19-1.5 2.88-1.5 2.88-4 5q-4.5.12-9 0c-5 3-5 3-7 8h-1c0-5 0-5 2.94-8.19C235 94 235 94 239.75 93c1.4-.33 2.81-.66 4.25-1 1.56-2.56 1.56-2.56 3-6 2.54-3.13 5.26-6.04 8-9"/><path fill="#735c4d" d="m255 73 3 1c-.78.92-1.56 1.83-2.37 2.77l-3.07 3.61c-1.01 1.18-2.02 2.36-3.06 3.58C247 87 247 87 246 89c-3.25.94-3.25.94-7 1-2.56-2.25-2.56-2.25-5-5-3.31-1.81-3.31-1.81-6-3l1-3c5 2 5 2 8.56 4.69.57.38.57.38 3.44 2.31 5.01-1.25 6.06-3.08 9.25-7.06.89-1.11 1.78-2.21 2.7-3.35.68-.85 1.35-1.71 2.05-2.59"/><path fill="#78e483" d="m81 66 2 1C64.54 80 64.54 80 62 80l-1 3v-7h4l-1-4c4-3 4-3 7.25-2.69.91.23 1.81.46 2.75.69v-2l5-1z"/><path fill="#f5f8f5" d="M266 37c5 3 5 3 7 5 .27 3.59.27 3.59.25 7.94.01 1.43.01 2.86.02 4.34C273 58 273 58 271 61c-.12-1.07-.25-2.14-.38-3.25C270 54 270 54 268 50v-6l-4-3z"/><path fill="#26da32" d="M70.938 9.313c5.06 1.69 5.06 1.69 8.06 4.69l-1 2c-4-2-4-2-5-4l-3.37.12c-3.63-.12-3.63-.12-5.63-2.12-7.15-.91-10.8 1.24-16.62 5.25-1.44.97-2.87 1.95-4.35 2.95-2.46 1.71-4.9 3.44-7.3 5.22-2.73 1.58-2.73 1.58-6.73.58 1.69-.97 3.39-1.94 5.13-2.94 3.58-2.06 7.03-4.17 10.43-6.53 9.39-6.51 15.18-7.9 26.38-5.22"/><path fill="#66655d" d="M84 40c3.96 5.28 6 8.31 6 15-5.01 4.4-10.1 7.86-16 11l-3-2c1-.64 2-1.28 3.03-1.93 1.29-.83 2.58-1.66 3.91-2.51.64-.41.64-.41 3.9-2.49C85 55 85 55 86 54c0-6 0-6-3-11z"/><path fill="#c04d2c" d="m227 153 2 1c1.42 7.25 1.09 14.64 1 22l-2-3-1 9h-1c-.22-4.08-.43-8.17-.62-12.25-.07-1.16-.13-2.32-.2-3.51-.41-8.79-.41-8.79 1.82-13.24"/><path fill="#de896e" d="M211 178h2l2 5h2c-1.15 5.77-3.28 8.52-7 13h-2c.81-6.04 1.89-12.01 3-18"/><path fill="#662517" d="M50 124c1.69 1.64 3.35 3.31 5 5 4.76 3.07 8.39 3.29 14 3l1 4c-6.16 1.95-10.38-.29-16-3-3.94-3.12-3.94-3.12-7-6l-3-2c2-1 2-1 6-1"/><path fill="#c74e30" d="M56 152c3 2 3 2 3.71 4.85.39 5.55.14 11.04-.15 16.59-.05 1.11-.1 2.22-.16 3.37-.12 2.73-.26 5.46-.4 8.19h-1c-.14-1.13-.29-2.27-.44-3.44C57 178 57 178 56 177c-.1-2.54-.13-5.08-.12-7.62-.01-.7-.01-.7-.01-4.23.12-3.8.51-7.4 1.13-11.15l-2-1z"/><path fill="#6b2015" d="m56 147 2 2c-1 4-1 4-4 8-.44 4.42-.5 8.79-.59 13.23-.07.62-.07.62-.41 3.77l-3 2c-.11-3-.19-6-.25-9-.05-1.67-.09-3.34-.14-5.06.47-6.01 2.07-10.62 6.39-14.94"/><path fill="#20d22f" d="M23 119c6.84 1.37 11.69 3.51 17 8 5.17 3.61 10.59 6.77 16 10l3 2v2c-2.63 1.73-5.3 3.39-8 5 1-3 1-3 5-7-.88-.25-1.75-.5-2.66-.76-3.47-1.29-5.89-2.83-8.84-5.05-.96-.72-1.92-1.43-2.9-2.16-1.95-1.52-3.83-3.13-5.66-4.78-3.98-3.05-8.26-4.54-12.94-6.25z"/><path fill="#7f2a11" d="m117 84-1 3c-1.11.12-2.23.25-3.38.38C109 88 109 88 107 90c-4.08-.38-7.98-1.2-12-2v8h-1c-.38-3.33-.71-6.66-1-10l1-1c3.07.29 6.15.59 9.21.94L106 86l2-2c3.58-.84 5.48-1.17 9 0"/><path fill="#95cf8e" d="M234 155c2.84 4.26 2.19 7.61 2.12 12.69-.01 1.73-.03 3.47-.05 5.26-.02 1.34-.05 2.67-.07 4.05h2l1-13h1c.51 19.81.51 19.81-5 29l-1-2 2-4v-6h-2z"/><path fill="#33ad3b" d="M81 173c9.7-.52 17.53-.53 26.35 3.76 3.75 1.75 7.61 2.44 11.65 3.24 2.01.63 4.02 1.29 6 2v1c-8.67-.58-16.67-2.75-24.38-6.75-5.76-1.99-11.58-1.48-17.62-1.25v3h-2z"/><path fill="#c84f2d" d="M59 148c7.61.37 12.45 2.4 19 6-3.32 1.11-6 1.24-9.5 1.31l-3.47.12c-1-.14-2-.29-3.03-.43-3-4-3-4-3-7"/><path fill="#e7f1e0" d="M261 112c-1 4-1 4-4.62 6.75C252 121 249.8 121.5 245 121l-2 5h-1v-5c3.11-3.11 5.53-4.38 9.5-6.19 1.14-.53 2.29-1.06 3.47-1.6C258 112 258 112 261 112"/><path fill="#b8e1bd" d="m222 181 2 1 1 5h-3l-1 3c4.82 3.62 7.14 3.26 13 3-.33.5-.33.5-2 3-5.28.59-6.61.29-11-3l-2 4h-2v-3l-2-1c.6-.87 1.2-1.73 1.81-2.62 1.98-3.06 3.63-6.1 5.19-9.38"/><path fill="#b4492e" d="M226 148c0 3 0 3-3 7-3.36.17-3.36.17-7.19-.25-1.27-.13-2.54-.26-3.85-.39-.98-.12-1.95-.24-2.96-.36 5.44-4.66 9.83-6.28 17-6"/><path fill="#ede7e1" d="m72 107 3 1-3 2c.6 3.69 1.27 7.34 2 11-1.48.5-1.48.5-9 3l-4-4c3-1 3-1 7-2 .1-1.44.21-2.89.31-4.38.23-1.52.46-3.05.69-4.62z"/><path fill="#e5f4e8" d="M268 61h2c0 5 0 5-3 9-.43 3.32-.78 6.66-1 10-2-2.67-4-5.33-6-8 2.17-4.34 4.72-7.45 8-11"/><path fill="#f2f7f0" d="M191 170c2.44.07 4.88.09 7.31.06 1.26-.01 2.51-.02 3.8-.02.96-.02 1.91-.03 2.89-.04v2c-.58.02-.58.02-3.54.11-1.54.07-3.07.13-4.65.2-1.52.06-3.04.12-4.6.18C188 173 188 173 183 176c-3.31-.31-3.31-.31-6-1l3-1v-2c4.57-2.66 5.54-3.09 11-2"/><path fill="#ce4d2b" d="M211 130h1c.81 4.69.81 4.69 1 10-1.94 2.69-1.94 2.69-5 5-1.3 1.18-2.6 2.35-3.94 3.56-3.26 2.76-6.44 5.18-10.06 7.44l-2-1 4-2v-4l4-1c3.69-2.79 6.2-5.27 9-9l2 1z"/><path fill="#ba492e" d="m53 113 2 1v6c-4.07 2.71-7.2 2.14-12 2l-2-4c1.61-.45 3.22-.91 4.88-1.38C51 115 51 115 53 113"/><path fill="#aa4431" d="M259 72c4.61 2.3 5.29 3.27 7 8-.01 8.88-1.79 17.15-6 25-2-4-2-4-2-6h2v-2h2c.08-2.73.14-5.46.19-8.19.03-1.52.07-3.04.1-4.6C262 80 262 80 259 75z"/><path fill="#c64830" d="M257 74c3 1 3 1 6 6 .33 3.7.33 3.7.25 7.69-.02 1.32-.03 2.65-.05 4.01C263 95 263 95 262 97h-2v2h-2l1-5c.12-2.56.17-5.12.19-7.69.01-1.32.03-2.65.04-4.01C259 79 259 79 257 77z"/><path fill="#62e16d" d="m260 115 2 1c-3.21 2.99-5.78 4.31-9.94 5.94-4.7 1.91-7.4 3.65-11.06 7.06-1.66 1.34-3.33 2.67-5 4l-2-1 6-7-4-1 6-2 1 3 2-5c.5.05.5.05 3 .31 5.07-.39 7.81-2.54 12-5.31"/><path fill="#6d1706" d="M229 109c1.09.83 2.19 1.65 3.31 2.5 5.72 3.05 9.29 3.1 15.69 2.5 3.5-1.56 3.5-1.56 6-3l3 1c-4.69 4.69-8.02 5.29-14.44 5.31-1.3.02-2.59.04-3.93.05C235 117 235 117 230 114v-2l-2-1z"/><path fill="#771d08" d="m42 88-1 4c.7.05.7.05 4.25.31C50 93 50 93 54 96v2h2l-1 8h-1c-.19-1.07-.37-2.14-.56-3.25C52 99 52 99 48.81 96.62 45 95 45 95 41.19 94.5c-1.05-.17-2.11-.33-3.19-.5l-2-4c4-2 4-2 6-2"/><path fill="#fcfcf9" d="M120 178c.93.07.93.07 5.62.44 10.12.73 20.25 1.13 30.38 1.56v1c-12.08 1.19-24.18 2.32-36-1z"/><path fill="#b0432e" d="M73 142c5.46 2.73 10.48 5.86 15 10 1.19 4 1.19 4 1 7-7.01-4.27-12.81-9.3-16-17"/><path fill="#680f07" d="M186 86h5c2 2 2 2 2.12 6.62L193 97l10-1 2 4-2 2v-3h-12l-1-10c-.99-.17-.99-.17-6-1z"/><path fill="#641b11" d="M51 169h1l4 18h2l1-6 2 2c-.38 3.62-.38 3.62-1 7l-4 1c-5.32-7.1-5.22-13.25-5-22"/><path fill="#f5fdf4" d="M50 149h1c.07 4.27.04 7.84-1 12-.2 2.31-.36 4.62-.5 6.94-.25 4.18-.67 7.93-1.5 12.06h-1c-.08-4.23-.14-8.46-.19-12.69-.02-1.2-.05-2.39-.07-3.63l-.03-3.5c-.02-1.07-.03-2.13-.05-3.23C47 154 47 154 50 149"/><path fill="#dc722c" d="m187 88 4 1v10h12c-.53 3.92-1.2 6.39-3 10v-8h-10c-1.72-3.44-1.05-7.22-1-11h-5z"/><path fill="#711905" d="M240 89h6l-2 4-11 3c-3.69 2.69-3.69 2.69-6 5l-1-4c4.56-4.44 7.65-5.67 14-6z"/><path fill="#aae5af" d="M235 125h5c-3.21 6.42-7.1 11.49-14 14l-2-1 5-2c-.16-.82-.16-.82-1-5l5-3z"/><path fill="#c0482e" d="M228 113c.82.33.82.33 5 2 2.67 1 5.33 2 8 3-.33.5-.33.5-2 3-4.44.38-4.44.38-9 0l-3-3z"/><path fill="#ad442f" d="M211 142c0 5.67-5.3 9.99-9 14-3.56 2.69-3.56 2.69-6 4v-3h2c.21-.89.43-1.78.65-2.7 1.64-4.01 3.55-5.55 6.97-8.18 1.01-.78 2.01-1.56 3.04-2.36.39-.29.39-.29 2.34-1.76"/><path fill="#6c2518" d="m214 134 5 1-3 1v5c.99.16.99.16 6 1v4l-9 2c-1.25-7.5-1.25-7.5 1-12z"/><path fill="#dcc6a0" d="M220.313 25.313c.89.23 1.77.45 2.69.69v1c-.83.18-1.65.37-2.5.56-4.72 1.94-7.74 5.01-11.5 8.44-2.65 2.02-5.31 4.03-8 6 1.84-3.69 3.59-6.03 6.31-9.07.76-.85 1.52-1.71 2.3-2.59 3.35-3.28 5.87-5.49 10.7-5.03"/><path fill="#d64e2d" d="m70 130 4 2c.75 3.12.75 3.12 1 6l2-2c.06 1.09.12 2.19.19 3.31.27 1.22.53 2.44.81 3.69l5 3c1.72 1.95 3.4 3.94 5 6-6.01-2.4-10.65-5.16-15-10-1.67-4.07-2.3-7.61-3-12"/><path fill="#75271a" d="m30 113 13 2-2 2 2 4c3.62.75 3.62.75 7 1v1c-4.25.75-4.25.75-9 1l-4-4v-2l-7-1z"/><path fill="#f2e8e4" d="M153 70h5c2.81 3.5 2.81 3.5 5 7l4-2v-3h9l1 4c-.53-.04-.53-.04-3.19-.25-4.43.29-5.51 1.48-8.81 4.25l-4-1a602 602 0 0 1-4-7z"/><path fill="#ceb088" d="M194 47c2.76 2.76 2.58 5.21 3 9 .89.04 1.77.08 2.69.12 4.35 1.16 5.72 3.3 8.31 6.88-4.04 0-5.75-1.61-9.06-3.88-1.07-.71-2.13-1.43-3.23-2.17C193 55 193 55 191 53c1-4 1-4 3-6"/><path fill="#dffae2" d="m85 35 1 2 3 1c3.52 6.64 5.72 11.35 5 19l-2 1-1-13-4 1c-2.11-4.22-2.18-6.4-2-11"/><path fill="#df7570" d="M144 140h6c-1 5-1 5-4 8h-6c1-5 1-5 4-8"/><path fill="#762717" d="M71 137c2 3 2 3 3 7h-2l1 4-9-1c-.16-.82-.16-.82-1-5l8-1z"/><path fill="#b34734" d="m21 75 4 1 1 4c-.82-.33-.82-.33-5-2v25c-4.26-6.39-3.47-13.57-3-21 1.5-4.44 1.5-4.44 3-7"/><path fill="#a2e19c" d="M116 68h5v3l2 2-5 2-1 3-4 1c-.19-3.81-.19-3.81 0-8z"/><path fill="#81e68b" d="M255 29c3.96 1.58 7.11 3.14 10.69 5.38.95.58 1.9 1.17 2.88 1.77C271 38 271 38 273 42l-7-4-3 3-3-2c-.14-1.16-.29-2.31-.44-3.5-.18-1.16-.37-2.31-.56-3.5l-4-2z"/><path fill="#ad9a81" d="m210 19 2 3-2 2 2 2-14 14c1.72-4.29 3.56-7.73 6-11.62l2.12-3.42c1.27-2 2.57-3.99 3.88-5.96"/><path fill="#e8f4e9" d="M212 3h2l-1 4-3 1-1 5h2c-2 5-2 5-4 7l-2-1-1 2h-2c2.59-6.47 6.14-12.21 10-18"/><path fill="#eafae9" d="m81 186 3 1c1.46 4.38 1.17 8.42 1 13-2 2-2 2-5.62 2.12L76 202v-2h6z"/><path fill="#80c87f" d="M66 195c.8.66 1.61 1.32 2.44 2 2.56 2 2.56 2 3.56 2l1-4 4 5-1 2c6.75-.88 6.75-.88 9-2l-2 4c-6.22.68-8.43.42-13.56-3.38C66 197 66 197 66 195"/><path fill="#eefcf0" d="M88 45h3c1.59 4.77 1.34 9.02 1 14-2.5 2.69-2.5 2.69-5 4l-2-3 2.06-1.88c2.82-4.53 1.76-7.99.94-13.12"/><path fill="#f7fcf4" d="M233 150c5.44 7.26 6.48 14.05 6 23l-1 4h-2l-.15-3.98c-.07-1.72-.15-3.44-.23-5.21-.06-1.7-.13-3.41-.21-5.17C235 158 235 158 233 153z"/><path fill="#a3efa9" d="M273 42c2.92 2.92 2.34 5.19 2.38 9.25.02 1.3.05 2.61.08 3.95-.52 4.29-1.82 6.44-4.46 9.8-2.27-4.53-1.93-6.18-1-11l2 4z"/><path fill="#f1f5f1" d="M59 11c2.27.09 4.54.2 6.81.31 1.27.06 2.53.12 3.83.18C73 12 73 12 76 15l-1 4-1-2c-3-.34-6-.68-9-1l-3-2v-2z"/><path fill="#f8f7f5" d="M206 175h1c-.78 16.89-.78 16.89-3 24h-1c-.08-2.87-.14-5.75-.19-8.62-.03-1.61-.07-3.21-.1-4.86.28-4.41 1-6.81 3.29-10.52"/><path fill="#d8512e" d="M88 152c4 1 4 1 7.62 3.12 1.12.62 2.23 1.24 3.38 1.88l2-1v3c.61.14.61.14 3.69.88C109 161 109 161 114 163c-4.64 1.16-5.65.6-9.88-1.31-3.08-1.38-6.01-2.66-9.25-3.61C92 157 92 157 88 153z"/><path fill="#e17039" d="M221 164h2c.28 5.42-.57 9.38-2.5 14.44-.46 1.23-.93 2.47-1.41 3.74L218 185l-1-2-2-1h2c.07-.43.07-.43.4-2.6.92-5.21 2.29-10.28 3.6-15.4"/><path fill="#f5f3ef" d="m177 77 3 1 1 6h11v1h-6v2l-7 1c-1.51-4.06-2-6.55-2-11"/><path fill="#f2f6f2" d="M38 24c-1 4-1 4-4 6h-6v-2h-5l-1-2c2.1-.34 4.21-.67 6.31-1 1.17-.19 2.35-.37 3.55-.56C35 24 35 24 38 24"/><path fill="#d25127" d="M65 165c.33.16.33.16 2 1 .78 2.58.78 2.58 1.5 5.81.86 3.84 1.72 6.63 3.5 10.19l2-1v8h-2c-3.67-8.12-5.84-15.17-7-24"/><path fill="#e7e9de" d="M194 88c2 1 2 1 3.12 4.06L198 95l4-1 4 2v2l4 2-1 3h-3l-2-5c-2.22-2.22-7.01-1.71-10-2z"/><path fill="#d15027" d="M55 154h2c-.01 1.6-.02 3.2-.04 4.86 0 2.11-.01 4.22-.02 6.33l-.03 3.19c-.01 4.73.16 8.97 1.09 13.62h-2c-1.76-3.51-1.34-7.5-1.5-11.38-.39-9.18-.39-9.18-1.5-13.62z"/><path fill="#e07832" d="M228 82h2c.17 5.47.09 9.9-2 15h-2c-.25-11.62-.25-11.62 2-15"/><path fill="#edefe5" d="m113 80 1 4c-4 1.18-7.9 2.18-12 3l-3-2 4-1-2-2z"/><path fill="#64665f" d="M190 51c.97.87 1.94 1.73 2.94 2.62 4.17 3.47 8.51 6.44 13.06 9.38l-3 2-14-10z"/><path fill="#c44631" d="m257 99 3 1v6l-3 3h-5c0-4.39 2.42-6.58 5-10"/><path fill="#de6d32" d="M62 163h3l3 16-3-1c-2.18-5.41-3-9.11-3-15"/><path fill="#d66131" d="M210 157c8.1-.45 8.1-.45 11 1v2l-11 1v2l-4 1c2-4 2-4 4-7"/><path fill="#de682b" d="m224 121 4 1 1 4c-4.06 1.51-6.55 2-11 2 2-4 2-4 6-7"/><path fill="#f4f1ec" d="M27 116c9.23 1.08 9.23 1.08 12.62 5.12.46.95.91 1.9 1.38 2.88l-2 2v-3h-4v-2l-5-1-4-3z"/><path fill="#eb7a21" d="M166 106v2c-1.11.25-2.23.5-3.38.75C159 110 159 110 157 114h-2v9h-1c-.25-10.38-.25-10.38 2-16 3.47-1.16 6.36-1.07 10-1"/><path fill="#57140c" d="M229 149c3 1 3 1 5 4 1.07 4.64 1.1 9.13 1.06 13.88-.01 1.33-.02 2.67-.02 4.05-.02 1.01-.03 2.03-.04 3.07h-1v-14h-2l-.88-3.94L230 152l-2-1z"/><path fill="#e17d33" d="m52 83 3 1c1.54 4.61 1.06 9.18 1 14h-2c-1.72-5.17-2.19-9.56-2-15"/><path fill="#d0cbbe" d="M104 172c-.33.16-.33.16-2 1l1 2c-.83-.16-.83-.16-5-1v-2h-5v-1l-13-1v-1c2.56-.22 5.12-.43 7.69-.62l4.32-.36c4.88-.03 7.96 1.29 11.99 3.98"/><path fill="#da6630" d="m79.063 109.938 3.94.06c-.33.17-.33.17-2 1l-1 3h-2v9l-2-1c-.41-1.98-.73-3.99-1-6-.17-.82-.17-.82-1-5 1-1 1-1 5.06-1.06"/><path fill="#e0502a" d="m23 79 3 1-1 4-1-1c-.27 6.58.05 11.1 3 17l1 4c-4.22-4.22-5.86-6.76-6.23-12.73.01-1.33.03-2.65.04-4.02.01-1.34.02-2.67.02-4.05C22 80 22 80 23 79"/><path fill="#571610" d="M78 182c2.42 3.64 2.39 5.86 2.62 10.19.08 1.27.15 2.54.23 3.85.05.98.1 1.95.15 2.96h-5c-2.31-2.5-2.31-2.5-4-5 .83.16.83.16 5 1v2h2c-.17-2.47-.17-2.47-1-15"/><path fill="#f1f5ee" d="m223 186 4 4 5 1 1-2 1 4c-3.05 1.52-5.64 1.24-9 1l-3-3z"/><path fill="#c0f7c7" d="M49 146h2c-1 4-1 4-3 8-.32 2.84-.32 2.84-.41 6.08l-.12 3.51-.09 3.66-.12 3.7c-.1 3.02-.18 6.03-.26 9.05h-1c-.08-4.54-.14-9.08-.19-13.62-.02-1.29-.05-2.58-.07-3.9l-.03-3.77c-.02-1.14-.03-2.28-.05-3.46.38-3.66 1.52-6.08 3.34-9.25"/><path fill="#762c1c" d="M224 113h1l1 7h-3l-2 4-3 2c-3.69-.88-3.69-.88-7-2l1-2c2.33-.36 4.66-.69 7-1l5-2z"/><path fill="#d9ccc4" d="M15 81c.95 3.79.98 6.34.81 10.19-.08 6.15 1.38 10.29 4.19 15.81l-1 2h-4v-2h2v-3h-2c-.89-4.43-1.13-8.13-1.12-12.62-.01-1.32-.01-2.63-.01-3.98C14 84 14 84 15 81"/><path fill="#7e3723" d="M153 71c.82.17.82.17 5 1 2.12 3.38 2.12 3.38 4 7l3 3-1 2c-4-1-4-1-5.75-3.81C157 77 157 77 157 73h-4z"/><path fill="#f48450" d="m110 131 3 3-1 4c-3-2-3-2-4-5-6.62.62-6.62.62-10 4l1-5c3.55-1.77 7.13-1.21 11-1"/><path fill="#d6502d" d="M229 104c2 3 2 3 2 5 12.86.14 12.86.14 18-1-5.62 4.22-10.08 4.58-17 4-2.62-2.31-2.62-2.31-4-5z"/><path fill="#530e09" d="M93 87h1l1 11c-4.67 1.17-8.26.63-13 0v5h-1c0-6 0-6 1-7 8.52-.24 8.52-.24 11 1z"/><path fill="#c6432a" d="M21 78h2c-.01 1.17-.02 2.34-.04 3.54 0 1.54-.01 3.07-.02 4.65-.01 1.52-.03 3.04-.04 4.6C23 95 23 95 24 100l-2-1v-2h-2c-.03-2.42-.05-4.83-.06-7.25-.01-1.35-.03-2.69-.04-4.08C20 82 20 82 21 78"/><path fill="#6e685f" d="M18 48h1v5h2c.89 1.91 1.76 3.83 2.62 5.75.49 1.07.98 2.13 1.48 3.23C26 65 26 65 24 69c-.43-1.18-.87-2.35-1.31-3.56-1.04-2.73-2.15-5.42-3.38-8.06C18 54 18 54 18 48"/><path fill="#64625c" d="m52 17 2 2-16 11-3-2c1.14-.71 2.29-1.42 3.46-2.15 1.48-.92 2.96-1.84 4.48-2.79 1.47-.91 2.94-1.83 4.46-2.77C51 18 51 18 52 17"/><path fill="#c1af95" d="M224 11c5.22 1.3 10.15 4.15 14 8 .04 2.67.04 5.33 0 8l4 2-3 1c-2-2-2-2-2.44-6.19-2.01-6.19-4.72-7.44-10.22-10.5-.77-.43-1.55-.86-2.34-1.31z"/><path fill="#6c1806" d="M60 163c2.56 3.83 3.73 7.58 5 12l-1 4v-2h-4z"/><path fill="#e8792a" d="M123 109c4 1 4 1 5.69 3.5 1.56 4.18 1.97 8.07 2.31 12.5h-2l-1 3h-1c.05-.87.09-1.74.14-2.63.36-11.45.36-11.45-4.14-16.37"/><path fill="#e3ceaa" d="m25 47 2 1-3 4c.36 3.45.36 3.45 1.31 7.25.31 1.26.61 2.53.93 3.83.25.96.5 1.93.76 2.92-3.01-1.5-3.4-3.76-4.69-6.81-.46-1.06-.91-2.12-1.38-3.21C20 53 20 53 21 49h2z"/><path fill="#4c4f4a" d="m195 40 1 2h2c-1.97 3.94-3.89 5.97-7 9l-2 3c.37-6.04 2.26-9.3 6-14"/><path fill="#c0ae94" d="m28 31 5 2c-4 1-4 1-10 1-2.99 1.31-2.99 1.31-5.88 3L12 40c2.34-7.02 9.3-9 16-9"/><path fill="#f3f8f3" d="M221 2v2h-5l-1 5-3 4h-3c1-5 1-5 4-7l1-3c2-1 2-1 7-1"/><path fill="#58df67" d="M57 8c6.83-.39 12.51.89 19 3l3 3-1 2c-4-2-4-2-5-4l-3.38.12C66 12 66 12 64 10c-2.32-.4-4.66-.74-7-1z"/><path fill="#db6933" d="M228 152h2c2.35 4.69 2.2 7.54 2.12 12.75-.01 1.54-.03 3.08-.05 4.67-.02 1.18-.05 2.36-.07 3.58h-1z"/><path fill="#e6f3e3" d="m57 141 2 1c-5.75 9.62-5.75 9.62-8 13-.38-4.19-.38-4.19 0-9 3-3.06 3-3.06 6-5"/><path fill="#783424" d="M50 157c3.26 4.35 3.41 5.43 3.38 10.62 0 1.15.01 2.3.02 3.48-.13.96-.26 1.91-.4 2.9l-3 2z"/><path fill="#e6ece0" d="M229 132v4l-4 2-1 2h-2v-3h-3v-2c6.62-3 6.62-3 10-3"/><path fill="#6a1303" d="m216 125 2 1-4 7 7 1c-4 1-4 1-7 0l1 7c-3-6-3-6-3-12z"/><path fill="#752c20" d="M248 117c-7.46 6.05-7.46 6.05-12.19 5.62-1.26-.2-2.51-.41-3.81-.62v-1c1.13-.14 2.27-.29 3.44-.44C239 120 239 120 240 119l-2-2c3.69-1.23 6.21-.64 10 0"/><path fill="#e67b38" d="M39 95c6.06-.42 9.28.08 14 4 1 2 1 2 1 8-.33.16-.33.16-2 1-.08-1.09-.16-2.19-.25-3.31C51 101 51 101 47 98c-2.65-.74-5.31-1.42-8-2z"/><path fill="#68675f" d="M228 10c8.62 4.63 8.62 4.63 12 8-.31 4.69-.31 4.69-1 9h-1l.12-3.56c-1.67-6.63-5.39-7.96-11.12-11.44z"/><path fill="#f0e8e3" d="M49 161h1l1 24c-3-3-3-3-3.07-7.89.12-1.91.25-3.83.38-5.8.12-1.92.24-3.84.37-5.82.1-1.48.21-2.96.32-4.49"/><path fill="#ca4e30" d="m189 156 3 1c-4.74 4.74-8.65 6.05-15 8l-4-1c1.79-.62 3.59-1.24 5.44-1.88C184 160 184 160 185 158z"/><path fill="#732b1f" d="M57 132h12l1 4c-5.28 1.42-8.17.41-13-2z"/><path fill="#dff7e1" d="M266 37c5 3 5 3 7 5l-1 4-2-2c-.82-.33-.82-.33-5-2 0-4 0-4 1-5"/><path fill="#c2af95" d="M56 20c-1.28.76-2.56 1.53-3.88 2.31C48 25 48 25 46 28c-5 2-5 2-9 3 4.15-4.72 12.44-13.19 19-11"/><path fill="#752911" d="m152 72 5 1c-1 2-1 2-5 4l-4 4h-3c1.24-4.95 2.83-6.19 7-9"/><path fill="#595750" d="M74 66c-1.95 1.34-3.91 2.67-5.88 4-1.09.74-2.18 1.48-3.3 2.25C62 74 62 74 60 74c2.93-5.86 7.35-9.66 14-8"/><path fill="#a9786c" d="m208 175 2 1c1 4.63 1.01 8.38 0 13l-2-4c-.33.16-.33.16-2 1 .88-7.62.88-7.62 2-11"/><path fill="#55e161" d="M48 133c4.23 1.69 7.38 3.31 11 6v2c-2.63 1.73-5.3 3.39-8 5 1-3 1-3 5-7-.95-.25-1.9-.5-2.88-.75C50 137 50 137 48 133"/><path fill="#ba452e" d="M257 74c3 1 3 1 6 6 .07 3.33.07 3.33-.31 6.81-.12 1.16-.24 2.33-.37 3.52-.1.88-.21 1.76-.32 2.67h-1a485 485 0 0 0-.88-6.88c-.16-1.27-.32-2.55-.49-3.86C259 79 259 79 257 77z"/><path fill="#7e2a1d" d="M21 72c1 3 1 3-.38 6.06C18.69 82.74 18.34 86.98 18 92h-1c-1.61-11.78-1.61-11.78.88-16.75C20 73 20 73 21 72"/><path fill="#9f6c5e" d="m217 185 3 1c-1.97 4.33-3.52 6.52-7 10v-2l-2-1c.62-.76 1.24-1.53 1.88-2.31C215 188 215 188 217 185"/><path fill="#641606" d="m57 116 3 4-4 2-4 3c-4.75.19-4.75.19-9 0 3.08-3.08 6.91-3.69 11-5l2-1z"/><path fill="#eae0db" d="M117 113c.66.17.66.17 4 1 1 4 1 4 0 6l-5-1c0-5 0-5 1-6"/><path fill="#d0e1c8" d="m47 180 3 3 2-3 2 9-2-1-1 4c-2.78-4.63-3.49-6.84-4-12"/><path fill="#721f0e" d="M207 149c.82.33.82.33 5 2v3c.82.33.82.33 5 2-4.41 1.1-5.89.59-10-1v-2h-2z"/><path fill="#ef8b25" d="M175 84c2 4 2 4 2 7h7v2c-3 1-3 1-9 1v-4l-3-1v-2h3z"/><path fill="#87301f" d="M59 161h1l1 18 2 1-1 5c-3.85-5.14-3.31-7.9-3.19-14.25.03-1.82.06-3.64.08-5.52.04-1.39.07-2.79.11-4.23"/><path fill="#b8ecba" d="m264 107 3 2c-2 4-2 4-6 6v-3l-2-1c3-3 3-3 5-4"/><path fill="#9bd99f" d="m66 193-1 2H54v-3c8.62-1.25 8.62-1.25 12 1"/><path fill="#6f271d" d="m113 172 11 2-3 3c-3.69-.31-3.69-.31-7-1z"/><path fill="#d66632" d="m74 157 1 2c-4.53 2.27-6.18 1.93-11 1v-2c3.2-1.6 6.48-1.06 10-1"/><path fill="#db5e2b" d="m136 148 4 2c3.01-.24 6.01-.56 9-1l-1 4c-4.31.19-4.31.19-9 0l-3-3z"/><path fill="#711c12" d="m148 145 2 3c-5.37 3.22-6.26 3.24-12 2v-2c1.28-.12 2.56-.25 3.88-.38C146 147 146 147 148 145"/><path fill="#da6529" d="M56 122c5 2 5 2 8 4v3c-5-1-5-1-8-4z"/><path fill="#701a08" d="M51 113v3c-5.3 2.12-7.53 1.93-13 1v-1c9.62-3 9.62-3 13-3"/><path fill="#21c22b" d="M184 56c1.13.87 2.27 1.73 3.44 2.62 4.44 3.29 8.94 6.35 13.56 9.38-.33.16-.33.16-2 1-3.22-1.73-3.22-1.73-7.06-4.19-1.27-.8-2.54-1.59-3.85-2.42C185 60 185 60 184 56"/><path fill="#61625b" d="M84 40c3.96 5.28 6 8.31 6 15h-2c-.27-1.05-.54-2.1-.81-3.19C86 48 86 48 83 43z"/><path fill="#42d84d" d="M243 14c2 1 2 1 3.75 5.31 2.29 4.78 3.66 6.29 8.25 8.69-.33.16-.33.16-2 1-4.44-2.44-4.44-2.44-9-6-1.06-4.88-1.06-4.88-1-9"/><path fill="#f2f3eb" d="m51 186 2.25 2.06c.45.32.45.32 2.75 1.94 4-1 4-1 6-2v4h-8l-1 2c-2-4-2-4-2-8"/><path fill="#60150d" d="M257 112c-3 3-3 3-7 5h-5v-2c8.62-4.12 8.62-4.12 12-3"/><path fill="#edebe6" d="M220 77c.82.17.82.17 5 1 1.26 3.77.37 5.37-1 9l-1-4h-2z"/><path fill="#6d1f0f" d="m170 75 5 1-4 2c-.82.72-1.65 1.44-2.5 2.19-.41.3-.41.3-2.5 1.81l-4-1c3.69-3.06 3.69-3.06 8-6"/><path fill="#f0ece6" d="M261 69h3c2.11 4.22 2.18 6.4 2 11-2-2.67-4-5.33-6-8z"/><path fill="#ccab81" d="M208 64c7.35.37 7.35.37 10.5 3.44C220 70 220 70 220 72c-4.69-1.88-8.02-3.96-12-7z"/><path fill="#af9b80" d="M250 37c5 2 5 2 9 6l-3 1a147 147 0 0 1-8-5z"/><path fill="#65635a" d="m204 33 1 4c-1.16.99-1.16.99-7 6l-3-3 4-1c2.75-3.06 2.75-3.06 5-6"/><path fill="#722717" d="M213 166c1.38 4.13.15 6.88-1 11l-3-2c-.19-4.12-.19-4.12 0-8 2-1 2-1 4-1"/><path fill="#7f311b" d="m117 84-1 3-8 1v-4c5.62-1.12 5.62-1.12 9 0"/><path fill="#692119" d="M259 72c4 2 4 2 6 6l-1 5c-5-7.5-5-7.5-5-11"/><path fill="#69190b" d="M119 73h4v2l-3 1c-1.69 4.06-1.69 4.06-3 8h-2c1.75-8.75 1.75-8.75 4-11"/><path fill="#52524f" d="m5 42 2 4c1.18 1.77 2.39 3.52 3.62 5.25 1.12 1.57 2.23 3.13 3.38 4.75l-2 2a471 471 0 0 1-3.5-5.19c-.65-.96-1.3-1.92-1.97-2.92C5 47 5 47 5 42"/><path fill="#b7452d" d="m52 124 1 2h2v2l5 1 2 2-4 1c-4.25-2.94-4.25-2.94-8-6z"/><path fill="#e6682a" d="m52 83 1 12c-4-4-4-4-4.25-7.75.08-1.07.16-2.14.25-3.25 2-1 2-1 3-1"/><path fill="#61615d" d="m14 34 2 2c-1.28.91-2.56 1.81-3.88 2.75C8 42 8 42 6 46c-.16-.83-.16-.83-1-5z"/><path fill="#ecd2a4" d="m54 28 2 1c-4.58 4.58-7.63 6.73-14 8 3.82-3.82 7.32-6.36 12-9"/><path fill="#636054" d="M222 22c4.84 2.42 9.37 5.2 14 8l-2 2c-2.15-1.32-2.15-1.32-13-8z"/><path fill="#661b12" d="m232 174 2 1c.38 7.5.38 7.5-3 12-.07-4.58-.12-8.54 1-13"/><path fill="#b46f5c" d="M202 162h3l1 6-5 1z"/><path fill="#b64d2e" d="M201 161v8l-1-3h-7c5-5 5-5 8-5"/><path fill="#f2e8e3" d="M159 112h4v6l-5-1z"/><path fill="#a73d2d" d="M234 112c2.31.17 2.31.17 14 1v2c-3.66.13-7.34.12-11 0z"/><path fill="#cf6f29" d="m187 88 4 1v10h-2v-9h-5z"/><path fill="#eb8e1c" d="m143 78 2 1v2l5-2c-2 4-2 4-7 6l-4-1 3-1z"/><path fill="#f2f8f1" d="M167 72h9l1 4-10-2z"/><path fill="#a09181" d="M22 63c3.34 3.34 4.41 7.63 6 12l-1 2-7-11 2-1z"/><path fill="#636159" d="M251 33c4.21 1.69 7.32 3.43 11 6l-1 2c-4.21-1.69-7.32-3.43-11-6z"/><path fill="#57eb5d" d="M81 173h11l-1 2h-8v3h-2z"/><path fill="#6e1604" d="M225 162h1c.08 5.13.03 9.96-1 15h-1c-.85-5.63-1.3-9.71 1-15"/><path fill="#e6d8d2" d="M220 141h5l8 8-1 3c-.56-.74-1.11-1.49-1.69-2.25-3.04-3.62-6.39-6.14-10.31-8.75"/><path fill="#97df99" d="M242 122c-.37 6.4-.37 6.4-3.56 9.44-.4.26-.4.26-2.44 1.56l-2-1 6-7-4-1c5-2 5-2 6-2"/><path fill="#f2fdf0" d="M58 101c2.42 3.64 2.39 5.86 2.62 10.19.08 1.27.15 2.54.23 3.85.03.49.03.49.15 2.96-2.97-5.93-4.6-10.43-3-17"/><path fill="#edf0ee" d="M201 65c5 .48 7.98 2.03 12 5l-3 2q-4.53-2.955-9-6z"/><path fill="#a09483" d="m205 27 2 1c-2.03 5.08-4.37 7.98-8 12 0-5.1 3.37-8.77 6-13"/><path fill="#996154" d="M207 183c2 2 2 2 2.25 5.44C209 192 209 192 207 195c-1.49-2.99-1.12-5.7-1-9z"/><path fill="#681806" d="m157 120 2 1c.62 3.06.62 3.06 1 6h6v2c-3.31-.12-3.31-.12-7-1-2-2.94-2-2.94-3-6z"/><path fill="#eaf4e6" d="M235 125h5c-2 4-2 4-6 7 0-6 0-6 1-7"/><path fill="#b9978f" d="M92 87h1v10l-10-1v-1h8v-6z"/><path fill="#7a2812" d="M240 89h6l-2 4-8-1 4-1z"/><path fill="#6a645c" d="m59 72 2 3c-4.21 3.13-5.55 4-11 4 2.97-2.39 5.95-4.71 9-7"/><path fill="#cafad0" d="m196 29 1 4h-2l-1 5c-.33.16-.33.16-2 1l-1 3h-2c1.91-4.77 4.23-8.69 7-13"/><path fill="#cef0d2" d="m84 29 3 4c-1 4-1 4-3 7-2.08-4.97-2.14-5.65 0-11"/><path fill="#d7c29b" d="M71 18c2.98 2.98 4.49 5.1 6 9l-2 4v-3h-2c-.33-1.67-.33-1.67-2-10"/><path fill="#db512e" d="M202 148c-2.19 4.39-3.91 5.51-8 8l-2-1 4-2v-4c4-1 4-1 6-1"/><path fill="#671506" d="M68 131h3c1.03 4.53 1.18 5.64-1 10v-4l-3-1-1-2h3z"/><path fill="#bf5033" d="M215 129h11c-2.51 2.51-4.61 3.05-8 4h-4z"/><path fill="#d96030" d="m76 123-1 3-3 1-3 3c-.17-.82-.17-.82-1-5 5.75-2 5.75-2 8-2"/><path fill="#8deb94" d="M202 67c5 2 5 2 7 6-5-1-5-1-8-4z"/><path fill="#d9ba90" d="m200 41 2 1c-2 4-2 4-6 7 0-4 0-4 4-8"/><path fill="#b94c30" d="M69 150c4.11 1.19 5.89 1.89 9 5l-10-1z"/><path fill="#d06733" d="M219 148h7v3h-8z"/><path fill="#ce5531" d="m70 130 4 2c.75 4.62.75 4.62 1 9l-3-1z"/><path fill="#d87132" d="m53 113 2 1v5h-6c3-5 3-5 4-6"/><path fill="#5e584c" d="m263 64 2 1-6 9-3-2z"/><path fill="#f7f8f7" d="M88 45h3l1 9c-.33.16-.33.16-2 1z"/><path fill="#f0e2c2" d="m28 43 3 1-3 1v2c-5 3-5 3-7 4 1-4 1-4 3.88-6.31.51-.28.51-.28 3.12-1.69"/><path fill="#eaf4e6" d="m69 193 3 1c1.19 3.06 1.19 3.06 2 6-4-1-4-1-6-3z"/><path fill="#eaf0e4" d="m261 112-1 4-4 2v-3l-2-1c4-2 4-2 7-2"/><path fill="#490c05" d="M161 109h5c1 2 1 2 .06 5.12L165 117l-2-4-3-3z"/><path fill="#d56c23" d="m116 107 7 2v1c-.93.27-1.86.54-2.81.81C117 112 117 112 114 115l-1-4 3-1z"/><path fill="#ebf6e8" d="M268 103c-.38 2.94-.38 2.94-1 6-.33.17-.33.17-2 1l-1-2c-.33.17-.33.17-2 1 2.4-6 2.4-6 6-6"/><path fill="#702a1d" d="M94 85c2.34.29 4.67.62 7 1v1l-5 1-1 8h-1c-.38-3.33-.71-6.66-1-10z"/><path fill="#e7d4a9" d="m263 53 4 2 1 4c-.99.83-.99.83-6 5l2-4c0-5 0-5-1-7"/><path fill="#706e65" d="M87 50h1l1 6-6 4-1-3 4-3z"/><path fill="#f3f7f4" d="m14 30 3 1-1 3-5 2-1-2z"/><path fill="#5e1a14" d="M172.188 172.813c.63.03.63.03 3.81.19-3.13 3.13-6.72 2.63-11 3 3-3 3-3 7.19-3.19"/><path fill="#d6602d" d="M55 154h2v7h-3l-1-4z"/><path fill="#d86b39" d="M59 148c6 0 6 0 8 1v2h-8z"/><path fill="#672417" d="M222 142c3 1.81 3 1.81 6 4v3h-2v-2h-5z"/><path fill="#c24e33" d="M64 127c3 3 3 3 4 6h-7l-1-2h4z"/><path fill="#701b05" d="M236 122v1c-4.59.08-8.47-.09-13-1v-2c5.19-1.3 8.07.19 13 2"/><path fill="#681e0e" d="M198 96h5l2 4-2 2v-3h-5z"/><path fill="#b2f1b8" d="M266 73c3 1 3 1 4 3v6l-4-4z"/><path fill="#e9fcea" d="M115 71h3v2l-2 2v3l-3 1c0-6 0-6 2-8"/><path fill="#d9f5dd" d="m65 71 4 2v2l-7 4-1-3h4l-1-4z"/><path fill="#74281b" d="m179 169 2 2-1 2h-10c2.99-1.99 5.6-2.94 9-4"/><path fill="#e45726" d="M206 129c2 2 2 2 2 5l3 1v5h-2c-1.84-3.99-3-6.56-3-11"/><path fill="#d96d30" d="m228 113 4 2-2 4-3-1z"/><path fill="#caf4cd" d="M214 76h8c-.33.17-.33.17-2 1l1 6-1-3c-.82-.33-.82-.33-5-2z"/><path fill="#d3b990" d="m26 66 3 1v2l3-1-1 4-3 1z"/><path fill="#eaf9ec" d="M230 7c.66.17.66.17 4 1v4l-5-1z"/><path fill="#e2d3cd" d="m222 181 2 1 1 5h-3l-2 2c0-5 0-5 2-8"/><path fill="#681103" d="m216 146 10 1v1l-11 1z"/><path fill="#c55828" d="M153 131h1v14h-3z"/><path fill="#e7f8e8" d="M53 135h7v6l-1-2c-.83-.33-.83-.33-5-2z"/><path fill="#e3fde6" d="m12 100 3 1v3h2v3h-3c-2-4-2-4-2-7"/><path fill="#faf9f3" d="M194 88c2 1 2 1 4 5v3h-4z"/><path fill="#60180d" d="M186 86h5l2 4c-.33.17-.33.17-2 1l-1-2c-3.06-.62-3.06-.62-6-1z"/><path fill="#e9eceb" d="M195 33c.66.16.66.16 4 1l-4 7h-1z"/><path fill="#cff5d2" d="m206 13 1 2-1 2 3 1-2 2-2-1-1 2h-2c2-5 2-5 4-8"/><path fill="#c5502e" d="m75 161-1 2 2 1h-4l-3-3c2-1 2-1 6 0"/><path fill="#a94831" d="M214 144h7l1 2-9 2z"/><path fill="#cffad2" d="M35 123h4v3h4l1 3c-4.83-1.29-5.84-1.79-9-6"/><path fill="#65504c" d="M23 72c4 4 4 4 5 9l-6-6z"/><path fill="#f0e3c1" d="M260 50c5 1 5 1 8 4l-1 3-2-3c-.82-.33-.82-.33-5-2z"/><path fill="#535957" d="m195 40 1 2h2l-1 3-4 1-1-2z"/><path fill="#e8d3aa" d="m248 42 5 1-1 2 3 3-6-2v-2l-2-1z"/><path fill="#d3fbd5" d="M79 20c2.72 3.15 3.97 4.87 5 9h-2v-2h-2z"/><path fill="#7b2919" d="m73 171 4 1-1 5h-2z"/><path fill="#82270e" d="m66 160 4 2-1 3-7-2z"/><path fill="#822610" d="m59 151 5 5h-3l-1 4z"/><path fill="#45c950" d="M49 146h2c-1 4-1 4-4 9-1-3-1-3 .44-6.19.51-.93 1.03-1.85 1.56-2.81"/><path fill="#792515" d="m82 98 2 1c.41 2.66.75 5.32 1 8h-3c-1-4-1-4 0-9"/><path fill="#5b0a01" d="M93 87h1l1 11-4 1v-2h2z"/><path fill="#666258" d="M22 59c3 3 3 3 4 8l-2 2c-1.32-3.62-2-6.1-2-10"/><path fill="#d1f7d4" d="m75 13 4 3-1 4-2-1-1 2z"/><path fill="#c4f8ca" d="M212 3h2l-1 4-3 1v3h-2c2-5 2-5 4-8"/><path fill="#621b13" d="m225 185 1 3h5l-1 3-4-1c-.16-.82-.16-.82-1-5"/><path fill="#b64e34" d="m67 144 5 1 1 3-7-2z"/><path fill="#580f06" d="m57 116 3 4c-4 2-4 2-7 3 2-4 2-4 4-7"/><path fill="#4a0906" d="M118 110h5c-.33.17-.33.17-2 1v2l-6 2c2-4 2-4 3-5"/><path fill="#f9f6f2" d="m72 107 3 1-4 3c-.75 3.19-.75 3.19-1 6h-1c-.19-3.88-.19-3.88 0-8z"/><path fill="#f6f7ee" d="m91 83 7 1c-4 2-4 2-8 3z"/><path fill="#591d17" d="m21 72 1 3c-.33.5-.33.5-2 3h-2l-1 2c1-5 1-5 4-8"/><path fill="#f0f7f2" d="M213 73c.99.17.99.17 6 1v3l-6-2z"/><path fill="#cafacf" d="m201 21 1 4-4 4-1-2z"/><path fill="#eccf9d" d="M217 25c.99.16.99.16 6 1v1l-8 2z"/></svg>