<svg xmlns="http://www.w3.org/2000/svg" width="286" height="238"><path fill="#9e361f" d="M215.625-.5c1.34 0 2.68.01 4.05.02 9.55.16 17.67 1.21 26.33 5.48.94.41 1.89.82 2.87 1.25 17.22 8.23 28.16 24.25 35.5 41.25 4.99 17.46 2.99 38.2-5.13 54.25-5.94 10.18-13.63 19.74-24 25.5-4.76 2.89-5.15 3.45-7.06 9.13-.39 1.85-.78 3.71-1.18 5.62-4.2 7.41-9.29 13.69-17.07 17.5-2.93 1.5-2.93 1.5-6.25 4.88-3.92 3.86-7.8 6.14-12.68 8.62.4.86.4.86 2.43 5.19 5.97 12.71 4.51 27.64.57 40.81-3.13 7.41-3.13 7.41-7 10-6 0-6 0-11-3-.89 1.24-1.78 2.47-2.69 3.75-4.92 6.31-4.92 6.31-8.31 8.25-4.07.5-4.07.5-8 0-4-4-4-4-4.5-7.21.14-8.7 1.23-16.38 3.5-24.79-11.62-.93-19.99.7-30.68 5.25-11.59 4.7-23.13 4.96-35.5 5.37-4.15.33-7.04.86-10.82 2.44-9.16 3.55-18.02 2.9-27-1.06q-4.515-2.985-9-6c-3.31-1.39-6.64-2.74-10-4l-1-1c-2.02-.23-4.04-.41-6.07-.56-1.96-.15-3.92-.29-5.93-.44.21.85.43 1.7.65 2.57 1.99 8.4 3.51 16.79 2.35 25.43-3 4-3 4-7.26 4.62-5.82-.76-7.76-2.4-11.74-6.62-2.44-3.37-2.44-3.37-4-6l-4 3c-4.3.62-6.21.58-9.76-2-8.26-11.02-6.93-25.97-6.24-39 2.13-10.52 7.37-16.03 16-22 .82-.33.82-.33 5-2-.35-.76-.35-.76-2.07-4.62-2.61-7.25-2.61-7.25-.93-11.38 4.1-4 4.1-4 7-4-.17-.33-.17-.33-1-2-.46-4.65-.66-7.09 2.12-10.94 3.1-2.22 5.11-2.8 8.88-3.06-.09-1.07-.17-2.14-.26-3.25.26-3.75.26-3.75 4.26-7.75h3v-2c.99-.16.99-.16 6-1 .08-1.07.16-2.14.24-3.25.76-3.75.76-3.75 4.76-7.75 2.98-.36 2.98-.36 6.31-.19 4.71.16 9.03.06 13.69-.81.43-1.42.86-2.85 1.31-4.31 1.69-4.69 1.69-4.69 4.69-7.69 5.5-.44 5.5-.44 11 0 3 4 3 4 4 7 1.31-1.32 2.64-2.64 4-4l-2-1c2-4 2-4 3-5 5.06-.51 7.29-.51 11.5 2.5.82.83 1.65 1.65 2.5 2.5l2.06-2c3.75-2.56 5.47-2.77 9.94-2 3.93 3 3.93 3 7 6 .65-.5.65-.5 4-3 8.88-.89 8.88-.89 12.5 2 1.79 3.59 2.7 7.07 3.5 11 1.31-.33 2.63-.66 4-1-.77-1.61-1.53-3.22-2.32-4.88-7.83-17.5-8.95-36.56-2.56-54.74 7.78-18.82 22.2-32.57 40.88-40.38 7.95-3.29 15.15-3.54 23.62-3.5M111.005 94c.32.66.65 1.32 1 2 .65-.33 1.31-.66 2-1-.99-.33-1.99-.66-3-1m82 47 1 3Z"/><path fill="#ee6c20" d="M102 95c4.89 1.22 6.01 3.09 9 7 4-1 4-1 6.5-3.62.41-.4.41-.4 2.5-2.38 4 1 4 1 6.25 4.44C128 104 128 104 128 106c5-2 5-2 8.12-4.62C139 99 139 99 142 99c.45 1.38.91 2.76 1.38 4.19 1.11 3.3 2.33 6.57 3.62 9.81 5.75-.88 5.75-.88 8-2h6v12c.93-.08 1.85-.17 2.81-.25 1.2-.11 2.39-.21 3.63-.31 1.19-.11 2.39-.21 3.62-.32L174 122l1 1c-.09 2.19-.25 4.38-.44 6.56-.1 1.2-.2 2.4-.31 3.63-.08.93-.16 1.86-.25 2.81h10c1 4 1 4-1 8-.38 1.99-.73 3.99-1 6l9 1 1 4c-.62.72-1.24 1.44-1.88 2.19-2.12 2.81-2.12 2.81-2.24 7.06-1.46 7.89-7.29 11.2-13.57 15.66-17.35 11.48-37.3 19.23-58.31 19.09-1-1-1-1-1.1-3.72.03-3.1.07-6.19.1-9.28 1.63-.47 3.26-.95 4.94-1.44C125 183 125 183 126 182v-5c-7.49-2.57-14.01-4.15-21.94-4.19-1.37-.01-2.74-.03-4.15-.04-3.76.22-6.39 1-9.91 2.23-4.04.51-8.07.88-12.12 1.24-5.38 1.05-8.62 3.12-11.94 7.45C64 186 64 186 59 187c-3.81-3.44-3.81-3.44-7-7 2.75 5.75 2.75 5.75 5 8-.57 3.35-1.24 6.69-2 10-3-1-3-1-5.62-4.94-2.48-5.27-3.14-9.29-3.38-15.06h-2v7c-9.17-7.37-11.98-12.44-14-24-1.29-1.7-2.61-3.38-4-5 1-5 1-5 2-6 2.33-.37 4.66-.7 7-1-.55-4.04-1.2-8-2-12 2.22-2.22 7.01-1.71 10-2 1.11-4.43.59-7.52 0-12l1-1c4.02.18 8 .62 12 1v-12c6 0 6 0 9.75.62.54.07.54.07 3.25.38l2-2c2.66-.4 5.33-.74 8-1l1.75-5.44c.98-3.06.98-3.06 2.25-5.56l4-1c2.37 1.96 4.71 3.96 7 6h3c1.75-2.61 3.43-5.28 5-8"/><path fill="#f6f1ea" d="M238.21 22.387c13.43 7.77 21.72 17.27 27.79 31.61 2.98 14.91 2.16 28.98-6 42-8.23 10.91-17.71 18.25-31 22-4.4.3-8.58.19-13 0v-3l2-1c.3-5.28.32-6.57-3-11-5.8 1.16-7.8 2.95-12 7l-3 5c-9.64-1.01-17.18-8.31-23.22-15.52-8.58-11.91-10.84-25-9.78-39.48 3-13.85 10.11-24.15 21-33 14.87-8.94 33.89-12.25 50.21-4.61"/><path fill="#9fe09d" d="M215.625-.5c1.34 0 2.68.01 4.05.02 9.55.16 17.67 1.21 26.33 5.48.94.41 1.89.82 2.87 1.25 17.22 8.23 28.16 24.25 35.5 41.25 4.99 17.46 2.99 38.2-5.13 54.25-5.94 10.18-13.63 19.74-24 25.5-4.76 2.89-5.15 3.45-7.06 9.13-.39 1.85-.78 3.71-1.18 5.62-4.2 7.41-9.29 13.69-17.07 17.5-2.93 1.5-2.93 1.5-6.25 4.88-3.92 3.86-7.8 6.14-12.68 8.62.4.86.4.86 2.43 5.19 5.97 12.71 4.51 27.64.57 40.81-3.13 7.41-3.13 7.41-7 10-6 0-6 0-11-3-.89 1.24-1.78 2.47-2.69 3.75-4.92 6.31-4.92 6.31-8.31 8.25-4.07.5-4.07.5-8 0-4-4-4-4-4.5-7.21.14-8.7 1.23-16.38 3.5-24.79-11.62-.93-19.99.7-30.68 5.25-11.59 4.7-23.13 4.96-35.5 5.37-4.15.33-7.04.86-10.82 2.44-9.16 3.55-18.02 2.9-27-1.06q-4.515-2.985-9-6c-3.31-1.39-6.64-2.74-10-4l-1-1c-2.02-.23-4.04-.41-6.07-.56-1.96-.15-3.92-.29-5.93-.44.21.85.43 1.7.65 2.57 1.99 8.4 3.51 16.79 2.35 25.43-3 4-3 4-7.26 4.62-5.82-.76-7.76-2.4-11.74-6.62-2.44-3.37-2.44-3.37-4-6l-4 3c-4.3.62-6.21.58-9.76-2-8.26-11.02-6.93-25.97-6.24-39 2.13-10.52 7.37-16.03 16-22 .82-.33.82-.33 5-2-.35-.76-.35-.76-2.07-4.62-2.61-7.25-2.61-7.25-.93-11.38 4.1-4 4.1-4 7-4-.17-.33-.17-.33-1-2-.46-4.65-.66-7.09 2.12-10.94 3.1-2.22 5.11-2.8 8.88-3.06-.09-1.07-.17-2.14-.26-3.25.26-3.75.26-3.75 4.26-7.75h3v-2c.99-.16.99-.16 6-1 .08-1.07.16-2.14.24-3.25.76-3.75.76-3.75 4.76-7.75 2.98-.36 2.98-.36 6.31-.19 4.71.16 9.03.06 13.69-.81.43-1.42.86-2.85 1.31-4.31 1.69-4.69 1.69-4.69 4.69-7.69 5.5-.44 5.5-.44 11 0 3 4 3 4 4 7 1.31-1.32 2.64-2.64 4-4l-2-1c2-4 2-4 3-5 5.06-.51 7.29-.51 11.5 2.5.82.83 1.65 1.65 2.5 2.5l2.06-2c3.75-2.56 5.47-2.77 9.94-2 3.93 3 3.93 3 7 6 .65-.5.65-.5 4-3 8.88-.89 8.88-.89 12.5 2 1.79 3.59 2.7 7.07 3.5 11 1.31-.33 2.63-.66 4-1-.77-1.61-1.53-3.22-2.32-4.88-7.83-17.5-8.95-36.56-2.56-54.74 7.78-18.82 22.2-32.57 40.88-40.38 7.95-3.29 15.15-3.54 23.62-3.5m-45.27 24.88c-13.07 14.56-17 29.71-16.67 48.9.39 7.13 1.62 13.13 4.32 19.72.42 1.04.84 2.09 1.28 3.16 6.85 15.1 19.75 26.11 34.72 32.84h3c-.03 1.13-.05 2.27-.07 3.44.07 3.56.07 3.56 1.07 4.56 1.74 6.47 2.18 12.32 2 19-1.16.33-1.16.33-7 2 .33-.66.65-1.32 1-2v-6c-4.01-2-4.01-2-9-2 .51-1.22 1.03-2.43 1.56-3.69 1.44-4.31 1.44-4.31.44-9.31-4.22-2.11-6.4-2.18-11-2 .33-1.32.65-2.64 1-4 .18-3.63.18-3.63 0-7-2-2-2-2-7.63-2.12l-5.37.12.12-4.88c-.12-5.12-.12-5.12-2.12-7.12-5.08-.4-9.19.43-14 2-.2-.84-.39-1.69-.59-2.55-.26-1.1-.52-2.2-.79-3.33-.26-1.09-.51-2.18-.77-3.3-.85-2.82-.85-2.82-2.85-4.82-5.93 0-6.76 1.22-11 5-.5.16-.5.16-3 1l-2-5c-.5-.66-.5-.66-3-4-5.01 0-5.01 0-7.63 2.5-.78.83-1.57 1.65-2.37 2.5h-3c-.79-.99-1.57-1.98-2.38-3-.87-.99-1.73-1.98-2.62-3h-5c-3.02 3.01-3.96 4.81-5 9-1.39-1.18-2.77-2.35-4.19-3.56-1.59-1.14-3.18-2.27-4.81-3.44-5 1-5 1-7 3-1.05 2.98-2.06 5.98-3 9-1.12.12-2.23.25-3.38.38-3.62.62-3.62.62-5.62 2.62-3.38-.11-6.68-.52-10.04-.91l-2.96-.09c-2 2-2 2-2.13 7.12.04 1.61.08 3.22.13 4.88-.33-.16-.33-.16-2-1-4-.19-4-.19-8 0-2 2-2 2-2.19 6.44.19 4.56.19 4.56 1.19 7.56-.9.07-.9.07-5.44.44-5.56.56-5.56.56-6.56 1.56.09 2.02.24 4.05.43 6.06.19 1.96.37 3.92.57 5.94-.57.2-.57.2-3.44 1.19-1.18.6-2.35 1.19-3.56 1.81-1.22 6.08-.01 6.87 3 12 .74 3.94.74 3.94 1 7h-6c-2.64 1.57-2.64 1.57-5.13 3.69-.83.68-1.66 1.37-2.51 2.07-6.09 5.76-8.12 10.45-8.67 18.88-.05 22.33-.05 22.33 5.31 30.36 4-1 4-1 6-4 .39-2.99.73-5.99 1-9h2c.16.82.16.82 1 5 2.9 6.5 6.27 12.62 12 17l5-1c-.38-10.05-1.47-19.27-4-29-.17-.66-.17-.66-1-4l3.74.94c3.98.8 7.32 1.2 11.32 1.37 6.23.72 8.88 2.18 13.94 5.69 1.17.33 2.35.66 3.56 1 4.2 1.22 6.91 3.44 10.44 6 5.04 2.3 9.49 2.43 15 2 1.56-.64 3.13-1.28 4.74-1.94 5.47-2.19 10.45-2.39 16.32-2.56 15.05-.47 33.08-2.93 45.94-11.5 3.26-.12 6.54-.12 9.81-.06 10.92.18 10.92.18 16.19-.94l-2 5c-.8 3.61-1.52 7.24-2.19 10.88-.18.95-.18.95-1.11 5.8-.61 4.58-.68 7.86.3 12.32 7.19-1.44 9.04-4.63 13.18-10.56 2.82-4.44 2.82-4.44 4.82-8.44.65 1.32 1.31 2.64 2 4 .99 1.65 1.97 3.3 3 5h4c6.01-12.58 7.37-28.64 3-42-2.67-4.22-4.53-5.32-9-8-.34-.66-.66-1.32-1-2 .82-.06 1.65-.12 2.5-.19 4.52-1.05 7.63-3.27 11.5-5.81 1.07-.47 2.14-.95 3.24-1.44 2.76-1.56 2.76-1.56 4.5-4.44 3.19-4.42 7.42-5.7 12.26-8.12 5.29-5 7.68-10.13 10-17l.06-3.75c.94-3.25.94-3.25 5.81-6.06 1-.49 1.99-.98 3.02-1.49 14.02-7.67 23.36-22.77 28.11-37.7.81-4.31.81-4.31 1-9 .06-1.11.12-2.22.18-3.36.58-17.37-4.86-33.72-16.25-46.95-11.13-11.43-26.26-20.22-42.49-20.82-20.69.04-36.78 5.12-52.09 19.51M111.005 94c.32.66.65 1.32 1 2 .65-.33 1.31-.66 2-1-.99-.33-1.99-.66-3-1m82 47 1 3Z"/><path fill="#741e0c" d="M101 92h5c2.81 3 2.81 3 5 6 4-1 4-1 8-5h5c5 6 5 6 5 9 5-3 5-3 9-6h5c2.57 2.57 2.8 4.61 3.62 8.12.27 1.1.53 2.2.79 3.33.2.84.39 1.68.59 2.55l3.06-1c3.88-.98 6.97-1.31 10.94-1 2 2 2 2 2.12 7.12L164 120l5.38-.12C175 120 175 120 177 122c.22 4.01-.02 7.09-1 11 1.05-.06 2.1-.12 3.19-.19C183 133 183 133 188 136c-.14.85-.29 1.69-.44 2.56-.57 3.48-1.07 6.95-1.56 10.44l-4 1c0-6 0-6 2-10v-3l-10-1c-1.02-4.63-.84-8.34 0-13h-13v-12c-1.2.31-2.39.62-3.62.94-3.47.84-6.86 1.53-10.38 2.06-2.74-4.86-3.93-9.55-5-15-3.85 2.1-6.88 3.88-10 7h-4l-5-9c-4 1-4 1-6.5 3.62L114 103c-4.93-1.23-5.84-3.19-9-7h-3a141 141 0 0 0-5 8c-5.49-1.1-6.29-2.19-10-6h-3l-1.94 5.44C80 109 80 109 79 110c-1.3.14-2.6.29-3.94.44C71 111 71 111 69 113c-3.25-.31-3.25-.31-7-1-1.13-.19-2.27-.37-3.44-.56-.84-.15-1.69-.29-2.56-.44v12H44c.21 1.77.41 3.55.62 5.38.07.92.07.92.38 5.62-3.13 3.13-6.73 2.63-11 3l1 5c.39 2.32.73 4.66 1 7-1.97 1.97-5.35 1.66-8 2l-1 5 1.81 2.12c2.19 2.88 2.19 2.88 3 8.13 1.66 8.04 5.41 11.97 11.19 17.75l1-6h2c.41 1.84.83 3.67 1.25 5.56 1.25 5.02 2.78 9.13 5.75 13.44.33.16.33.16 2 1v-6c.16-.66.16-.66 1-4-1.28-1.71-2.62-3.37-4-5l-1-4c1.09.97 2.19 1.94 3.31 2.94C58 185 58 185 61 186c4-2 4-2 6.25-4.94 4.74-5.28 10.05-6.12 16.87-6.62C90 174 90 174 92.89 172.99c10.02-3.2 21.33-1.05 31.11 2.01.5.33.5.33 3 2v5l-2 2h-3c1-4 1-4 2-6-10.75-1.91-21.21-3.16-32-1 .43.77.87 1.54 1.31 2.34.56 1 1.12 2 1.69 3.04.56.99 1.11 1.99 1.69 3.02C98 188 98 188 98 190l6-3 2 2-2 2c.5.33.5.33 3 2-7.63 1.12-7.63 1.12-11 0-1.61-2.71-2.94-5.5-4.3-8.34C90 182 90 182 85 179c-6.27-.52-8.49-.31-14 3-4.99 5.41-4.54 10.97-5 18-.33.16-.33.16-2 1-1.84-3.68-1.05-7.96-1-12l-4 3c-.25 5.19-.25 5.19 0 10l-4-1c-3-.2-6-.36-9-.5-4.55-.21-8.59-.4-13-1.5.3.8.59 1.59.9 2.41 1.32 4.3 2.03 8.53 2.72 12.97.27 1.61.53 3.23.79 4.89.54 4.31.7 8.4.59 12.73l-5 1c-6.02-5.74-9.71-11.39-13-19v-3h-2c-.1 1.4-.21 2.81-.31 4.25C17 220 17 220 14 224l-4-1c-3.16-7.97-4.17-15.23-4.25-23.75-.03-1.71-.05-3.41-.08-5.17.42-6.52 1.38-11.8 5.71-16.86.86-.71 1.73-1.42 2.62-2.16.43-.36.43-.36 2.62-2.21C21.14 169.34 21.78 169 28 169c-1.07-5.51-2.07-9.12-5-14l1-5c3.56-1.81 3.56-1.81 7-3l-1-12c4.48-1.71 6.98-2 12-2l-1-3c-.19-4.56-.19-4.56 0-9 2-2 2-2 6-2.19 4 .19 4 .19 6 1.19l-.12-4.88C53 110 53 110 55 108c3.6-.21 6.77-.04 10.31.62.89.13 1.78.25 2.69.38l2-2c2.32-.4 4.66-.74 7-1l1.88-4.88C81 96 81 96 83 94c5.74 1.15 8.48 3.4 13 7 .27-.93.54-1.86.81-2.81C98 95 98 95 101 92"/><path fill="#e1f4df" d="M215.625-.5c1.34 0 2.68.01 4.05.02 9.55.16 17.67 1.21 26.33 5.48.94.41 1.89.82 2.87 1.25 17.22 8.23 28.16 24.25 35.5 41.25 4.99 17.46 2.99 38.2-5.13 54.25-5.94 10.18-13.63 19.74-24 25.5-4.76 2.89-5.15 3.45-7.06 9.13-.39 1.85-.78 3.71-1.18 5.62-4.2 7.41-9.29 13.69-17.07 17.5-2.93 1.5-2.93 1.5-6.25 4.88-3.92 3.86-7.8 6.14-12.68 8.62.4.86.4.86 2.43 5.19 5.97 12.71 4.51 27.64.57 40.81-3.13 7.41-3.13 7.41-7 10-6 0-6 0-11-3-.89 1.24-1.78 2.47-2.69 3.75-4.92 6.31-4.92 6.31-8.31 8.25-4.07.5-4.07.5-8 0-4-4-4-4-4.5-7.21.14-8.7 1.23-16.38 3.5-24.79-11.62-.93-19.99.7-30.68 5.25-11.63 4.71-23.44 5.14-35.87 5.44-4.45.31-4.45.31-8.45 2.31-.99-.33-1.99-.66-3-1 5.66-3.4 8.31-3.38 14.81-3.5 24.54-.85 24.54-.85 30.19-6.5 3.32-.72 6.65-1.38 10-2 .65-.33.65-.33 4-2 3.58-.14 7.16-.17 10.74-.12.96 0 .96 0 5.8.05.74.01.74.01 4.46.07-.02 1.07-.03 2.14-.04 3.25l-.03 4.19-.03 4.18c.1 3.38.1 3.38 1.1 4.38.07 2.19.08 4.38.06 6.56l-.03 3.63-.03 2.81c3.37-.75 3.37-.75 7-2 .65-1.32 1.31-2.64 2-4 .48-.72.48-.72 2.93-4.38 2.33-3.5 4.31-6.82 6.07-10.62 2 2 2 2 3.37 6.06.54 1.3 1.07 2.6 1.63 3.94 1.31.33 2.63.66 4 1 3.78-13.65 6.75-28.18 2-42-2.74-3.32-5.55-5.41-9-8v-2c1.56-.6 3.13-1.2 4.74-1.81 5.26-2.19 5.26-2.19 9.26-5.19.99-.43 1.98-.87 3-1.31 3-1.69 3-1.69 4.74-4.57 3.2-4.43 7.41-5.73 12.26-8.12 5.46-5.11 8.74-12.08 9.23-19.57.77-3.43.77-3.43 3.39-5.58.56-.3.56-.3 3.38-1.79 15.08-8.64 24.72-21.43 30-38.06.81-4.31.81-4.31 1-9 .06-1.11.12-2.22.18-3.36.58-17.42-4.89-33.76-16.31-47.02-10.76-11.03-25.81-19.17-41.43-19.75-20.16.04-36.24 4.68-51.31 18.73-8.07 9.09-13.44 19.6-16.13 31.4l-2-3h-3v27h2c.18 1.01.36 2.03.55 3.07.25 1.34.5 2.68.76 4.05.24 1.33.48 2.65.74 4.01.9 3.68 2.21 6.53 3.95 9.87v3l-4-1h2c-.77-1.61-1.53-3.22-2.32-4.88-7.83-17.5-8.95-36.56-2.56-54.74 7.78-18.82 22.2-32.57 40.88-40.38 7.95-3.29 15.15-3.54 23.62-3.5"/><path fill="#711b09" d="M184 170c.33.16.33.16 2 1-10.24 18.16-28.29 27.74-47.62 33.75-12.07 2.81-23 3.5-35.38 3.25v2h20v1c-1.39.03-2.78.05-4.21.08-10.25.31-18.34 1.07-27.79 4.92-7.13.77-11.69-.66-18-4-.43-.35-.43-.35-2.62-2.12C67.4 207.53 64.64 207 61 206c-.53-.34-.53-.34-3.19-2.06-5.32-2.71-9.86-2.67-15.81-2.94v-1h16c-.06-1.26-.12-2.52-.19-3.81C58 192 58 192 61 189h2c.14 1.63.29 3.26.44 4.94C64 199 64 199 65 200c.06-1.84.12-3.67.19-5.56.48-5.8 1.75-9.1 5.81-13.44 5.51-3.31 7.73-3.52 14-3 6.24 3.74 7.57 6.7 11 13v2h7l1-5-3 2h-3c-6-9.06-6-9.06-6-13 10.16-4.06 21.77-2.41 32 1l-2 7-7 1c.17 1.05.33 2.1.5 3.19.5 3.81.5 3.81.5 8.81 23.62-.39 47.77-8.56 65.19-24.94.93-1.01 1.85-2.02 2.81-3.06"/><path fill="#e36a26" d="m234 7 2.95.96C253.15 13.65 265.84 23.74 274 39c6.42 14.25 10 29.7 5 45h-3c.16-.8.32-1.6.48-2.43 2.66-18.38-.17-33.28-10.48-48.57-8.86-11.81-21.21-20.65-36-23-7.36-.4-14.65-.54-22 0l-2 2c.16.5.16.5 1 3h20v2c-.63.02-.63.02-3.84.15-1.68.07-3.36.15-5.1.23-.83.03-.83.03-5.02.21C199.28 18.72 187.38 23.61 178 34c-5.64 7.19-9.25 14.3-12 23l-3-2c-.5.16-.5.16-3 1l-1 5h-1c-1.11 20.01 2.84 33.37 15.25 49.12 5.5 5.68 11.65 9.6 18.37 13.69 1.12.72 2.23 1.45 3.38 2.19v2c-12.52-2.5-23.59-12.95-31-23-9.68-16.69-13.48-35.32-8.64-54.34C162.28 31.03 174.58 18.41 193 9c12.31-4.93 28.28-6.31 41-2"/><path fill="#f2901a" d="M102 95c4.89 1.22 6.01 3.09 9 7 4-1 4-1 6.5-3.62.41-.4.41-.4 2.5-2.38 4 1 4 1 6.25 4.44C128 104 128 104 128 106c5-2 5-2 8.12-4.62C139 99 139 99 142 99c1.79 5.3 3.51 10.6 5 16l3.75-.94c2.75-.68 5.5-1.37 8.25-2.06.07.9.07.9.44 5.44C160 123 160 123 161 124c2.02.07 4.04.08 6.06.06L173 124l-1 11c-5.06 0-6.88-2.09-10.69-5.18-4.11-3.23-8.65-5.49-13.31-7.82v-2h-3v-2l-4-1c-1.77-.66-3.55-1.32-5.38-2-9.97-3.55-9.97-3.55-14.62-2l-3-3v2l-5 3-3-1c-.16-.5-.16-.5-1-3-2.67-.04-5.33-.04-8 0l-1 1c-2.37.33-4.75.61-7.12.88-10.57 1.38-10.57 1.38-14.88 4.12-1.94 3.19-1.94 3.19-3 6l-2-1v-2c-7.29 1.27-11.5 5.33-17 10l-2-1 3-4-2-2c.03-4.04.57-7.98 1-12 6 0 6 0 9.75.62.54.07.54.07 3.25.38l2-2c2.66-.4 5.33-.74 8-1l1.75-5.44c.98-3.06.98-3.06 2.25-5.56l4-1c2.37 1.96 4.71 3.96 7 6h3c1.75-2.61 3.43-5.28 5-8"/><path fill="#732411" d="M187 162c2.57 2.57 2.54 4.48 3 8l5 1v1l-7 2v2l3-1q4.5-.06 9 0c.16.33.16.33 1 2-1.49.25-2.97.5-4.5.75-5.1 1.16-8.95 2.72-13.5 5.25l9 1v2c-.87.14-1.74.27-2.64.41-9 1.63-15.77 4.52-23.36 9.59 10 .43 17.4-.27 26-6h4c-.16-.66-.16-.66-1-4 3 1 3 1 4 2v-3h2v5l1 1c.06 4.79.02 9.56-.04 14.35-.04 4.99-.04 9.76 1.04 14.65h2c.12-.78.25-1.57.38-2.38.47-2.73 1.04-5.45 1.65-8.15 1-5.66 1.17-10.85 1.09-16.59-.01-1.86-.03-3.72-.05-5.64-.02-1.4-.05-2.8-.07-4.24 3.83 3.83 3.19 9.38 3.25 14.5-.05 9.01-1.17 17.34-5.25 25.5l-5-1c-1.81-4.06-1.81-4.06-3-8-3.65 1.82-4.64 5.8-6.48 9.26-2.33 4.2-4.53 7.08-8.52 9.74h-4c-1.67-6.94-.09-12.99 1.38-19.81.23-1.15.46-2.29.71-3.47 1.74-8.38 1.74-8.38 2.91-10.72-.79.17-1.58.34-2.39.52-4.51.6-8.82.38-13.36.23-8.28-.05-13.03 1.02-20.25 5.25-11.02 3.49-21.26 5.15-32.81 5.06-.59 0-.59 0-3.55-.01-2.88-.01-5.76-.03-8.64-.05v-2c5-1 5-1 10.56-.81 24.91.14 47.06-10.22 65.25-26.63 5.08-5.67 7.56-10.97 8.19-18.56"/><path fill="#e6ece0" d="m247 130 3 1c-2.68 11.76-7.32 19.44-17 27l-3.06 1.5c-2.94 1.5-2.94 1.5-6.25 4.88-3.93 3.86-7.8 6.14-12.69 8.62.8 1.71 1.61 3.42 2.44 5.19 5.97 12.71 4.51 27.64.56 40.81-3.12 7.41-3.12 7.41-7 10-6 0-6 0-11-3-.44.62-.44.62-2.69 3.75-4.92 6.31-4.92 6.31-8.31 8.25-4.06.5-4.06.5-8 0-4-4-4-4-4.5-7.21.14-8.7 1.23-16.38 3.5-24.79-11.62-.93-19.99.7-30.68 5.25-11.62 4.71-23.43 5.14-35.86 5.44C105 217 105 217 101 219l-3-1c5.66-3.4 8.31-3.38 14.81-3.5 24.54-.85 24.54-.85 30.19-6.5 3.32-.72 6.66-1.38 10-2l4-2c3.58-.14 7.17-.17 10.75-.12 1.91.01 3.83.03 5.8.05 1.47.02 2.94.05 4.45.07-.01 1.07-.02 2.14-.04 3.25 0 1.38-.01 2.76-.02 4.19-.01 1.38-.03 2.76-.04 4.18.1 3.38.1 3.38 1.1 4.38.07 2.19.08 4.38.06 6.56-.01 1.2-.02 2.4-.02 3.63-.02.93-.03 1.86-.04 2.81 3.38-.75 3.38-.75 7-2l2-4c.97-1.44 1.94-2.89 2.94-4.38 2.32-3.5 4.3-6.82 6.06-10.62 2 2 2 2 3.38 6.06.53 1.3 1.07 2.6 1.62 3.94.66.16.66.16 4 1 3.78-13.65 6.76-28.18 2-42-2.74-3.32-5.54-5.41-9-8v-2c1.57-.6 3.13-1.2 4.75-1.81C209 167 209 167 213 164c.99-.43 1.98-.87 3-1.31 3-1.69 3-1.69 4.75-4.57 3.19-4.43 7.4-5.73 12.25-8.12 4.86-4.55 6.74-9.81 9-16 1 4 1 4 0 6l3-1c1.19-4.56 1.19-4.56 2-9"/><path fill="#e66026" d="M85 178c6.24 3.74 7.57 6.7 11 13v2c6.31.25 10.33-1.17 16-4 0 7.23-1.68 9.34-6 15-6 5.69-10.06 8.29-18.38 8.31-1.28.02-2.57.04-3.89.05-6.36-.62-9.16-2.76-13.54-7.36-4.63-5.81-4.72-9.61-4.19-17 4.59-8.25 9.66-10.78 19-10"/><path fill="#cdc3c1" d="M238.21 22.387c13.43 7.77 21.72 17.27 27.79 31.61 2.98 14.91 2.16 28.98-6 42-8.23 10.91-17.71 18.25-31 22-4.4.3-8.58.19-13 0v-3c2.72-1.36 5.22-1.33 8.25-1.62 10.45-1.43 19.55-5.61 26.75-13.38l3-3.12c7.68-9.92 11.2-21.37 10-33.88-2.77-13.34-9.04-23.84-20-32-8.1-4.88-15.64-7.15-25-8v8l-3 1v-9c-13.67 1.37-25.36 5.85-35 16-9.51 12.84-11.1 24.12-10 40 3.24 11.48 9.83 19.69 19 27 4.31 2.38 4.31 2.38 8 4l4 2-2 3c-9.64-1.01-17.18-8.31-23.22-15.52-8.58-11.91-10.84-25-9.78-39.48 3-13.85 10.11-24.15 21-33 14.87-8.94 33.89-12.25 50.21-4.61"/><path fill="#e96c1f" d="M218.375 8.563c18.4.14 31.65 6.33 44.62 19.44 10.2 11.79 15.3 25.15 15.26 40.68 0 .81 0 .81.01 4.89-.24 3.93-.79 6.81-2.27 10.43h3c.17-.5.17-.5 1-3-.32 1.98-.65 3.96-1 6h-3c-.16.49-.16.49-1 3h-6c-.92-3.72-1.07-6.38-.99-10.17.02-1.2.04-2.41.05-3.65.05-2.51.1-5.03.16-7.55.17-14.68-4.42-25.86-13.9-36.95-7.93-6.78-16.85-12.22-27.32-13.68v-3c-3.46.16-3.46.16-21 1-.33-1.32-.65-2.64-1-4 4.3-4.3 7.38-3.44 13.38-3.44"/><path fill="#732613" d="M101 92h5c2.81 3 2.81 3 5 6 4-1 4-1 8-5h5c5 6 5 6 5 9 5-3 5-3 9-6h5c2.57 2.57 2.8 4.61 3.62 8.12.14.55.14.55.79 3.33.2.84.39 1.68.59 2.55l3.06-1c3.88-.98 6.97-1.31 10.94-1 2 2 2 2 2.12 7.12L164 120l5.38-.12C175 120 175 120 177 122c.22 4.01-.02 7.09-1 11 1.05-.06 2.1-.12 3.19-.19C183 133 183 133 188 136c-.14.85-.29 1.69-.44 2.56-.57 3.48-1.07 6.95-1.56 10.44l-4 1c0-6 0-6 2-10v-3l-10-1c-1.02-4.63-.84-8.34 0-13h-13v-12c-1.2.31-2.39.62-3.62.94-3.47.84-6.86 1.53-10.38 2.06-2.74-4.86-3.93-9.55-5-15-3.85 2.1-6.88 3.88-10 7h-4l-5-9c-4 1-4 1-6.5 3.62L114 103c-4.93-1.23-5.84-3.19-9-7h-3a141 141 0 0 0-5 8c-5.49-1.1-6.29-2.19-10-6h-3l-1.94 5.44C80 109 80 109 79 110c-1.3.14-2.6.29-3.94.44C71 111 71 111 69 113c-3.25-.31-3.25-.31-7-1-1.13-.19-2.27-.37-3.44-.56-.84-.15-1.69-.29-2.56-.44v12H44c.21 1.77.41 3.55.62 5.38.13 1.85.25 3.71.38 5.62-3.13 3.13-6.73 2.63-11 3l1 5c.39 2.32.73 4.66 1 7-1.97 1.97-5.35 1.66-8 2l-1 5 1.81 2.12c2.19 2.88 2.19 2.88 3 8.13 1.44 6.97 3.62 9.44 8.19 14.75l2 4c-9.75-2.88-9.75-2.88-12-4l2-4-3-4c-5.19.25-5.19.25-10 1v-3c3-2 3-2 9-2-1.07-5.51-2.07-9.12-5-14l1-5c3.56-1.81 3.56-1.81 7-3l-1-12c4.48-1.71 6.98-2 12-2l-1-3c-.19-4.56-.19-4.56 0-9 2-2 2-2 6-2.19 4 .19 4 .19 6 1.19l-.12-4.88C53 110 53 110 55 108c3.6-.21 6.77-.04 10.31.62.89.13 1.78.25 2.69.38l2-2c2.32-.4 4.66-.74 7-1l1.88-4.88C81 96 81 96 83 94c5.74 1.15 8.48 3.4 13 7 .27-.93.54-1.86.81-2.81C98 95 98 95 101 92"/><path fill="#f6f0ec" d="M154 52c.03 1.79.05 3.57.08 5.41.52 25.04.52 25.04 4.92 35.59.42 1.04.85 2.08 1.28 3.14 6.13 13.54 17.09 24.25 30.78 29.92.55.2.55.2 3.35 1.23 2.59 1.71 2.59 1.71 3.4 5.33.06 1.12.12 2.23.19 3.38l1 1c1.92 6.71 1.97 12.1 1 19-1.16.33-1.16.33-7 2v-8l-8-2c.67-4 1.33-8 2-12-3.9-1.95-6.72-2.51-11-3l.06-5.44C176 122 176 122 175 121c-3.66-.37-7.33-.7-11-1-.14-1.63-.29-3.26-.44-4.94C163 110 163 110 162 109c-4.78-.19-9.28.23-14 1-.28-.85-.55-1.71-.84-2.59-.36-1.1-.72-2.21-1.1-3.35l-1.09-3.34C144 98 144 98 143 97c-5.93 0-6.71 1.27-11 5h-3c1-5 1-5 4.06-7.81 4.51-2.51 6.87-3.02 11.94-2.19 3.85 3.34 4.85 7.13 6 12h7l-1.06-2.45c-.23-.53-.23-.53-1.38-3.24-.22-.53-.22-.53-1.37-3.2-1.95-5.1-2.3-9.71-2.19-15.11h-2V53c3-1 3-1 4-1m39 89 1 3Z"/><path fill="#b6e0b5" d="m185 199-2 5c-.59 2.59-1.13 5.2-1.62 7.81-.27 1.35-.53 2.7-.79 4.08-.2 1.03-.39 2.05-.59 3.11h-3c-.12-10.5-.12-10.5 1-15-3.38.09-6.75.2-10.12.31l-5.7.18c-4.76.47-7.13 1.22-11.18 3.51-4.38.19-4.38.19-8 0l-1 3c-2.77.91-2.77.91-6.25 1.62l-3.45.73c-1.09.22-2.18.43-3.3.65l-5 1c-5.36.27-10.73.44-16.09.62C103 216 103 216 98 218v2c-8.85 2.21-17.64 1.69-26-2-5.06-3.06-5.06-3.06-9-6v-2c-.97-.27-1.94-.54-2.94-.81-1.01-.39-2.02-.79-3.06-1.19l-1-3c-1.05.01-2.1.02-3.18.04-.68 0-.68 0-4.13.02-1.36.01-2.72.03-4.12.04C41 205 41 205 38 204l1 2c1.26 9.95 1.34 19.98 1 30l-1 1h-6c-.16-.5-.16-.5-1-3h5c.49-9.86-1.34-19.3-3-29-.33-2-.67-4-1-6 3.34.2 6.67.44 10 .69 1.86.13 3.71.25 5.62.38 5.66.98 8.74 2.67 13.38 5.93 1.18.33 2.35.66 3.56 1 4.2 1.22 6.92 3.44 10.44 6 5.05 2.3 9.49 2.43 15 2 1.57-.64 3.13-1.28 4.75-1.94 5.47-2.19 10.44-2.39 16.31-2.56 15.05-.47 33.08-2.93 45.94-11.5 3.31-.12 6.63-.12 9.94-.06 5.39.09 12.15-1.58 17.06.06"/><path fill="#db582a" d="M165 54c.99 4.93.93 8.88.75 13.88-.05 15.52 4.73 27.3 15.48 38.43 5.34 5.01 10.85 8.38 17.77 10.69l-3 12c-.33-.16-.33-.16-2-1l-1-3c-.65-.36-.65-.36-3.94-2.19-15.67-8.71-24.17-20.44-30.67-36.87-1.67-5.92-1.87-11.2-1.83-17.32l-.06-3.26c0-3.13 0-3.13.5-8.36 4-3 4-3 8-3"/><path fill="#e85923" d="M240 129c-.38 8.17-2.49 13.49-8.31 19.31-6.42 4.03-12.14 5.35-19.69 4.69-8.38-5.03-8.38-5.03-10.06-10.38.06-3.62.06-3.62 2.18-6.93 6.42-6 13.23-4.78 21.43-4.57 5.06-.14 9.49-2.12 14.45-2.12"/><path fill="#7c2710" d="M198 174c5.4 1.08 6.54 1.97 10 6 4.16 12.47.86 27.83-3 40h-2c-2.52-5.75-2.19-11.48-2.06-17.62.18-10.9.18-10.9-.94-15.38l1-2h-2v3l-3-1v3c-2.33 1.01-4.66 2.01-7 3-1.51.72-3.01 1.44-4.56 2.19-6.69 2.23-12.47 2.17-19.44 1.81 3.52-3.52 5.67-5.08 10-7.19.52-.25.52-.25 3.12-1.54 4.75-2.1 8.76-2.37 13.88-2.27v-2h-10c4.91-4.91 11.11-7.29 18-8z"/><path fill="#b74631" d="M184 170c.33.16.33.16 2 1-10.24 18.16-28.29 27.74-47.62 33.75-10.44 2.43-19.7 3.48-30.38 3.25l6-12 2 2c21.66 1.17 43.86-8.3 61-21 2.4-2.26 4.77-4.57 7-7"/><path fill="#eaf1e4" d="m272 34 4 1c3.03 5.05 4.39 9.36 6 15 .52 1.37 1.03 2.75 1.57 4.16 4.79 16.19 1.64 33.27-6.07 47.9-6.4 10.6-14.66 19.82-25.5 25.94h-2v2h-3c-.12 1.44-.25 2.89-.38 4.38C246 139 246 139 244 141l-2-1c-.43-4.6-.37-8.57 1-13 3.89-3.48 8.4-5.58 13-8 12.08-9.22 20.98-23.28 23.81-38.31.06-1.55.13-3.1.19-4.69.03-.55.03-.55.19-3.36.43-12.99-2.72-23.92-8.19-35.64z"/><path fill="#ddf1d8" d="m21 161 3 2v3c-1.13.35-2.27.7-3.44 1.06-6.91 2.94-12.11 6.32-15.8 12.98-2.02 5.68-2.23 10.13-2.14 16.15.02 1.89.03 3.78.04 5.73.29 4.29.91 7.13 2.34 11.08v6h2v-5h1l3 9c.66-.16.66-.16 4-1l3-11h2l1.57 3.32c.7 1.44 1.4 2.88 2.12 4.37.68 1.42 1.37 2.85 2.07 4.32 3.03 5.4 5.72 8.23 11.24 10.99-.66.16-.66.16-4 1v2c.99-.16.99-.16 6-1 .1-10.73.01-21.31-1-32 2.94.09 5.88.2 8.81.31 1.64.06 3.27.12 4.96.18C56 205 56 205 59 208l4 3c-4.76-.55-6.66-1.39-11-4-3.11-.51-3.11-.51-6.31-.69-1.88-.1-3.76-.2-5.69-.31.22.85.43 1.7.66 2.57 1.99 8.4 3.5 16.79 2.34 25.43-3 4-3 4-7.25 4.62-5.82-.76-7.76-2.4-11.75-6.62-2.44-3.38-2.44-3.38-4-6l-4 3c-4.29.62-6.21.58-9.75-2-8.26-11.02-6.94-25.97-6.25-39 2.14-10.52 7.38-16.03 16-22l5-2z"/><path fill="#62180d" d="M217.375 16.813c1.64-.01 3.27-.03 4.96-.04 12.42.61 23.6 6.84 32.85 14.85 11.59 13.3 14.36 26 13.81 43.38h-1c-.05-.52-.05-.52-.33-3.15-1.85-16.27-5.77-28.95-17.67-40.85-14.09-10.75-27.76-12.41-45-11-7.76 1.84-13.95 5.86-20 11-1.31 1.11-2.63 2.22-4 3.37-8.33 8.5-13.12 20.48-13.18 32.25.17 15.04 4.14 27.09 14.54 38.05 5.7 5.02 12.24 9.48 19.64 11.33-.59 3.01-1.26 6.01-2 9l-2 1c-.12-6.75-.12-6.75 1-9-.88-.1-1.77-.2-2.69-.31-9.96-2.09-18.47-11.75-23.99-19.82-7.79-12.94-9.13-26.66-6.73-41.52 3.65-13.89 13.11-24.87 24.91-32.66 8.85-4.27 17.13-5.84 26.88-5.88"/><path fill="#692012" d="M206 7c-2 3-2 3-6.44 4.31C183.98 16.04 172.45 26.26 164 40c-7.03 14.06-8.47 30.5-4.87 45.81 6.27 17.34 17.07 28.62 32.49 38 1.12.72 2.23 1.45 3.38 2.19v2c-12.52-2.5-23.59-12.95-31-23-9.68-16.69-13.48-35.32-8.64-54.34C162.28 31.03 174.57 18.41 193 9c4.92-1.82 7.6-2 13-2"/><path fill="#cfc4c1" d="M216.688 18.938c1.08 0 2.17.01 3.28.01 2.68.02 5.36.03 8.03.05v1l-15 1 10 1-4 1v8l-3 1v-9c-13.67 1.37-25.36 5.85-35 16-9.51 12.84-11.1 24.12-10 40 3.24 11.48 9.83 19.69 19 27 4.31 2.38 4.31 2.38 8 4l4 2-2 3c-9.64-1.02-17.18-8.31-23.21-15.52-8.59-11.91-10.85-25-9.79-39.48 3.01-13.85 10.11-24.15 21-33 9.84-5.91 17.27-8.15 28.69-8.06"/><path fill="#afdeae" d="M167.75 203.875c1.91.02 3.83.04 5.8.05 1.47.03 2.94.05 4.45.07-.01 1.08-.02 2.15-.04 3.25 0 1.38-.01 2.77-.02 4.19-.01 1.38-.03 2.76-.04 4.19.1 3.37.1 3.37 1.1 4.37.07 2.19.08 4.38.06 6.57-.01 1.2-.02 2.39-.02 3.63-.02.92-.03 1.85-.04 2.8 3.37-.74 3.37-.74 7-2 .66-1.31 1.32-2.63 2-4 .97-1.44 1.94-2.88 2.94-4.37 2.32-3.51 4.3-6.82 6.06-10.63 2 2 2 2 3.37 6.07.54 1.3 1.08 2.6 1.63 3.93.66.17.66.17 4 1 .33-.65.66-1.31 1-2v3h-6v2c3.25-.12 3.25-.12 7-1 2.44-3.06 2.44-3.06 4-6 .16.5.16.5 1 3-3 5-3 5-6 7-6 0-6 0-11-3-.44.62-.44.62-2.69 3.76-4.92 6.31-4.92 6.31-8.31 8.24-4.06.5-4.06.5-8 0-4-4-4-4-4.5-7.21.14-8.7 1.23-16.38 3.5-24.79-11.62-.92-19.99.71-30.68 5.25-11.62 4.72-23.43 5.15-35.86 5.45-4.46.3-4.46.3-8.46 2.3-.99-.33-1.98-.65-3-1 5.66-3.39 8.31-3.38 14.81-3.5 24.54-.85 24.54-.85 30.19-6.5 3.32-.71 6.66-1.38 10-2 5.17-2.58 8.99-2.19 14.75-2.12"/><path fill="#6e1806" d="m124 175 3 2v5l-2 2h-3c1-4 1-4 2-6-10.75-1.91-21.21-3.16-32-1 .43.77.87 1.54 1.31 2.34.56 1 1.12 2 1.69 3.04.56.99 1.11 1.99 1.69 3.02C98 188 98 188 98 190l6-3 2 2-2 2 3 2c-7.62 1.12-7.62 1.12-11 0-1.61-2.71-2.94-5.5-4.3-8.34C90 182 90 182 85 179c-6.27-.52-8.49-.31-14 3-4.99 5.41-4.54 10.97-5 18l-2 1c-1.84-3.68-1.05-7.96-1-12l-4 3c-.25 5.19-.25 5.19 0 10l-4-1c-2.75-.22-5.5-.41-8.25-.56-1.45-.09-2.9-.17-4.39-.26L39 200c5.56-2.78 9.8-2.13 16-2v-6l1-4c-1.28-1.71-2.62-3.37-4-5l-1-4c1.09.97 2.19 1.94 3.31 2.94C58 185 58 185 61 186c4-2 4-2 6.25-4.94 4.74-5.28 10.05-6.12 16.87-6.62C90 174 90 174 92.89 172.99c10.02-3.2 21.33-1.05 31.11 2.01"/><path fill="#762311" d="M185 148c7.88.88 7.88.88 9 2 0 6 0 6-1 8l7-2v-6h1v5h2v-4h2v2c4.65 1.74 9.07 2.49 14 3-3.65 7.3-9.51 12-17 15h-3l1 3c-1.96.53-3.91 1.05-5.88 1.56-1.09.29-2.18.58-3.3.88C188 177 188 177 186 176c.72-.64 1.44-1.28 2.19-1.94.6-1.01 1.19-2.02 1.81-3.06q-1.365-4.545-3-9c2-4 2-4 4-7v-3c-.82-.33-.82-.33-5-2z"/><path fill="#e6f3e3" d="M183 122c3.69 1.66 7.38 3.31 11.09 4.93 2.91 2.07 2.91 2.07 3.76 5.74L198 136l1 1c1.92 6.71 1.97 12.1 1 19l-7 2v-8l-8-2c.33-2 .33-2 2-12-3.9-1.95-6.72-2.51-11-3l.06-5.44C176 122 176 122 175 121c-2.66-.37-5.33-.7-8-1v-1c7.08-1.31 10.03-.91 16 3m10 19 1 3Z"/><path fill="#6b1b0d" d="M187 162c2.57 2.57 2.54 4.48 3 8l5 1v1l-7 2v2l3-1q4.5-.06 9 0c.16.33.16.33 1 2-1.49.25-2.97.5-4.5.75-5.1 1.16-8.95 2.72-13.5 5.25l9 1v2c-.87.14-1.74.27-2.64.41-8.69 1.57-16.39 3.97-23.36 9.59v3c-.56.03-.56.03-3.38.19-4.53.79-7.68 2.32-11.7 4.47-11.29 5.18-23.48 6.49-35.73 6.4-.59 0-.59 0-3.55-.01-2.88-.01-5.76-.03-8.64-.05v-2c5-1 5-1 10.56-.81 24.91.14 47.06-10.22 65.25-26.63 5.08-5.67 7.56-10.97 8.19-18.56"/><path fill="#e3ebda" d="M28 135h1v6h2l1 6-8 4c.55 4.76 1.39 6.66 4 11 .19 3.81.19 3.81 0 7-.97.19-1.94.37-2.94.56C18.23 171.98 13.31 176.25 9 182c-1.73 4.87-2.24 9.1-2.2 14.25.01 1.33.02 2.66.02 4.03l.06 4.16c0 1.4.01 2.8.02 4.24.03 3.44.06 6.88.1 10.32H5c-3.87-11.93-6.31-28.04-1.12-39.88 4.7-6.2 9.52-11.25 17.24-13.12H24c-.41-.66-.41-.66-2.5-4-2.51-5.02-3.26-7.52-2.5-13 3-3 3-3 8-4l-.06-4.44C27 136 27 136 28 135"/><path fill="#d5542e" d="m28 150 4 1-3 1-1 4h3l3 3 3 1-2 7h2l2 7c4 1 4 1 7.81.75 5.2.31 7.36 1.81 11.19 5.25.16.66.16.66 1 4 .83-.16.83-.16 5-1 .1-.93.21-1.86.31-2.81 1.69-3.19 1.69-3.19 6.57-5 6-1.36 11.99-1.76 18.12-2.19l1-1h6c-6.17 3.09-11.08 3.56-17.98 4.21-5.45 1.07-8.71 3.09-12.08 7.48C64 186 64 186 59 187c-3.81-3.44-3.81-3.44-7-7 2.75 5.75 2.75 5.75 5 8-.57 3.35-1.24 6.69-2 10-3-1-3-1-5.62-4.94-2.48-5.27-3.14-9.29-3.38-15.06h-2v7c-9.17-7.37-11.98-12.44-14-24-1.29-1.7-2.61-3.38-4-5 1-5 1-5 2-6"/><path fill="#ecf4e6" d="M241 4c13.69 2.74 23.69 12.72 32.44 23.06 12.21 18.76 15.3 37.31 11.86 59.41-4.8 18.22-17.37 33.78-33.3 43.53h-2v-2c2.7-1.7 5.4-3.4 8.11-5.09 12.44-8.24 21.37-23.51 25.16-37.68C285.32 73.31 285.3 61.34 281 50c-1.67-5-3.33-10-5-15h-5c-2.01-2.4-4-4.81-5.88-7.32-2.95-3.73-6.47-6.65-10.12-9.68l-3-3h2l-2-4h-3V9l-4 1-1-4-3-1z"/><path fill="#5a2015" d="M215 36h5l.06 2.63c.1 3.92.2 7.83.32 11.75l.09 4.14.12 3.94.09 3.65C221 65 221 65 223 67l2 5c3.04 2.68 3.04 2.68 6.62 5.31 1.19.89 2.38 1.77 3.61 2.68.91.66 1.83 1.33 2.77 2.01l-1 5c-4.6-1.84-6.76-3.31-10.38-6.5-4.13-3.48-7.22-5.47-12.62-6.5l-2-2c.26-2.34.61-4.68 1-7 .13-2.26.22-4.51.28-6.77.04-1.24.08-2.48.11-3.75.08-2.59.15-5.19.22-7.78.29-9.6.29-9.6 1.39-10.7"/><path fill="#621b0f" d="m9 181 2 1c-.16.75-.32 1.51-.49 2.29-.69 5.04-.69 10.06-.7 15.15l-.03 3.06c-.02 5.52.37 10.29 2.22 15.5 3.6-5.4 3.28-10.91 3.56-17.25.09-1.82.17-3.64.26-5.52.06-1.39.12-2.79.18-4.23 2 2 2 2 3.19 7.62C21.6 209.66 26.05 220.06 33 229l2 1-1-5.06c-2.05-11.37-2.05-11.37 1-15.94 1.68 5.21 2.35 9.98 2.62 15.44.08 1.42.15 2.84.23 4.31.05 1.07.1 2.14.15 3.25-.83.16-.83.16-5 1-6.02-5.74-9.71-11.39-13-19v-3h-2c-.1 1.4-.21 2.81-.31 4.25C17 220 17 220 14 224l-4-1c-3.17-7.99-4.17-15.27-4.25-23.81-.03-1.72-.05-3.44-.08-5.21C6 189.05 7.02 185.5 9 181"/><path fill="#e5ecdd" d="m185 199-2 5c-.59 2.59-1.13 5.2-1.62 7.81-.27 1.35-.53 2.7-.79 4.08-.2 1.03-.39 2.05-.59 3.11h-3c-.12-10.5-.12-10.5 1-15-3.38.09-6.75.2-10.12.31l-5.7.18c-4.76.47-7.13 1.22-11.18 3.51-4.38.19-4.38.19-8 0l-1 3c-12.36 4.17-25.13 3.27-38 3l-1-2c1.23-.1 2.47-.2 3.74-.3 37.12-3.27 37.12-3.27 51.26-12.7 3.31-.12 6.63-.12 9.94-.06 5.39.09 12.15-1.58 17.06.06"/><path fill="#641e11" d="M234 7c.97.32 1.94.64 2.95.96C253.15 13.65 265.84 23.74 274 39c6.42 14.25 10 29.7 5 45h-3c.16-.8.32-1.6.48-2.43 2.66-18.38-.17-33.28-10.48-48.57-9.36-12.47-21-19.27-36-23l-4-1c-3.25-.23-6.5-.41-9.75-.56-.86-.04-.86-.04-5.23-.26-1.33-.06-2.65-.12-4.02-.18V6c8.67-2.17 18.54-1.86 27 1"/><path fill="#de5b28" d="M271 41c6.15 8.19 7.15 17.45 7.19 27.44.01 1.65.03 3.29.04 4.99-.2 4.02-.72 6.89-2.23 10.57h3l1-3c-.17.99-.17.99-1 6h-3l-1 3h-6c-1.02-4.09-1.11-7.4-1.1-11.61.01-1.48.01-2.95.01-4.47l.03-4.67c0-1.56.01-3.11.01-4.71.01-3.85.03-7.69.05-11.54h5c-.17-.83-.17-.83-1-5-.34-2.33-.68-4.66-1-7"/><path fill="#dc542f" d="M186 159c.33.16.33.16 2 1 .14 4.49-.01 7.78-2.91 11.36-18.34 16.86-44.1 27.81-69.09 27.64-1-1-1-1-1.1-3.72.03-3.1.07-6.19.1-9.28 1.63-.47 3.26-.95 4.94-1.44C125 183 125 183 126 182v-5c-7.18-2.46-13.75-4.07-21.31-4.56-1.26-.09-2.51-.17-3.8-.26-.96-.06-1.91-.12-2.89-.18l1-2c8.75-.1 17.28.25 26 1h2l2 5 2 4c-3.23 5.38-4.33 6.08-10 8h-3v7h4v2l4.5-.94c4.51-.87 8.94-1.55 13.5-2.06v-2c5-2 5-2 8-1l4-2h3c-.16-.5-.16-.5-1-3h5l3-3 4-1c3.77-1.26 5.22-3.16 8-6 1.22-1.01 2.43-2.02 3.69-3.06C181 170 181 170 183 166v2h2c-.16-1.32-.16-1.32-1-8z"/><path fill="#6b1c0f" d="M54 111h2v12H44c.21 1.77.41 3.55.62 5.38.13 1.85.25 3.71.38 5.62-3.13 3.13-6.73 2.63-11 3l1 5c.39 2.32.73 4.66 1 7-1.97 1.97-5.35 1.66-8 2l-1 5 1.81 2.12c2.19 2.88 2.19 2.88 3 8.13 1.44 6.97 3.62 9.44 8.19 14.75l2 4c-9.75-2.87-9.75-2.87-12-4l2-4-3-4c-5.19.25-5.19.25-10 1v-3c3-2 3-2 9-2-1.07-5.51-2.07-9.12-5-14l1-5c3.56-1.81 3.56-1.81 7-3l-1-12c4.48-1.71 6.98-2 12-2l-1-3q-.06-4.5 0-9h13z"/><path fill="#ed7f29" d="M218.375 8.563c17.65.13 29.61 5.65 42.79 17.39 1.83 2.05 1.83 2.05 1.83 5.05-1.03-1.08-2.06-2.15-3.12-3.25-4.98-4.82-9.2-7.85-15.88-9.75-.32.66-.65 1.32-1 2-5.77.18-10.51-.14-16-2v-3c-3.46.16-3.46.16-21 1-.33-1.32-.65-2.64-1-4 4.3-4.3 7.38-3.44 13.38-3.44"/><path fill="#c34d2c" d="M19 192c5 1 6.56 1.48 10 5 1.29 3.29 1.29 3.29 2.19 7.06.32 1.33.63 2.67.96 4.04 3.17 14.6 3.17 14.6 2.85 21.9-5.31-1.77-7.43-7.3-10-12-3.87-8.2-6.86-15.81-7-25z"/><path fill="#c74c29" d="M163 95h3l2 8 6-5c.67.8 1.33 1.59 2.02 2.41 6.82 7.84 12.96 13.25 22.98 16.59l-3 12c-.33-.16-.33-.16-2-1l-1-3c-1.3-.72-2.6-1.44-3.94-2.19-10.16-5.65-21.09-13.89-25.31-25.15-.25-.88-.5-1.75-.75-2.66"/><path fill="#c84d2f" d="M199 193c-1.16 12.78-6.2 27.29-16 36h-1c-.29-6.71.78-12.65 2.25-19.19.42-1.91.84-3.82 1.27-5.79 1.33-4.51 2.06-6.91 5.48-10.02 5-2 5-2 8-1"/><path fill="#e96623" d="m124 178-1 3c-2.64.73-5.28 1.46-7.94 2.11-4.69 1.36-8.73 3.64-13.06 5.89l-4 1c-6-9.62-6-9.62-6-13 10.16-4.06 21.77-2.41 32 1"/><path fill="#dd592c" d="m214 105-.06 5.88c-.01 5.76.38 11.39 1.06 17.12-1.38.41-2.76.82-4.19 1.25-4.19 1.53-6.61 2.76-9.81 5.75-1.83-1.83-1.26-4.6-1.31-7.06.08-8.86 3.33-14.5 9.31-20.94 3-2 3-2 5-2"/><path fill="#bc4731" d="M66 188h1l1.06 4.12c2.7 6.79 6.52 9.67 12.94 12.88 3.86.34 3.86.34 8.31.38.73.01.73.01 4.43.08 4.8-.52 7.36-1.66 11.26-4.46 3.44-4.75 3.44-4.75 6-9 .16.5.16.5 1 3-4.39 7.57-9.13 13.07-17 17-3.46.3-3.46.3-7.38.31-1.28.02-2.57.04-3.89.05-6.36-.62-9.16-2.76-13.54-7.36-4.69-5.88-4.29-9.59-4.19-17"/><path fill="#5c1a0e" d="M98 137c4.01 3.4 4.92 5.3 5.5 10.56-.49 4.38-1.2 7.14-4.5 10.44h-6c-4.51-4.51-4.87-5.24-5.31-11.38.31-4.62.31-4.62 1.93-7.68C92 137 92 137 98 137"/><path fill="#e56325" d="M43 123c3.54 3.54 3.93 8.25 5 13-.33.5-.33.5-2 3h-2l-1 5 4-4c-1.09 5.43-2.75 7.62-6 12-.7 1.28-1.4 2.56-2.12 3.88C37 159 37 159 34 160l-3-2v-2h-3l1-5 6-2c-.55-4.04-1.2-8-2-12 2.22-2.22 7.01-1.71 10-2 1.11-4.43.67-7.53 0-12"/><path fill="#e3ecdb" d="M33 199c22 1.17 22 1.17 31 8l3 1v2c-6 0-6 0-11-3v-2c-1.05.01-2.1.02-3.18.04-.68 0-.68 0-4.13.02-1.36.01-2.72.03-4.12.04C41 205 41 205 38 204l1 2c1.26 9.95 1.34 19.98 1 30l-1 1h-6c-.16-.5-.16-.5-1-3h5c.49-9.86-1.34-19.3-3-29-.33-2-.67-4-1-6"/><path fill="#a1eba5" d="M102.688 86.625c5.08.44 6.77 1.84 10.31 5.38.68-.66 1.36-1.32 2.07-2 3.75-2.56 5.46-2.78 9.93-2 3.94 3 3.94 3 7 6 1.32-.99 2.64-1.99 4-3 8.89-.89 8.89-.89 12.5 2 1.79 3.57 2.6 7.11 3.5 11 .66.32 1.32.65 2 1l-4-1a169 169 0 0 1-3-9c-2-2-2-2-5.69-2.44-5.93.6-9.17 3.3-13.31 7.44-.55-.99-1.11-1.99-1.69-3-.76-.99-1.52-1.99-2.31-3h-5l-2.56 2.56-2.44 2.44c-4-1-4-1-5.62-3.5-3.62-3.81-7.32-3.31-12.38-3.5 2.48-4.95 2.48-4.95 6.69-5.38m8.31 7.38c.33.65.66 1.31 1 2l2-1z"/><path fill="#ea7929" d="M161 111v12c.93-.08 1.85-.17 2.81-.25 1.2-.11 2.39-.21 3.63-.31 1.19-.11 2.39-.21 3.62-.32L174 122l1 1c-.09 2.19-.25 4.38-.44 6.56-.1 1.2-.2 2.4-.31 3.63-.08.93-.16 1.86-.25 2.81h10c.16.66.16.66 1 4l-2 3h-2v6c-.16.33-.16.33-1 2-4.33-2.17-5.18-3.36-7.62-7.38-.6-.95-1.19-1.91-1.79-2.89-1.28-2.2-2.45-4.46-3.59-6.73l4 1 2-11c-.97.1-.97.1-5.88.62-3.3.36-3.3.36-6.12.38-3.31-3.31-2.65-7.51-3-12l-5 2h-6c4.94-3.29 8.01-4 14-4"/><path fill="#ce4f2d" d="M12 181h3c2.39 5.97 2.1 10.97 1.81 17.25l-.09 3.32c-.28 6.64-1.27 12.17-3.72 18.43-4.61-4.61-4.28-11.27-4.32-17.45 0-1.01 0-2.01.01-3.05-.02-1.01-.03-2.01-.05-3.05-.01-5.86.6-10.26 3.36-15.45"/><path fill="#cf4f2c" d="m203 181 4 2c2.98 11.94 1.72 25.38-2 37h-2c-2.52-5.75-2.19-11.48-2.06-17.62.18-10.9.18-10.9-.94-15.38 1.44-3.25 1.44-3.25 3-6"/><path fill="#f1fbf0" d="M210.05 1.805c.67 0 .67 0 4.05.02 1.39.02 2.78.03 4.21.05l4.27.03c3.47.02 6.95.05 10.42.1v2c1.22-.11 2.43-.21 3.69-.32 5.21.38 5.89 1.62 9.31 5.32.53.08.53.08 3.19.5.92.16 1.85.33 2.81.5l2 5c-4.12-.83-7.2-1.81-11-3.44-15.55-6.65-31.62-7.79-48-2.56 4.08-6.81 7.59-7.26 15.05-7.2"/><path fill="#6b261c" d="M61 189h2c.14 1.63.29 3.26.44 4.94C64 199 64 199 65 200l2-2c.18.43.18.43 1.06 2.62 3.39 5.91 7.69 8.88 13.94 11.38 2.09.43 4.2.8 6.31 1.12 1.88.29 3.76.58 5.69.88-4.22 2.81-6.98 2.39-12 2-4.39-1.62-7.98-3.17-11.62-6.12C67.4 207.53 64.64 207 61 206c-1.05-.68-2.1-1.36-3.19-2.06-5.32-2.71-9.86-2.67-15.81-2.94v-1h16c-.06-1.26-.12-2.52-.19-3.81C58 192 58 192 61 189"/><path fill="#742611" d="m18 172 2 1c3.01-.28 6.01-.62 9-1l4 6-3 3 3.44.88c1.17.37 2.35.74 3.56 1.12l1 2H19l-1-4h-2l-1 2v-2h-3l-1 2-2-3z"/><path fill="#6d1c10" d="M199 185h2c.09 3.67.08 7.33 0 11l-2 2c-.16-.82-.16-.82-1-5-5.25 1.19-6.63 1.51-10 6-1 3.53-1.88 7.1-2.69 10.69-.43 1.9-.87 3.8-1.32 5.76-.89 5.01-1.18 9.48-.99 14.55h-2c-1.08-6.05-.52-10.11 1-16v-5.19c0-4.81 0-4.81 2-9.81-.84.16-1.68.32-2.55.48-3.58.54-7.02.72-10.64.77-.6.01-.6.01-3.67.08C164 200 164 200 161 197c1.18-.03 2.37-.05 3.59-.08 10.47-.37 18.55-1.01 27.41-6.92h4c-.16-.66-.16-.66-1-4 3 1 3 1 4 2z"/><path fill="#f0f1e9" d="M210 182h2c4.53 4.53 3.93 8.69 4.25 14.94-.11 9.14-1.39 18.35-5.5 26.56-2.75 2.5-2.75 2.5-6.56 2.94-1.05-.15-2.11-.29-3.19-.44v-2c.99-.16.99-.16 6-1 .12-.95.25-1.9.38-2.88.62-4.12.62-4.12 1.65-8.59 1.08-6.16 1.19-11.92 1.09-18.15 0-.55 0-.55-.02-3.34-.03-2.68-.06-5.36-.1-8.04"/><path fill="#cac0bd" d="M169 62h1c.03 1.11.05 2.22.08 3.37.56 14.86 4.1 26.52 15.3 36.94 4.14 3.3 7.8 5.57 12.62 7.69l4 2-2 3c-9.65-1.02-17.13-8.31-23.21-15.49-6.21-8.71-8.93-16.51-8.91-27.13-.01-1.73-.01-3.45-.01-5.23C168 63 168 63 169 62"/><path fill="#e6e6dc" d="M154 52c.01.89.01.89.08 5.41.26 12.42.56 23.82 4.92 35.59.68 2.33 1.35 4.66 2 7h-2l-1 4c-.82-1.89-1.63-3.79-2.44-5.69-.45-1.05-.9-2.11-1.37-3.2-1.95-5.1-2.3-9.71-2.19-15.11h-2V53c3-1 3-1 4-1"/><path fill="#ef771f" d="M202 6h5v2h19v1c-1.28.05-2.55.1-3.87.15-1.65.07-3.3.15-5.01.23-1.64.06-3.29.13-4.99.21C208 10 208 10 206 12l1 3h20v2l-3.98.18c-1.72.09-3.44.17-5.21.26l-5.17.24C208 18 208 18 203 19q-4.5.06-9 0l1-3c-5 1-5 1-9.19 3.62-1.26.79-2.51 1.57-3.81 2.38l-2-1c6.07-4.93 11.88-7.95 19-11l4-2z"/><path fill="#b6432f" d="M240 129c-.38 8.17-2.49 13.49-8.31 19.31-6.45 4.05-12.12 5.25-19.69 4.69l-4-2v-1c.87-.1 1.74-.2 2.63-.3 8.35-1.08 13.19-2.38 19.12-8.58 2.19-3.04 3.31-5.51 4.25-9.12l-4-1c6.62-2 6.62-2 10-2"/><path fill="#5f1309" d="M167 55h1c-.02 1.24-.05 2.49-.07 3.77-.2 18.03 1.67 32.47 14.43 45.9 5.69 5.03 12.23 9.48 19.64 11.33a183 183 0 0 1-2 9c-.33.16-.33.16-2 1-.12-6.75-.12-6.75 1-9-.89-.1-1.78-.2-2.69-.3-9.97-2.1-18.48-11.76-24-19.82-7.24-12.04-8.45-23.95-7.31-37.88z"/><path fill="#c64f2f" d="M196 188v2c-2.33 1.01-4.66 2.01-7 3-1.51.72-3.01 1.44-4.56 2.19-6.69 2.23-12.47 2.17-19.44 1.81 3.52-3.52 5.67-5.08 10-7.19 1.03-.51 2.06-1.02 3.12-1.54 6.32-2.79 11.67-3.38 17.88-.27"/><path fill="#8fe38d" d="m226 159 2 1c-5.29 5.68-9.97 9.48-17 13 .8 1.71 1.61 3.42 2.44 5.19 6.1 12.99 4.1 27.33.56 40.81h-1c.89-9.45.89-9.45 1.53-12.75.61-4.23.56-8.35.53-12.63-.01-1.61-.02-3.23-.02-4.89-.02-1.23-.03-2.46-.04-3.73l-3-1v-2h-2l-1 3c-.35-1.05-.7-2.1-1.06-3.19-2.28-4.48-4.8-6.08-8.94-8.81v-2l8-2v3c13.82-6.93 13.82-6.93 19-13"/><path fill="#ec6a14" d="m196 16-1 2 4 2c-.77.35-1.55.7-2.34 1.07-5.37 2.54-9.54 4.82-14.04 8.81C179 33 179 33 173 33l-4 3c3.84-9.61 11.67-14.8 20.3-19.88C192 15 192 15 196 16"/><path fill="#cb522f" d="M22 187c9.16-.39 15.67.05 24 4 3 5 3 5 3 7-11.55.37-18.42-1.38-27-9z"/><path fill="#2dd83b" d="M276 33c8.38 8.38 10.35 20.46 10.47 31.86l-.03 3.45-.03 3.61c-.37 20.17-8.48 34.25-21.85 48.83C254.42 130 254.42 130 250 130v-2c2.7-1.7 5.4-3.4 8.11-5.09 12.44-8.24 21.37-23.51 25.16-37.68 2.05-11.91 2.04-23.89-2.27-35.23-.71-2.08-1.42-4.17-2.12-6.25-.34-.97-.67-1.95-1.01-2.95C277 38 277 38 276 33"/><path fill="#732314" d="M158 83c2 4 2 4 4.12 9.56 5.91 14.2 15.79 22.86 28.88 30.44l4 3v2c-12.52-2.5-23.59-12.95-31-23-7.65-13.16-7.65-13.16-7-21z"/><path fill="#53ba56" d="M38 204c2.94.09 5.88.2 8.81.31 1.64.06 3.27.12 4.96.18C56 205 56 205 59 208l4 3c-4.76-.55-6.66-1.39-11-4-3.11-.51-3.11-.51-6.31-.69-1.88-.1-3.76-.2-5.69-.31.22.85.43 1.7.66 2.57 1.99 8.4 3.5 16.79 2.34 25.43-3 4-3 4-7.25 4.62-5.82-.76-7.76-2.4-11.75-6.62-2.44-3.38-2.44-3.38-4-6l-4 3c-3.75.19-3.75.19-7 0v-1c1.09-.27 2.19-.54 3.31-.81C16 226 16 226 19 223h2c1.71 2.49 3.42 4.98 5.05 7.52C28 233 28 233 33 236h6c.1-10.73.01-21.31-1-32"/><path fill="#d65a2d" d="M90 172h6c-6.17 3.09-11.08 3.56-17.98 4.21-5.45 1.07-8.71 3.09-12.08 7.48C64 186 64 186 59 187c-3.81-3.44-3.81-3.44-7-7 2.75 5.75 2.75 5.75 5 8l-1 4h-3c-3.27-5.07-4.58-8.98-5-15l-3-1c2.56-.81 2.56-.81 6-1 3.81 2.19 3.81 2.19 7 5l1 4 5-1c.1-.93.21-1.86.31-2.81 1.69-3.19 1.69-3.19 6.57-5 6-1.36 11.99-1.76 18.12-2.19z"/><path fill="#762d1c" d="M83 94c.83.17.83.17 5 1 .16.66.16.66 1 4-.83-.17-.83-.17-5-1l-1.94 5.44C80 109 80 109 79 110c-1.3.14-2.6.29-3.94.44C71 111 71 111 69 113c-3.12-.31-3.12-.31-7-1-2.67-.34-5.33-.67-8-1v10H42l1-2c7.75-.12 7.75-.12 10 1l-.12-4.88C53 110 53 110 55 108c3.6-.21 6.77-.04 10.31.62.89.13 1.78.25 2.69.38l2-2c2.32-.4 4.66-.74 7-1l1.88-4.88C81 96 81 96 83 94"/><path fill="#23ae2a" d="M167.75 203.875c1.91.02 3.83.04 5.8.05 1.47.03 2.94.05 4.45.07-.87 9.65-.87 9.65-2.06 12.88-1.85 6.17-1.49 12.91.06 19.12h-2c-4.22-8.44-.3-21.46 2-30-11.62-.92-19.99.71-30.68 5.25-11.62 4.72-23.43 5.15-35.86 5.45-4.46.3-4.46.3-8.46 2.3-.99-.33-1.98-.65-3-1 5.66-3.39 8.31-3.38 14.81-3.5 24.54-.85 24.54-.85 30.19-6.5 3.32-.71 6.66-1.38 10-2 5.17-2.58 8.99-2.19 14.75-2.12"/><path fill="#89d783" d="M37 118c1.96 3.91.44 8.77 0 13h3v-9h1l1 11-11 2-1 6h-1c-.16-.82-.16-.82-1-5l-.12 4.31c-.29 1.55-.58 3.1-.88 4.69-3 2-3 2-6 3-1 1-1 1-1.12 4.81C20 157 20 157 21 161c-3.56-3.56-3.83-5.06-4-10 3-5 3-5 8-7l-1-2c-.46-4.65-.66-7.09 2.12-10.94 3.11-2.22 5.11-2.8 8.88-3.06l-.12-3.31C35 121 35 121 37 118"/><path fill="#de552f" d="M67 186h1c.27 1.3.54 2.6.81 3.94.39 1.34.79 2.68 1.19 4.06l3 1c.47.97.95 1.94 1.44 2.94C76 201 76 201 80 203c4.25-.38 4.25-.38 8-1v3c4.28-.49 7.1-1.05 11-3l4-2c-.16-.82-.16-.82-1-5h-6v-2l3.19.12c4.94-.16 8.43-1.93 12.81-4.12-1.59 6.36-4.8 11.45-10.18 15.25C95.1 207.33 88.24 206.8 81 206c-6.2-2.77-10.92-6.83-14-13-.04-2.33-.04-4.67 0-7m37 8 1 2 1-2z"/><path fill="#551c11" d="M215 36h5l.06 2.63c.1 3.92.2 7.83.32 11.75l.09 4.14.12 3.94.09 3.65C221 65 221 65 223 67c.71 1.98 1.39 3.98 2 6-4.88 1.22-6.58.12-11-2l1-5 2-1 1-28h-2v28h-1z"/><path fill="#55160c" d="M136 134c5 1 5 1 8 5 .53 6.24.3 8.51-3 14-3.69.81-3.69.81-7 1l-3-4 2-2-2-5 3-3 1 2h6c-1.62-5.75-1.62-5.75-5-8"/><path fill="#69291e" d="M216.313 17.438c1.44.1 2.88.2 4.36.31 1.1.08 2.2.17 3.33.25v1c-1.23.02-2.47.03-3.74.05-14.35.41-24.19 2.54-35.26 11.95-1.32 1.12-2.64 2.23-4 3.38-5.69 5.75-8.69 13.36-12 20.62h-2l-1 3c.76-11.73 8.15-21.28 16.28-29.23 9.73-8.42 21.23-12.27 34.03-11.33"/><path fill="#1fdb30" d="M215.938-.375c1.31-.01 2.61-.02 3.96-.04 7.64.03 13.91.8 21.1 3.42v1h-8v-2c-34.18-1.26-34.18-1.26-47 6-1.07.6-2.15 1.2-3.26 1.82-12.42 7.67-20.33 17.75-27.74 30.18-.16-.5-.16-.5-1-3 9.49-17.59 23.85-28.1 41.93-35.65 6.75-1.8 13.06-1.79 20.01-1.73"/><path fill="#e86527" d="m181 143 2 1-1 6 9 1 1 4c-3 4-3 4-8 5l1 8h-2c-3.74-4.99-4.23-8.87-5-15l2-4c.38-1.99.73-3.99 1-6"/><path fill="#e8f0e2" d="M266 112v3h-3v2c-.33.17-.33.17-2 1l-2 5c-6.22 5-6.22 5-9 5v2h-3c-.12 1.44-.25 2.89-.38 4.38C246 139 246 139 244 141l-2-1c-.43-4.6-.38-8.57 1-13 3.01-2.69 6.03-4.36 9.62-6.21 3.15-1.67 5.46-3.38 8.07-5.79 3.31-3 3.31-3 5.31-3"/><path fill="#631d12" d="M267 76h1c-.17 10.93-4.79 20.84-12 29-7.75 7.23-16.92 14.77-28 15l-2-2c.89-.28 1.79-.56 2.71-.85 13.97-4.63 25.47-11.76 32.37-25.21 2.34-5.26 4.52-10.35 5.92-15.94"/><path fill="#50e159" d="M153 40c1 3 1 3-.39 7.3-1.9 6.74-2.17 12.87-2.3 19.82-.03 1.25-.07 2.49-.1 3.77-.08 3.04-.15 6.07-.21 9.11h2c.18 1.01.36 2.03.55 3.07.25 1.34.5 2.68.76 4.05.12.67.12.67.74 4.01.9 3.68 2.22 6.53 3.95 9.87v3l-4-1h2c-.76-1.61-1.53-3.22-2.31-4.88-7.15-15.98-9.29-34.32-3.66-51.21.92-2.33 1.93-4.63 2.97-6.91"/><path fill="#d15930" d="M196 194h1c1.31 13.07-4.29 23.62-12 34-.5.16-.5.16-3 1-.18-5.19.03-8.08 2-13 4-3 4-3 6-3v-2h2l.88-4a447 447 0 0 1 3.12-13"/><path fill="#dcedd8" d="M145 92c3.85 3.34 4.85 7.13 6 12h7l-1 2h-9l-1 2c-.47-1.63-.95-3.26-1.44-4.94C144 98 144 98 143 97c-5.93 0-6.71 1.27-11 5h-3c1-5 1-5 4.06-7.81 4.51-2.51 6.87-3.02 11.94-2.19"/><path fill="#d8632c" d="M223.313 131.375c.51.03.51.03 3.11.17 2.53.14 5.05.3 7.58.45-.73 6.51-3.32 9.4-8 14-6.33 4.22-11.47 4.72-19 4-4-4-4-4-5.07-7.37.07-3.63.07-3.63 2.19-6.94 5.89-5.5 11.7-4.79 19.19-4.31m-17.31 4.62c-2 3-2 3-2 8h2l1 4c6.75 1.13 6.75 1.13 9 0v-2c.86.25 1.73.5 2.62.76 4.44.32 6.06-.9 9.38-3.76.33-1.31.66-2.63 1-4 1.32-1.31 2.64-2.63 4-4v-2c-3.57-.08-7.13-.14-10.69-.18-1.01-.03-2.01-.05-3.05-.08-5.76-.06-8.19.22-13.26 3.26"/><path fill="#6a2517" d="M247 12c2.89 2.16 2.89 2.16 5 4l-2 2c-1.73-.93-3.47-1.86-5.25-2.81C232.38 9.08 220.62 8.41 207 8V6c13.8-3.45 27.4.16 40 6"/><path fill="#cf5132" d="m203 159 4 4c-1 3-1 3-4 4.69-4.53 1.48-8.26 1.53-13 1.31v-7c4.93-2.36 7.33-3 13-3"/><path fill="#9fcf9c" d="M197 212c2 2 2 2 3.38 6.06.53 1.3 1.07 2.6 1.62 3.94l4 1 1-2v3h-6v2c3.25-.12 3.25-.12 7-1 2.44-3.06 2.44-3.06 4-6l1 3c-3 5-3 5-6 7-6 0-6 0-10-3v-2l-4 3c-.44-6.3.5-9.75 4-15"/><path fill="#dfebd9" d="m185 199-2 5c-.59 2.59-1.13 5.2-1.62 7.81-.27 1.35-.53 2.7-.79 4.08-.2 1.03-.39 2.05-.59 3.11h-3c-.12-10.5-.12-10.5 1-15h-19v-1l18-1-13-1v-1c.96-.06 1.93-.12 2.92-.18 1.27-.09 2.53-.17 3.83-.26 1.25-.08 2.51-.16 3.8-.24 8.94-.82 8.94-.82 10.45-.32"/><path fill="#f48f5b" d="m81 156 3 2-1 5c-3.93 2.62-6.35 2.36-11 2l-4-3v-4c4.34-2.89 7.89-2.26 13-2"/><path fill="#f28151" d="M152.938 152.75c5.06.25 5.06.25 8.06 2.25l-1 5c-3.93 2.62-6.34 2.36-11 2l-4-3c1.46-5.83 1.81-5.94 7.94-6.25"/><path fill="#ef7a1a" d="M150 121c4 2 4 2 6.81 3.75 4.16 1.63 6.04.66 10.19-.75h6l-1 11c-5.06 0-6.88-2.08-10.68-5.19-2.32-1.81-2.32-1.81-6.26-4.06C152 124 152 124 150 121"/><path fill="#ed7a22" d="M44 122c10.62.62 10.62.62 14 4-2.86 3.81-5.88 7.4-9 11-3.3-3.3-3.8-7.58-5-12z"/><path fill="#fcf8f6" d="M52 107h2l-1 13-4.88-.12C43 120 43 120 41 122c-.08 3.33-.09 6.67 0 10h-9v-1h5l-.12-5.31C37 120 37 120 39 117h3v-2h9l-.06-3.44C51 108 51 108 52 107"/><path fill="#e6602c" d="M210 108h2c-.32 6.88-1.5 10.74-6 16l-2 1c-.41 2.32-.74 4.66-1 7h-2c-.57-14.32-.57-14.32 3-19l5-3z"/><path fill="#6b1602" d="m124 175 3 2v5l-2 2h-3c1-4 1-4 2-6-8.65-1.48-17.09-2.32-25.86-2.66-1.04-.11-2.07-.22-3.14-.34l-1-2c8.37-4.19 21.56-.64 30 2"/><path fill="#d6f8d7" d="M223 1v1c-1.37.04-2.75.07-4.16.11-1.81.07-3.61.13-5.46.2-1.79.06-3.58.12-5.42.18-7.17.74-9.89 2.44-14.96 7.51-8.83 6-8.83 6-12 6-.16-.82-.16-.82-1-5C194.46 1.65 205.89.42 223 1"/><path fill="#2cce36" d="m21 161 3 2v3c-1.13.35-2.27.7-3.44 1.06-7.28 3.1-12.3 6.57-16.06 13.63C-.12 193.97.46 209.06 6 222q1.47 3.015 3 6c-5.63-2.81-5.99-6.19-8-12-3.09-13.84-2.84-29.62 4.75-41.81 4.66-4.53 9.22-7.78 15.25-10.19z"/><path fill="#7d2813" d="M170 121h6c1 1 1 1 1.12 4.31C177 129 177 129 176 133c.53-.03.53-.03 3.19-.19C183 133 183 133 188 136c-.14.85-.29 1.69-.44 2.56-.57 3.48-1.07 6.95-1.56 10.44l-4 1c0-6 0-6 2-10v-3l-10-1c-1.02-4.63-.84-8.34 0-13z"/><path fill="#be472e" d="M217 118c4.91-.07 9.17.03 14 1h3l-1 3-4 2-2 5h-9l-1-8c1.16-.17 1.16-.17 7-1l-7-1z"/><path fill="#db6229" d="M99 170c8.75-.1 17.28.25 26 1h2l2 5 2 4c-3 5-3 5-5 6h-6c2-2 2-2 6-4v-5c-7.18-2.46-13.75-4.07-21.31-4.56-1.26-.09-2.51-.17-3.8-.26L98 172z"/><path fill="#6d2515" d="M211 102c5 1 5 1 8 5 .19 3.75.19 3.75 0 7l-4 1c-2.12-7.75-2.12-7.75-1-10-3.84 2.51-6.63 4.42-9.12 8.31-.31.45-.31.45-1.88 2.69h-5c3.84-5.43 7.54-10.13 13-14"/><path fill="#d3c7c4" d="M217 18.813c1.06.01 2.12.03 3.21.04 2.6.04 5.2.09 7.79.15v1l-15 1 10 1-4 1v8l-3 1v-9c-1.04.15-2.07.31-3.14.47-.68.1-.68.1-4.11.59-1.35.2-2.69.39-4.08.6-3.67.34-3.67.34-7.67-.66v-2c6.71-3.08 12.74-3.37 20-3.19"/><path fill="#67190d" d="M16 191c2.57 2.57 2.66 4.39 3.38 7.94 1.36 6.28 3.3 12.07 5.62 18.06l-3 1c-2-4-2-4-2-7h-2l-1 7h-2z"/><path fill="#5d1d10" d="m138 134 3 3v5h-8l-1 2 2 5-4 1c-1.66-3.31-1.21-6.36-1-10 3-7.5 3-7.5 9-6"/><path fill="#dffbe0" d="M84.438 90.688c4.56.31 4.56.31 8.56 2.31l1 4 5-5 2 1-5 8c-4-2-4-2-6.44-4.19-.84-.59-1.69-1.19-2.56-1.81-5.45 1.09-6.35 2.16-10 6h-2c2.41-9.81 2.41-9.81 9.44-10.31"/><path fill="#d4cfce" d="M231 20c4.39 1.28 7.91 2.9 12 5l-1 4c-3-1-5.99-2-8.97-3.04-7.78-2.58-14.84-3.6-23.03-3.96 5.92-3.95 14.14-2.59 21-2"/><path fill="#e4561a" d="M161 54h4v3h-2v21l-3 1c-1-4-1-4 0-7-.33-.85-.66-1.69-1-2.56-1.38-4.73-.76-8.62 0-13.44z"/><path fill="#7a3021" d="m110 200 1 4-4 4h-4v2h20v1c-.71.02-.71.02-4.31.11-1.88.07-3.76.13-5.69.2l-5.62.18c-5.08.48-8.67 1.73-13.38 3.51-4.19-.18-7.87-1.11-12-2v-1c.85-.01 1.69-.03 2.56-.04 11.27-.48 17.09-4.48 25.44-11.96"/><path fill="#e86f1c" d="M85 178c.83.5.83.5 5 3v3c-8.62.12-8.62.12-12-1-3 1-3 1-5 3l-5 1c3.41-8.51 8.1-9.88 17-9"/><path fill="#d0c7c4" d="M169 62h1c.03 1.11.05 2.22.08 3.37.51 13.34 3.88 22.43 10.92 33.63h-3v-2h-3c-.98-1.94-1.96-3.87-2.94-5.81-.54-1.08-1.09-2.16-1.65-3.27-2.59-5.36-2.54-9.6-2.53-15.54-.01-1.73-.01-3.45-.01-5.23C168 63 168 63 169 62"/><path fill="#b7482e" d="M16 177c7.7.39 14.2 2.46 21 6l1 2c-3.1.13-6.21.23-9.31.31l-5.24.18c-1.47-.16-2.94-.32-4.45-.49-3-5-3-5-3-8"/><path fill="#d55e2e" d="m124 178-1 3c-2.64.73-5.28 1.46-7.94 2.11-4.69 1.36-8.73 3.64-13.06 5.89l-4 1-6-11 4 1c1.75 3.06 1.75 3.06 3 6l9-3v-1l8-2v-2c2.86-1.43 4.93-.6 8 0"/><path fill="#721e0e" d="m207 163 3 4c-7.62 4-7.62 4-11 4l1 3c-1.96.53-3.91 1.05-5.88 1.56-1.09.29-2.18.58-3.3.88C188 177 188 177 186 176c1.25-2.81 1.25-2.81 4-6 3.02-1.08 5.98-1.75 9.12-2.36C202 167 202 167 206 165z"/><path fill="#ebeee3" d="M241 141c1 2 1 2 .56 5.19-2.16 5.28-4.88 7.58-9.56 10.81-5 .44-5 .44-9 0v-2c1.55-.7 3.09-1.4 4.69-2.12 4.59-2.29 7.29-4.66 10.31-8.88z"/><path fill="#713d30" d="M214 37h4v28l-3 1-1 2c-1.14-3.42-1.03-5.82-.88-9.42l.15-3.8c.05-1.31.11-2.62.17-3.97.05-1.32.1-2.64.16-4 .13-3.27.26-6.54.4-9.81"/><path fill="#76d678" d="M121 90c7.62.62 7.62.62 11 4l4-3c8.89-.89 8.89-.89 12.5 2 1.79 3.58 2.59 7.12 3.5 11l2 1-4-1a158 158 0 0 1-3-9c-2-2-2-2-5.69-2.44-5.93.6-9.18 3.31-13.31 7.44-.6-.95-1.2-1.9-1.81-2.88C124 94 124 94 121 92z"/><path fill="#d16034" d="M12 181h2c-.33 1.25-.65 2.49-.99 3.78-1.11 5.72-1.2 10.96-1.13 16.78.01 1.96.03 3.92.05 5.94.02 1.49.05 2.97.07 4.5h2v6l-2 2c-2.77-7.07-3.4-13.05-3.38-20.62 0-1.98-.01-3.95-.02-5.98.37-4.95 1.1-8.06 3.4-12.4"/><path fill="#b6472e" d="M202 177c-2 5-2 5-4 8l-4-1c-2.08-.07-4.17-.09-6.25-.06L182 184c5.74-5.74 12-7.58 20-7"/><path fill="#cf7338" d="M202 6h5v2h19v1c-1.28.05-2.55.1-3.87.15-1.65.07-3.3.15-5.01.23-1.64.06-3.29.13-4.99.21C208 10 208 10 206 12c-.71.11-.71.11-4.31.69-6.12 1.41-10.53 3.71-15.9 6.85C183 21 183 21 180 21c6.07-4.93 11.88-7.95 19-11l4-2z"/><path fill="#ed7a27" d="M98 135c2.81 1.62 2.81 1.62 5 4 .69 3.19.69 3.19 1 6l2 1 1 5h-2l1 3-3 2c-.03-.88-.05-1.76-.08-2.67-.05-1.16-.11-2.32-.17-3.52-.05-1.15-.09-2.29-.14-3.48-.72-3.93-1.63-5.67-4.61-8.33-6 0-6 0-8.31 2-2.08 3.69-2.41 6.81-2.69 11h-1c-.14-1.11-.29-2.23-.44-3.38C85 144 85 144 84 142h3v-4h3v-2c2-1 2-1 8-1"/><path fill="#69d96e" d="m247 130 3 1c-2.66 11.69-7.25 19.57-17 27l-5 1c.68-.54 1.36-1.07 2.06-1.62.97-.79 1.94-1.57 2.94-2.38 1.24-.93 2.47-1.86 3.75-2.81C240 149 240 149 241 145.25c0-3.25 0-3.25-1-5.25.61-2.02 1.27-4.02 2-6 1 4 1 4 0 6l3-1c1.19-4.56 1.19-4.56 2-9"/><path fill="#681604" d="M107 159c.83.33.83.33 5 2 5.64 1.88 9.51 1.19 15-1h3l-1 4c-5.32 2.66-9.1 2.39-15 2-4.69-2-4.69-2-8-4z"/><path fill="#6b1f12" d="M277 85c1.53 6.14-1.17 10.52-4 16-2.17 3.2-4.49 6.05-7 9l-3-2c1.07-1.48 2.14-2.97 3.25-4.5 3.04-4.33 5.51-8.69 7.75-13.5 2-4 2-4 3-5"/><path fill="#c14c32" d="M203 151h2v2c4.65 1.74 9.07 2.49 14 3-2 4-2 4-4 5-6 0-6 0-8.81-2.19C204 156 204 156 203 151"/><path fill="#6ae476" d="M276 33c8.74 8.74 10.18 20.42 10.19 32.19-.05 2.94-.11 5.87-.19 8.81h-1c-.04-.98-.07-1.96-.11-2.96-.38-7.56-1.11-13.94-3.89-21.04-.72-2.08-1.43-4.16-2.12-6.25-.17-.49-.17-.49-1.01-2.95C277 38 277 38 276 33"/><path fill="#6c2314" d="m173 22 3 3c-.59.62-1.18 1.23-1.79 1.87-5.02 5.37-8.89 10.5-12.21 17.13l-2-4c3.2-7.15 7.71-12.35 13-18"/><path fill="#91e797" d="M260 15c6.84 3.42 12.34 9.28 16 16v4h-5c-2.31-2.31-2.31-2.31-4-5v-3h2c-2.69-4.49-5.55-8.09-9-12"/><path fill="#601e16" d="M182 207h1c.16 3.93-.03 7.11-1 10.94-1.03 4.17-1.15 7.78-1 12.06h2v-2h2l2-4 2 1c-2 4-2 4-6 8h-4c-1.08-5.49-.74-9.78.38-15.25.13-.69.13-.69.83-4.2C181 210 181 210 182 207"/><path fill="#c34a2d" d="M203 181h1c.87 4.36 1.1 7.91 1.06 12.31-.01 1.26-.02 2.51-.02 3.8-.02.96-.03 1.91-.04 2.89l-3 1v13h-1c.01-.81.01-.81.04-4.89 0-2.12.01-4.24.02-6.36l.03-3.22c.01-4.37-.03-8.27-1.09-12.53 1.44-3.25 1.44-3.25 3-6"/><path fill="#f0f4eb" d="M180 122c3.84.96 6.74 2.27 10.25 4.06 1.08.55 2.16 1.1 3.27 1.66.82.42 1.64.85 2.48 1.28v7l-2-4c-3.04-1.48-3.04-1.48-6.62-2.75-1.19-.43-2.38-.86-3.61-1.3-.91-.31-1.83-.63-2.77-.95l-1 2-1-1c0-5 0-5 1-6"/><path fill="#cfeccb" d="M210 182h2c4.68 4.68 3.98 9.09 4.12 15.56-.09 4.01-.28 7.55-1.12 11.44h-1v-20h-2v15h-1z"/><path fill="#d45328" d="m189 115 9 3-2 11-2-1-1-3c-1.96-1.72-3.95-3.39-6-5 1-4 1-4 2-5"/><path fill="#f7f1ec" d="M38 201c10.72-.72 17.25-.4 26 6l3 1v2c-6 0-6 0-11-3v-2h-2v-2H38z"/><path fill="#e48230" d="M118 176v2l-26 1v-2c8.2-3.28 17.36-2.65 26-1"/><path fill="#efeee7" d="M25 162h3v7c-.99.23-1.98.45-3 .69-4.53 1.48-8.05 3.68-12 6.31 1-5 1-5 4-9 4.19-.75 4.19-.75 8-1z"/><path fill="#80ec85" d="M56.672 102.61c.67.02.67.02 4.08.14.68.02.68.02 4.11.11 1.03.05 2.07.09 3.14.14l-1 2c-3.66.41-7.33.75-11 1l4 2-6 1v-2c-.33.17-.33.17-2 1-.41 2.32-.75 4.66-1 7h-6l3-1c.08-1.07.16-2.14.25-3.25 1.05-5.28 2.97-7.56 8.42-8.14"/><path fill="#efede6" d="M234 5c3.34.21 6.68.55 10 1l2 3c.99.12 1.98.25 3 .38.5.1.5.1 3 .62l2 5c-4.16-.83-7.28-1.84-11.12-3.5-2.95-1.27-5.84-2.49-8.88-3.5z"/><path fill="#d26633" d="M19 192h2c.81 3.56 1.63 7.12 2.44 10.69.23 1 .46 2.01.69 3.05 1.01 4.41 1.98 8.82 2.87 13.26-6.66-6.66-8.73-16.84-9-26z"/><path fill="#f3ece8" d="m181 121-1 7c2.29 1.72 4.61 3.41 7 5h-11l.06-5.44C176 122 176 122 175 121c-2.66-.37-5.33-.7-8-1v-1c8.38-1.38 8.38-1.38 14 2"/><path fill="#6a2014" d="M197 121c3.54 4.73 3.47 7.2 4 13 .65 3 1.31 6.01 2 9v2l-4-1c-.14-1.13-.29-2.27-.44-3.44C198 137 198 137 197 136c-.71-5.42-1.08-9.61 0-15"/><path fill="#cd512c" d="M46 191c3 5 3 5 3 7-8.5.25-8.5.25-13-2l1-4c3.12-1.56 5.57-1.36 9-1"/><path fill="#71261a" d="M31 196c8.62.75 8.62.75 12 3-3.94.81-6 1-10 0 .35.85.7 1.69 1.06 2.56 1.06 3.89.72 6.52-.06 10.44h-2c-.5-2.15-.5-2.15-3-13h2z"/><path fill="#b7452e" d="M14 181c2.71 2.71 2.63 4.17 3 8-.09 3.79-.24 7.59-.44 11.38-.05 1.02-.1 2.04-.16 3.09-.12 2.51-.26 5.02-.4 7.53h-1c-.31-1.11-.62-2.23-.94-3.38C13 204 13 204 12 202c-.04-2.33-.04-4.67 0-7h1c1-9.5 1-9.5 1-14"/><path fill="#d9652e" d="m50 175 3 3h-3c.97 1.4 1.94 2.81 2.94 4.25C56 187 56 187 57 191l-3 2c-3.78-5.43-5.64-9.37-6-16l-3-1z"/><path fill="#7b3828" d="M58.25 107.75c3.62.24 6.39.94 9.75 2.25l-4 3c-5.25-.81-5.25-.81-10-2v10H42l1-2c7.75-.13 7.75-.13 10 1-.04-1.61-.08-3.22-.13-4.87.18-6.98.18-6.98 5.38-7.38"/><path fill="#6a1708" d="m200 142 1 3 4 2 4 4c1.97 1.06 3.96 2.07 6 3v1c-6 0-6 0-10-2v-2h-2v4h-2z"/><path fill="#defce1" d="M145 92v2c-.52.2-.52.2-3.12 1.19-3.92 1.83-6.6 4.05-9.88 6.81h-3c1-5 1-5 4.06-7.81 4.41-2.45 6.98-2.63 11.94-2.19"/><path fill="#d4e1ca" d="M117 211v1c-2.14.16-2.14.16-13 1l20 1v1c-.73.02-.73.02-4.42.15-1.9.07-3.81.15-5.77.23-.94.03-.94.03-5.73.21C103 216 103 216 98 218v-2l-3-2c6.96-4.08 14.21-3.27 22-3"/><path fill="#c4572e" d="M61 189h2l1 14c-4-1-4-1-6-3-.31-3.94-.31-3.94 0-8z"/><path fill="#eadfdb" d="M198 146h3l-1 10-7 2 1-9 4-1z"/><path fill="#7b2a19" d="m184 200 1 2h2c-.29 1.27-.58 2.53-.88 3.84-.37 1.68-.74 3.36-1.12 5.1l-1.12 5.02c-.84 4.8-1.04 9.18-.88 14.04h-2c-1.08-6.05-.52-10.11 1-16v-5.25c0-4.75 0-4.75 2-8.75"/><path fill="#ae442e" d="m32 169 12 9c.25 3.69.25 3.69 0 7-4.87-3.91-8.69-7.68-12-13z"/><path fill="#b7482c" d="m46 178 3 1c.68 2.66 1.34 5.33 2 8 .7 1.05 1.4 2.1 2.12 3.19C55 193 55 193 55 198c-3-1-3-1-5.62-4.94-2.48-5.27-3.14-9.29-3.38-15.06"/><path fill="#f2ede9" d="M222 4v1c-1.36.12-2.73.24-4.13.37-.9.08-.9.08-5.43.51-.89.08-.89.08-5.38.49-4.25.53-8 1.31-12.06 2.63 5.82-9.7 16.91-5.94 27-5"/><path fill="#e96425" d="M151 151h8v2l4 2v4c-3.78 3.78-5.65 4.93-11 6-4.31-2.44-4.31-2.44-8-5l1-3 4 4c4.67.43 7.05.63 11-2v-4l-9-3z"/><path fill="#f9fef9" d="M159 200c2.96.11 5.92.24 8.88.38 1.64.06 3.29.13 4.99.21C177 201 177 201 179 203l-4.16.15c-1.81.07-3.61.15-5.46.23-1.79.06-3.58.13-5.42.21-4.11.34-7.18.87-10.96 2.41v-3l6-1z"/><path fill="#742415" d="M31 134c4.02.18 8 .62 12 1v1c-1.48.16-1.48.16-9 1l1 5c.34 2.33.68 4.66 1 7l-5-1c-.19-2.15-.38-4.29-.56-6.44-.05-.59-.05-.59-.32-3.62L30 135z"/><path fill="#5d1108" d="M154 59h1l1.5 12.12c.14 1.15.29 2.29.43 3.47.14 1.1.27 2.21.41 3.36.13 1.01.26 2.03.38 3.07.28 2.98.28 5.99.28 8.98-4.4-6.61-4.23-13.78-4.12-21.5.01-1.78.03-3.57.05-5.41.02-1.35.05-2.7.07-4.09"/><path fill="#74382f" d="M42 200q3.06-.075 6.12-.12c.57-.02.57-.02 3.45-.08 5.13.3 8.86 1.92 13.43 4.2v-2h2l2 4-1 1c-6 0-6 0-9.62-2.44-5.73-3.35-9.8-3.34-16.38-3.56z"/><path fill="#6cca76" d="M181 127c8.62 2.75 8.62 2.75 12 5 1.84 5.26 3 9.41 3 15-.82-.33-.82-.33-5-2 .08-1.75.16-3.51.25-5.31-.04-.94-.04-.94-.25-5.69-3.56-2.67-5.85-3.77-10-5zm12 14 1 3Z"/><path fill="#bfaca8" d="m172 46 3 1c-.81 2.48-1.62 4.96-2.44 7.44-.45 1.38-.9 2.76-1.37 4.18C170 62 170 62 169 63c-.37 3.66-.7 7.33-1 11h-1c-.4-10.28.31-18.62 5-28"/><path fill="#fcfdf9" d="m129 211-1 2c-5.08 1.27-10.16 1.1-15.38 1.06-1.61-.01-3.23-.02-4.89-.02-.62-.01-.62-.01-3.73-.04l-1-2c8.69-.72 17.28-1.11 26-1"/><path fill="#58140e" d="M208 183c3.91 3.91 3.16 9.61 3.19 14.81-.03 5.71-.37 10.73-2.19 16.19h-1z"/><path fill="#66160c" d="M170 121h6c1 1 1 1 1.12 4.31C177 129 177 129 176 133l3.31-.12C183 133 183 133 186 135h-12c-.93-4.67-.81-7.41 0-12z"/><path fill="#e3e8dc" d="M155 84c2.96 4.44 6 10.58 6 16h-2l-1 4-5-12 2-1z"/><path fill="#ccbfbb" d="M243 26c4.42 2.38 7.4 4.4 11 8l1 4c-5.43-1.36-8.69-4.51-13-8z"/><path fill="#d26b2b" d="M217.438 14.875c.9.01.9.01 5.43.05 1.37.03 2.73.05 4.13.07v2c-1.28.07-2.56.13-3.87.19-1.69.08-3.38.17-5.13.25-1.67.08-3.34.16-5.06.25-4.35.28-8.62.72-12.94 1.31v-2c5.93-2.06 11.19-2.2 17.44-2.12"/><path fill="#dd672f" d="m203 159 2 4c-2.76 1.38-5.05 1.1-8.12 1.06L191 164l1-3c5-2 5-2 11-2"/><path fill="#cb552c" d="M277 59h1q.075 4.56.12 9.12c.03 1.7.05 3.39.08 5.14-.17 4.12-.63 6.98-2.2 10.74h3l1-3-1 6h-3l-2 3 .43-3.78c.61-5.59 1.13-11.18 1.63-16.78.18-1.96.36-3.92.54-5.94.13-1.49.26-2.97.4-4.5"/><path fill="#df6e35" d="M196 194h1c.53 9.12-.37 14.13-5 22h-2z"/><path fill="#e97e32" d="m206 111 2 1-1.94 4.94c-1.84 5.02-2.71 9.7-3.06 15.06h-2c-.56-13.94-.56-13.94 3-19z"/><path fill="#dcd3c9" d="M164 199v1h-5v2l-6 1v4l-6 1v-2l-5 2-4-1c1.81-.58 3.63-1.16 5.5-1.75 3.88-1.28 7.22-2.62 10.88-4.5C158 199 158 199 164 199"/><path fill="#dd522b" d="m226 143 2 1c-6.69 5.73-12.26 6.6-21 6l-4-4v-2h3l1 3c6.5 1.25 6.5 1.25 11-1l5-1z"/><path fill="#6e281f" d="M162 110h2v10h11v1c-4.81 1.92-8.84 2.18-14 2z"/><path fill="#f1f3e7" d="M117 90c4.25.19 4.25.19 8 1l-4 2c-1.16 1.05-2.31 2.1-3.5 3.19-1.16.93-2.31 1.85-3.5 2.81l-4-1-1-4 4 1c.5-.85.99-1.69 1.5-2.56z"/><path fill="#732f1f" d="m9 211 2 4c.33.5.33.5 2 3l2-3v3h2l-2 5-4 1c-3.33-5.55-3.13-6.92-2-13"/><path fill="#fbfdf9" d="M212 189h2c.08 3.27.14 6.54.19 9.81.03 1.82.07 3.65.1 5.52C214 209 214 209 211 212z"/><path fill="#c7e8c4" d="M64 207c5.31 1.06 7.77 2.76 12 6l-1 2c-8.62-.75-8.62-.75-12-3v-2h4v-2z"/><path fill="#de6c34" d="M204 181c3 2 3 2 4 6 .12 2.54.18 5.08.19 7.62.01 1.34.03 2.67.04 4.04C208 202 208 202 206 204c-.06-.91-.12-1.81-.18-2.75-.47-6.77-1.01-13.51-1.82-20.25"/><path fill="#da6623" d="M199 20c-.39.18-.39.18-2.34 1.07-6.87 3.25-12.18 6.66-17.66 11.93l-1-4 3-2 1-2h4l1-3c7.05-3.24 7.05-3.24 12-2"/><path fill="#cd5933" d="M207 202h1c-.86 12.86-.86 12.86-3 18h-2c-1.96-3.91-1.05-8.72-1-13h1v6h2c.14-1.44.29-2.89.44-4.38C206 204 206 204 207 202"/><path fill="#772f20" d="M184 195v2l-6 2v1c-2.27.08-4.54.14-6.81.19-.63.01-.63.01-3.83.1C164 200 164 200 161 197c1.26-.06 2.53-.12 3.83-.18 1.65-.09 3.29-.17 4.98-.26 1.64-.08 3.27-.16 4.96-.24 3.22-.24 6.08-1.32 9.23-1.32"/><path fill="#ea7921" d="M132 131h9v2c-1.44.23-2.89.45-4.38.69-1.52.43-3.05.86-4.62 1.31l-2 5h-2v6h-1v-12h4z"/><path fill="#70e678" d="M37 118c1.96 3.91.44 8.77 0 13l-11 2 1-3c5-2 5-2 8-2l-.12-3.31C35 121 35 121 37 118"/><path fill="#7e2510" d="M16 181h2l1 4 5-1 1 1c2.66.37 5.33.7 8 1v1H22l1 3c-.33.16-.33.16-2 1v-3l-4 1z"/><path fill="#f4830f" d="M101 109h18c-1 3-1 3-6 6l-3-1-1-3h-7z"/><path fill="#6c1e0d" d="m208 104 4 2c-.74.54-1.49 1.07-2.25 1.62C207 110 207 110 205 113.25c-.66.91-1.32 1.81-2 2.75h-5c3.16-4.31 6.21-8.21 10-12"/><path fill="#63da6e" d="M209 0c3.46-.08 6.92-.14 10.38-.19 1.92-.03 3.85-.07 5.83-.1C230.96 0 235.58 1.11 241 3v1h-8V2l-4.12.06C222.22 1.99 215.63 1.54 209 1z"/><path fill="#d7cdca" d="M169 62h1c.06 1.18.12 2.36.18 3.58.09 1.54.17 3.08.26 4.67.08 1.53.16 3.06.24 4.64C171 79 171 79 172 83h-3c-1-1-1-1-1.13-5.22 0-1.74 0-3.48.01-5.28-.01-.87-.01-.87-.01-5.28C168 63 168 63 169 62"/><path fill="#521c12" d="M213 66h1l1 5c.7.15.7.15 4.25.94 2.92.65 5.84 1.33 8.75 2.06l1 2c-5.42.19-9.88-.16-15-2l-2-2c0-5 0-5 1-6"/><path fill="#5bc561" d="M38 204c2.94.09 5.88.2 8.81.31 1.64.06 3.27.12 4.96.18C56 205 56 205 59 208l4 3c-4.76-.55-6.66-1.39-11-4-3.11-.51-3.11-.51-6.31-.69-1.88-.1-3.76-.2-5.69-.31l-1 4z"/><path fill="#7c1e0b" d="M111 188h2l1 3 2-3c-.46 5.35-1.31 9.33-4 14h-3c0-3 0-3 2-7 .08-2.33.09-4.67 0-7"/><path fill="#d7f6d8" d="m13 170 2 1c-1.19 3.44-1.19 3.44-3 7l-5 1-2 5H3c1.83-6.57 4.56-9.92 10-14"/><path fill="#d25223" d="M157 57h1c.13.99.27 1.97.4 2.99.18 1.28.36 2.56.54 3.89.17 1.27.35 2.55.52 3.86C160 71 160 71 161 73c-.25 3-.25 3-1 6l-3 2z"/><path fill="#d25630" d="M110 189h2c-1 4-1 4-4 9l-4-4-1 3-1-2h-6v-2c1.05.04 2.1.08 3.19.12 4.44-.14 7.59-.9 10.81-4.12"/><path fill="#d8622f" d="m92 179 4 1c1.75 3.06 1.75 3.06 3 6l3-1c2.33-.04 4.67-.04 7 0-7.5 5-7.5 5-11 5z"/><path fill="#eff7ed" d="M218 165v2c-8.75 5-8.75 5-11 5l-1 2c.25-2.81.25-2.81 1-6 4.42-3.32 5.72-3.3 11-3"/><path fill="#58e46c" d="M241 4c4.33.87 6.85 1.76 10.62 3.81.95.5 1.89 1.01 2.86 1.52C257 11 257 11 260 15l-4-2c-1.05-.33-2.1-.66-3.19-1C250 11 250 11 249 9l-4 1-1-4-3-1z"/><path fill="#6d1807" d="M199 185h2c.09 3.67.08 7.33 0 11l-2 2c-.16-.82-.16-.82-1-5-.82-.33-.82-.33-5-2l3-1-1-4c3 1 3 1 4 2z"/><path fill="#e5ebdd" d="M11 177c-2.75 8.62-2.75 8.62-5 12H2l1-5h2l.88-2.94C7.12 177.68 7.44 177 11 177"/><path fill="#7f240d" d="M92 173c.83.33.83.33 5 2-3 2-3 2-5 2l-1 2h-6l2-2-9-1v-1c3.06-.23 6.12-.46 9.18-.68C90 174 90 174 92 173"/><path fill="#33da45" d="m226 159 2 1c-5.33 5.72-10.05 9.26-17 13l-1 3-2-4c4.31-2.7 8.63-5.38 13-8 1.7-1.63 3.38-3.29 5-5"/><path fill="#76210a" d="M54 111h2v12H42v-2h12z"/><path fill="#edf6e7" d="M52 107h2l-1 13-2-1c-.04-3.67-.04-7.33 0-11zm-10 8h9l-3 3c-3.19-.31-3.19-.31-6-1z"/><path fill="#671e0f" d="M206 7c-3 4.5-6.92 4.62-12 6l-3 1v-4c5.43-1.97 9.14-3 15-3"/><path fill="#eae3db" d="M91 92c2 2 2 2 3 5l5-5 2 1-5 8c-3.9-1.95-6.04-3.87-9-7z"/><path fill="#762716" d="M173 40c1.52 6.09-1.28 9.44-4 15h-2l-1 3c.41-6.22 2.47-13.47 7-18"/><path fill="#7a210e" d="m170 188 2 4c-3.25 2.56-3.25 2.56-7 5l-4-1v-2q4.44-3.09 9-6"/><path fill="#ee9027" d="M142 99v2c-6.87 5.41-6.87 5.41-10 7l-5-1-1-4c.33.17.33.17 2 1v2c5-2 5-2 8.12-4.62C139 99 139 99 142 99"/><path fill="#fcfcf8" d="M3 200h2c.14 1.77.29 3.55.44 5.38C6 211 6 211 7 213v6H5c-2.35-6.45-2.15-12.22-2-19"/><path fill="#5e160d" d="M55 192h1l1 9-18-1c5.56-2.78 9.8-2.13 16-2z"/><path fill="#db7b35" d="m85 178 3 2-5.5.12c-6.32.49-9.76 2.59-14.5 6.88 3.43-8.56 8.07-9.78 17-9"/><path fill="#e8651d" d="M219 133v1h-6v2l-4 2c-1.38 1.97-2.72 3.97-4 6h-1c0-5 0-5 3-9 4.45-2.22 7.11-2.16 12-2"/><path fill="#f58a14" d="M90 111c3.67-.28 7.34-.61 11-1l-1 2c-2.4.45-4.82.78-7.25 1.06-4.32.51-8.48 1.09-12.75 1.94l-1-2c6.5-3.12 6.5-3.12 11-2"/><path fill="#f1ebe4" d="m180 12 2 1c-1.46 5.82-5.29 7.55-10 11l-1-4 3-3h4z"/><path fill="#dae6d1" d="M27 228c4 2 4 2 6 4l4 2c-4 2-4 2-8 1-2.25-2.56-2.25-2.56-4-5h2z"/><path fill="#692013" d="M207 208h1c1.17 6.07.86 9.51-2 15l-5-1-1-4c.82.5.82.5 5 3 .14-1.03.29-2.06.44-3.12.48-3.31 1-6.59 1.56-9.88"/><path fill="#cd652d" d="M185 186c4.6-.18 6.78-.11 11 2v2c-8.62.12-8.62.12-12-1z"/><path fill="#eee6e3" d="M187 140h3l2 8h-7c.88-5.75.88-5.75 2-8"/><path fill="#e4d9d4" d="M136 135c4 1 4 1 5 2v5h-6c0-6 0-6 1-7"/><path fill="#cd4f2b" d="M50 178h5c4 4 4 4 5 6l4 2-5 1c-3.69-3.44-3.69-3.44-7-7h-2z"/><path fill="#e4d9d4" d="M94 140h5l1 5-1 1h-5c-1-4-1-4 0-6"/><path fill="#eef5ea" d="M260 20c4.47.5 5.69.69 9 4v3l-3 1q-3.06-2.94-6-6z"/><path fill="#e6ebde" d="M190 225h2v5c-2.5 2.31-2.5 2.31-5 4v-2l-4 1 1-2h2l2-4z"/><path fill="#d7e5cf" d="M7 214h1c3.12 9.75 3.12 9.75 2 12l5 1v1H9c-3-4-3-4-2.69-9.25.23-1.57.46-3.13.69-4.75"/><path fill="#d06828" d="m174 122 1 1c-.04 2-.15 4-.31 6-.08 1.09-.16 2.19-.24 3.31-.15.89-.3 1.78-.45 2.69-.33.16-.33.16-2 1-.08-4.28.15-7.76 1-12h-11v-1c4.1-.64 7.83-1 12-1"/><path fill="#731f0c" d="M70 107c2.68.25 5.34.59 8 1l1 2c-1.28.12-2.56.25-3.88.38C71 111 71 111 69 113l-4-1 3-1z"/><path fill="#f1ede9" d="M180 207h1c.18 5.19-.03 8.08-2 13l-2-1c-.33-5.54-.01-6.98 3-12"/><path fill="#c64b28" d="m13 183 2 2c-.35 10.14-.35 10.14-4 15-.17-6.1-.01-11.22 2-17"/><path fill="#76220f" d="M227 150v3c-5.6 2.4-9.91 3.33-16 3 4.01-4.01 7.5-4.04 13-5z"/><path fill="#e38925" d="m120 96 4 1c1.25 3.06 1.25 3.06 2 6h-2l-1-4-5 1-1 4-3-1z"/><path fill="#6a2418" d="M167 74h1l.88 5.12c.8 4.2 1.62 7.92 3.12 11.88l-2 2c-2.86-6.94-4.71-11.45-3-19"/><path fill="#691304" d="M16 191c2.78 2.78 2.86 5.3 3.62 9.12.27 1.29.53 2.57.79 3.89.2.99.39 1.97.59 2.99h-2c-3.53-5.89-3.24-9.27-3-16"/><path fill="#b04b2f" d="M29 172c2.38 3 2.38 3 4 6-1.98-.5-1.98-.5-12-3v-2c2-1 2-1 8-1"/><path fill="#e1e7d8" d="M196 129h1c.14 1.13.29 2.27.44 3.44C198 136 198 136 199 137v5c-4-2-4-2-5.75-6.62-.41-1.45-.82-2.89-1.25-4.38l3 1z"/><path fill="#722e22" d="m262 109 4 1c-5.75 6.88-5.75 6.88-8 8l-1-4c2.19-2.81 2.19-2.81 5-5"/><path fill="#743024" d="M124 93c-1 3-1 3-6 6l-4 2-2-2c6.38-6 6.38-6 12-6"/><path fill="#7a2b1c" d="m207 163 3 4c-2.62 1.42-5.29 2.75-8 4l-3-1v-2c1.13-.45 2.27-.91 3.44-1.38C206 165 206 165 207 163"/><path fill="#e0702e" d="M128 140h1c.27 1.59.54 3.18.81 4.81C131 150 131 150 134 153l5 1v2c-4.32-.17-6.36-.35-9.44-3.5-1.94-4.36-1.85-7.78-1.56-12.5"/><path fill="#c2452e" d="m225 146 2 2-1 2c-3.7 1.23-6.79 1.1-10.69 1.06-1.36-.01-2.73-.02-4.13-.02-1.05-.02-2.1-.03-3.18-.04v-1c.89-.12 1.78-.24 2.7-.37.59-.08.59-.08 3.55-.51 1.16-.16 2.32-.32 3.52-.49C221 148 221 148 225 146"/><path fill="#651507" d="M88 142h2c2.12 9.5 2.12 9.5 1 14-3.27-5.45-3.28-7.83-3-14"/><path fill="#fbfef9" d="M39 122h1l1 10h-9v-1h5l-.12-3.38C37 124 37 124 39 122"/><path fill="#f3f8ed" d="M264 112h2v3h-3v2c-.33.17-.33.17-2 1l-2 5-3 2-1-3c1.45-1.67 2.91-3.34 4.38-5 .81-.93 1.62-1.86 2.46-2.81.71-.72 1.42-1.45 2.16-2.19"/><path fill="#701c0e" d="M278 66h1c.19 2.44.38 4.87.56 7.31.11 1.36.21 2.72.32 4.12C280 81 280 81 279 84h-3z"/><path fill="#671907" d="M130 138c2.62 3.93 3 7.32 3 12h-3c-1.62-3.23-1.11-6.45-1-10z"/><path fill="#fafef9" d="M283 67h1v14l-3 1c.14-2.31.29-4.63.44-6.94.08-1.29.16-2.57.24-3.9C282 68 282 68 283 67"/><path fill="#8dd68f" d="M68 214h12l-3 1v4c-5-1-5-1-9-5"/><path fill="#d65726" d="m129 176 2 4c-3 5-3 5-5 6h-6c2-2 2-2 6-4l2-4z"/><path fill="#dc6f2f" d="m194 117 4 1-2 11-2-1z"/><path fill="#dbfbdd" d="M267 111h2c-1.31 5.25-4.13 7.34-8 11l-1-4 3-1v-2h3z"/><path fill="#6b1704" d="m194 114 8 2a183 183 0 0 1-2 9c-.33.16-.33.16-2 1-.12-6.75-.12-6.75 1-9l-4-1z"/><path fill="#fbfdfa" d="M152 77h1c3.12 10.5 3.12 10.5 2 15l-2-1c-1.19-4.76-1.06-9.11-1-14"/><path fill="#dbe4cf" d="M185 9v2h5c-4 3-4 3-9 5-.16-.82-.16-.82-1-5 3-2 3-2 5-2"/><path fill="#6c2210" d="m14 175 2 1 1 5-2 2v-2h-3l-1 2-2-3z"/><path fill="#47d752" d="m21 161 3 2v3c-.6.21-.6.21-3.62 1.25-3.92 1.57-6.98 3.29-10.38 5.75 2.38-4.76 4.42-5.55 9-8l2-2z"/><path fill="#61180f" d="M185 148c7.88.88 7.88.88 9 2v6h-2l-1-4c-.82-.33-.82-.33-5-2z"/><path fill="#d6bfb8" d="m181 121-2 2-1 5h-1l-2-7-8-1v-1c8.38-1.38 8.38-1.38 14 2"/><path fill="#7a2309" d="M96 172c2.56-.03 5.12-.05 7.69-.06.71-.01.71-.01 4.32-.04 3.99.1 3.99.1 8.99 1.1-.33.5-.33.5-2 3l-4-1v-1l-15-1z"/><path fill="#f9fbf4" d="M28 135h1l1 12h-3c-.04-3.67-.04-7.33 0-11z"/><path fill="#d5612b" d="M34 136h8c-3 2-3 2-6 2l1 6c-.33.16-.33.16-2 1-2-4-2-4-1-9"/><path fill="#5f1c11" d="M183 108c4.89.98 7.13 2.01 11 5l1 3c-4.69-1.88-8.02-3.96-12-7z"/><path fill="#cf5f33" d="m214 105-1 12c-2-3-2-3-1.62-6.19.2-.93.41-1.85.62-2.81h-2l-1 3-3-1c5.75-5 5.75-5 8-5"/><path fill="#661a0d" d="M167 107h4c2.75 3.5 2.75 3.5 5 7l-3 1q-3.06-2.94-6-6z"/><path fill="#f6efea" d="m135 95 4 1c-6.62 6-6.62 6-10 6v-4h5z"/><path fill="#d05424" d="M163 57h3l-1 18h-1c-.77-6.05-1.1-11.91-1-18"/><path fill="#c9ddc1" d="M210 206h1l1 5 2-2c-.25 3.34-.59 6.68-1 10-.33.16-.33.16-2 1l1-7h-2l-1 2z"/><path fill="#f7f9f3" d="M78 101v5c-4 1-4 1-9-1l1-2c6.22-2 6.22-2 8-2"/><path fill="#d8edd4" d="M281 88c1.39 4.18-.18 6.13-2 10l-3-4 1-5c.66.17.66.17 4 1z"/><path fill="#60190a" d="m194 21 3 1c-3.57 2.67-7.12 4.83-11 7v-3c3.81-2.75 3.81-2.75 8-5"/><path fill="#d9e4d2" d="m200 221 6 2 1-2v3h-6v2h6v1h-7l-2-4h2z"/><path fill="#f2fdf1" d="M56 206c6 0 6 0 11 2v2c-6 0-6 0-11-3z"/><path fill="#7d2616" d="m66 198 2 3c1.99 2.67 3.99 5.34 6 8-4-1-4-1-7-5v-2h-2v2l-2-1z"/><path fill="#df6f3a" d="M22 187h10l1 2-10 1z"/><path fill="#d05c2b" d="m184 150 7 1 1 4-4 4v-6l-4-2z"/><path fill="#52d25e" d="M193 138h2l1 9c-.82-.33-.82-.33-5-2 .88-5.88.88-5.88 2-7m0 3 1 3Z"/><path fill="#9d4a37" d="M217 118c4.91-.07 9.17.03 14 1h3l-1 3c-5.36-.85-10.68-1.92-16-3z"/><path fill="#f1fdf0" d="M159 200h5v2c-3.68 1.63-7.09 3.02-11 4v-3l6-1z"/><path fill="#c84c2f" d="m114 196 2 2c3.04.2 3.04.2 6.62.12 1.19-.01 2.38-.03 3.61-.05.91-.02 1.83-.05 2.77-.07v1c-.53.07-.53.07-3.19.44-4.04.59-7.93 1.27-11.81 2.56z"/><path fill="#b1482c" d="m46 193 3 3v2c-8.5.25-8.5.25-13-2h10z"/><path fill="#78200b" d="m192 190 4 2c-2.62 1.74-5.3 3.38-8 5v-2l-3-1c3.25-2.12 3.25-2.12 7-4"/><path fill="#dc6e35" d="M16 177c8.75.75 8.75.75 11 3H16z"/><path fill="#de7333" d="m207 133 4 1-4 2c-2 3-2 3-3 8l-2-1c.48-5.27.96-5.96 5-10"/><path fill="#862a14" d="M201 191h1c.08 5.46-.08 10.62-1 16h-1l-2-10 2-1z"/><path fill="#a1e8a8" d="m211 176 3 3v6l-2-1v-2h-2l-1 3c0-5 0-5 2-7z"/><path fill="#7e240c" d="M24 175c5 1 5 1 7 2l-1 3-8-2 2-1z"/><path fill="#ce562a" d="m186 159 2 1-1 9h-2l-1-9z"/><path fill="#dc6d27" d="M43 123c3.28 3.28 3.77 7.62 5 12l-2 2c-1.74-4.65-2.49-9.07-3-14"/><path fill="#822919" d="M185 122c4.62.52 6.1 1.07 10 4v2l-5-1-1-3z"/><path fill="#f27f19" d="m75 116 3 1-3 6-2-1v-2l-3-1z"/><path fill="#c6b8b7" d="M232 112h10c-3.08 3.08-6.91 3.71-11 5z"/><path fill="#6d3225" d="M216 104c3 3 3 3 3.19 6.69L219 114h-3z"/><path fill="#f8fdf7" d="M54 105c8.5-.25 8.5-.25 13 2-5.04 1.01-8.24.97-13-1z"/><path fill="#b0563b" d="m276 79 1 3-1 2h3l1-3-1 6h-3l-2 3c.88-8.75.88-8.75 2-11"/><path fill="#ccbfbc" d="m177 38 2 4-5 5-1-3c1.94-3.19 1.94-3.19 4-6"/><path fill="#d0cdcc" d="m187 30 3 1c-2.28 2.02-4.56 4.04-6.84 6.05-1.42 1.28-2.81 2.6-4.16 3.95l-1-3c5.75-5 5.75-5 8-5z"/><path fill="#5c140e" d="M146 204c-2.52 2.52-4.58 3.06-8 4h-5c7.62-5.08 7.62-5.08 13-4"/><path fill="#ad482f" d="M58 192h1v7h5v4c-4-1-4-1-6-3-.08-2.67-.09-5.33 0-8"/><path fill="#6d1503" d="m90 178 5 5-1 3c-4.88-4.75-4.88-4.75-6-7z"/><path fill="#da6f32" d="M194 177h8l-1 3h-7z"/><path fill="#65241b" d="M198 174c5.38 1.08 6.48 2.08 10 6l-1 2c-3.34-2.5-6.1-5.02-9-8"/><path fill="#e45725" d="M179 158h2c4 6.62 4 6.62 4 10h-2c-2.93-3.9-3.48-5.38-4-10"/><path fill="#b5472b" d="M254 105c0 3 0 3-2.69 6.69L248 115h-5c.7-.54 1.4-1.07 2.12-1.62 3.17-2.62 6.01-5.45 8.88-8.38"/><path fill="#863720" d="m147 108 1 2 5 1v2l-6 1c-1-4-1-4 0-6"/><path fill="#f7f9f2" d="M81 92h10l-1 2c-3.38.63-6.56 1-10 1z"/><path fill="#d8f2d5" d="M253 11c6.88 3.75 6.88 3.75 8 6h-8l-1-2h2z"/><path fill="#d36933" d="M203 151h2v2l3 1v4h-3c-2-3-2-3-2-7"/><path fill="#fafdf9" d="M244 130h2l-1 11-3-1z"/><path fill="#dd502b" d="M231 132h3c-.37 5.35-2 7.51-6 11 1-5 1-5 4-8l1-2z"/><path fill="#d0c4c3" d="M227 113h5l-1 4c-2 1-2 1-8 1l2-2h4v-2z"/><path fill="#592318" d="M172 68h8l-1 3h-7z"/><path fill="#e0d3ce" d="M278 50h4l-1 11h-1z"/><path fill="#cfcdcb" d="M245 29c4.53 2.27 7.19 4.79 10 9-4.57-1.14-6.62-2.78-10-6z"/><path fill="#562216" d="M216 24h3v7l-3 1z"/><path fill="#d8c2bc" d="M18 211h2l2 7-5 1z"/><path fill="#89270f" d="M111 188h2l1 3 2-3-1 8-3-1z"/><path fill="#d76a36" d="M12 181h2c-1.75 8.75-1.75 8.75-4 11-.18-4.6-.11-6.78 2-11"/><path fill="#712818" d="m202 110 4 1-3 5h-5z"/><path fill="#721c0b" d="M144 100c2.95 2.95 2.61 5.96 3 10-.33.16-.33.16-2 1-1.25-3.76-1.06-7.06-1-11"/><path fill="#f2fbee" d="M10 224h7l-1 3h-6z"/><path fill="#c4532e" d="m182 221 3 1 1 4-3 3h-1z"/><path fill="#dcedd9" d="m179 203 1 2h2v5h-3l-2 2c.49-3.12 1-6 2-9"/><path fill="#1abf26" d="M38 204c2.31.16 2.31.16 14 1v1H40l-1 4z"/><path fill="#ca552c" d="M105.75 184.75c1.07.08 2.14.16 3.25.25-2.62 1.74-5.3 3.38-8 5l-3-1c4-4 4-4 7.75-4.25"/><path fill="#e98128" d="M76 180h13l1 4c-.83-.33-.83-.33-5-2-2.99-.39-5.99-.73-9-1z"/><path fill="#e96326" d="m78 171 4 1c2.33.35 4.66.69 7 1v1l-15 1z"/><path fill="#aa462f" d="M188 173h8c-2.9 2.9-6.08 3.11-10 4z"/><path fill="#8b310f" d="M197 121c3 4 3 4 3 10l-1-2h-3z"/><path fill="#cfcecd" d="m241 108 2 1-1 3-7 1-1-2c2.3-1.07 4.64-2.06 7-3"/><path fill="#6d1907" d="m109 97 6 4-1 2-4-1-2-4z"/><path fill="#55241b" d="M255 68h7v3h-7z"/><path fill="#5d1308" d="M156 50c2.81 4.22 1.71 7.12 1 12-2.36-4.72-1.85-6.91-1-12"/><path fill="#e0e4d7" d="M154 48h2l-1 8-2-3h-2l1-4 1 1z"/><path fill="#4f150d" d="m28 226 4 1 2 5 3 1c-5-1-5-1-9-5z"/><path fill="#ecf4e7" d="M38 117c.83.33.83.33 5 2l-5 5c-1-4-1-4 0-7"/><path fill="#fcfcf9" d="m169 115 2 2 5 1v1h-11z"/><path fill="#edf2e6" d="M278 93c.12 3.38.12 3.38 0 7l-2 2-1-8c2-1 2-1 3-1"/><path fill="#b1ecae" d="M128 91c3 2 3 2 4 6l-4 3c-.17-.83-.17-.83-1-5l2-1z"/><path fill="#cb552d" d="M166 82c2.38 3.57 3.05 6.85 4 11l-4-3c-.25-4.19-.25-4.19 0-8"/><path fill="#da662c" d="M271 41c4 5.33 4 5.33 4 12-2.69-4.03-4-7.13-4-12"/><path fill="#66180f" d="M99 209h4l-1 3-4 2-3-1z"/><path fill="#ce6330" d="m196 192 3 1-1 8-3-4z"/><path fill="#bb4a2b" d="M185 190h7l-4 4-3-1z"/><path fill="#60190c" d="M220 154h5l-5 6-2-2z"/><path fill="#631305" d="M101 147h2c-.25 2.68-.59 5.34-1 8-.33.16-.33.16-2 1z"/><path fill="#e2d0c9" d="m30 141 2 3-1 4-6 1 1-3c.66.16.66.16 4 1z"/><path fill="#e68d2a" d="m102 95 4 1 1 2-5 1-1 2h-2c2-5 2-5 3-6"/><path fill="#6c1c0c" d="M277 85c1 4 1 4-1 9l-2-4c2-4 2-4 3-5"/><path fill="#61291e" d="M226 78h2v2h8c-2 2-2 2-7 3l-3-3z"/><path fill="#6e291b" d="M229 18c5 1 5 1 9 3-4.41 1.1-5.89.59-10-1z"/><path fill="#cbf9cb" d="m178 12 2 1-2 4c-3.12.75-3.12.75-6 1z"/><path fill="#ea883b" d="M208 10c-2 2-2 2-5.62 2.12L199 12v-2c5-1 5-1 9 0"/><path fill="#f4f5ef" d="m15 169 3 1-1 4-4 2c1-5 1-5 2-7"/><path fill="#f68952" d="m71 156 2 1c-2 5-2 5-3 7l-2-2v-4z"/><path fill="#d67133" d="M200 121h1v11h2l-1 3-2-1z"/><path fill="#752c1a" d="m105 92 5 5h-4l-3-3h2z"/><path fill="#5e1407" d="M249 29c4.59 1.15 5.34 2.29 8 6-4.59-1.15-5.34-2.29-8-6"/><path fill="#712c1f" d="m173 22 3 3-4 3-2-3z"/><path fill="#db6b25" d="M238 20h7v4c-5-2-5-2-7-4"/><path fill="#f7fef7" d="m209 223-1 3h-7v-2c5.75-1 5.75-1 8-1"/><path fill="#702618" d="m14 215 1 3h2l-2 5-2-1z"/><path fill="#7dc77f" d="M143 208h6v2l-7 1z"/><path fill="#721e0f" d="M65 191h1v9c-.33.16-.33.16-2 1-.16-.82-.16-.82-1-5h2z"/><path fill="#da7533" d="M124 178v2h-6l-2-2c2.86-1.43 4.93-.6 8 0"/><path fill="#e2572e" d="m50 175 3 3h-3l-1 2-1-3-3-1z"/><path fill="#660f02" d="m116 174 7 1-1 2-7-1z"/><path fill="#7e2209" d="M204 158c.82.33.82.33 5 2l-1 3-4-2z"/><path fill="#d1f0d1" d="m222 156 8 1-5 4-3-3z"/><path fill="#d87027" d="M94 135c.99.16.99.16 6 1l1 4-3-2-5-1z"/><path fill="#f9fbf5" d="M180 122h2l1 3-3 4-1-1c0-5 0-5 1-6"/><path fill="#5d150d" d="m235 117-4 3-5-1c5.57-3.71 5.57-3.71 9-2"/><path fill="#47df52" d="M276 33c3 3 3 3 5 6l-1 3v-2h-2c-2-3-2-3-2-7"/><path fill="#f5f5f0" d="M164 27h2l-1 6h-3l-1-2 1-2h2z"/><path fill="#702a1c" d="m195 9 1 3-5 2v-4c2-1 2-1 4-1"/></svg>